<?xml version="1.0" encoding="utf-8"?>
<!-- Generator: Adobe Illustrator 19.2.0, SVG Export Plug-In . SVG Version: 6.00 Build 0)  -->
<svg version="1.1" id="Layer_1" xmlns="http://www.w3.org/2000/svg" xmlns:xlink="http://www.w3.org/1999/xlink" x="0px" y="0px"
	 viewBox="0 0 200.5 200.3" style="enable-background:new 0 0 200.5 200.3;" xml:space="preserve">
<style type="text/css">
	.st0{fill:#FF0008;}
	.st1{fill:#FFFFFF;}
	.st2{fill:#FF0000;stroke:#FF0000;stroke-width:2;stroke-miterlimit:10;}
	.st3{fill:#FFFFFF;stroke:#FFFFFF;stroke-width:2;stroke-miterlimit:10;}
</style>
<rect class="st0" width="200" height="100"/>
<rect y="100" class="st1" width="199.5" height="100"/>
<g>
	<path class="st2" d="M22.5,169.6c3,1.7,7.6,3.3,12.4,3.3c6,0,9.3-2.8,9.3-7c0-3.9-2.6-6.2-9.1-8.5c-8.4-3-13.8-7.5-13.8-14.9
		c0-8.4,7-14.7,18.1-14.7c5.5,0,9.7,1.2,12.3,2.6l-2.3,7.5c-1.8-1-5.4-2.4-10.2-2.4c-5.9,0-8.5,3.2-8.5,6.2c0,4,3,5.8,9.8,8.4
		c8.9,3.3,13.2,7.8,13.2,15.2c0,8.2-6.2,15.4-19.5,15.4c-5.4,0-11-1.5-13.8-3.2L22.5,169.6z M52,114.5l-11.5,9.1H33l8.7-9.1H52z"/>
	<path class="st2" d="M73.6,129.2c-0.3,10.9-0.5,27.4-0.5,49.3v1.5c-1.7,0.1-4.3,0.2-7.8,0.2l-2-0.2c0-1,0-1.7,0-2.2
		c0-0.1,0.1-8.5,0.2-25.3c0.2-10.1,0.1-18.5-0.2-25.2c1.8-0.7,3.8-1,6-1l4.4,0.1v2.8H73.6z"/>
	<path class="st2" d="M112.1,180h-10.5c-8.5-17-15.2-34.5-19.9-52.3l9.4-1.9c4.4,18.5,9.7,33.3,15.7,44.3
		c6.1-11,11.3-25.8,15.7-44.3l9.4,1.9C127.4,145.5,120.6,162.9,112.1,180z"/>
	<path class="st2" d="M169.9,180.8c-0.7-4.3-1.7-8.7-2.9-13.3h-25.8c-1.2,4.6-2.1,9-2.8,13.3l-10.3-1.6c0.7-3.4,1.7-7.2,3.2-11.6
		c-0.4,0-1.3-0.1-2.7-0.2l0.2-8.3h5.1c1.6-4.5,3.9-9.8,6.9-16c2.7-5.4,5.4-10.7,8.1-16.2l10.3-0.5c2.8,5.7,5.6,11.4,8.4,17.1
		c3.2,6.8,5.6,12.7,7.2,17.7c0.9,2.8,1.8,5.6,2.8,8.4c1.1,3.5,1.9,6.7,2.5,9.7L169.9,180.8z M154.2,137.3c-3.6,6.1-7,13.3-10.2,21.7
		c7.3,0.2,14.1,0.2,20.3,0.2c-2-5-3.5-8.6-4.6-10.8C157.8,143.9,155.9,140.3,154.2,137.3z"/>
</g>
<g>
	<path class="st3" d="M23.8,72.3c3,1.7,7.6,3.3,12.4,3.3c6,0,9.3-2.8,9.3-7c0-3.9-2.6-6.2-9.1-8.5c-8.4-3-13.8-7.5-13.8-14.9
		c0-8.4,7-14.7,18.1-14.7c5.5,0,9.7,1.2,12.3,2.6l-2.3,7.5c-1.8-1-5.4-2.4-10.2-2.4c-5.9,0-8.5,3.2-8.5,6.2c0,4,3,5.8,9.8,8.4
		C50.7,56.1,55,60.6,55,68c0,8.2-6.2,15.4-19.5,15.4c-5.4,0-11-1.5-13.8-3.2L23.8,72.3z M53.4,17.3l-11.5,9.1h-7.6l8.7-9.1H53.4z"/>
	<path class="st3" d="M74.9,31.9c-0.4,11-0.5,27.4-0.5,49.4v1.5c-1.7,0.1-4.3,0.2-7.8,0.2l-2-0.2c0-1,0-1.7,0-2.2
		c0-0.1,0.1-8.5,0.2-25.3c0.2-10.1,0.1-18.5-0.2-25.2c1.8-0.7,3.8-1,6-1l4.4,0.1v2.7H74.9z"/>
	<path class="st3" d="M113.5,82.7H103c-8.5-17-15.2-34.5-19.9-52.3l9.4-1.9c4.4,18.5,9.7,33.3,15.7,44.3c6.1-11,11.3-25.8,15.7-44.3
		l9.4,1.9C128.7,48.3,122,65.7,113.5,82.7z"/>
	<path class="st3" d="M171.2,83.5c-0.7-4.3-1.7-8.7-2.9-13.3h-25.8c-1.2,4.6-2.1,9-2.8,13.3l-10.3-1.6c0.7-3.4,1.7-7.2,3.2-11.6
		c-0.4,0-1.3-0.1-2.7-0.2l0.2-8.3h5.1c1.6-4.5,3.9-9.8,6.9-16c2.7-5.4,5.4-10.7,8.1-16.2l10.3-0.5c2.8,5.7,5.6,11.4,8.4,17.1
		c3.2,6.8,5.6,12.7,7.2,17.7c0.9,2.8,1.8,5.6,2.8,8.4c1.1,3.5,1.9,6.7,2.5,9.7L171.2,83.5z M155.6,40c-3.6,6.1-7,13.3-10.2,21.7
		c7.3,0.2,14.1,0.2,20.3,0.2c-2-5-3.5-8.6-4.6-10.8C159.1,46.7,157.2,43,155.6,40z"/>
</g>
</svg>
