<?xml version="1.0" encoding="UTF-8"?>
<svg width="100px" height="100px" viewBox="0 0 100 100" version="1.1" xmlns="http://www.w3.org/2000/svg" xmlns:xlink="http://www.w3.org/1999/xlink">
    <!-- Generator: Sketch 61.1 (89650) - https://sketch.com -->
    <title>0</title>
    <desc>Created with Sketch.</desc>
    <g id="0" stroke="none" stroke-width="1" fill="none" fill-rule="evenodd">
        <path d="M57.7456,50.6832 L57.7456,49.3008 L43,49.3008 L43,50.6832 L57.7456,50.6832 Z M50.0848,55.5936 C50.7376,55.6992 51.3232,55.56 51.8416,55.176 C52.4176,54.7344 52.7488,54.2016 52.8352,53.5776 C52.9216,52.9536 52.7728,52.3728 52.3888,51.8352 C51.9856,51.2592 51.4528,50.9184 50.7904,50.8128 C50.128,50.7072 49.528,50.8464 48.9904,51.2304 C48.7024,51.4416 48.4768,51.6816 48.3136,51.9504 C48.1504,52.2192 48.04,52.5024 47.9824,52.8 C47.9248,53.0976 47.9296,53.3952 47.9968,53.6928 C48.064,53.9904 48.1936,54.264 48.3856,54.5136 C48.8656,55.128 49.432,55.488 50.0848,55.5936 Z M51.4384,54.4848 C51.0736,54.7728 50.656,54.8832 50.1856,54.816 C49.7152,54.7488 49.3456,54.5328 49.0768,54.168 C48.808,53.784 48.6976,53.3616 48.7456,52.9008 C48.7936,52.44 49.0096,52.0464 49.3936,51.72 C49.7584,51.4128 50.176,51.3024 50.6464,51.3888 C51.1168,51.4752 51.4672,51.7392 51.6976,52.1808 C52.024,52.5264 52.168,52.9296 52.1296,53.3904 C52.0912,53.8512 51.8608,54.216 51.4384,54.4848 Z" id="≥" fill="#FFFFFF" fill-rule="nonzero"></path>
    </g>
</svg>