<?xml version="1.0" encoding="UTF-8"?>
<svg width="100px" height="100px" viewBox="0 0 100 100" version="1.1" xmlns="http://www.w3.org/2000/svg" xmlns:xlink="http://www.w3.org/1999/xlink">
    <!-- Generator: Sketch 61.1 (89650) - https://sketch.com -->
    <title>a</title>
    <desc>Created with Sketch.</desc>
    <g id="a" stroke="none" stroke-width="1" fill="none" fill-rule="evenodd">
        <path d="M41.9456,74.1616 L41.9456,62.44 C43.0208,62.8048 44.1728,63.1216 45.4016,63.3904 C46.4576,63.64 47.6816,63.8608 49.0736,64.0528 C50.4656,64.2448 51.9488,64.3408 53.5232,64.3408 C54.6368,64.3408 55.76,64.288 56.8928,64.1824 C58.0256,64.0768 59.1104,63.8848 60.1472,63.6064 C61.184,63.328 62.1488,62.9488 63.0416,62.4688 C63.9344,61.9888 64.7168,61.384 65.3888,60.6544 C66.0608,59.9248 66.584,59.056 66.9584,58.048 C67.3328,57.04 67.52,55.8544 67.52,54.4912 C67.52,53.0512 67.2752,51.7984 66.7856,50.7328 C66.296,49.6672 65.6912,48.76 64.9712,48.0112 C64.2512,47.2624 63.464,46.648 62.6096,46.168 C61.7552,45.688 60.968,45.304 60.248,45.016 C59.528,44.728 58.9232,44.5216 58.4336,44.3968 C57.944,44.272 57.6992,44.1808 57.6992,44.1232 L57.6992,44.1232 L57.6992,25 L38,25 L38,26.44 L53.696,26.44 L53.696,44.7568 C53.696,44.8336 53.9408,44.9344 54.4304,45.0592 C54.92,45.184 55.5248,45.376 56.2448,45.6352 C56.9648,45.8944 57.752,46.24 58.6064,46.672 C59.4608,47.104 60.248,47.6704 60.968,48.3712 C61.688,49.072 62.2928,49.9216 62.7824,50.92 C63.272,51.9184 63.5168,53.1088 63.5168,54.4912 C63.5168,55.9696 63.2576,57.2416 62.7392,58.3072 C62.2208,59.3728 61.5152,60.2464 60.6224,60.928 C59.7296,61.6096 58.688,62.1136 57.4976,62.44 C56.3072,62.7664 55.04,62.9296 53.696,62.9296 C51.7568,62.9296 50.0528,62.7568 48.584,62.4112 C47.1152,62.0656 45.8816,61.672 44.8832,61.2304 C43.712,60.7312 42.704,60.1552 41.8592,59.5024 L41.8592,59.5024 L38,59.5024 L38,74.0752 L41.9456,74.1616 Z" id="=" fill="#FFFFFF" fill-rule="nonzero"></path>
    </g>
</svg>