<?xml version="1.0" encoding="UTF-8"?>
<svg width="100px" height="100px" viewBox="0 0 100 100" version="1.1" xmlns="http://www.w3.org/2000/svg" xmlns:xlink="http://www.w3.org/1999/xlink">
    <!-- Generator: Sketch 61.1 (89650) - https://sketch.com -->
    <title>am</title>
    <desc>Created with Sketch.</desc>
    <g id="am" stroke="none" stroke-width="1" fill="none" fill-rule="evenodd">
        <path d="M54.6992,27.432 L54.707264,27.635904 C54.728768,27.903168 54.79328,28.152 54.9008,28.3824 C55.016,28.6896 55.184,28.9536 55.4048,29.1744 C55.6256,29.3952 55.88,29.5632 56.168,29.6784 C56.456,29.8128 56.7632,29.88 57.0896,29.88 C57.4352,29.88 57.7616,29.8128 58.0688,29.6784 C58.3568,29.544 58.616,29.3616 58.8464,29.1312 C59.0576,28.9008 59.2304,28.632 59.3648,28.3248 C59.48,28.0368 59.5376,27.7296 59.5376,27.4032 C59.5376,26.7312 59.3072,26.1648 58.8464,25.704 C58.3664,25.2432 57.7808,25.0128 57.0896,25.0128 C56.7632,25.0128 56.456,25.08 56.168,25.2144 C55.88,25.3488 55.6304,25.5216 55.4192,25.7328 C55.1888,25.9632 55.016,26.2224 54.9008,26.5104 C54.7664,26.8176 54.6992,27.1248 54.6992,27.432 L54.6992,27.432 Z M57.0896,29.1888 C56.648,29.1888 56.2544,29.016 55.9088,28.6704 C55.544,28.344 55.3616,27.9312 55.3616,27.432 C55.3616,26.9904 55.544,26.5776 55.9088,26.1936 C56.2544,25.8288 56.648,25.6464 57.0896,25.6464 C57.5888,25.6464 58.0064,25.8336 58.3424,26.208 C58.6784,26.5824 58.8464,26.9904 58.8464,27.432 C58.8464,27.9312 58.6832,28.344 58.3568,28.6704 C58.0112,29.016 57.5888,29.1888 57.0896,29.1888 Z M54.6992,27.432 L54.6992,23.6592 L35,23.6592 L35,25.0992 L50.696,25.0992 L50.696,43.416 C50.696,43.4928 50.9456,43.5888 51.4448,43.704 C51.9248,43.8384 52.5296,44.0304 53.2592,44.28 C53.9696,44.5488 54.7568,44.8944 55.6208,45.3168 C56.4656,45.7584 57.248,46.3296 57.968,47.0304 C58.688,47.7312 59.2976,48.5808 59.7968,49.5792 C60.2768,50.5776 60.5168,51.768 60.5168,53.1504 C60.5168,54.6288 60.2576,55.896 59.7392,56.952 C59.2208,58.0272 58.52,58.9008 57.6368,59.5728 C56.7344,60.264 55.688,60.7728 54.4976,61.0992 C53.3072,61.4256 52.04,61.5888 50.696,61.5888 C48.7568,61.5888 47.0576,61.416 45.5984,61.0704 C44.12,60.7248 42.8816,60.3312 41.8832,59.8896 C40.712,59.3904 39.704,58.8144 38.8592,58.1616 L38.8592,58.1616 L35,58.1616 L35,72.7344 L38.9456,72.8208 L38.9456,61.0992 C40.0208,61.464 41.1728,61.7808 42.4016,62.0496 C43.4576,62.2992 44.6864,62.52 46.088,62.712 C47.4704,62.904 48.9488,63 50.5232,63 C51.6368,63 52.76,62.9472 53.8928,62.8416 C55.0256,62.736 56.1104,62.5392 57.1472,62.2512 C58.184,61.9824 59.1536,61.608 60.056,61.128 C60.9392,60.648 61.7168,60.0432 62.3888,59.3136 C63.0608,58.584 63.5888,57.7104 63.9728,56.6928 C64.3376,55.6944 64.52,54.5136 64.52,53.1504 C64.52,51.7104 64.28,50.4528 63.8,49.3776 C63.3008,48.3216 62.696,47.4192 61.9856,46.6704 C61.256,45.9216 60.4688,45.3072 59.624,44.8272 C58.76,44.3472 57.9728,43.9632 57.2624,43.6752 C56.5328,43.3872 55.928,43.176 55.448,43.0416 C54.9488,42.9264 54.6992,42.84 54.6992,42.7824 L54.6992,42.7824 L54.6992,27.432 L54.6992,27.432 Z" id="f" fill="#FFFFFF" fill-rule="nonzero"></path>
    </g>
</svg>