<?xml version="1.0" encoding="UTF-8"?>
<svg width="100px" height="100px" viewBox="0 0 100 100" version="1.1" xmlns="http://www.w3.org/2000/svg" xmlns:xlink="http://www.w3.org/1999/xlink">
    <!-- Generator: Sketch 61.1 (89650) - https://sketch.com -->
    <title>ay</title>
    <desc>Created with Sketch.</desc>
    <g id="ay" stroke="none" stroke-width="1" fill="none" fill-rule="evenodd">
        <path d="M74.0464,56.344 L74.0464,54.8176 L51.5536,54.8176 L51.5536,45.6592 L25,45.6592 L25,47.0992 L47.464,47.0992 L47.464,56.344 L74.0464,56.344 Z M37.4704,53.7808 C37.816,53.7808 38.1328,53.7136 38.4208,53.5792 C38.7088,53.4448 38.9632,53.2624 39.184,53.032 C39.4048,52.8016 39.5776,52.5376 39.7024,52.24 C39.8272,51.9424 39.8896,51.6304 39.8896,51.304 C39.8896,50.632 39.6544,50.056 39.184,49.576 C38.7136,49.096 38.1424,48.856 37.4704,48.856 C37.1248,48.856 36.7984,48.9232 36.4912,49.0576 C36.184,49.192 35.92,49.3696 35.6992,49.5904 C35.4784,49.8112 35.3008,50.0704 35.1664,50.368 C35.032,50.6656 34.9648,50.9872 34.9648,51.3328 C34.9648,52.024 35.2096,52.6048 35.6992,53.0752 C36.1888,53.5456 36.7792,53.7808 37.4704,53.7808 Z" id="·" fill="#FFFFFF" fill-rule="nonzero"></path>
    </g>
</svg>