<?xml version="1.0" encoding="UTF-8"?>
<svg width="100px" height="100px" viewBox="0 0 100 100" version="1.1" xmlns="http://www.w3.org/2000/svg" xmlns:xlink="http://www.w3.org/1999/xlink">
    <!-- Generator: Sketch 61.1 (89650) - https://sketch.com -->
    <title>baf</title>
    <desc>Created with Sketch.</desc>
    <g id="baf" stroke="none" stroke-width="1" fill="none" fill-rule="evenodd">
        <path d="M49.5152,65.3408 C50.7056,65.3408 51.9056,65.288 53.1152,65.1824 C54.3248,65.0768 55.4864,64.8848 56.6,64.6064 C57.7136,64.328 58.7504,63.9536 59.7104,63.4832 C60.6704,63.0128 61.5104,62.4176 62.2304,61.6976 C62.9504,60.9776 63.5168,60.1184 63.9296,59.12 C64.3424,58.1216 64.5488,56.9504 64.5488,55.6064 C64.5488,54.1856 64.304,52.952 63.8144,51.9056 C63.3248,50.8592 62.72,49.9664 62,49.2272 C61.28,48.488 60.4928,47.888 59.6384,47.4272 C58.784,46.9664 57.9968,46.5968 57.2768,46.3184 C56.5568,46.04 55.952,45.8384 55.4624,45.7136 C54.9728,45.5888 54.728,45.4976 54.728,45.44 L54.728,45.44 L54.728,26 L35.0288,26 L35.0288,27.44 L50.7248,27.44 L50.7248,45.6128 C50.7248,45.6896 50.9696,45.7856 51.4592,45.9008 C51.9488,46.016 52.5536,46.2032 53.2736,46.4624 C53.9936,46.7216 54.7808,47.072 55.6352,47.5136 C56.4896,47.9552 57.2768,48.536 57.9968,49.256 C58.7168,49.976 59.3216,50.8544 59.8112,51.8912 C60.3008,52.928 60.5456,54.1664 60.5456,55.6064 C60.5456,57.392 60.2096,58.832 59.5376,59.9264 C58.8656,61.0208 58.0016,61.8608 56.9456,62.4464 C55.8896,63.032 54.704,63.4256 53.3888,63.6272 C52.0736,63.8288 50.7824,63.9296 49.5152,63.9296 C48.2864,63.9296 47.0432,63.8 45.7856,63.5408 C44.528,63.2816 43.3856,62.8544 42.3584,62.2592 C41.3312,61.664 40.496,60.8768 39.8528,59.8976 C39.2096,58.9184 38.888,57.7184 38.888,56.2976 C38.888,55.6256 38.9792,55.0208 39.1616,54.4832 C39.344,53.9456 39.5744,53.4704 39.8528,53.0576 C40.1312,52.6448 40.4288,52.2896 40.7456,51.992 C41.0624,51.6944 41.3552,51.4544 41.624,51.272 C41.8928,51.0896 42.1184,50.96 42.3008,50.8832 C42.4832,50.8064 42.5744,50.7776 42.5744,50.7968 C42.6512,50.6624 42.5168,50.576 42.1712,50.5376 C41.8256,50.4992 41.3744,50.5328 40.8176,50.6384 C40.2608,50.744 39.6416,50.9264 38.96,51.1856 C38.2784,51.4448 37.6448,51.8048 37.0592,52.2656 C36.4736,52.7264 35.984,53.288 35.5904,53.9504 C35.1968,54.6128 35,55.3952 35,56.2976 C35,57.6224 35.2688,58.8368 35.8064,59.9408 C36.344,61.0448 37.1936,62 38.3552,62.8064 C39.5168,63.6128 41.0192,64.2368 42.8624,64.6784 C44.7056,65.12 46.9232,65.3408 49.5152,65.3408 Z M49.832,58.2272 C50.1584,58.2272 50.4704,58.1552 50.768,58.0112 C51.0656,57.8672 51.3296,57.68 51.56,57.4496 C51.7904,57.2192 51.9728,56.9552 52.1072,56.6576 C52.2416,56.36 52.3088,56.048 52.3088,55.7216 C52.3088,55.376 52.2416,55.0544 52.1072,54.7568 C51.9728,54.4592 51.7904,54.2 51.56,53.9792 C51.3296,53.7584 51.0656,53.5856 50.768,53.4608 C50.4704,53.336 50.1584,53.2736 49.832,53.2736 C49.5056,53.2736 49.1888,53.3408 48.8816,53.4752 C48.5744,53.6096 48.3056,53.792 48.0752,54.0224 C47.8448,54.2528 47.6624,54.5168 47.528,54.8144 C47.3936,55.112 47.3264,55.4336 47.3264,55.7792 C47.3264,56.4512 47.576,57.0272 48.0752,57.5072 C48.5744,57.9872 49.16,58.2272 49.832,58.2272 Z M47.96,73.4912 C48.536,73.4912 49.0736,73.2992 49.5728,72.9152 C50.072,72.5312 50.504,72.0752 50.8688,71.5472 C51.2336,71.0192 51.5168,70.4672 51.7184,69.8912 C51.92,69.3152 52.0208,68.8256 52.0208,68.4224 C52.0208,68.0384 51.9008,67.76 51.6608,67.5872 C51.4208,67.4144 51.1328,67.3136 50.7968,67.2848 C50.4608,67.256 50.1104,67.28 49.7456,67.3568 C49.3808,67.4336 49.0688,67.5248 48.8096,67.6304 C48.5504,67.736 48.3776,67.8368 48.2912,67.9328 C48.2048,68.0288 48.2768,68.0768 48.5072,68.0768 C48.6608,68.0768 48.8624,68.048 49.112,67.9904 C49.3616,67.9328 49.6016,67.904 49.832,67.904 C50.0624,67.904 50.264,67.9664 50.4368,68.0912 C50.6096,68.216 50.696,68.4512 50.696,68.7968 C50.696,69.488 50.5328,70.1168 50.2064,70.6832 C49.88,71.2496 49.5344,71.744 49.1696,72.1664 C48.8048,72.5888 48.4832,72.9152 48.2048,73.1456 C47.9264,73.376 47.8448,73.4912 47.96,73.4912 Z" id="©" fill="#FFFFFF" fill-rule="nonzero"></path>
    </g>
</svg>