<?xml version="1.0" encoding="UTF-8"?>
<svg width="100px" height="100px" viewBox="0 0 100 100" version="1.1" xmlns="http://www.w3.org/2000/svg" xmlns:xlink="http://www.w3.org/1999/xlink">
    <!-- Generator: Sketch 61.1 (89650) - https://sketch.com -->
    <title>bam</title>
    <desc>Created with Sketch.</desc>
    <g id="bam" stroke="none" stroke-width="1" fill="none" fill-rule="evenodd">
        <path d="M54.728,33.7728 L54.736064,33.976704 C54.757568,34.243968 54.82208,34.4928 54.9296,34.7232 C55.0448,35.0304 55.2128,35.2944 55.4336,35.5152 C55.6544,35.736 55.9088,35.904 56.1968,36.0192 C56.4848,36.1536 56.792,36.2208 57.1184,36.2208 C57.464,36.2208 57.7904,36.1536 58.0976,36.0192 C58.3856,35.8848 58.6448,35.7024 58.8752,35.472 C59.0864,35.2416 59.2592,34.9728 59.3936,34.6656 C59.5088,34.3776 59.5664,34.0704 59.5664,33.744 C59.5664,33.072 59.336,32.5056 58.8752,32.0448 C58.3952,31.584 57.8096,31.3536 57.1184,31.3536 C56.792,31.3536 56.4848,31.4208 56.1968,31.5552 C55.9088,31.6896 55.6592,31.8624 55.448,32.0736 C55.2176,32.304 55.0448,32.5632 54.9296,32.8512 C54.7952,33.1584 54.728,33.4656 54.728,33.7728 L54.728,33.7728 Z M57.1184,35.5296 C56.6768,35.5296 56.2832,35.3568 55.9376,35.0112 C55.5728,34.6848 55.3904,34.272 55.3904,33.7728 C55.3904,33.3312 55.5728,32.9184 55.9376,32.5344 C56.2832,32.1696 56.6768,31.9872 57.1184,31.9872 C57.6176,31.9872 58.0352,32.1744 58.3712,32.5488 C58.7072,32.9232 58.8752,33.3312 58.8752,33.7728 C58.8752,34.272 58.712,34.6848 58.3856,35.0112 C58.04,35.3568 57.6176,35.5296 57.1184,35.5296 Z M50.0048,61.7952 C50.3312,61.7952 50.6384,61.728 50.9264,61.5936 C51.1952,61.4592 51.4352,61.2768 51.6464,61.0464 C51.8576,60.8352 52.0304,60.576 52.1648,60.2688 C52.28,59.9808 52.3376,59.664 52.3376,59.3184 C52.3376,58.9728 52.28,58.6464 52.1648,58.3392 C52.0304,58.0512 51.8576,57.792 51.6464,57.5616 C51.4352,57.3504 51.1952,57.1776 50.9264,57.0432 C50.6384,56.928 50.3312,56.8704 50.0048,56.8704 C49.6592,56.8704 49.3424,56.9376 49.0544,57.072 C48.7472,57.2064 48.4784,57.3888 48.248,57.6192 C48.0176,57.8496 47.8352,58.1088 47.7008,58.3968 C47.5664,58.704 47.4992,59.0208 47.4992,59.3472 C47.4992,59.6928 47.5664,60.0096 47.7008,60.2976 C47.8352,60.6048 48.0176,60.864 48.248,61.0752 C48.4784,61.3056 48.7472,61.4784 49.0544,61.5936 C49.3424,61.728 49.6592,61.7952 50.0048,61.7952 Z M54.728,33.7728 L54.728,30 L35.0288,30 L35.0288,31.44 L50.7248,31.44 L50.7248,49.6128 C50.7248,49.6896 50.9744,49.7856 51.4736,49.9008 C51.9536,50.016 52.5584,50.1984 53.288,50.448 C53.9984,50.7168 54.7856,51.072 55.6496,51.5136 C56.4944,51.9552 57.2768,52.536 57.9968,53.256 C58.7168,53.976 59.3264,54.8544 59.8256,55.8912 C60.3056,56.928 60.5456,58.1664 60.5456,59.6064 C60.5456,61.392 60.2096,62.832 59.5376,63.9264 C58.8656,65.0208 58.0016,65.856 56.9456,66.432 C55.8896,67.0272 54.7088,67.4208 53.4032,67.6128 C52.0784,67.824 50.7824,67.9296 49.5152,67.9296 C48.2864,67.9296 47.048,67.7952 45.8,67.5264 C44.5328,67.2768 43.3904,66.8544 42.3728,66.2592 C41.336,65.664 40.5008,64.8768 39.8672,63.8976 C39.2144,62.9184 38.888,61.7184 38.888,60.2976 C38.888,59.6256 38.984,59.0208 39.176,58.4832 C39.3488,57.9456 39.5792,57.4656 39.8672,57.0432 C40.136,56.64 40.4336,56.2848 40.76,55.9776 C41.0672,55.6896 41.3552,55.4496 41.624,55.2576 C41.8928,55.0848 42.1232,54.96 42.3152,54.8832 C42.488,54.8064 42.5744,54.7776 42.5744,54.7968 C42.6512,54.6624 42.5168,54.576 42.1712,54.5376 C41.8256,54.4992 41.3744,54.528 40.8176,54.624 C40.2608,54.7392 39.6464,54.9216 38.9744,55.1712 C38.2832,55.44 37.6496,55.8048 37.0736,56.2656 C36.4784,56.7264 35.9888,57.2832 35.6048,57.936 C35.2016,58.608 35,59.3952 35,60.2976 C35,61.6224 35.2688,62.832 35.8064,63.9264 C36.344,65.04 37.1984,66 38.3696,66.8064 C39.5216,67.6128 41.0192,68.2368 42.8624,68.6784 C44.7056,69.12 46.9232,69.3408 49.5152,69.3408 C50.7056,69.3408 51.9056,69.288 53.1152,69.1824 C54.3248,69.0768 55.4864,68.88 56.6,68.592 C57.7136,68.3232 58.7504,67.9488 59.7104,67.4688 C60.6704,67.008 61.5152,66.4128 62.2448,65.6832 C62.9552,64.9728 63.5216,64.1184 63.944,63.12 C64.3472,62.1216 64.5488,60.9504 64.5488,59.6064 C64.5488,58.1856 64.3088,56.9472 63.8288,55.8912 C63.3296,54.8544 62.72,53.9664 62,53.2272 C61.28,52.488 60.4976,51.888 59.6528,51.4272 C58.7888,50.9664 58.0016,50.592 57.2912,50.304 C56.5616,50.0352 55.9568,49.8336 55.4768,49.6992 C54.9776,49.584 54.728,49.4976 54.728,49.44 L54.728,49.44 L54.728,33.7728 L54.728,33.7728 Z" id="ƒ" fill="#FFFFFF" fill-rule="nonzero"></path>
    </g>
</svg>