<?xml version="1.0" encoding="UTF-8"?>
<svg width="100px" height="100px" viewBox="0 0 100 100" version="1.1" xmlns="http://www.w3.org/2000/svg" xmlns:xlink="http://www.w3.org/1999/xlink">
    <!-- Generator: Sketch 61.1 (89650) - https://sketch.com -->
    <title>bi</title>
    <desc>Created with Sketch.</desc>
    <g id="bi" stroke="none" stroke-width="1" fill="none" fill-rule="evenodd">
        <path d="M49.4864,63 C50.6768,63 51.872,62.9472 53.072,62.8416 C54.272,62.736 55.424,62.544 56.528,62.2656 C57.632,61.9872 58.6688,61.6128 59.6384,61.1424 C60.608,60.672 61.448,60.0768 62.1584,59.3568 C62.8688,58.6368 63.4256,57.7776 63.8288,56.7792 C64.232,55.7808 64.4336,54.6096 64.4336,53.2656 C64.4336,51.8448 64.1936,50.6112 63.7136,49.5648 C63.2336,48.5184 62.6336,47.6256 61.9136,46.8864 C61.1936,46.1472 60.4112,45.5472 59.5664,45.0864 C58.7216,44.6256 57.9392,44.256 57.2192,43.9776 C56.4992,43.6992 55.8992,43.4976 55.4192,43.3728 C54.9392,43.248 54.6992,43.1568 54.6992,43.0992 L54.6992,43.0992 L54.6992,23.6592 L35,23.6592 L35,25.0128 L50.696,25.0128 L50.696,43.4448 C50.696,43.5216 50.936,43.6128 51.416,43.7184 C51.896,43.824 52.496,44.0016 53.216,44.2512 C53.936,44.5008 54.7136,44.8416 55.5488,45.2736 C56.384,45.7056 57.1616,46.272 57.8816,46.9728 C58.6016,47.6736 59.2016,48.5376 59.6816,49.5648 C60.1616,50.592 60.4016,51.8256 60.4016,53.2656 C60.4016,55.0512 60.0704,56.4912 59.408,57.5856 C58.7456,58.68 57.8912,59.5296 56.8448,60.1344 C55.7984,60.7392 54.6272,61.1424 53.3312,61.344 C52.0352,61.5456 50.7536,61.6464 49.4864,61.6464 C48.2576,61.6464 47.0144,61.512 45.7568,61.2432 C44.4992,60.9744 43.3568,60.5376 42.3296,59.9328 C41.3024,59.328 40.4672,58.536 39.824,57.5568 C39.1808,56.5776 38.8592,55.3776 38.8592,53.9568 C38.8592,53.2848 38.9504,52.68 39.1328,52.1424 C39.3152,51.6048 39.5456,51.1296 39.824,50.7168 C40.1024,50.304 40.4,49.9488 40.7168,49.6512 C41.0336,49.3536 41.3264,49.1136 41.5952,48.9312 C41.864,48.7488 42.0896,48.6192 42.272,48.5424 C42.4544,48.4656 42.5456,48.4368 42.5456,48.456 C42.6224,48.3216 42.488,48.2352 42.1424,48.1968 C41.7968,48.1584 41.3456,48.192 40.7888,48.2976 C40.232,48.4032 39.6128,48.5856 38.9312,48.8448 C38.2496,49.104 37.616,49.464 37.0304,49.9248 C36.4448,50.3856 35.9552,50.9472 35.5616,51.6096 C35.168,52.272 34.9712,53.0544 34.9712,53.9568 C34.9712,55.2816 35.24,56.496 35.7776,57.6 C36.3152,58.704 37.1648,59.6592 38.3264,60.4656 C39.488,61.272 40.9904,61.896 42.8336,62.3376 C44.6768,62.7792 46.8944,63 49.4864,63 Z" id="q" fill="#FFFFFF" fill-rule="nonzero"></path>
    </g>
</svg>