<?xml version="1.0" encoding="UTF-8"?>
<svg width="100px" height="100px" viewBox="0 0 100 100" version="1.1" xmlns="http://www.w3.org/2000/svg" xmlns:xlink="http://www.w3.org/1999/xlink">
    <!-- Generator: Sketch 61.1 (89650) - https://sketch.com -->
    <title>bif</title>
    <desc>Created with Sketch.</desc>
    <g id="bif" stroke="none" stroke-width="1" fill="none" fill-rule="evenodd">
        <path d="M49.5152,65.3408 C50.7056,65.3408 51.9056,65.288 53.1152,65.1824 C54.3248,65.0768 55.4864,64.8848 56.6,64.6064 C57.7136,64.328 58.7504,63.9536 59.7104,63.4832 C60.6704,63.0128 61.5104,62.4176 62.2304,61.6976 C62.9504,60.9776 63.5168,60.1184 63.9296,59.12 C64.3424,58.1216 64.5488,56.9504 64.5488,55.6064 C64.5488,54.1856 64.304,52.952 63.8144,51.9056 C63.3248,50.8592 62.72,49.9664 62,49.2272 C61.28,48.488 60.4928,47.888 59.6384,47.4272 C58.784,46.9664 57.9968,46.5968 57.2768,46.3184 C56.5568,46.04 55.952,45.8384 55.4624,45.7136 C54.9728,45.5888 54.728,45.4976 54.728,45.44 L54.728,45.44 L54.728,26 L35.0288,26 L35.0288,27.44 L50.7248,27.44 L50.7248,45.6128 C50.7248,45.6896 50.9696,45.7856 51.4592,45.9008 C51.9488,46.016 52.5536,46.2032 53.2736,46.4624 C53.9936,46.7216 54.7808,47.072 55.6352,47.5136 C56.4896,47.9552 57.2768,48.536 57.9968,49.256 C58.7168,49.976 59.3216,50.8544 59.8112,51.8912 C60.3008,52.928 60.5456,54.1664 60.5456,55.6064 C60.5456,57.392 60.2096,58.832 59.5376,59.9264 C58.8656,61.0208 58.0016,61.8608 56.9456,62.4464 C55.8896,63.032 54.704,63.4256 53.3888,63.6272 C52.0736,63.8288 50.7824,63.9296 49.5152,63.9296 C48.2864,63.9296 47.0432,63.8 45.7856,63.5408 C44.528,63.2816 43.3856,62.8544 42.3584,62.2592 C41.3312,61.664 40.496,60.8768 39.8528,59.8976 C39.2096,58.9184 38.888,57.7184 38.888,56.2976 C38.888,55.6256 38.9792,55.0208 39.1616,54.4832 C39.344,53.9456 39.5744,53.4704 39.8528,53.0576 C40.1312,52.6448 40.4288,52.2896 40.7456,51.992 C41.0624,51.6944 41.3552,51.4544 41.624,51.272 C41.8928,51.0896 42.1184,50.96 42.3008,50.8832 C42.4832,50.8064 42.5744,50.7776 42.5744,50.7968 C42.6512,50.6624 42.5168,50.576 42.1712,50.5376 C41.8256,50.4992 41.3744,50.5328 40.8176,50.6384 C40.2608,50.744 39.6416,50.9264 38.96,51.1856 C38.2784,51.4448 37.6448,51.8048 37.0592,52.2656 C36.4736,52.7264 35.984,53.288 35.5904,53.9504 C35.1968,54.6128 35,55.3952 35,56.2976 C35,57.6224 35.2688,58.8368 35.8064,59.9408 C36.344,61.0448 37.1936,62 38.3552,62.8064 C39.5168,63.6128 41.0192,64.2368 42.8624,64.6784 C44.7056,65.12 46.9232,65.3408 49.5152,65.3408 Z M48.4784,73.2896 C49.0736,73.2896 49.6208,73.0928 50.12,72.6992 C50.6192,72.3056 51.0464,71.84 51.4016,71.3024 C51.7568,70.7648 52.0352,70.208 52.2368,69.632 C52.4384,69.056 52.5392,68.5856 52.5392,68.2208 C52.5392,67.8176 52.4192,67.5248 52.1792,67.3424 C51.9392,67.16 51.656,67.0544 51.3296,67.0256 C51.0032,66.9968 50.6528,67.0208 50.2784,67.0976 C49.904,67.1744 49.592,67.2656 49.3424,67.3712 C49.0928,67.4768 48.9248,67.5728 48.8384,67.6592 C48.752,67.7456 48.824,67.7888 49.0544,67.7888 C49.208,67.7888 49.4048,67.7648 49.6448,67.7168 C49.8848,67.6688 50.1152,67.6496 50.336,67.6592 C50.5568,67.6688 50.7488,67.736 50.912,67.8608 C51.0752,67.9856 51.1568,68.2208 51.1568,68.5664 C51.1568,69.2384 50.9984,69.8624 50.6816,70.4384 C50.3648,71.0144 50.024,71.5136 49.6592,71.936 C49.2944,72.3584 48.9776,72.6896 48.7088,72.9296 C48.44,73.1696 48.3632,73.2896 48.4784,73.2896 Z" id="∂" fill="#FFFFFF" fill-rule="nonzero"></path>
    </g>
</svg>