<?xml version="1.0" encoding="UTF-8"?>
<svg width="100px" height="100px" viewBox="0 0 100 100" version="1.1" xmlns="http://www.w3.org/2000/svg" xmlns:xlink="http://www.w3.org/1999/xlink">
    <!-- Generator: Sketch 61.1 (89650) - https://sketch.com -->
    <title>bimf</title>
    <desc>Created with Sketch.</desc>
    <g id="bimf" stroke="none" stroke-width="1" fill="none" fill-rule="evenodd">
        <path d="M54.6992,31.432 L54.707264,31.635904 C54.728768,31.903168 54.79328,32.152 54.9008,32.3824 C55.016,32.6896 55.184,32.9536 55.4048,33.1744 C55.6256,33.3952 55.88,33.5632 56.168,33.6784 C56.456,33.8128 56.7632,33.88 57.0896,33.88 C57.4352,33.88 57.7616,33.8128 58.0688,33.6784 C58.3568,33.544 58.616,33.3616 58.8464,33.1312 C59.0576,32.9008 59.2304,32.632 59.3648,32.3248 C59.48,32.0368 59.5376,31.7296 59.5376,31.4032 C59.5376,30.7312 59.3072,30.1648 58.8464,29.704 C58.3664,29.2432 57.7808,29.0128 57.0896,29.0128 C56.7632,29.0128 56.456,29.08 56.168,29.2144 C55.88,29.3488 55.6304,29.5216 55.4192,29.7328 C55.1888,29.9632 55.016,30.2224 54.9008,30.5104 C54.7664,30.8176 54.6992,31.1248 54.6992,31.432 L54.6992,31.432 Z M57.0896,33.1888 C56.648,33.1888 56.2544,33.016 55.9088,32.6704 C55.544,32.344 55.3616,31.9312 55.3616,31.432 C55.3616,30.9904 55.544,30.5776 55.9088,30.1936 C56.2544,29.8288 56.648,29.6464 57.0896,29.6464 C57.5888,29.6464 58.0064,29.8336 58.3424,30.208 C58.6784,30.5824 58.8464,30.9904 58.8464,31.432 C58.8464,31.9312 58.6832,32.344 58.3568,32.6704 C58.0112,33.016 57.5888,33.1888 57.0896,33.1888 Z M48.4784,75.0928 C49.0736,75.0928 49.6208,74.9008 50.12,74.5168 C50.6192,74.1328 51.0512,73.672 51.416,73.1344 C51.7808,72.5776 52.0688,72.0112 52.28,71.4352 C52.472,70.84 52.568,70.3408 52.568,69.9376 C52.568,69.5536 52.4528,69.2752 52.2224,69.1024 C51.9728,68.9296 51.6848,68.8336 51.3584,68.8144 C51.0128,68.776 50.6576,68.7952 50.2928,68.872 C49.928,68.9488 49.6208,69.0448 49.3712,69.16 C49.1024,69.256 48.9248,69.3472 48.8384,69.4336 C48.752,69.52 48.824,69.5632 49.0544,69.5632 C49.208,69.5632 49.4096,69.544 49.6592,69.5056 C49.9088,69.448 50.1488,69.424 50.3792,69.4336 C50.6096,69.4432 50.8112,69.5152 50.984,69.6496 C51.1376,69.7648 51.2144,69.9952 51.2144,70.3408 C51.2144,71.032 51.0608,71.6656 50.7536,72.2416 C50.4272,72.8176 50.0816,73.3168 49.7168,73.7392 C49.352,74.1616 49.0352,74.4976 48.7664,74.7472 C48.4784,74.9776 48.3824,75.0928 48.4784,75.0928 Z M54.6992,31.432 L54.6992,27.6592 L35,27.6592 L35,29.0992 L50.696,29.0992 L50.696,47.272 C50.696,47.3488 50.9456,47.4448 51.4448,47.56 C51.9248,47.6752 52.5296,47.8576 53.2592,48.1072 C53.9696,48.376 54.7568,48.7312 55.6208,49.1728 C56.4656,49.6144 57.248,50.1952 57.968,50.9152 C58.688,51.6352 59.2976,52.5136 59.7968,53.5504 C60.2768,54.5872 60.5168,55.8256 60.5168,57.2656 C60.5168,59.0512 60.1808,60.4912 59.5088,61.5856 C58.8368,62.68 57.9728,63.5152 56.9168,64.0912 C55.8608,64.6864 54.68,65.08 53.3744,65.272 C52.0496,65.4832 50.7536,65.5888 49.4864,65.5888 C48.2576,65.5888 47.0192,65.4544 45.7712,65.1856 C44.504,64.936 43.3616,64.5136 42.344,63.9184 C41.3072,63.3232 40.472,62.536 39.8384,61.5568 C39.1856,60.5776 38.8592,59.3776 38.8592,57.9568 C38.8592,57.2848 38.9552,56.68 39.1472,56.1424 C39.32,55.6048 39.5504,55.1248 39.8384,54.7024 C40.1072,54.2992 40.4048,53.944 40.7312,53.6368 C41.0384,53.3488 41.3264,53.1088 41.5952,52.9168 C41.864,52.744 42.0944,52.6192 42.2864,52.5424 C42.4592,52.4656 42.5456,52.4368 42.5456,52.456 C42.6224,52.3216 42.488,52.2352 42.1424,52.1968 C41.7968,52.1584 41.3456,52.1872 40.7888,52.2832 C40.232,52.3984 39.6176,52.5808 38.9456,52.8304 C38.2544,53.0992 37.6208,53.464 37.0448,53.9248 C36.4496,54.3856 35.96,54.9424 35.576,55.5952 C35.1728,56.2672 34.9712,57.0544 34.9712,57.9568 C34.9712,59.2816 35.24,60.4912 35.7776,61.5856 C36.3152,62.6992 37.1696,63.6592 38.3408,64.4656 C39.4928,65.272 40.9904,65.896 42.8336,66.3376 C44.6768,66.7792 46.8944,67 49.4864,67 C50.6768,67 51.8768,66.9472 53.0864,66.8416 C54.296,66.736 55.4576,66.5392 56.5712,66.2512 C57.6848,65.9824 58.7216,65.608 59.6816,65.128 C60.6416,64.6672 61.4864,64.072 62.216,63.3424 C62.9264,62.632 63.4928,61.7776 63.9152,60.7792 C64.3184,59.7808 64.52,58.6096 64.52,57.2656 C64.52,55.8448 64.28,54.6064 63.8,53.5504 C63.3008,52.5136 62.6912,51.6256 61.9712,50.8864 C61.2512,50.1472 60.4688,49.5472 59.624,49.0864 C58.76,48.6256 57.9728,48.2512 57.2624,47.9632 C56.5328,47.6944 55.928,47.4928 55.448,47.3584 C54.9488,47.2432 54.6992,47.1568 54.6992,47.0992 L54.6992,47.0992 L54.6992,31.432 L54.6992,31.432 Z" id="ß" fill="#FFFFFF" fill-rule="nonzero"></path>
    </g>
</svg>