<?xml version="1.0" encoding="UTF-8"?>
<svg width="100px" height="100px" viewBox="0 0 100 100" version="1.1" xmlns="http://www.w3.org/2000/svg" xmlns:xlink="http://www.w3.org/1999/xlink">
    <!-- Generator: Sketch 61.1 (89650) - https://sketch.com -->
    <title>buh</title>
    <desc>Created with Sketch.</desc>
    <g id="buh" stroke="none" stroke-width="1" fill="none" fill-rule="evenodd">
        <path d="M49.5152,66.3408 C50.7056,66.3408 51.9056,66.288 53.1152,66.1824 C54.3248,66.0768 55.4864,65.8848 56.6,65.6064 C57.7136,65.328 58.7504,64.9536 59.7104,64.4832 C60.6704,64.0128 61.5104,63.4176 62.2304,62.6976 C62.9504,61.9776 63.5168,61.1184 63.9296,60.12 C64.3424,59.1216 64.5488,57.9504 64.5488,56.6064 C64.5488,55.1856 64.304,53.952 63.8144,52.9056 C63.3248,51.8592 62.72,50.9664 62,50.2272 C61.28,49.488 60.4928,48.888 59.6384,48.4272 C58.784,47.9664 57.9968,47.5968 57.2768,47.3184 C56.5568,47.04 55.952,46.8384 55.4624,46.7136 C54.9728,46.5888 54.728,46.4976 54.728,46.44 L54.728,46.44 L54.728,27 L35.0288,27 L35.0288,28.44 L50.7248,28.44 L50.7248,46.6128 C50.7248,46.6896 50.9696,46.7856 51.4592,46.9008 C51.9488,47.016 52.5536,47.2032 53.2736,47.4624 C53.9936,47.7216 54.7808,48.072 55.6352,48.5136 C56.4896,48.9552 57.2768,49.536 57.9968,50.256 C58.7168,50.976 59.3216,51.8544 59.8112,52.8912 C60.3008,53.928 60.5456,55.1664 60.5456,56.6064 C60.5456,58.392 60.2096,59.832 59.5376,60.9264 C58.8656,62.0208 58.0016,62.8608 56.9456,63.4464 C55.8896,64.032 54.704,64.4256 53.3888,64.6272 C52.0736,64.8288 50.7824,64.9296 49.5152,64.9296 C48.2864,64.9296 47.0432,64.8 45.7856,64.5408 C44.528,64.2816 43.3856,63.8544 42.3584,63.2592 C41.3312,62.664 40.496,61.8768 39.8528,60.8976 C39.2096,59.9184 38.888,58.7184 38.888,57.2976 C38.888,56.6256 38.9792,56.0208 39.1616,55.4832 C39.344,54.9456 39.5744,54.4704 39.8528,54.0576 C40.1312,53.6448 40.4288,53.2896 40.7456,52.992 C41.0624,52.6944 41.3552,52.4544 41.624,52.272 C41.8928,52.0896 42.1184,51.96 42.3008,51.8832 C42.4832,51.8064 42.5744,51.7776 42.5744,51.7968 C42.6512,51.6624 42.5168,51.576 42.1712,51.5376 C41.8256,51.4992 41.3744,51.5328 40.8176,51.6384 C40.2608,51.744 39.6416,51.9264 38.96,52.1856 C38.2784,52.4448 37.6448,52.8048 37.0592,53.2656 C36.4736,53.7264 35.984,54.288 35.5904,54.9504 C35.1968,55.6128 35,56.3952 35,57.2976 C35,58.6224 35.2688,59.8368 35.8064,60.9408 C36.344,62.0448 37.1936,63 38.3552,63.8064 C39.5168,64.6128 41.0192,65.2368 42.8624,65.6784 C44.7056,66.12 46.9232,66.3408 49.5152,66.3408 Z M49.4,73.7424 C49.8032,73.7424 50.1968,73.6752 50.5808,73.5408 C50.9648,73.4064 51.3152,73.2 51.632,72.9216 C51.9488,72.6432 52.208,72.3072 52.4096,71.9136 C52.6112,71.52 52.712,71.064 52.712,70.5456 C52.7312,70.2384 52.7216,69.8544 52.6832,69.3936 C52.6448,68.9328 52.52,68.5968 52.3088,68.3856 C52.2512,68.328 52.1792,68.4384 52.0928,68.7168 C52.0064,68.9952 51.8624,69.312 51.6608,69.6672 C51.4592,70.0224 51.176,70.3536 50.8112,70.6608 C50.4464,70.968 49.9664,71.1216 49.3712,71.1216 C48.872,71.1216 48.4448,70.9728 48.0896,70.6752 C47.7344,70.3776 47.4416,70.0512 47.2112,69.696 C46.9808,69.3408 46.8032,69.024 46.6784,68.7456 C46.5536,68.4672 46.4624,68.3472 46.4048,68.3856 C46.328,68.4816 46.2656,68.6208 46.2176,68.8032 C46.1696,68.9856 46.1312,69.1824 46.1024,69.3936 C46.0736,69.6048 46.0544,69.8208 46.0448,70.0416 C46.0352,70.2624 46.0304,70.4496 46.0304,70.6032 C46.0304,71.1408 46.136,71.6064 46.3472,72 C46.5584,72.3936 46.832,72.72 47.168,72.9792 C47.504,73.2384 47.8688,73.4304 48.2624,73.5552 C48.656,73.68 49.0352,73.7424 49.4,73.7424 Z" id="€" fill="#FFFFFF" fill-rule="nonzero"></path>
    </g>
</svg>