<?xml version="1.0" encoding="UTF-8"?>
<svg width="100px" height="100px" viewBox="0 0 100 100" version="1.1" xmlns="http://www.w3.org/2000/svg" xmlns:xlink="http://www.w3.org/1999/xlink">
    <!-- Generator: Sketch 61.1 (89650) - https://sketch.com -->
    <title>cha</title>
    <desc>Created with Sketch.</desc>
    <g id="cha" stroke="none" stroke-width="1" fill="none" fill-rule="evenodd">
        <path d="M55.904,59.9296 C59.7056,59.9296 62.5808,59.3584 64.5296,58.216 C66.4784,57.0736 67.4528,55.3504 67.4528,53.0464 C67.4528,50.2432 66.6944,48.2176 65.1776,46.9696 C63.6608,45.7216 61.3664,45.0976 58.2944,45.0976 C57.7952,45.0976 57.3872,45.1024 57.0704,45.112 C56.7536,45.1216 56.3888,45.1264 55.976,45.1264 C55.5632,45.1264 55.0304,45.1312 54.3776,45.1408 C53.7248,45.1504 52.8224,45.1552 51.6704,45.1552 L51.6704,45.1552 L51.6704,40 L32,40 L32,41.44 L47.6672,41.44 L47.6672,45.0976 L38.5088,45.0976 L38.5088,47.0848 L47.6672,47.0848 L47.6672,59.9296 L55.904,59.9296 Z M57.776,58.4896 L51.6704,58.4896 L51.6704,47.056 C52.9376,47.056 53.9264,47.0608 54.6368,47.0704 C55.3472,47.08 55.9136,47.0848 56.336,47.0848 L58.2368,47.0848 C59.3504,47.0848 60.296,47.2336 61.0736,47.5312 C61.8512,47.8288 62.48,48.2464 62.96,48.784 C63.44,49.3216 63.7904,49.9504 64.0112,50.6704 C64.232,51.3904 64.3424,52.1824 64.3424,53.0464 C64.3424,53.7952 64.1312,54.5008 63.7088,55.1632 C63.2864,55.8256 62.7488,56.4016 62.096,56.8912 C61.4432,57.3808 60.7328,57.7696 59.9648,58.0576 C59.1968,58.3456 58.4672,58.4896 57.776,58.4896 L57.776,58.4896 Z" id="&amp;" fill="#FFFFFF" fill-rule="nonzero"></path>
    </g>
</svg>