<?xml version="1.0" encoding="UTF-8"?>
<svg width="100px" height="100px" viewBox="0 0 100 100" version="1.1" xmlns="http://www.w3.org/2000/svg" xmlns:xlink="http://www.w3.org/1999/xlink">
    <!-- Generator: Sketch 61.1 (89650) - https://sketch.com -->
    <title>daf</title>
    <desc>Created with Sketch.</desc>
    <g id="daf" stroke="none" stroke-width="1" fill="none" fill-rule="evenodd">
        <path d="M42.0272,57.1792 C42.68,57.1792 43.2368,56.9392 43.6976,56.4592 C44.1584,55.9792 44.3888,55.3936 44.3888,54.7024 C44.3888,54.3568 44.3312,54.0304 44.216,53.7232 C44.0816,53.4352 43.9088,53.176 43.6976,52.9456 C43.4864,52.7344 43.2368,52.5616 42.9488,52.4272 C42.6608,52.312 42.3536,52.2544 42.0272,52.2544 C41.6816,52.2544 41.3648,52.3216 41.0768,52.456 C40.7696,52.5904 40.5008,52.7632 40.2704,52.9744 C40.04,53.2048 39.8576,53.4736 39.7232,53.7808 C39.5888,54.088 39.5216,54.4144 39.5216,54.76 C39.5216,55.1056 39.5888,55.4224 39.7232,55.7104 C39.8576,55.9984 40.04,56.248 40.2704,56.4592 C40.5008,56.6896 40.7696,56.8624 41.0768,56.9776 C41.3648,57.112 41.6816,57.1792 42.0272,57.1792 Z M48.6224,76.6768 C49.2368,76.6768 49.7936,76.4848 50.2928,76.1008 C50.792,75.7168 51.224,75.256 51.5888,74.7184 C51.9344,74.1616 52.2032,73.5952 52.3952,73.0192 C52.5872,72.424 52.6832,71.9248 52.6832,71.5216 C52.6832,71.1376 52.568,70.8592 52.3376,70.6864 C52.088,70.5136 51.8,70.4176 51.4736,70.3984 C51.128,70.36 50.7728,70.3792 50.408,70.456 C50.0432,70.5328 49.7264,70.6192 49.4576,70.7152 C49.1888,70.8112 49.0112,70.9024 48.9248,70.9888 C48.8384,71.0752 48.9104,71.1184 49.1408,71.1184 C49.3136,71.1184 49.5248,71.0992 49.7744,71.0608 C50.0048,71.0032 50.2352,70.9792 50.4656,70.9888 C50.696,70.9984 50.8976,71.0704 51.0704,71.2048 C51.224,71.32 51.3008,71.5504 51.3008,71.896 C51.3008,72.5872 51.1472,73.2304 50.84,73.8256 C50.5136,74.4016 50.168,74.9008 49.8032,75.3232 C49.4384,75.7456 49.1216,76.0816 48.8528,76.3312 C48.584,76.5616 48.5072,76.6768 48.6224,76.6768 Z M34.9712,57.1792 L35,58.5616 L39.8384,58.5616 C39.8768,58.5616 39.896,58.7632 39.896,59.1664 C39.8768,59.5888 39.9344,60.1168 40.0688,60.7504 C40.2032,61.384 40.4624,62.056 40.8464,62.7664 C41.2112,63.496 41.7872,64.1776 42.5744,64.8112 C43.3616,65.4448 44.408,65.9632 45.7136,66.3664 C47.0192,66.7888 48.68,67 50.696,67 C53.0768,67 55.1408,66.8464 56.888,66.5392 C58.616,66.232 60.0368,65.704 61.1504,64.9552 C62.264,64.2064 63.0896,63.208 63.6272,61.96 C64.1648,60.7312 64.4336,59.176 64.4336,57.2944 C64.4336,55.9696 64.1936,54.7984 63.7136,53.7808 C63.2336,52.7824 62.6384,51.9088 61.928,51.16 C61.1984,50.4112 60.4112,49.7872 59.5664,49.288 C58.7216,48.7888 57.944,48.376 57.2336,48.0496 C56.504,47.7424 55.8992,47.512 55.4192,47.3584 C54.9392,47.224 54.6992,47.1376 54.6992,47.0992 L54.6992,47.0992 L54.6992,27.6592 L35,27.6592 L35,29.0992 L50.696,29.0992 L50.696,47.416 C50.696,47.4928 50.936,47.5888 51.416,47.704 C51.896,47.8384 52.5008,48.0304 53.2304,48.28 C53.9408,48.5488 54.7184,48.904 55.5632,49.3456 C56.408,49.8064 57.1904,50.3872 57.9104,51.088 C58.6304,51.7888 59.2304,52.6384 59.7104,53.6368 C60.1904,54.6544 60.4304,55.864 60.4304,57.2656 C60.4304,58.5328 60.2768,59.6752 59.9696,60.6928 C59.6624,61.7296 59.1824,62.6032 58.5296,63.3136 C57.8576,64.0432 56.9936,64.6 55.9376,64.984 C54.8816,65.3872 53.6048,65.5888 52.1072,65.5888 C50.6672,65.5888 49.4768,65.416 48.536,65.0704 C47.576,64.7248 46.808,64.2928 46.232,63.7744 C45.6368,63.256 45.2048,62.6896 44.936,62.0752 C44.6672,61.4608 44.4944,60.8944 44.4176,60.376 C44.3216,59.8576 44.2928,59.4256 44.3312,59.08 C44.3696,58.7344 44.4176,58.5616 44.4752,58.5616 L44.4752,58.5616 L54.6992,58.5616 L54.6992,57.1792 L42.0272,57.1792 L42.0272,57.1792 L34.9712,57.1792 Z" id="≈" fill="#FFFFFF" fill-rule="nonzero"></path>
    </g>
</svg>