<?xml version="1.0" encoding="UTF-8"?>
<svg width="100px" height="100px" viewBox="0 0 100 100" version="1.1" xmlns="http://www.w3.org/2000/svg" xmlns:xlink="http://www.w3.org/1999/xlink">
    <!-- Generator: Sketch 61.1 (89650) - https://sketch.com -->
    <title>dam</title>
    <desc>Created with Sketch.</desc>
    <g id="dam" stroke="none" stroke-width="1" fill="none" fill-rule="evenodd">
        <path d="M42.4592,59.52 C43.0928,59.52 43.6496,59.28 44.1296,58.8 C44.6096,58.32 44.8496,57.7344 44.8496,57.0432 C44.8496,56.6976 44.7824,56.3808 44.648,56.0928 C44.5136,55.8048 44.3408,55.5552 44.1296,55.344 C43.9184,55.1328 43.6688,54.96 43.3808,54.8256 C43.0736,54.7104 42.7664,54.6528 42.4592,54.6528 C42.1136,54.6528 41.7872,54.7104 41.48,54.8256 C41.1728,54.96 40.904,55.1328 40.6736,55.344 C40.424,55.5744 40.232,55.8432 40.0976,56.1504 C39.944,56.4576 39.8672,56.784 39.8672,57.1296 C39.8672,57.456 39.944,57.7632 40.0976,58.0512 C40.232,58.3584 40.424,58.6176 40.6736,58.8288 C40.904,59.04 41.1728,59.2032 41.48,59.3184 C41.7872,59.4528 42.1136,59.52 42.4592,59.52 Z M57.2912,36.3936 C57.6368,36.3936 57.9632,36.3264 58.2704,36.192 C58.5584,36.0576 58.8176,35.8752 59.048,35.6448 C59.2592,35.4144 59.432,35.1456 59.5664,34.8384 C59.6816,34.5504 59.7392,34.2432 59.7392,33.9168 C59.7392,33.2448 59.5088,32.6688 59.048,32.1888 C58.568,31.7088 57.9824,31.4688 57.2912,31.4688 C56.6192,31.4688 56.0528,31.7088 55.592,32.1888 C55.112,32.688 54.872,33.2736 54.872,33.9456 C54.872,34.6368 55.112,35.2128 55.592,35.6736 C56.0528,36.1536 56.6192,36.3936 57.2912,36.3936 Z M57.2912,35.6736 C56.8496,35.6736 56.4368,35.5104 56.0528,35.184 C55.6688,34.8576 55.4768,34.4448 55.4768,33.9456 C55.4768,33.7152 55.5344,33.4944 55.6496,33.2832 C55.7456,33.072 55.88,32.88 56.0528,32.7072 C56.2256,32.5344 56.4176,32.4 56.6288,32.304 C56.84,32.208 57.0608,32.16 57.2912,32.16 C57.7712,32.16 58.184,32.3424 58.5296,32.7072 C58.856,33.072 59.0192,33.4848 59.0192,33.9456 C59.0192,34.4448 58.856,34.8576 58.5296,35.184 C58.184,35.5104 57.7712,35.6736 57.2912,35.6736 Z M35,59.52 L35.0288,60.9024 L39.8672,60.9024 C39.9056,60.9024 39.9248,61.104 39.9248,61.5072 C39.9056,61.9296 39.9632,62.4576 40.0976,63.0912 C40.232,63.7248 40.4912,64.3968 40.8752,65.1072 C41.24,65.8368 41.816,66.5184 42.6032,67.152 C43.3904,67.7856 44.4368,68.304 45.7424,68.7072 C47.048,69.1296 48.7088,69.3408 50.7248,69.3408 C53.1056,69.3408 55.1696,69.1872 56.9168,68.88 C58.6448,68.5728 60.0656,68.0448 61.1792,67.296 C62.2928,66.5472 63.1184,65.5488 63.656,64.3008 C64.1936,63.072 64.4624,61.5168 64.4624,59.6352 C64.4624,58.3104 64.2224,57.1392 63.7424,56.1216 C63.2624,55.1232 62.6672,54.2496 61.9568,53.5008 C61.2272,52.752 60.44,52.128 59.5952,51.6288 C58.7504,51.1296 57.9728,50.7168 57.2624,50.3904 C56.5328,50.0832 55.928,49.8528 55.448,49.6992 C54.968,49.5648 54.728,49.4784 54.728,49.44 L54.728,49.44 L54.728,30 L35.0288,30 L35.0288,31.44 L50.7248,31.44 L50.7248,49.7568 C50.7248,49.8336 50.9648,49.9296 51.4448,50.0448 C51.9248,50.1792 52.5296,50.3712 53.2592,50.6208 C53.9696,50.8896 54.7472,51.2448 55.592,51.6864 C56.4368,52.1472 57.2192,52.728 57.9392,53.4288 C58.6592,54.1296 59.2592,54.9792 59.7392,55.9776 C60.2192,56.9952 60.4592,58.2048 60.4592,59.6064 C60.4592,60.8736 60.3056,62.016 59.9984,63.0336 C59.6912,64.0704 59.2112,64.944 58.5584,65.6544 C57.8864,66.384 57.0224,66.9408 55.9664,67.3248 C54.9104,67.728 53.6336,67.9296 52.136,67.9296 C50.696,67.9296 49.5056,67.7568 48.5648,67.4112 C47.6048,67.0656 46.8368,66.6336 46.2608,66.1152 C45.6656,65.5968 45.2336,65.0304 44.9648,64.416 C44.696,63.8016 44.5232,63.2352 44.4464,62.7168 C44.3504,62.1984 44.3216,61.7664 44.36,61.4208 C44.3984,61.0752 44.4464,60.9024 44.504,60.9024 L44.504,60.9024 L54.728,60.9024 L54.728,59.52 L42.4592,59.52 L42.4592,59.52 L35,59.52 Z" id="รง" fill="#FFFFFF" fill-rule="nonzero"></path>
    </g>
</svg>