<?xml version="1.0" encoding="UTF-8"?>
<svg width="100px" height="100px" viewBox="0 0 100 100" version="1.1" xmlns="http://www.w3.org/2000/svg" xmlns:xlink="http://www.w3.org/1999/xlink">
    <!-- Generator: Sketch 61.1 (89650) - https://sketch.com -->
    <title>damf</title>
    <desc>Created with Sketch.</desc>
    <g id="damf" stroke="none" stroke-width="1" fill="none" fill-rule="evenodd">
        <path d="M42.4304,57.1792 C43.064,57.1792 43.6208,56.9392 44.1008,56.4592 C44.5808,55.9792 44.8208,55.3936 44.8208,54.7024 C44.8208,54.3568 44.7536,54.04 44.6192,53.752 C44.4848,53.464 44.312,53.2144 44.1008,53.0032 C43.8896,52.792 43.64,52.6192 43.352,52.4848 C43.0448,52.3696 42.7376,52.312 42.4304,52.312 C42.0848,52.312 41.7584,52.3696 41.4512,52.4848 C41.144,52.6192 40.8752,52.792 40.6448,53.0032 C40.3952,53.2336 40.2032,53.5024 40.0688,53.8096 C39.9152,54.1168 39.8384,54.4432 39.8384,54.7888 C39.8384,55.1152 39.9152,55.4224 40.0688,55.7104 C40.2032,56.0176 40.3952,56.2768 40.6448,56.488 C40.8752,56.6992 41.144,56.8624 41.4512,56.9776 C41.7584,57.112 42.0848,57.1792 42.4304,57.1792 Z M57.2624,34.0528 C57.608,34.0528 57.9344,33.9856 58.2416,33.8512 C58.5296,33.7168 58.7888,33.5344 59.0192,33.304 C59.2304,33.0736 59.4032,32.8048 59.5376,32.4976 C59.6528,32.2096 59.7104,31.9024 59.7104,31.576 C59.7104,30.904 59.48,30.328 59.0192,29.848 C58.5392,29.368 57.9536,29.128 57.2624,29.128 C56.5904,29.128 56.024,29.368 55.5632,29.848 C55.0832,30.3472 54.8432,30.9328 54.8432,31.6048 C54.8432,32.296 55.0832,32.872 55.5632,33.3328 C56.024,33.8128 56.5904,34.0528 57.2624,34.0528 Z M57.2624,33.3328 C56.8208,33.3328 56.408,33.1696 56.024,32.8432 C55.64,32.5168 55.448,32.104 55.448,31.6048 C55.448,31.3744 55.5056,31.1536 55.6208,30.9424 C55.7168,30.7312 55.8512,30.5392 56.024,30.3664 C56.1968,30.1936 56.3888,30.0592 56.6,29.9632 C56.8112,29.8672 57.032,29.8192 57.2624,29.8192 C57.7424,29.8192 58.1552,30.0016 58.5008,30.3664 C58.8272,30.7312 58.9904,31.144 58.9904,31.6048 C58.9904,32.104 58.8272,32.5168 58.5008,32.8432 C58.1552,33.1696 57.7424,33.3328 57.2624,33.3328 Z M48.6224,76.6768 C49.2368,76.6768 49.7936,76.4848 50.2928,76.1008 C50.792,75.7168 51.224,75.256 51.5888,74.7184 C51.9344,74.1616 52.2032,73.5952 52.3952,73.0192 C52.5872,72.424 52.6832,71.9248 52.6832,71.5216 C52.6832,71.1376 52.568,70.8592 52.3376,70.6864 C52.088,70.5136 51.8,70.4176 51.4736,70.3984 C51.128,70.36 50.7728,70.3792 50.408,70.456 C50.0432,70.5328 49.7264,70.6192 49.4576,70.7152 C49.1888,70.8112 49.0112,70.9024 48.9248,70.9888 C48.8384,71.0752 48.9104,71.1184 49.1408,71.1184 C49.3136,71.1184 49.5248,71.0992 49.7744,71.0608 C50.0048,71.0032 50.2352,70.9792 50.4656,70.9888 C50.696,70.9984 50.8976,71.0704 51.0704,71.2048 C51.224,71.32 51.3008,71.5504 51.3008,71.896 C51.3008,72.5872 51.1472,73.2304 50.84,73.8256 C50.5136,74.4016 50.168,74.9008 49.8032,75.3232 C49.4384,75.7456 49.1216,76.0816 48.8528,76.3312 C48.584,76.5616 48.5072,76.6768 48.6224,76.6768 Z M34.9712,57.1792 L35,58.5616 L39.8384,58.5616 C39.8768,58.5616 39.896,58.7632 39.896,59.1664 C39.8768,59.5888 39.9344,60.1168 40.0688,60.7504 C40.2032,61.384 40.4624,62.056 40.8464,62.7664 C41.2112,63.496 41.7872,64.1776 42.5744,64.8112 C43.3616,65.4448 44.408,65.9632 45.7136,66.3664 C47.0192,66.7888 48.68,67 50.696,67 C53.0768,67 55.1408,66.8464 56.888,66.5392 C58.616,66.232 60.0368,65.704 61.1504,64.9552 C62.264,64.2064 63.0896,63.208 63.6272,61.96 C64.1648,60.7312 64.4336,59.176 64.4336,57.2944 C64.4336,55.9696 64.1936,54.7984 63.7136,53.7808 C63.2336,52.7824 62.6384,51.9088 61.928,51.16 C61.1984,50.4112 60.4112,49.7872 59.5664,49.288 C58.7216,48.7888 57.944,48.376 57.2336,48.0496 C56.504,47.7424 55.8992,47.512 55.4192,47.3584 C54.9392,47.224 54.6992,47.1376 54.6992,47.0992 L54.6992,47.0992 L54.6992,27.6592 L35,27.6592 L35,29.0992 L50.696,29.0992 L50.696,47.416 C50.696,47.4928 50.936,47.5888 51.416,47.704 C51.896,47.8384 52.5008,48.0304 53.2304,48.28 C53.9408,48.5488 54.7184,48.904 55.5632,49.3456 C56.408,49.8064 57.1904,50.3872 57.9104,51.088 C58.6304,51.7888 59.2304,52.6384 59.7104,53.6368 C60.1904,54.6544 60.4304,55.864 60.4304,57.2656 C60.4304,58.5328 60.2768,59.6752 59.9696,60.6928 C59.6624,61.7296 59.1824,62.6032 58.5296,63.3136 C57.8576,64.0432 56.9936,64.6 55.9376,64.984 C54.8816,65.3872 53.6048,65.5888 52.1072,65.5888 C50.6672,65.5888 49.4768,65.416 48.536,65.0704 C47.576,64.7248 46.808,64.2928 46.232,63.7744 C45.6368,63.256 45.2048,62.6896 44.936,62.0752 C44.6672,61.4608 44.4944,60.8944 44.4176,60.376 C44.3216,59.8576 44.2928,59.4256 44.3312,59.08 C44.3696,58.7344 44.4176,58.5616 44.4752,58.5616 L44.4752,58.5616 L54.6992,58.5616 L54.6992,57.1792 L42.4304,57.1792 L42.4304,57.1792 L34.9712,57.1792 Z" id="รง" fill="#FFFFFF" fill-rule="nonzero"></path>
    </g>
</svg>