<?xml version="1.0" encoding="UTF-8"?>
<svg width="100px" height="100px" viewBox="0 0 100 100" version="1.1" xmlns="http://www.w3.org/2000/svg" xmlns:xlink="http://www.w3.org/1999/xlink">
    <!-- Generator: Sketch 61.1 (89650) - https://sketch.com -->
    <title>di</title>
    <desc>Created with Sketch.</desc>
    <g id="di" stroke="none" stroke-width="1" fill="none" fill-rule="evenodd">
        <path d="M50.7248,69.3408 C53.1056,69.3408 55.1648,69.1872 56.9024,68.88 C58.64,68.5728 60.0656,68.0448 61.1792,67.296 C62.2928,66.5472 63.1184,65.5536 63.656,64.3152 C64.1936,63.0768 64.4624,61.5168 64.4624,59.6352 C64.4624,58.3104 64.2224,57.144 63.7424,56.136 C63.2624,55.128 62.6624,54.2496 61.9424,53.5008 C61.2224,52.752 60.44,52.128 59.5952,51.6288 C58.7504,51.1296 57.968,50.7216 57.248,50.4048 C56.528,50.088 55.928,49.8576 55.448,49.7136 C54.968,49.5696 54.728,49.4784 54.728,49.44 L54.728,49.44 L54.728,30 L35.0288,30 L35.0288,31.44 L50.7248,31.44 L50.7248,49.7568 C50.7248,49.8336 50.9648,49.9344 51.4448,50.0592 C51.9248,50.184 52.5248,50.376 53.2448,50.6352 C53.9648,50.8944 54.7472,51.2496 55.592,51.7008 C56.4368,52.152 57.2192,52.728 57.9392,53.4288 C58.6592,54.1296 59.2592,54.984 59.7392,55.992 C60.2192,57 60.4592,58.2048 60.4592,59.6064 C60.4592,60.8736 60.3056,62.0208 59.9984,63.048 C59.6912,64.0752 59.2064,64.9488 58.544,65.6688 C57.8816,66.3888 57.0224,66.9456 55.9664,67.3392 C54.9104,67.7328 53.6336,67.9296 52.136,67.9296 C50.696,67.9296 49.5008,67.7568 48.5504,67.4112 C47.6,67.0656 46.832,66.6336 46.2464,66.1152 C45.6608,65.5968 45.2336,65.0304 44.9648,64.416 C44.696,63.8016 44.5184,63.2352 44.432,62.7168 C44.3456,62.1984 44.3216,61.7664 44.36,61.4208 C44.3984,61.0752 44.4464,60.9024 44.504,60.9024 L44.504,60.9024 L54.728,60.9024 L54.728,59.52 L35,59.52 L35.0288,60.9024 L39.8672,60.9024 C39.9056,60.9024 39.92,61.1088 39.9104,61.5216 C39.9008,61.9344 39.9632,62.4576 40.0976,63.0912 C40.232,63.7248 40.4864,64.4016 40.8608,65.1216 C41.2352,65.8416 41.816,66.5184 42.6032,67.152 C43.3904,67.7856 44.4368,68.3088 45.7424,68.7216 C47.048,69.1344 48.7088,69.3408 50.7248,69.3408 Z" id="t" fill="#FFFFFF" fill-rule="nonzero"></path>
    </g>
</svg>