<?xml version="1.0" encoding="UTF-8"?>
<svg width="100px" height="100px" viewBox="0 0 100 100" version="1.1" xmlns="http://www.w3.org/2000/svg" xmlns:xlink="http://www.w3.org/1999/xlink">
    <!-- Generator: Sketch 61.1 (89650) - https://sketch.com -->
    <title>dif</title>
    <desc>Created with Sketch.</desc>
    <g id="dif" stroke="none" stroke-width="1" fill="none" fill-rule="evenodd">
        <path d="M50.696,68 C53.0768,68 55.136,67.8464 56.8736,67.5392 C58.6112,67.232 60.0368,66.704 61.1504,65.9552 C62.264,65.2064 63.0896,64.2128 63.6272,62.9744 C64.1648,61.736 64.4336,60.176 64.4336,58.2944 C64.4336,56.9696 64.1936,55.8032 63.7136,54.7952 C63.2336,53.7872 62.6336,52.9088 61.9136,52.16 C61.1936,51.4112 60.4112,50.7872 59.5664,50.288 C58.7216,49.7888 57.9392,49.3808 57.2192,49.064 C56.4992,48.7472 55.8992,48.5168 55.4192,48.3728 C54.9392,48.2288 54.6992,48.1376 54.6992,48.0992 L54.6992,48.0992 L54.6992,28.6592 L35,28.6592 L35,30.0992 L50.696,30.0992 L50.696,48.416 C50.696,48.4928 50.936,48.5936 51.416,48.7184 C51.896,48.8432 52.496,49.0352 53.216,49.2944 C53.936,49.5536 54.7184,49.9088 55.5632,50.36 C56.408,50.8112 57.1904,51.3872 57.9104,52.088 C58.6304,52.7888 59.2304,53.6432 59.7104,54.6512 C60.1904,55.6592 60.4304,56.864 60.4304,58.2656 C60.4304,59.5328 60.2768,60.68 59.9696,61.7072 C59.6624,62.7344 59.1776,63.608 58.5152,64.328 C57.8528,65.048 56.9936,65.6048 55.9376,65.9984 C54.8816,66.392 53.6048,66.5888 52.1072,66.5888 C50.6672,66.5888 49.472,66.416 48.5216,66.0704 C47.5712,65.7248 46.8032,65.2928 46.2176,64.7744 C45.632,64.256 45.2048,63.6896 44.936,63.0752 C44.6672,62.4608 44.4896,61.8944 44.4032,61.376 C44.3168,60.8576 44.2928,60.4256 44.3312,60.08 C44.3696,59.7344 44.4176,59.5616 44.4752,59.5616 L44.4752,59.5616 L54.6992,59.5616 L54.6992,58.1792 L34.9712,58.1792 L35,59.5616 L39.8384,59.5616 C39.8768,59.5616 39.8912,59.768 39.8816,60.1808 C39.872,60.5936 39.9344,61.1168 40.0688,61.7504 C40.2032,62.384 40.4576,63.0608 40.832,63.7808 C41.2064,64.5008 41.7872,65.1776 42.5744,65.8112 C43.3616,66.4448 44.408,66.968 45.7136,67.3808 C47.0192,67.7936 48.68,68 50.696,68 Z M49.3424,76.9856 C49.9568,76.9856 50.5136,76.7888 51.0128,76.3952 C51.512,76.0016 51.944,75.5312 52.3088,74.984 C52.6736,74.4368 52.952,73.8752 53.144,73.2992 C53.336,72.7232 53.432,72.2432 53.432,71.8592 C53.432,71.4752 53.3168,71.192 53.0864,71.0096 C52.856,70.8272 52.5728,70.7216 52.2368,70.6928 C51.9008,70.664 51.5552,70.688 51.2,70.7648 C50.8448,70.8416 50.5376,70.9328 50.2784,71.0384 C50.0192,71.144 49.8464,71.24 49.76,71.3264 C49.6736,71.4128 49.7456,71.456 49.976,71.456 C50.1296,71.456 50.3264,71.432 50.5664,71.384 C50.8064,71.336 51.0416,71.3216 51.272,71.3408 C51.5024,71.36 51.6992,71.432 51.8624,71.5568 C52.0256,71.6816 52.1072,71.9168 52.1072,72.2624 C52.1072,72.9344 51.9488,73.5584 51.632,74.1344 C51.3152,74.7104 50.9744,75.2096 50.6096,75.632 C50.2448,76.0544 49.9232,76.3856 49.6448,76.6256 C49.3664,76.8656 49.2656,76.9856 49.3424,76.9856 Z" id="/" fill="#FFFFFF" fill-rule="nonzero"></path>
    </g>
</svg>