<?xml version="1.0" encoding="UTF-8"?>
<svg width="100px" height="100px" viewBox="0 0 100 100" version="1.1" xmlns="http://www.w3.org/2000/svg" xmlns:xlink="http://www.w3.org/1999/xlink">
    <!-- Generator: Sketch 61.1 (89650) - https://sketch.com -->
    <title>dim</title>
    <desc>Created with Sketch.</desc>
    <g id="dim" stroke="none" stroke-width="1" fill="none" fill-rule="evenodd">
        <path d="M54.728,33.7728 L54.736064,33.976704 C54.757568,34.243968 54.82208,34.4928 54.9296,34.7232 C55.0448,35.0304 55.2128,35.2944 55.4336,35.5152 C55.6544,35.736 55.9088,35.904 56.1968,36.0192 C56.4848,36.1536 56.792,36.2208 57.1184,36.2208 C57.464,36.2208 57.7904,36.1536 58.0976,36.0192 C58.3856,35.8848 58.6448,35.7024 58.8752,35.472 C59.0864,35.2416 59.2592,34.9728 59.3936,34.6656 C59.5088,34.3776 59.5664,34.0704 59.5664,33.744 C59.5664,33.072 59.336,32.5056 58.8752,32.0448 C58.3952,31.584 57.8096,31.3536 57.1184,31.3536 C56.792,31.3536 56.4848,31.4208 56.1968,31.5552 C55.9088,31.6896 55.6592,31.8624 55.448,32.0736 C55.2176,32.304 55.0448,32.5632 54.9296,32.8512 C54.7952,33.1584 54.728,33.4656 54.728,33.7728 L54.728,33.7728 Z M57.1184,35.5296 C56.6768,35.5296 56.2832,35.3568 55.9376,35.0112 C55.5728,34.6848 55.3904,34.272 55.3904,33.7728 C55.3904,33.3312 55.5728,32.9184 55.9376,32.5344 C56.2832,32.1696 56.6768,31.9872 57.1184,31.9872 C57.6176,31.9872 58.0352,32.1744 58.3712,32.5488 C58.7072,32.9232 58.8752,33.3312 58.8752,33.7728 C58.8752,34.272 58.712,34.6848 58.3856,35.0112 C58.04,35.3568 57.6176,35.5296 57.1184,35.5296 Z M54.728,33.7728 L54.728,30 L35.0288,30 L35.0288,31.44 L50.7248,31.44 L50.7248,49.7568 C50.7248,49.8336 50.9648,49.9296 51.4448,50.0448 C51.9248,50.1792 52.5296,50.3712 53.2592,50.6208 C53.9696,50.8896 54.7472,51.2448 55.592,51.6864 C56.4368,52.1472 57.2192,52.728 57.9392,53.4288 C58.6592,54.1296 59.2592,54.9792 59.7392,55.9776 C60.2192,56.9952 60.4592,58.2048 60.4592,59.6064 C60.4592,60.8736 60.3056,62.016 59.9984,63.0336 C59.6912,64.0704 59.2112,64.944 58.5584,65.6544 C57.8864,66.384 57.0224,66.9408 55.9664,67.3248 C54.9104,67.728 53.6336,67.9296 52.136,67.9296 C50.696,67.9296 49.5056,67.7568 48.5648,67.4112 C47.6048,67.0656 46.8368,66.6336 46.2608,66.1152 C45.6656,65.5968 45.2336,65.0304 44.9648,64.416 C44.696,63.8016 44.5232,63.2352 44.4464,62.7168 C44.3504,62.1984 44.3216,61.7664 44.36,61.4208 C44.3984,61.0752 44.4464,60.9024 44.504,60.9024 L44.504,60.9024 L54.728,60.9024 L54.728,59.52 L35,59.52 L35.0288,60.9024 L39.8672,60.9024 C39.9056,60.9024 39.9248,61.104 39.9248,61.5072 C39.9056,61.9296 39.9632,62.4576 40.0976,63.0912 C40.232,63.7248 40.4912,64.3968 40.8752,65.1072 C41.24,65.8368 41.816,66.5184 42.6032,67.152 C43.3904,67.7856 44.4368,68.304 45.7424,68.7072 C47.048,69.1296 48.7088,69.3408 50.7248,69.3408 C53.1056,69.3408 55.1696,69.1872 56.9168,68.88 C58.6448,68.5728 60.0656,68.0448 61.1792,67.296 C62.2928,66.5472 63.1184,65.5488 63.656,64.3008 C64.1936,63.072 64.4624,61.5168 64.4624,59.6352 C64.4624,58.3104 64.2224,57.1392 63.7424,56.1216 C63.2624,55.1232 62.6672,54.2496 61.9568,53.5008 C61.2272,52.752 60.44,52.128 59.5952,51.6288 C58.7504,51.1296 57.9728,50.7168 57.2624,50.3904 C56.5328,50.0832 55.928,49.8528 55.448,49.6992 C54.968,49.5648 54.728,49.4784 54.728,49.44 L54.728,49.44 L54.728,33.7728 L54.728,33.7728 Z" id="x" fill="#FFFFFF" fill-rule="nonzero"></path>
    </g>
</svg>