<?xml version="1.0" encoding="UTF-8"?>
<svg width="100px" height="100px" viewBox="0 0 100 100" version="1.1" xmlns="http://www.w3.org/2000/svg" xmlns:xlink="http://www.w3.org/1999/xlink">
    <!-- Generator: Sketch 61.1 (89650) - https://sketch.com -->
    <title>duh</title>
    <desc>Created with Sketch.</desc>
    <g id="duh" stroke="none" stroke-width="1" fill="none" fill-rule="evenodd">
        <path d="M50.7248,66.3408 C53.1056,66.3408 55.1648,66.1872 56.9024,65.88 C58.64,65.5728 60.0656,65.0448 61.1792,64.296 C62.2928,63.5472 63.1184,62.5536 63.656,61.3152 C64.1936,60.0768 64.4624,58.5168 64.4624,56.6352 C64.4624,55.3104 64.2224,54.144 63.7424,53.136 C63.2624,52.128 62.6624,51.2496 61.9424,50.5008 C61.2224,49.752 60.44,49.128 59.5952,48.6288 C58.7504,48.1296 57.968,47.7216 57.248,47.4048 C56.528,47.088 55.928,46.8576 55.448,46.7136 C54.968,46.5696 54.728,46.4784 54.728,46.44 L54.728,46.44 L54.728,27 L35.0288,27 L35.0288,28.44 L50.7248,28.44 L50.7248,46.7568 C50.7248,46.8336 50.9648,46.9344 51.4448,47.0592 C51.9248,47.184 52.5248,47.376 53.2448,47.6352 C53.9648,47.8944 54.7472,48.2496 55.592,48.7008 C56.4368,49.152 57.2192,49.728 57.9392,50.4288 C58.6592,51.1296 59.2592,51.984 59.7392,52.992 C60.2192,54 60.4592,55.2048 60.4592,56.6064 C60.4592,57.8736 60.3056,59.0208 59.9984,60.048 C59.6912,61.0752 59.2064,61.9488 58.544,62.6688 C57.8816,63.3888 57.0224,63.9456 55.9664,64.3392 C54.9104,64.7328 53.6336,64.9296 52.136,64.9296 C50.696,64.9296 49.5008,64.7568 48.5504,64.4112 C47.6,64.0656 46.832,63.6336 46.2464,63.1152 C45.6608,62.5968 45.2336,62.0304 44.9648,61.416 C44.696,60.8016 44.5184,60.2352 44.432,59.7168 C44.3456,59.1984 44.3216,58.7664 44.36,58.4208 C44.3984,58.0752 44.4464,57.9024 44.504,57.9024 L44.504,57.9024 L54.728,57.9024 L54.728,56.52 L35,56.52 L35.0288,57.9024 L39.8672,57.9024 C39.9056,57.9024 39.92,58.1088 39.9104,58.5216 C39.9008,58.9344 39.9632,59.4576 40.0976,60.0912 C40.232,60.7248 40.4864,61.4016 40.8608,62.1216 C41.2352,62.8416 41.816,63.5184 42.6032,64.152 C43.3904,64.7856 44.4368,65.3088 45.7424,65.7216 C47.048,66.1344 48.7088,66.3408 50.7248,66.3408 Z M50.7536,73.7712 C51.6176,73.7712 52.376,73.5072 53.0288,72.9792 C53.6816,72.4512 54.0272,71.6592 54.0656,70.6032 C54.0848,70.2768 54.0752,69.8832 54.0368,69.4224 C53.9984,68.9616 53.8736,68.6256 53.6624,68.4144 C53.6048,68.3568 53.5328,68.4672 53.4464,68.7456 C53.36,69.024 53.216,69.3408 53.0144,69.696 C52.8128,70.0512 52.5296,70.3824 52.1648,70.6896 C51.8,70.9968 51.32,71.1504 50.7248,71.1504 C50.2256,71.1504 49.7984,71.0016 49.4432,70.704 C49.088,70.4064 48.7952,70.08 48.5648,69.7248 C48.3344,69.3696 48.1616,69.0528 48.0464,68.7744 C47.9312,68.496 47.8448,68.376 47.7872,68.4144 C47.7104,68.5104 47.6432,68.6496 47.5856,68.832 C47.528,69.0144 47.4848,69.216 47.456,69.4368 C47.4272,69.6576 47.4032,69.8736 47.384,70.0848 C47.3648,70.296 47.3552,70.488 47.3552,70.6608 C47.3552,71.2176 47.4608,71.688 47.672,72.072 C47.8832,72.456 48.1568,72.7776 48.4928,73.0368 C48.8288,73.296 49.1936,73.4832 49.5872,73.5984 C49.9808,73.7136 50.3696,73.7712 50.7536,73.7712 Z" id="›" fill="#FFFFFF" fill-rule="nonzero"></path>
    </g>
</svg>