<?xml version="1.0" encoding="UTF-8"?>
<svg width="100px" height="100px" viewBox="0 0 100 100" version="1.1" xmlns="http://www.w3.org/2000/svg" xmlns:xlink="http://www.w3.org/1999/xlink">
    <!-- Generator: Sketch 61.1 (89650) - https://sketch.com -->
    <title>eh</title>
    <desc>Created with Sketch.</desc>
    <g id="eh" stroke="none" stroke-width="1" fill="none" fill-rule="evenodd">
        <path d="M74.0464,56.344 L74.0464,54.8176 L51.5536,54.8176 L51.5536,45.6592 L25,45.6592 L25,47.0992 L47.464,47.0992 L47.464,56.344 L74.0464,56.344 Z M49.768,63.6304 C50.1712,63.6304 50.5696,63.5632 50.9632,63.4288 C51.3568,63.2944 51.7072,63.0928 52.0144,62.824 C52.3216,62.5552 52.5712,62.224 52.7632,61.8304 C52.9552,61.4368 53.0512,60.9808 53.0512,60.4624 L53.0512,60.4624 L53.0512,59.9152 C53.0512,59.704 53.0416,59.4976 53.0224,59.296 C53.0032,59.0944 52.9648,58.9024 52.9072,58.72 C52.8496,58.5376 52.7728,58.3888 52.6768,58.2736 C52.6192,58.216 52.5424,58.3264 52.4464,58.6048 C52.3504,58.8832 52.2016,59.2 52,59.5552 C51.7984,59.9104 51.5152,60.2416 51.1504,60.5488 C50.7856,60.856 50.3056,61.0096 49.7104,61.0096 C49.2112,61.0096 48.7888,60.8608 48.4432,60.5632 C48.0976,60.2656 47.8096,59.944 47.5792,59.5984 C47.3488,59.2528 47.1712,58.9408 47.0464,58.6624 C46.9216,58.384 46.8304,58.2544 46.7728,58.2736 C46.6768,58.3696 46.6048,58.5088 46.5568,58.6912 C46.5088,58.8736 46.4704,59.0704 46.4416,59.2816 C46.4128,59.4928 46.3936,59.7088 46.384,59.9296 C46.3744,60.1504 46.3696,60.3376 46.3696,60.4912 C46.3696,61.048 46.4752,61.5232 46.6864,61.9168 C46.8976,62.3104 47.1664,62.632 47.4928,62.8816 C47.8192,63.1312 48.184,63.3184 48.5872,63.4432 C48.9904,63.568 49.384,63.6304 49.768,63.6304 Z" id="ï¬" fill="#FFFFFF" fill-rule="nonzero"></path>
    </g>
</svg>