<?xml version="1.0" encoding="UTF-8"?>
<svg width="100px" height="100px" viewBox="0 0 100 100" version="1.1" xmlns="http://www.w3.org/2000/svg" xmlns:xlink="http://www.w3.org/1999/xlink">
    <!-- Generator: Sketch 61.1 (89650) - https://sketch.com -->
    <title>fah</title>
    <desc>Created with Sketch.</desc>
    <g id="fah" stroke="none" stroke-width="1" fill="none" fill-rule="evenodd">
        <path d="M51.0256,66.2256 C52.0432,66.2256 53.056,66.048 54.064,65.6928 C55.072,65.3376 56.0272,64.848 56.9296,64.224 C57.832,63.6 58.672,62.8704 59.4496,62.0352 C60.2272,61.2 60.8992,60.2976 61.4656,59.328 C62.032,58.3584 62.4736,57.3456 62.7904,56.2896 C63.1072,55.2336 63.2656,54.1872 63.2656,53.1504 C63.2656,52.2864 63.0688,51.4752 62.6752,50.7168 C62.2816,49.9584 61.7728,49.2912 61.1488,48.7152 C60.5248,48.1392 59.824,47.6688 59.0464,47.304 C58.2688,46.9392 57.4864,46.7088 56.6992,46.6128 L56.6992,46.6128 L56.6992,27 L37,27 L37,28.44 L52.696,28.44 L52.696,47.1312 C53.1568,47.1312 53.7568,47.3136 54.496,47.6784 C55.2352,48.0432 55.9504,48.5328 56.6416,49.1472 C57.3328,49.7616 57.928,50.472 58.4272,51.2784 C58.9264,52.0848 59.176,52.9392 59.176,53.8416 C59.176,55.2624 58.9216,56.5584 58.4128,57.7296 C57.904,58.9008 57.28,59.9424 56.5408,60.8544 C55.8016,61.7664 55.024,62.5584 54.208,63.2304 C53.392,63.9024 52.6816,64.464 52.0768,64.9152 C51.472,65.3664 51.0448,65.6976 50.7952,65.9088 C50.5456,66.12 50.6224,66.2256 51.0256,66.2256 Z M51.9184,58.0176 C52.2448,58.0176 52.552,57.9504 52.84,57.816 C53.128,57.6816 53.3824,57.4992 53.6032,57.2688 C53.824,57.0384 53.9968,56.7744 54.1216,56.4768 C54.2464,56.1792 54.3088,55.8576 54.3088,55.512 C54.3088,54.84 54.0784,54.264 53.6176,53.784 C53.1568,53.304 52.5904,53.064 51.9184,53.064 C51.5728,53.064 51.2512,53.136 50.9536,53.28 C50.656,53.424 50.392,53.6112 50.1616,53.8416 C49.9312,54.072 49.7536,54.336 49.6288,54.6336 C49.504,54.9312 49.4416,55.2432 49.4416,55.5696 C49.4416,56.2608 49.6816,56.8416 50.1616,57.312 C50.6416,57.7824 51.2272,58.0176 51.9184,58.0176 Z M51.976,73.8288 C52.3792,73.8288 52.7776,73.7616 53.1712,73.6272 C53.5648,73.4928 53.9152,73.2912 54.2224,73.0224 C54.5296,72.7536 54.7792,72.4224 54.9712,72.0288 C55.1632,71.6352 55.2592,71.1792 55.2592,70.6608 C55.2784,70.488 55.2832,70.296 55.2736,70.0848 C55.264,69.8736 55.2448,69.6672 55.216,69.4656 C55.1872,69.264 55.144,69.0816 55.0864,68.9184 C55.0288,68.7552 54.952,68.6256 54.856,68.5296 C54.7984,68.472 54.7264,68.5776 54.64,68.8464 C54.5536,69.1152 54.4048,69.4272 54.1936,69.7824 C53.9824,70.1376 53.6992,70.4688 53.344,70.776 C52.9888,71.0832 52.5136,71.2368 51.9184,71.2368 C51.4192,71.2368 50.9968,71.088 50.6512,70.7904 C50.3056,70.4928 50.0176,70.1712 49.7872,69.8256 C49.5568,69.48 49.3744,69.168 49.24,68.8896 C49.1056,68.6112 49.0096,68.4912 48.952,68.5296 C48.856,68.6064 48.784,68.736 48.736,68.9184 C48.688,69.1008 48.6544,69.2976 48.6352,69.5088 C48.616,69.72 48.6016,69.936 48.592,70.1568 C48.5824,70.3776 48.5776,70.5552 48.5776,70.6896 C48.5776,71.2464 48.6832,71.7216 48.8944,72.1152 C49.1056,72.5088 49.3744,72.8304 49.7008,73.08 C50.0272,73.3296 50.392,73.5168 50.7952,73.6416 C51.1984,73.7664 51.592,73.8288 51.976,73.8288 Z" id="ﬂ" fill="#FFFFFF" fill-rule="nonzero"></path>
    </g>
</svg>