<?xml version="1.0" encoding="UTF-8"?>
<svg width="100px" height="100px" viewBox="0 0 100 100" version="1.1" xmlns="http://www.w3.org/2000/svg" xmlns:xlink="http://www.w3.org/1999/xlink">
    <!-- Generator: Sketch 61.1 (89650) - https://sketch.com -->
    <title>guh</title>
    <desc>Created with Sketch.</desc>
    <g id="guh" stroke="none" stroke-width="1" fill="none" fill-rule="evenodd">
        <path d="M43.248,59.416 L43.248,41.0992 L45.696,41.0992 L45.696,59.3008 L57.9936,59.3008 C59.5488,59.3008 61.0176,58.9984 62.4,58.3936 C63.7824,57.7888 64.9872,56.9968 66.0144,56.0176 C67.0416,55.0384 67.8528,53.9248 68.448,52.6768 C69.0432,51.4288 69.3408,50.1712 69.3408,48.904 C69.3408,47.4832 69.0528,46.2016 68.4768,45.0592 C67.9008,43.9168 67.152,42.9472 66.2304,42.1504 C65.3088,41.3536 64.272,40.7392 63.12,40.3072 C61.968,39.8752 60.816,39.6592 59.664,39.6592 C58.5312,39.6592 57.4656,39.8272 56.4672,40.1632 C55.4688,40.4992 54.5904,40.9744 53.832,41.5888 C53.0736,42.2032 52.4736,42.9424 52.032,43.8064 C51.5904,44.6704 51.3696,45.64 51.3696,46.7152 C51.3696,48.232 51.6384,49.4224 52.176,50.2864 C52.7136,51.1504 53.3808,51.7936 54.1776,52.216 C54.9744,52.6384 55.824,52.8784 56.7264,52.936 C57.6288,52.9936 58.4496,52.9792 59.1888,52.8928 C59.928,52.8064 60.5136,52.6864 60.9456,52.5328 C61.3776,52.3792 61.5072,52.2928 61.3344,52.2736 C60.3168,52.1968 59.3856,52.0624 58.5408,51.8704 C57.696,51.6784 56.976,51.3856 56.3808,50.992 C55.7856,50.5984 55.3248,50.0656 54.9984,49.3936 C54.672,48.7216 54.5088,47.8672 54.5088,46.8304 C54.5088,46.0816 54.6336,45.3856 54.8832,44.7424 C55.1328,44.0992 55.488,43.5424 55.9488,43.072 C56.4096,42.6016 56.976,42.232 57.648,41.9632 C58.32,41.6944 59.0784,41.56 59.9232,41.56 C60.9408,41.56 61.848,41.7712 62.6448,42.1936 C63.4416,42.616 64.1088,43.1728 64.6464,43.864 C65.184,44.5552 65.592,45.3376 65.8704,46.2112 C66.1488,47.0848 66.288,47.9824 66.288,48.904 C66.288,49.864 66.0528,50.872 65.5824,51.928 C65.112,52.984 64.4256,53.9536 63.5232,54.8368 C62.6208,55.72 61.512,56.4544 60.1968,57.04 C58.8816,57.6256 57.3888,57.9184 55.7184,57.9184 L55.7184,57.9184 L49.6992,57.9184 L49.6992,39.6592 L30,39.6592 L30,41.0992 L39.3024,41.0992 L39.3024,59.416 L43.248,59.416 Z M53.184,67.2496 C53.5872,67.2496 53.9856,67.1824 54.3792,67.048 C54.7728,66.9136 55.1184,66.7168 55.416,66.4576 C55.7136,66.1984 55.9584,65.872 56.1504,65.4784 C56.3424,65.0848 56.448,64.6192 56.4672,64.0816 L56.4672,64.0816 L56.4672,63.5488 C56.4672,63.3472 56.4528,63.1456 56.424,62.944 C56.3952,62.7424 56.3568,62.5504 56.3088,62.368 C56.2608,62.1856 56.1888,62.0368 56.0928,61.9216 C56.0352,61.864 55.9584,61.9744 55.8624,62.2528 C55.7664,62.5312 55.6176,62.848 55.416,63.2032 C55.2144,63.5584 54.9312,63.8896 54.5664,64.1968 C54.2016,64.504 53.7216,64.6576 53.1264,64.6576 C52.6272,64.6576 52.2048,64.5088 51.8592,64.2112 C51.5136,63.9136 51.2256,63.5872 50.9952,63.232 C50.7648,62.8768 50.5872,62.56 50.4624,62.2816 C50.3376,62.0032 50.2464,61.8832 50.1888,61.9216 C50.0928,62.0176 50.016,62.1568 49.9584,62.3392 C49.9008,62.5216 49.8576,62.7184 49.8288,62.9296 C49.8,63.1408 49.7808,63.3568 49.7712,63.5776 C49.7616,63.7984 49.7568,63.9952 49.7568,64.168 C49.7568,64.7056 49.8624,65.1712 50.0736,65.5648 C50.2848,65.9584 50.5536,66.28 50.88,66.5296 C51.2064,66.7792 51.576,66.9616 51.9888,67.0768 C52.4016,67.192 52.8,67.2496 53.184,67.2496 Z" id="‡" fill="#FFFFFF" fill-rule="nonzero"></path>
    </g>
</svg>