<?xml version="1.0" encoding="UTF-8"?>
<svg width="100px" height="100px" viewBox="0 0 100 100" version="1.1" xmlns="http://www.w3.org/2000/svg" xmlns:xlink="http://www.w3.org/1999/xlink">
    <!-- Generator: Sketch 61.1 (89650) - https://sketch.com -->
    <title>hai</title>
    <desc>Created with Sketch.</desc>
    <g id="hai" stroke="none" stroke-width="1" fill="none" fill-rule="evenodd">
        <path d="M47.3264,66.8848 C47.6528,66.8848 47.7488,66.808 47.6144,66.6544 C47.48,66.5008 47.1968,66.2704 46.7648,65.9632 C46.3328,65.656 45.8,65.2624 45.1664,64.7824 C44.5328,64.3024 43.88,63.7408 43.208,63.0976 C42.536,62.4544 41.8976,61.72 41.2928,60.8944 C40.688,60.0688 40.1936,59.1472 39.8096,58.1296 L39.8096,58.1296 L45.4832,58.1296 L45.4832,56.7472 L39.3776,56.7472 C39.32,56.4208 39.272,56.0608 39.2336,55.6672 C39.1952,55.2736 39.176,54.8848 39.176,54.5008 C39.176,53.6368 39.3344,52.8736 39.6512,52.2112 C39.968,51.5488 40.376,50.968 40.8752,50.4688 C41.3744,49.9696 41.9312,49.552 42.5456,49.216 C43.16,48.88 43.7696,48.6064 44.3744,48.3952 C44.9792,48.184 45.5456,48.0304 46.0736,47.9344 C46.6016,47.8384 47.0192,47.7904 47.3264,47.7904 L47.3264,47.7904 L47.3264,27.6592 L35.0288,27.6592 L35.0288,29.0992 L43.4096,29.0992 L43.4096,47.272 C42.6032,47.368 41.72,47.5984 40.76,47.9632 C39.8,48.328 38.9024,48.7984 38.0672,49.3744 C37.232,49.9504 36.5312,50.6176 35.9648,51.376 C35.3984,52.1344 35.1152,52.9456 35.1152,53.8096 C35.1152,54.8656 35.2736,55.9168 35.5904,56.9632 C35.9072,58.0096 36.3488,59.0176 36.9152,59.9872 C37.4816,60.9568 38.1536,61.8592 38.9312,62.6944 C39.7088,63.5296 40.5488,64.2592 41.4512,64.8832 C42.3536,65.5072 43.304,65.9968 44.3024,66.352 C45.3008,66.7072 46.3088,66.8848 47.3264,66.8848 Z M43.3232,55.9984 C43.6688,55.9984 43.9952,55.9312 44.3024,55.7968 C44.6096,55.6624 44.8784,55.48 45.1088,55.2496 C45.3392,55.0192 45.5216,54.7552 45.656,54.4576 C45.7904,54.16 45.8576,53.848 45.8576,53.5216 C45.8576,53.176 45.7856,52.8592 45.6416,52.5712 C45.4976,52.2832 45.3104,52.0336 45.08,51.8224 C44.8496,51.6112 44.5808,51.4432 44.2736,51.3184 C43.9664,51.1936 43.6496,51.1312 43.3232,51.1312 C42.9968,51.1312 42.6848,51.1936 42.3872,51.3184 C42.0896,51.4432 41.8256,51.616 41.5952,51.8368 C41.3648,52.0576 41.1824,52.312 41.048,52.6 C40.9136,52.888 40.8464,53.2048 40.8464,53.5504 C40.8464,53.896 40.9136,54.2176 41.048,54.5152 C41.1824,54.8128 41.3648,55.072 41.5952,55.2928 C41.8256,55.5136 42.0896,55.6864 42.3872,55.8112 C42.6848,55.936 42.9968,55.9984 43.3232,55.9984 Z" id="!" fill="#FFFFFF" fill-rule="nonzero"></path>
    </g>
</svg>