<?xml version="1.0" encoding="UTF-8"?>
<svg width="100px" height="100px" viewBox="0 0 100 100" version="1.1" xmlns="http://www.w3.org/2000/svg" xmlns:xlink="http://www.w3.org/1999/xlink">
    <!-- Generator: Sketch 61.1 (89650) - https://sketch.com -->
    <title>hi</title>
    <desc>Created with Sketch.</desc>
    <g id="hi" stroke="none" stroke-width="1" fill="none" fill-rule="evenodd">
        <path d="M56.2688,69.2256 C56.5952,69.2256 56.6864,69.1488 56.5424,68.9952 C56.3984,68.8416 56.1104,68.6112 55.6784,68.304 C55.2464,67.9968 54.7136,67.6032 54.08,67.1232 C53.4464,66.6432 52.7984,66.0816 52.136,65.4384 C51.4736,64.7952 50.84,64.0608 50.2352,63.2352 C49.6304,62.4096 49.136,61.488 48.752,60.4704 L48.752,60.4704 L54.3968,60.4704 L54.3968,59.088 L48.32,59.088 C48.224,58.7616 48.1616,58.4016 48.1328,58.008 C48.104,57.6144 48.0896,57.2256 48.0896,56.8416 C48.0896,56.1504 48.248,55.5024 48.5648,54.8976 C48.8816,54.2928 49.2896,53.7456 49.7888,53.256 C50.288,52.7664 50.8496,52.3248 51.4736,51.9312 C52.0976,51.5376 52.712,51.2112 53.3168,50.952 C53.9216,50.6928 54.488,50.4912 55.016,50.3472 C55.544,50.2032 55.9616,50.1312 56.2688,50.1312 L56.2688,50.1312 L56.2688,30 L44.0864,30 L44.0864,31.44 L52.2944,31.44 L52.2944,49.6128 C51.5072,49.7088 50.6336,49.9392 49.6736,50.304 C48.7136,50.6688 47.8112,51.1392 46.9664,51.7152 C46.1216,52.2912 45.416,52.9584 44.8496,53.7168 C44.2832,54.4752 44,55.2864 44,56.1504 C44,57.2064 44.1632,58.2576 44.4896,59.304 C44.816,60.3504 45.2624,61.3584 45.8288,62.328 C46.3952,63.2976 47.0672,64.2 47.8448,65.0352 C48.6224,65.8704 49.4624,66.6 50.3648,67.224 C51.2672,67.848 52.2224,68.3376 53.2304,68.6928 C54.2384,69.048 55.2512,69.2256 56.2688,69.2256 Z" id="*" fill="#FFFFFF" fill-rule="nonzero"></path>
    </g>
</svg>