<?xml version="1.0" encoding="UTF-8"?>
<svg width="100px" height="100px" viewBox="0 0 100 100" version="1.1" xmlns="http://www.w3.org/2000/svg" xmlns:xlink="http://www.w3.org/1999/xlink">
    <!-- Generator: Sketch 61.1 (89650) - https://sketch.com -->
    <title>huh</title>
    <desc>Created with Sketch.</desc>
    <g id="huh" stroke="none" stroke-width="1" fill="none" fill-rule="evenodd">
        <path d="M47.4704,69.8848 C47.8544,69.8848 47.9216,69.7792 47.672,69.568 C47.4224,69.3568 46.9952,69.0256 46.3904,68.5744 C45.7856,68.1232 45.08,67.5616 44.2736,66.8896 C43.4672,66.2176 42.6944,65.4256 41.9552,64.5136 C41.216,63.6016 40.592,62.56 40.0832,61.3888 C39.5744,60.2176 39.32,58.9216 39.32,57.5008 C39.32,56.7136 39.4784,55.9984 39.7952,55.3552 C40.112,54.712 40.52,54.1408 41.0192,53.6416 C41.5184,53.1424 42.0752,52.7152 42.6896,52.36 C43.304,52.0048 43.9136,51.712 44.5184,51.4816 C45.1232,51.2512 45.6896,51.0784 46.2176,50.9632 C46.7456,50.848 47.1632,50.7904 47.4704,50.7904 L47.4704,50.7904 L47.4704,30.6592 L35,30.6592 L35,32.0992 L43.4672,32.0992 L43.4672,50.272 C42.68,50.368 41.8112,50.5984 40.8608,50.9632 C39.9104,51.328 39.0176,51.7984 38.1824,52.3744 C37.3472,52.9504 36.6464,53.6176 36.08,54.376 C35.5136,55.1344 35.2304,55.9456 35.2304,56.8096 C35.2304,57.8464 35.3936,58.8928 35.72,59.9488 C36.0464,61.0048 36.4928,62.0176 37.0592,62.9872 C37.6256,63.9568 38.2928,64.8592 39.0608,65.6944 C39.8288,66.5296 40.6688,67.2592 41.5808,67.8832 C42.4928,68.5072 43.448,68.9968 44.4464,69.352 C45.4448,69.7072 46.4528,69.8848 47.4704,69.8848 Z M44.9936,77.632 C45.3968,77.632 45.7952,77.5648 46.1888,77.4304 C46.5824,77.296 46.928,77.0944 47.2256,76.8256 C47.5232,76.5568 47.768,76.2256 47.96,75.832 C48.152,75.4384 48.248,74.9824 48.248,74.464 C48.2672,74.2912 48.2768,74.0992 48.2768,73.888 C48.2768,73.6768 48.2672,73.4656 48.248,73.2544 C48.2288,73.0432 48.1904,72.8512 48.1328,72.6784 C48.0752,72.5056 47.9984,72.3712 47.9024,72.2752 C47.8448,72.2176 47.768,72.328 47.672,72.6064 C47.576,72.8848 47.4224,73.1968 47.2112,73.5424 C47,73.888 46.712,74.2144 46.3472,74.5216 C45.9824,74.8288 45.5024,74.9824 44.9072,74.9824 C44.408,74.9824 43.9856,74.8336 43.64,74.536 C43.2944,74.2384 43.0064,73.912 42.776,73.5568 C42.5456,73.2016 42.368,72.8848 42.2432,72.6064 C42.1184,72.328 42.0272,72.2176 41.9696,72.2752 C41.8736,72.3712 41.8016,72.5104 41.7536,72.6928 C41.7056,72.8752 41.6672,73.072 41.6384,73.2832 C41.6096,73.4944 41.5904,73.7104 41.5808,73.9312 C41.5712,74.152 41.5664,74.3392 41.5664,74.4928 C41.5664,75.0304 41.672,75.496 41.8832,75.8896 C42.0944,76.2832 42.3632,76.6096 42.6896,76.8688 C43.016,77.128 43.3856,77.32 43.7984,77.4448 C44.2112,77.5696 44.6096,77.632 44.9936,77.632 Z" id="°" fill="#FFFFFF" fill-rule="nonzero"></path>
    </g>
</svg>