<?xml version="1.0" encoding="UTF-8"?>
<svg width="100px" height="100px" viewBox="0 0 100 100" version="1.1" xmlns="http://www.w3.org/2000/svg" xmlns:xlink="http://www.w3.org/1999/xlink">
    <!-- Generator: Sketch 61.1 (89650) - https://sketch.com -->
    <title>if</title>
    <desc>Created with Sketch.</desc>
    <g id="if" stroke="none" stroke-width="1" fill="none" fill-rule="evenodd">
        <path d="M74.0464,56.344 L74.0464,54.8176 L51.5536,54.8176 L51.5536,45.6592 L25,45.6592 L25,47.0992 L47.464,47.0992 L47.464,56.344 L74.0464,56.344 Z M47.176,63.9184 C47.7712,63.9184 48.3184,63.7312 48.8176,63.3568 C49.3168,62.9824 49.7488,62.5264 50.1136,61.9888 C50.4784,61.4512 50.7616,60.8944 50.9632,60.3184 C51.1648,59.7424 51.2656,59.2528 51.2656,58.8496 C51.2656,58.4464 51.1456,58.1584 50.9056,57.9856 C50.6656,57.8128 50.3776,57.7072 50.0416,57.6688 C49.7056,57.6304 49.3552,57.6544 48.9904,57.7408 C48.6256,57.8272 48.3136,57.9184 48.0544,58.0144 C47.7952,58.1104 47.6224,58.2064 47.536,58.3024 C47.4496,58.3984 47.5216,58.4464 47.752,58.4464 C47.9056,58.4464 48.1072,58.4224 48.3568,58.3744 C48.6064,58.3264 48.8464,58.3024 49.0768,58.3024 C49.3072,58.3024 49.5088,58.3648 49.6816,58.4896 C49.8544,58.6144 49.9408,58.8496 49.9408,59.1952 C49.9408,59.9056 49.7776,60.5488 49.4512,61.1248 C49.1248,61.7008 48.7744,62.1952 48.4,62.608 C48.0256,63.0208 47.704,63.3424 47.4352,63.5728 C47.1664,63.8032 47.08,63.9184 47.176,63.9184 Z" id="n" fill="#FFFFFF" fill-rule="nonzero"></path>
    </g>
</svg>