<?xml version="1.0" encoding="UTF-8"?>
<svg width="100px" height="100px" viewBox="0 0 100 100" version="1.1" xmlns="http://www.w3.org/2000/svg" xmlns:xlink="http://www.w3.org/1999/xlink">
    <!-- Generator: Sketch 61.1 (89650) - https://sketch.com -->
    <title>im</title>
    <desc>Created with Sketch.</desc>
    <g id="im" stroke="none" stroke-width="1" fill="none" fill-rule="evenodd">
        <path d="M74.0464,56.344 L74.0464,54.8176 L51.5536,54.8176 L51.5536,45.6592 L25,45.6592 L25,47.0992 L47.464,47.0992 L47.464,56.344 L74.0464,56.344 Z M60.6544,61.3552 C61.3264,61.3552 61.8928,61.1152 62.3536,60.6352 C62.8144,60.1552 63.0448,59.5792 63.0448,58.9072 C63.0448,58.216 62.8144,57.6304 62.3536,57.1504 C61.8928,56.6704 61.3264,56.4304 60.6544,56.4304 C59.9632,56.4304 59.3728,56.68 58.8832,57.1792 C58.3936,57.6784 58.1488,58.2736 58.1488,58.9648 C58.1488,59.6368 58.3936,60.2032 58.8832,60.664 C59.3728,61.1248 59.9632,61.3552 60.6544,61.3552 Z M60.6544,60.664 C60.1744,60.664 59.752,60.5056 59.3872,60.1888 C59.0224,59.872 58.84,59.464 58.84,58.9648 C58.84,58.4656 59.0224,58.0384 59.3872,57.6832 C59.752,57.328 60.1744,57.1504 60.6544,57.1504 C61.1152,57.1504 61.5136,57.328 61.8496,57.6832 C62.1856,58.0384 62.3536,58.4656 62.3536,58.9648 C62.3536,59.464 62.1856,59.872 61.8496,60.1888 C61.5136,60.5056 61.1152,60.664 60.6544,60.664 Z" id="u" fill="#FFFFFF" fill-rule="nonzero"></path>
    </g>
</svg>