<?xml version="1.0" encoding="UTF-8"?>
<svg width="100px" height="100px" viewBox="0 0 100 100" version="1.1" xmlns="http://www.w3.org/2000/svg" xmlns:xlink="http://www.w3.org/1999/xlink">
    <!-- Generator: Sketch 61.1 (89650) - https://sketch.com -->
    <title>imf</title>
    <desc>Created with Sketch.</desc>
    <g id="imf" stroke="none" stroke-width="1" fill="none" fill-rule="evenodd">
        <path d="M74.0464,51.344 L74.0464,49.8176 L51.5536,49.8176 L51.5536,40.6592 L25,40.6592 L25,42.0992 L47.464,42.0992 L47.464,51.344 L74.0464,51.344 Z M60.6544,56.3552 C61.3264,56.3552 61.8928,56.1152 62.3536,55.6352 C62.8144,55.1552 63.0448,54.5792 63.0448,53.9072 C63.0448,53.216 62.8144,52.6304 62.3536,52.1504 C61.8928,51.6704 61.3264,51.4304 60.6544,51.4304 C59.9632,51.4304 59.3728,51.68 58.8832,52.1792 C58.3936,52.6784 58.1488,53.2736 58.1488,53.9648 C58.1488,54.6368 58.3936,55.2032 58.8832,55.664 C59.3728,56.1248 59.9632,56.3552 60.6544,56.3552 Z M60.6544,55.664 C60.1744,55.664 59.752,55.5056 59.3872,55.1888 C59.0224,54.872 58.84,54.464 58.84,53.9648 C58.84,53.4656 59.0224,53.0384 59.3872,52.6832 C59.752,52.328 60.1744,52.1504 60.6544,52.1504 C61.1152,52.1504 61.5136,52.328 61.8496,52.6832 C62.1856,53.0384 62.3536,53.4656 62.3536,53.9648 C62.3536,54.464 62.1856,54.872 61.8496,55.1888 C61.5136,55.5056 61.1152,55.664 60.6544,55.664 Z M47.752,59.3792 C48.3472,59.3792 48.8944,59.1872 49.3936,58.8032 C49.8928,58.4192 50.3248,57.9584 50.6896,57.4208 C51.0544,56.8832 51.3328,56.3264 51.5248,55.7504 C51.7168,55.1744 51.8128,54.6848 51.8128,54.2816 C51.8128,53.8976 51.6928,53.6192 51.4528,53.4464 C51.2128,53.2736 50.9296,53.1728 50.6032,53.144 C50.2768,53.1152 49.9264,53.1392 49.552,53.216 C49.1776,53.2928 48.8656,53.384 48.616,53.4896 C48.3664,53.5952 48.1984,53.6912 48.112,53.7776 C48.0256,53.864 48.0976,53.9072 48.328,53.9072 C48.5008,53.9072 48.712,53.8784 48.9616,53.8208 C49.2112,53.7632 49.4512,53.7392 49.6816,53.7488 C49.912,53.7584 50.1088,53.8208 50.272,53.936 C50.4352,54.0512 50.5168,54.2816 50.5168,54.6272 C50.5168,55.3184 50.3584,55.952 50.0416,56.528 C49.7248,57.104 49.3792,57.6032 49.0048,58.0256 C48.6304,58.448 48.304,58.7792 48.0256,59.0192 C47.7472,59.2592 47.656,59.3792 47.752,59.3792 Z" id="ยก" fill="#FFFFFF" fill-rule="nonzero"></path>
    </g>
</svg>