<?xml version="1.0" encoding="UTF-8"?>
<svg width="100px" height="100px" viewBox="0 0 100 100" version="1.1" xmlns="http://www.w3.org/2000/svg" xmlns:xlink="http://www.w3.org/1999/xlink">
    <!-- Generator: Sketch 61.1 (89650) - https://sketch.com -->
    <title>ing</title>
    <desc>Created with Sketch.</desc>
    <g id="ing" stroke="none" stroke-width="1" fill="none" fill-rule="evenodd">
        <path d="M59.534225,69.4889143 L59.6096,69.4848 C59.8304,69.4656 60.1328,69.3744 60.5168,69.2112 C60.9008,69.048 61.3232,68.808 61.784,68.4912 C62.2448,68.1744 62.6768,67.7712 63.08,67.2816 C63.4832,66.792 63.824,66.2208 64.1024,65.568 C64.3808,64.9152 64.52,64.176 64.52,63.3504 C64.52,62.9472 64.4672,62.52 64.3616,62.0688 C64.256,61.6176 64.088,61.2 63.8576,60.816 C63.6272,60.432 63.3344,60.1152 62.9792,59.8656 C62.624,59.616 62.2064,59.4912 61.7264,59.4912 C60.632,59.4912 59.7008,59.6784 58.9328,60.0528 C58.1648,60.4272 57.5216,60.8928 57.0032,61.4496 C56.4848,62.0064 56.072,62.6016 55.7648,63.2352 C55.4576,63.8688 55.2272,64.4496 55.0736,64.9776 C54.92,65.5056 54.8192,65.9232 54.7712,66.2304 C54.7232,66.5376 54.6992,66.6432 54.6992,66.5472 L54.6992,66.5472 L54.6992,30 L35,30 L35,31.44 L50.696,31.44 L50.696,69.3408 L54.7568,69.3408 C54.776,69.3408 54.8336,69.2016 54.9296,68.9232 C55.0256,68.6448 55.1648,68.2944 55.3472,67.872 C55.5296,67.4496 55.7504,66.9984 56.0096,66.5184 C56.2688,66.0384 56.5712,65.5872 56.9168,65.1648 C57.2624,64.7424 57.6512,64.392 58.0832,64.1136 C58.5152,63.8352 58.9904,63.696 59.5088,63.696 C59.9696,63.696 60.3824,63.8832 60.7472,64.2576 C61.112,64.632 61.2944,65.1264 61.2944,65.7408 C61.2944,66.24 61.1936,66.7104 60.992,67.152 C60.7904,67.5936 60.5744,67.9776 60.344,68.304 C60.0752,68.688 59.768,69.0336 59.4224,69.3408 C59.3264,69.456 59.3888,69.504 59.6096,69.4848 L59.534225,69.4889143 Z" id="3" fill="#FFFFFF" fill-rule="nonzero"></path>
    </g>
</svg>