<?xml version="1.0" encoding="UTF-8"?>
<svg width="100px" height="100px" viewBox="0 0 100 100" version="1.1" xmlns="http://www.w3.org/2000/svg" xmlns:xlink="http://www.w3.org/1999/xlink">
    <!-- Generator: Sketch 61.1 (89650) - https://sketch.com -->
    <title>ji</title>
    <desc>Created with Sketch.</desc>
    <g id="ji" stroke="none" stroke-width="1" fill="none" fill-rule="evenodd">
        <path d="M69.2256,61.9328 L69.2256,60.5504 L54.5376,60.5216 L54.5376,57.8432 L57.9936,57.8432 C59.5488,57.8432 61.0176,57.5312 62.4,56.9072 C63.7824,56.2832 64.9872,55.4672 66.0144,54.4592 C67.0416,53.4512 67.8528,52.3136 68.448,51.0464 C69.0432,49.7792 69.3408,48.512 69.3408,47.2448 C69.3408,45.824 69.0528,44.5424 68.4768,43.4 C67.9008,42.2576 67.152,41.288 66.2304,40.4912 C65.3088,39.6944 64.272,39.08 63.12,38.648 C61.968,38.216 60.816,38 59.664,38 C58.512,38 57.432,38.168 56.424,38.504 C55.416,38.84 54.5376,39.3152 53.7888,39.9296 C53.04,40.544 52.4496,41.2832 52.0176,42.1472 C51.5856,43.0112 51.3696,43.9808 51.3696,45.056 L51.3696,45.056 L51.3696,56.432 L49.6992,56.432 L49.6992,38 L30,38 L30,39.44 L45.696,39.44 L45.696,57.8432 L51.3696,57.8432 L51.3696,61.9328 L69.2256,61.9328 Z M55.7184,56.432 L54.5376,56.432 L54.5376,45.1712 C54.5376,44.4032 54.6576,43.6976 54.8976,43.0544 C55.1376,42.4112 55.488,41.8544 55.9488,41.384 C56.4096,40.9136 56.9712,40.5488 57.6336,40.2896 C58.296,40.0304 59.0496,39.9008 59.8944,39.9008 C60.912,39.9008 61.8192,40.112 62.616,40.5344 C63.4128,40.9568 64.0848,41.5136 64.632,42.2048 C65.1792,42.896 65.592,43.6784 65.8704,44.552 C66.1488,45.4256 66.288,46.3232 66.288,47.2448 C66.288,48.2048 66.0528,49.2224 65.5824,50.2976 C65.112,51.3728 64.4256,52.3616 63.5232,53.264 C62.6208,54.1664 61.512,54.92 60.1968,55.5248 C58.8816,56.1296 57.3888,56.432 55.7184,56.432 L55.7184,56.432 Z" id="Ë" fill="#FFFFFF" fill-rule="nonzero"></path>
    </g>
</svg>