<?xml version="1.0" encoding="UTF-8"?>
<svg width="100px" height="100px" viewBox="0 0 100 100" version="1.1" xmlns="http://www.w3.org/2000/svg" xmlns:xlink="http://www.w3.org/1999/xlink">
    <!-- Generator: Sketch 61.1 (89650) - https://sketch.com -->
    <title>ka</title>
    <desc>Created with Sketch.</desc>
    <g id="ka" stroke="none" stroke-width="1" fill="none" fill-rule="evenodd">
        <path d="M57.9936,59.6416 C59.5488,59.6416 61.0176,59.3392 62.4,58.7344 C63.7824,58.1296 64.9872,57.3376 66.0144,56.3584 C67.0416,55.3792 67.8528,54.2656 68.448,53.0176 C69.0432,51.7696 69.3408,50.512 69.3408,49.2448 C69.3408,47.824 69.0528,46.5424 68.4768,45.4 C67.9008,44.2576 67.152,43.288 66.2304,42.4912 C65.3088,41.6944 64.272,41.08 63.12,40.648 C61.968,40.216 60.816,40 59.664,40 C58.5312,40 57.4656,40.168 56.4672,40.504 C55.4688,40.84 54.5904,41.3152 53.832,41.9296 C53.0736,42.544 52.4736,43.2832 52.032,44.1472 C51.5904,45.0112 51.3696,45.9808 51.3696,47.056 C51.3696,48.5728 51.6384,49.7632 52.176,50.6272 C52.7136,51.4912 53.3808,52.1344 54.1776,52.5568 C54.9744,52.9792 55.824,53.2192 56.7264,53.2768 C57.6288,53.3344 58.4496,53.32 59.1888,53.2336 C59.928,53.1472 60.5136,53.0272 60.9456,52.8736 C61.3776,52.72 61.5072,52.6336 61.3344,52.6144 C60.3168,52.5376 59.3856,52.4032 58.5408,52.2112 C57.696,52.0192 56.976,51.7264 56.3808,51.3328 C55.7856,50.9392 55.3248,50.4064 54.9984,49.7344 C54.672,49.0624 54.5088,48.208 54.5088,47.1712 C54.5088,46.4224 54.6336,45.7264 54.8832,45.0832 C55.1328,44.44 55.488,43.8832 55.9488,43.4128 C56.4096,42.9424 56.976,42.5728 57.648,42.304 C58.32,42.0352 59.0784,41.9008 59.9232,41.9008 C60.9408,41.9008 61.848,42.112 62.6448,42.5344 C63.4416,42.9568 64.1088,43.5136 64.6464,44.2048 C65.184,44.896 65.592,45.6784 65.8704,46.552 C66.1488,47.4256 66.288,48.3232 66.288,49.2448 C66.288,50.2048 66.0528,51.2128 65.5824,52.2688 C65.112,53.3248 64.4256,54.2944 63.5232,55.1776 C62.6208,56.0608 61.512,56.7952 60.1968,57.3808 C58.8816,57.9664 57.3888,58.2592 55.7184,58.2592 L55.7184,58.2592 L49.6992,58.2592 L49.6992,40 L30,40 L30,41.44 L45.696,41.44 L45.696,59.6416 L57.9936,59.6416 Z" id="7" fill="#FFFFFF" fill-rule="nonzero"></path>
    </g>
</svg>