<?xml version="1.0" encoding="UTF-8"?>
<svg width="100px" height="100px" viewBox="0 0 100 100" version="1.1" xmlns="http://www.w3.org/2000/svg" xmlns:xlink="http://www.w3.org/1999/xlink">
    <!-- Generator: Sketch 61.1 (89650) - https://sketch.com -->
    <title>kam</title>
    <desc>Created with Sketch.</desc>
    <g id="kam" stroke="none" stroke-width="1" fill="none" fill-rule="evenodd">
        <path d="M68.4064,42.1888 C67.9072,42.1888 67.4848,42.016 67.1392,41.6704 C66.7744,41.344 66.592,40.9312 66.592,40.432 C66.592,40.2016 66.64,39.9808 66.736,39.7696 C66.832,39.5584 66.9664,39.3664 67.1392,39.1936 C67.2928,39.04 67.4848,38.9056 67.7152,38.7904 C67.9264,38.6944 68.1568,38.6464 68.4064,38.6464 C68.8672,38.6464 69.2608,38.8288 69.5872,39.1936 C69.8944,39.5776 70.048,39.9904 70.048,40.432 C70.048,40.9312 69.8944,41.344 69.5872,41.6704 C69.2608,42.016 68.8672,42.1888 68.4064,42.1888 Z M66.42,41.989 L66.5272,42.0736 L66.5272,42.0736 L66.6208,42.16 C66.8512,42.3904 67.12,42.5632 67.4272,42.6784 C67.7344,42.8128 68.0608,42.88 68.4064,42.88 C68.7328,42.88 69.04,42.8128 69.328,42.6784 C69.616,42.544 69.8752,42.3616 70.1056,42.1312 C70.3168,41.9008 70.4896,41.632 70.624,41.3248 C70.7584,41.0368 70.8256,40.7296 70.8256,40.4032 C70.8256,39.7312 70.5856,39.1648 70.1056,38.704 C69.6256,38.2432 69.0592,38.0128 68.4064,38.0128 C68.0608,38.0128 67.7344,38.08 67.4272,38.2144 C67.12,38.3488 66.8512,38.5216 66.6208,38.7328 C66.3904,38.9632 66.208,39.2224 66.0736,39.5104 C65.9392,39.8176 65.872,40.1248 65.872,40.432 C65.872,40.7008 65.92,40.96 66.016,41.2096 C65.5168,40.4224 64.9216,39.7312 64.2304,39.136 C63.3088,38.3488 62.272,37.7344 61.12,37.2928 C59.968,36.8704 58.816,36.6592 57.664,36.6592 C56.5312,36.6592 55.4656,36.8224 54.4672,37.1488 C53.4688,37.4944 52.5952,37.9744 51.8464,38.5888 C51.0784,39.2032 50.4736,39.9424 50.032,40.8064 C49.5904,41.6704 49.3696,42.64 49.3696,43.7152 C49.3696,45.232 49.6384,46.4224 50.176,47.2864 C50.7136,48.1504 51.3856,48.7936 52.192,49.216 C52.9792,49.6384 53.824,49.8784 54.7264,49.936 C55.6288,49.9936 56.4544,49.9744 57.2032,49.8784 C57.9328,49.8016 58.5184,49.6864 58.96,49.5328 C59.3824,49.3792 59.5072,49.2928 59.3344,49.2736 C58.3168,49.1968 57.3856,49.0624 56.5408,48.8704 C55.696,48.6784 54.976,48.3808 54.3808,47.9776 C53.7856,47.5936 53.3248,47.0656 52.9984,46.3936 C52.672,45.7216 52.5088,44.8672 52.5088,43.8304 C52.5088,43.0816 52.6336,42.3808 52.8832,41.728 C53.1328,41.0944 53.488,40.5376 53.9488,40.0576 C54.4096,39.5968 54.976,39.232 55.648,38.9632 C56.32,38.6944 57.0784,38.56 57.9232,38.56 C58.9408,38.56 59.8528,38.7712 60.6592,39.1936 C61.4464,39.616 62.1088,40.1728 62.6464,40.864 C63.184,41.5552 63.5968,42.3328 63.8848,43.1968 C64.1536,44.08 64.288,44.9824 64.288,45.904 C64.288,46.864 64.0576,47.872 63.5968,48.928 C63.1168,49.984 62.4256,50.9536 61.5232,51.8368 C60.6208,52.72 59.5168,53.4496 58.2112,54.0256 C56.8864,54.6208 55.3888,54.9184 53.7184,54.9184 L53.7184,54.9184 L47.6992,54.9184 L47.6992,36.6592 L28,36.6592 L28,38.0992 L43.696,38.0992 L43.696,56.3008 L55.9936,56.3008 C57.5488,56.3008 59.0176,55.9936 60.4,55.3792 C61.7824,54.784 62.992,53.9968 64.0288,53.0176 C65.0464,52.0384 65.8528,50.9248 66.448,49.6768 C67.0432,48.4288 67.3408,47.1712 67.3408,45.904 C67.3408,44.4832 67.0528,43.1968 66.4768,42.0448 C66.4576,42.0256 66.4384,42.0064 66.4192,41.9872 L66.42,41.989 Z" id="a" fill="#FFFFFF" fill-rule="nonzero"></path>
    </g>
</svg>