<?xml version="1.0" encoding="UTF-8"?>
<svg width="100px" height="100px" viewBox="0 0 100 100" version="1.1" xmlns="http://www.w3.org/2000/svg" xmlns:xlink="http://www.w3.org/1999/xlink">
    <!-- Generator: Sketch 61.1 (89650) - https://sketch.com -->
    <title>kay</title>
    <desc>Created with Sketch.</desc>
    <g id="kay" stroke="none" stroke-width="1" fill="none" fill-rule="evenodd">
        <path d="M51.0512,60.3008 C52.1072,60.3008 53.12,60.1616 54.0896,59.8832 C55.0592,59.6048 55.9664,59.216 56.8112,58.7168 C57.656,58.2176 58.4192,57.6272 59.1008,56.9456 C59.7824,56.264 60.3728,55.5296 60.872,54.7424 L60.872,54.7424 L76.7984,54.7424 L76.7984,53.2736 L61.5632,53.2736 C62.0432,52.1984 62.2832,51.0752 62.2832,49.904 C62.2832,48.4832 62,47.2016 61.4336,46.0592 C60.8672,44.9168 60.1232,43.9472 59.2016,43.1504 C58.28,42.3536 57.248,41.7392 56.1056,41.3072 C54.9632,40.8752 53.816,40.6592 52.664,40.6592 C51.5312,40.6592 50.4656,40.8272 49.4672,41.1632 C48.4688,41.4992 47.5904,41.9744 46.832,42.5888 C46.0736,43.2032 45.4736,43.9424 45.032,44.8064 C44.5904,45.6704 44.3696,46.64 44.3696,47.7152 C44.3696,48.6368 44.4992,49.448 44.7584,50.1488 C45.0176,50.8496 45.3536,51.4592 45.7664,51.9776 C46.1792,52.496 46.6496,52.9328 47.1776,53.288 C47.7056,53.6432 48.2384,53.9264 48.776,54.1376 C49.3136,54.3488 49.832,54.5024 50.3312,54.5984 C50.8304,54.6944 51.2624,54.7424 51.6272,54.7424 L51.6272,54.7424 L57.4448,54.7424 C57.0032,55.3184 56.4896,55.8608 55.904,56.3696 C55.3184,56.8784 54.6656,57.32 53.9456,57.6944 C53.2256,58.0688 52.4336,58.3664 51.5696,58.5872 C50.7056,58.808 49.784,58.9184 48.8048,58.9184 L48.8048,58.9184 L42.6992,58.9184 L42.6992,40.6592 L23,40.6592 L23,42.0992 L38.696,42.0992 L38.696,60.3008 L51.0512,60.3008 Z M58.3088,53.2736 L52.52,53.2736 C51.7904,53.2736 51.1184,53.1248 50.504,52.8272 C49.8896,52.5296 49.3616,52.1312 48.92,51.632 C48.4784,51.1328 48.1328,50.5568 47.8832,49.904 C47.6336,49.2512 47.5088,48.56 47.5088,47.8304 C47.5088,47.0816 47.6336,46.3856 47.8832,45.7424 C48.1328,45.0992 48.488,44.5424 48.9488,44.072 C49.4096,43.6016 49.976,43.232 50.648,42.9632 C51.32,42.6944 52.0784,42.56 52.9232,42.56 C53.9408,42.56 54.8432,42.7712 55.6304,43.1936 C56.4176,43.616 57.08,44.1728 57.6176,44.864 C58.1552,45.5552 58.5632,46.3376 58.8416,47.2112 C59.12,48.0848 59.2592,48.9824 59.2592,49.904 C59.2592,50.4416 59.1728,50.9984 59,51.5744 C58.8272,52.1504 58.5968,52.7168 58.3088,53.2736 L58.3088,53.2736 Z" id="—" fill="#FFFFFF" fill-rule="nonzero"></path>
    </g>
</svg>