<?xml version="1.0" encoding="UTF-8"?>
<svg width="100px" height="100px" viewBox="0 0 100 100" version="1.1" xmlns="http://www.w3.org/2000/svg" xmlns:xlink="http://www.w3.org/1999/xlink">
    <!-- Generator: Sketch 61.1 (89650) - https://sketch.com -->
    <title>kayf</title>
    <desc>Created with Sketch.</desc>
    <g id="kayf" stroke="none" stroke-width="1" fill="none" fill-rule="evenodd">
        <path d="M56.0512,59.3008 C57.1072,59.3008 58.12,59.1616 59.0896,58.8832 C60.0592,58.6048 60.9664,58.216 61.8112,57.7168 C62.656,57.2176 63.4192,56.6272 64.1008,55.9456 C64.7824,55.264 65.3728,54.5296 65.872,53.7424 L65.872,53.7424 L81.7984,53.7424 L81.7984,52.2736 L66.5632,52.2736 C67.0432,51.1984 67.2832,50.0752 67.2832,48.904 C67.2832,47.4832 67,46.2016 66.4336,45.0592 C65.8672,43.9168 65.1232,42.9472 64.2016,42.1504 C63.28,41.3536 62.248,40.7392 61.1056,40.3072 C59.9632,39.8752 58.816,39.6592 57.664,39.6592 C56.5312,39.6592 55.4656,39.8272 54.4672,40.1632 C53.4688,40.4992 52.5904,40.9744 51.832,41.5888 C51.0736,42.2032 50.4736,42.9424 50.032,43.8064 C49.5904,44.6704 49.3696,45.64 49.3696,46.7152 C49.3696,47.6368 49.4992,48.448 49.7584,49.1488 C50.0176,49.8496 50.3536,50.4592 50.7664,50.9776 C51.1792,51.496 51.6496,51.9328 52.1776,52.288 C52.7056,52.6432 53.2384,52.9264 53.776,53.1376 C54.3136,53.3488 54.832,53.5024 55.3312,53.5984 C55.8304,53.6944 56.2624,53.7424 56.6272,53.7424 L56.6272,53.7424 L62.4448,53.7424 C62.0032,54.3184 61.4896,54.8608 60.904,55.3696 C60.3184,55.8784 59.6656,56.32 58.9456,56.6944 C58.2256,57.0688 57.4336,57.3664 56.5696,57.5872 C55.7056,57.808 54.784,57.9184 53.8048,57.9184 L53.8048,57.9184 L47.6992,57.9184 L47.6992,39.6592 L28,39.6592 L28,41.0992 L43.696,41.0992 L43.696,59.3008 L56.0512,59.3008 Z M63.3088,52.2736 L57.52,52.2736 C56.7904,52.2736 56.1184,52.1248 55.504,51.8272 C54.8896,51.5296 54.3616,51.1312 53.92,50.632 C53.4784,50.1328 53.1328,49.5568 52.8832,48.904 C52.6336,48.2512 52.5088,47.56 52.5088,46.8304 C52.5088,46.0816 52.6336,45.3856 52.8832,44.7424 C53.1328,44.0992 53.488,43.5424 53.9488,43.072 C54.4096,42.6016 54.976,42.232 55.648,41.9632 C56.32,41.6944 57.0784,41.56 57.9232,41.56 C58.9408,41.56 59.8432,41.7712 60.6304,42.1936 C61.4176,42.616 62.08,43.1728 62.6176,43.864 C63.1552,44.5552 63.5632,45.3376 63.8416,46.2112 C64.12,47.0848 64.2592,47.9824 64.2592,48.904 C64.2592,49.4416 64.1728,49.9984 64,50.5744 C63.8272,51.1504 63.5968,51.7168 63.3088,52.2736 L63.3088,52.2736 Z M69.0688,62.7856 C69.6832,62.7856 70.24,62.5936 70.7392,62.2096 C71.2384,61.8256 71.6656,61.3648 72.0208,60.8272 C72.376,60.2896 72.6496,59.7232 72.8416,59.128 C73.0336,58.5328 73.1296,58.0336 73.1296,57.6304 C73.1296,57.2464 73.0144,56.9728 72.784,56.8096 C72.5536,56.6464 72.2704,56.5504 71.9344,56.5216 C71.5984,56.4928 71.248,56.512 70.8832,56.5792 C70.5184,56.6464 70.2064,56.7328 69.9472,56.8384 C69.688,56.944 69.5152,57.04 69.4288,57.1264 C69.3424,57.2128 69.4048,57.256 69.616,57.256 C69.7888,57.256 70,57.2272 70.2496,57.1696 C70.4992,57.112 70.7392,57.0928 70.9696,57.112 C71.2,57.1312 71.4016,57.208 71.5744,57.3424 C71.7472,57.4768 71.8336,57.7264 71.8336,58.0912 C71.8336,58.7824 71.6704,59.4112 71.344,59.9776 C71.0176,60.544 70.6672,61.0384 70.2928,61.4608 C69.9184,61.8832 69.592,62.2096 69.3136,62.44 C69.0352,62.6704 68.9536,62.7856 69.0688,62.7856 Z" id="Ã" fill="#FFFFFF" fill-rule="nonzero"></path>
    </g>
</svg>