<?xml version="1.0" encoding="UTF-8"?>
<svg width="100px" height="100px" viewBox="0 0 100 100" version="1.1" xmlns="http://www.w3.org/2000/svg" xmlns:xlink="http://www.w3.org/1999/xlink">
    <!-- Generator: Sketch 61.1 (89650) - https://sketch.com -->
    <title>laf</title>
    <desc>Created with Sketch.</desc>
    <g id="laf" stroke="none" stroke-width="1" fill="none" fill-rule="evenodd">
        <path d="M54.3536,72.8784 C54.6416,72.8784 55.0928,72.8688 55.7072,72.8496 C56.3216,72.8304 56.9984,72.7776 57.7376,72.6912 C58.4768,72.6048 59.2448,72.4656 60.0416,72.2736 C60.8384,72.0816 61.5584,71.8032 62.2016,71.4384 C62.8448,71.0736 63.3776,70.608 63.8,70.0416 C64.2224,69.4752 64.4336,68.7888 64.4336,67.9824 C64.4336,67.3872 64.2944,66.8496 64.016,66.3696 C63.7376,65.8896 63.368,65.4672 62.9072,65.1024 C62.4464,64.7376 61.9232,64.416 61.3376,64.1376 C60.752,63.8592 60.1616,63.624 59.5664,63.432 C58.1264,62.9712 56.504,62.664 54.6992,62.5104 L54.6992,62.5104 L54.6992,23.6592 L35,23.6592 L35,25.0992 L50.696,25.0992 L50.696,62.9712 C50.696,62.9904 50.9504,63.0192 51.4592,63.0576 C51.968,63.096 52.6016,63.1728 53.36,63.288 C54.1184,63.4032 54.9392,63.5712 55.8224,63.792 C56.7056,64.0128 57.5264,64.3104 58.2848,64.6848 C59.0432,65.0592 59.6768,65.5152 60.1856,66.0528 C60.6944,66.5904 60.9488,67.2336 60.9488,67.9824 C60.9488,68.6736 60.7472,69.24 60.344,69.6816 C59.9408,70.1232 59.4128,70.4736 58.76,70.7328 C58.1072,70.992 57.3776,71.1744 56.5712,71.28 C55.7648,71.3856 54.9488,71.4384 54.1232,71.4384 L54.1232,71.4384 L44.0144,71.4384 C43.4576,71.4384 42.8816,71.3472 42.2864,71.1648 C41.6912,70.9824 41.144,70.728 40.6448,70.4016 C40.1456,70.0752 39.7376,69.7008 39.4208,69.2784 C39.104,68.856 38.9456,68.3952 38.9456,67.896 C38.9456,66.9168 39.1184,66.24 39.464,65.8656 C39.8096,65.4912 40.4624,65.304 41.4224,65.304 C41.96,65.304 42.44,65.3952 42.8624,65.5776 C43.2848,65.76 43.6784,65.9952 44.0432,66.2832 C44.408,66.5712 44.7536,66.8736 45.08,67.1904 C45.4064,67.5072 45.752,67.8096 46.1168,68.0976 C46.4816,68.3856 46.88,68.6208 47.312,68.8032 C47.744,68.9856 48.248,69.0768 48.824,69.0768 C49.1696,69.0768 49.5872,69.0288 50.0768,68.9328 C50.5664,68.8368 51.0224,68.7216 51.4448,68.5872 C51.8672,68.4528 52.208,68.3184 52.4672,68.184 C52.7264,68.0496 52.7984,67.9536 52.6832,67.896 C52.4528,67.7616 52.2272,67.7136 52.0064,67.752 C51.7856,67.7904 51.5024,67.8288 51.1568,67.8672 C50.8112,67.9056 50.36,67.9056 49.8032,67.8672 C49.2464,67.8288 48.5264,67.656 47.6432,67.3488 C47.24,67.2144 46.8752,66.9216 46.5488,66.4704 C46.2224,66.0192 45.8192,65.5488 45.3392,65.0592 C44.8592,64.5696 44.2352,64.1328 43.4672,63.7488 C42.6992,63.3648 41.672,63.1728 40.3856,63.1728 C38.5808,63.1728 37.232,63.5376 36.3392,64.2672 C35.4464,64.9968 35,66.2064 35,67.896 C35,68.7024 35.2688,69.4128 35.8064,70.0272 C36.344,70.6416 37.0112,71.16 37.808,71.5824 C38.6048,72.0048 39.4688,72.3264 40.4,72.5472 C41.3312,72.768 42.2,72.8784 43.0064,72.8784 L43.0064,72.8784 L54.3536,72.8784 Z M49.6304,67.7808 C50.3024,67.7808 50.8784,67.5312 51.3584,67.032 C51.8384,66.5328 52.0784,65.9472 52.0784,65.2752 C52.0784,64.9296 52.0112,64.6032 51.8768,64.296 C51.7424,63.9888 51.5648,63.7248 51.344,63.504 C51.1232,63.2832 50.864,63.1056 50.5664,62.9712 C50.2688,62.8368 49.9568,62.7696 49.6304,62.7696 C49.2848,62.7696 48.9584,62.8416 48.6512,62.9856 C48.344,63.1296 48.0752,63.3168 47.8448,63.5472 C47.6144,63.7776 47.432,64.0464 47.2976,64.3536 C47.1632,64.6608 47.096,64.9776 47.096,65.304 C47.096,65.6304 47.1632,65.9424 47.2976,66.24 C47.432,66.5376 47.6144,66.8016 47.8448,67.032 C48.0752,67.2624 48.344,67.4448 48.6512,67.5792 C48.9584,67.7136 49.2848,67.7808 49.6304,67.7808 Z M47.0384,80.3952 C47.6528,80.3952 48.2096,80.2032 48.7088,79.8192 C49.208,79.4352 49.6352,78.9696 49.9904,78.4224 C50.3456,77.8752 50.6192,77.3088 50.8112,76.7232 C51.0032,76.1376 51.0992,75.6432 51.0992,75.24 C51.0992,74.856 50.9792,74.5776 50.7392,74.4048 C50.4992,74.232 50.2112,74.136 49.8752,74.1168 C49.5392,74.0976 49.1888,74.1264 48.824,74.2032 C48.4592,74.28 48.1472,74.3712 47.888,74.4768 C47.6288,74.5824 47.456,74.6832 47.3696,74.7792 C47.2832,74.8752 47.3552,74.9232 47.5856,74.9232 C47.7392,74.9232 47.936,74.8944 48.176,74.8368 C48.416,74.7792 48.6512,74.7552 48.8816,74.7648 C49.112,74.7744 49.3136,74.8368 49.4864,74.952 C49.6592,75.0672 49.7456,75.2976 49.7456,75.6432 C49.7456,76.3344 49.5824,76.968 49.256,77.544 C48.9296,78.12 48.584,78.6192 48.2192,79.0416 C47.8544,79.464 47.5376,79.7952 47.2688,80.0352 C47,80.2752 46.9232,80.3952 47.0384,80.3952 Z" id="¶" fill="#FFFFFF" fill-rule="nonzero"></path>
    </g>
</svg>