<?xml version="1.0" encoding="UTF-8"?>
<svg width="100px" height="100px" viewBox="0 0 100 100" version="1.1" xmlns="http://www.w3.org/2000/svg" xmlns:xlink="http://www.w3.org/1999/xlink">
    <!-- Generator: Sketch 61.1 (89650) - https://sketch.com -->
    <title>lam</title>
    <desc>Created with Sketch.</desc>
    <g id="lam" stroke="none" stroke-width="1" fill="none" fill-rule="evenodd">
        <path d="M54.3536,74.2192 C54.6416,74.2192 55.0928,74.2096 55.7072,74.1904 C56.3216,74.1712 56.9984,74.1184 57.7376,74.032 C58.4768,73.9456 59.2448,73.8064 60.0416,73.6144 C60.8384,73.4224 61.5584,73.144 62.2016,72.7792 C62.8448,72.4144 63.3776,71.9488 63.8,71.3824 C64.2224,70.816 64.4336,70.1296 64.4336,69.3232 C64.4336,68.728 64.2944,68.1904 64.016,67.7104 C63.7376,67.2304 63.368,66.808 62.9072,66.4432 C62.4464,66.0784 61.9232,65.7568 61.3376,65.4784 C60.752,65.2 60.1616,64.9648 59.5664,64.7728 C58.1264,64.312 56.504,64.0048 54.6992,63.8512 L54.6992,63.8512 L54.6992,29.032 C54.7376,29.6464 54.992,30.1648 55.4624,30.5872 C55.9328,31.0096 56.4752,31.2208 57.0896,31.2208 C57.4352,31.2208 57.7568,31.1536 58.0544,31.0192 C58.352,30.8848 58.6112,30.7024 58.832,30.472 C59.0528,30.2416 59.2256,29.9776 59.3504,29.68 C59.4752,29.3824 59.5376,29.0704 59.5376,28.744 C59.5376,28.072 59.3024,27.5056 58.832,27.0448 C58.3616,26.584 57.7808,26.3536 57.0896,26.3536 C56.4752,26.3536 55.9328,26.5744 55.4624,27.016 C54.992,27.4576 54.7376,27.9952 54.6992,28.6288 L54.6992,28.6288 L54.6992,25 L35,25 L35,26.44 L50.696,26.44 L50.696,64.312 C50.696,64.3312 50.9504,64.36 51.4592,64.3984 C51.968,64.4368 52.6016,64.5136 53.36,64.6288 C54.1184,64.744 54.9392,64.912 55.8224,65.1328 C56.7056,65.3536 57.5264,65.6512 58.2848,66.0256 C59.0432,66.4 59.6768,66.856 60.1856,67.3936 C60.6944,67.9312 60.9488,68.5744 60.9488,69.3232 C60.9488,70.0144 60.7472,70.5808 60.344,71.0224 C59.9408,71.464 59.4128,71.8144 58.76,72.0736 C58.1072,72.3328 57.3776,72.5152 56.5712,72.6208 C55.7648,72.7264 54.9488,72.7792 54.1232,72.7792 L54.1232,72.7792 L44.0144,72.7792 C43.4576,72.7792 42.8816,72.688 42.2864,72.5056 C41.6912,72.3232 41.144,72.0688 40.6448,71.7424 C40.1456,71.416 39.7376,71.0416 39.4208,70.6192 C39.104,70.1968 38.9456,69.736 38.9456,69.2368 C38.9456,68.2576 39.1184,67.5808 39.464,67.2064 C39.8096,66.832 40.4624,66.6448 41.4224,66.6448 C41.96,66.6448 42.44,66.736 42.8624,66.9184 C43.2848,67.1008 43.6784,67.336 44.0432,67.624 C44.408,67.912 44.7536,68.2144 45.08,68.5312 C45.4064,68.848 45.752,69.1504 46.1168,69.4384 C46.4816,69.7264 46.88,69.9616 47.312,70.144 C47.744,70.3264 48.248,70.4176 48.824,70.4176 C49.1696,70.4176 49.5872,70.3696 50.0768,70.2736 C50.5664,70.1776 51.0224,70.0624 51.4448,69.928 C51.8672,69.7936 52.208,69.6592 52.4672,69.5248 C52.7264,69.3904 52.7984,69.2944 52.6832,69.2368 C52.4528,69.1024 52.2272,69.0544 52.0064,69.0928 C51.7856,69.1312 51.5024,69.1696 51.1568,69.208 C50.8112,69.2464 50.36,69.2464 49.8032,69.208 C49.2464,69.1696 48.5264,68.9968 47.6432,68.6896 C47.24,68.5552 46.8752,68.2624 46.5488,67.8112 C46.2224,67.36 45.8192,66.8896 45.3392,66.4 C44.8592,65.9104 44.2352,65.4736 43.4672,65.0896 C42.6992,64.7056 41.672,64.5136 40.3856,64.5136 C38.5808,64.5136 37.232,64.8784 36.3392,65.608 C35.4464,66.3376 35,67.5472 35,69.2368 C35,70.0432 35.2688,70.7536 35.8064,71.368 C36.344,71.9824 37.0112,72.5008 37.808,72.9232 C38.6048,73.3456 39.4688,73.6672 40.4,73.888 C41.3312,74.1088 42.2,74.2192 43.0064,74.2192 L43.0064,74.2192 L54.3536,74.2192 Z M57.0896,30.5296 C56.648,30.5296 56.2496,30.3616 55.8944,30.0256 C55.5392,29.6896 55.3616,29.272 55.3616,28.7728 C55.3616,28.3312 55.5392,27.9232 55.8944,27.5488 C56.2496,27.1744 56.648,26.9872 57.0896,26.9872 C57.5888,26.9872 58.0064,27.1744 58.3424,27.5488 C58.6784,27.9232 58.8464,28.3312 58.8464,28.7728 C58.8464,29.272 58.6784,29.6896 58.3424,30.0256 C58.0064,30.3616 57.5888,30.5296 57.0896,30.5296 Z M49.6304,69.1216 C50.3024,69.1216 50.8784,68.872 51.3584,68.3728 C51.8384,67.8736 52.0784,67.288 52.0784,66.616 C52.0784,66.2704 52.0112,65.944 51.8768,65.6368 C51.7424,65.3296 51.5648,65.0656 51.344,64.8448 C51.1232,64.624 50.864,64.4464 50.5664,64.312 C50.2688,64.1776 49.9568,64.1104 49.6304,64.1104 C49.2848,64.1104 48.9584,64.1824 48.6512,64.3264 C48.344,64.4704 48.0752,64.6576 47.8448,64.888 C47.6144,65.1184 47.432,65.3872 47.2976,65.6944 C47.1632,66.0016 47.096,66.3184 47.096,66.6448 C47.096,66.9712 47.1632,67.2832 47.2976,67.5808 C47.432,67.8784 47.6144,68.1424 47.8448,68.3728 C48.0752,68.6032 48.344,68.7856 48.6512,68.92 C48.9584,69.0544 49.2848,69.1216 49.6304,69.1216 Z" id="ยง" fill="#FFFFFF" fill-rule="nonzero"></path>
    </g>
</svg>