<?xml version="1.0" encoding="UTF-8"?>
<svg width="100px" height="100px" viewBox="0 0 100 100" version="1.1" xmlns="http://www.w3.org/2000/svg" xmlns:xlink="http://www.w3.org/1999/xlink">
    <!-- Generator: Sketch 61.1 (89650) - https://sketch.com -->
    <title>lamf</title>
    <desc>Created with Sketch.</desc>
    <g id="lamf" stroke="none" stroke-width="1" fill="none" fill-rule="evenodd">
        <path d="M54.6992,27.432 L54.707264,27.635904 C54.728768,27.903168 54.79328,28.152 54.9008,28.3824 C55.016,28.6896 55.184,28.9536 55.4048,29.1744 C55.6256,29.3952 55.88,29.5632 56.168,29.6784 C56.456,29.8128 56.7632,29.88 57.0896,29.88 C57.4352,29.88 57.7616,29.8128 58.0688,29.6784 C58.3568,29.544 58.616,29.3616 58.8464,29.1312 C59.0576,28.9008 59.2304,28.632 59.3648,28.3248 C59.48,28.0368 59.5376,27.7296 59.5376,27.4032 C59.5376,26.7312 59.3072,26.1648 58.8464,25.704 C58.3664,25.2432 57.7808,25.0128 57.0896,25.0128 C56.7632,25.0128 56.456,25.08 56.168,25.2144 C55.88,25.3488 55.6304,25.5216 55.4192,25.7328 C55.1888,25.9632 55.016,26.2224 54.9008,26.5104 C54.7664,26.8176 54.6992,27.1248 54.6992,27.432 L54.6992,27.432 Z M57.0896,29.1888 C56.648,29.1888 56.2544,29.016 55.9088,28.6704 C55.544,28.344 55.3616,27.9312 55.3616,27.432 C55.3616,26.9904 55.544,26.5776 55.9088,26.1936 C56.2544,25.8288 56.648,25.6464 57.0896,25.6464 C57.5888,25.6464 58.0064,25.8336 58.3424,26.208 C58.6784,26.5824 58.8464,26.9904 58.8464,27.432 C58.8464,27.9312 58.6832,28.344 58.3568,28.6704 C58.0112,29.016 57.5888,29.1888 57.0896,29.1888 Z M49.6304,67.7808 C50.3024,67.7808 50.8784,67.5312 51.3584,67.032 C51.8384,66.5328 52.0784,65.9472 52.0784,65.2752 C52.0784,64.9296 52.0112,64.6032 51.8768,64.296 C51.7424,63.9888 51.5696,63.7296 51.3584,63.5184 C51.128,63.288 50.8688,63.1056 50.5808,62.9712 C50.2736,62.8368 49.9568,62.7696 49.6304,62.7696 C49.2848,62.7696 48.9584,62.8368 48.6512,62.9712 C48.344,63.1248 48.0752,63.3168 47.8448,63.5472 C47.6144,63.7776 47.432,64.0464 47.2976,64.3536 C47.1632,64.6608 47.096,64.9776 47.096,65.304 C47.096,65.6304 47.1632,65.9472 47.2976,66.2544 C47.432,66.5424 47.6144,66.8016 47.8448,67.032 C48.0752,67.2624 48.344,67.4448 48.6512,67.5792 C48.9584,67.7136 49.2848,67.7808 49.6304,67.7808 Z M47.0384,80.3952 C47.6528,80.3952 48.2096,80.2032 48.7088,79.8192 C49.208,79.4352 49.64,78.9744 50.0048,78.4368 C50.3504,77.88 50.6192,77.3136 50.8112,76.7376 C51.0032,76.1424 51.0992,75.6432 51.0992,75.24 C51.0992,74.856 50.984,74.5776 50.7536,74.4048 C50.504,74.232 50.216,74.136 49.8896,74.1168 C49.544,74.0976 49.1888,74.1264 48.824,74.2032 C48.4592,74.28 48.152,74.376 47.9024,74.4912 C47.6336,74.5872 47.4608,74.6832 47.384,74.7792 C47.288,74.8752 47.3552,74.9232 47.5856,74.9232 C47.7392,74.9232 47.9408,74.8944 48.1904,74.8368 C48.4208,74.7792 48.6512,74.7552 48.8816,74.7648 C49.112,74.7744 49.3136,74.8368 49.4864,74.952 C49.6592,75.0672 49.7456,75.2976 49.7456,75.6432 C49.7456,76.3344 49.5824,76.968 49.256,77.544 C48.9296,78.12 48.584,78.6192 48.2192,79.0416 C47.8544,79.464 47.5376,79.8 47.2688,80.0496 C47,80.28 46.9232,80.3952 47.0384,80.3952 Z M54.6992,27.432 L54.6992,23.6592 L35,23.6592 L35,25.0992 L50.696,25.0992 L50.696,62.9712 C50.696,62.9904 50.9552,63.0192 51.4736,63.0576 C51.9728,63.096 52.6064,63.1728 53.3744,63.288 C54.1232,63.4032 54.9392,63.576 55.8224,63.8064 C56.7056,64.0176 57.5312,64.3152 58.2992,64.6992 C59.048,65.064 59.6816,65.5152 60.2,66.0528 C60.6992,66.5904 60.9488,67.2336 60.9488,67.9824 C60.9488,68.6736 60.7472,69.24 60.344,69.6816 C59.9408,70.1232 59.4128,70.4784 58.76,70.7472 C58.1072,70.9968 57.3776,71.1792 56.5712,71.2944 C55.7648,71.3904 54.9488,71.4384 54.1232,71.4384 L54.1232,71.4384 L44.0144,71.4384 C43.4576,71.4384 42.8816,71.352 42.2864,71.1792 C41.6912,70.9872 41.144,70.728 40.6448,70.4016 C40.1456,70.0752 39.7424,69.7008 39.4352,69.2784 C39.1088,68.856 38.9456,68.3952 38.9456,67.896 C38.9456,66.9168 39.1184,66.2448 39.464,65.88 C39.8096,65.496 40.4624,65.304 41.4224,65.304 C41.96,65.304 42.44,65.4 42.8624,65.592 C43.2848,65.7648 43.6784,65.9952 44.0432,66.2832 C44.408,66.5712 44.7536,66.8784 45.08,67.2048 C45.4064,67.512 45.752,67.8096 46.1168,68.0976 C46.4816,68.3856 46.8848,68.6256 47.3264,68.8176 C47.7488,68.9904 48.248,69.0768 48.824,69.0768 C49.1696,69.0768 49.592,69.0288 50.0912,68.9328 C50.5712,68.8368 51.0224,68.7216 51.4448,68.5872 C51.8672,68.4528 52.2128,68.3184 52.4816,68.184 C52.7312,68.0496 52.7984,67.9536 52.6832,67.896 C52.4528,67.7616 52.232,67.7136 52.0208,67.752 C51.7904,67.7904 51.5024,67.8288 51.1568,67.8672 C50.8112,67.9056 50.36,67.9056 49.8032,67.8672 C49.2464,67.8288 48.5264,67.656 47.6432,67.3488 C47.24,67.2144 46.8752,66.9264 46.5488,66.4848 C46.2224,66.024 45.8192,65.5536 45.3392,65.0736 C44.8592,64.5744 44.2352,64.1328 43.4672,63.7488 C42.6992,63.3648 41.672,63.1728 40.3856,63.1728 C38.5808,63.1728 37.2368,63.5376 36.3536,64.2672 C35.4512,64.9968 35,66.2064 35,67.896 C35,68.7024 35.2688,69.4128 35.8064,70.0272 C36.344,70.6416 37.016,71.16 37.8224,71.5824 C38.6096,72.0048 39.4736,72.3312 40.4144,72.5616 C41.336,72.7728 42.2,72.8784 43.0064,72.8784 L43.0064,72.8784 L54.3536,72.8784 C54.6416,72.8784 55.0928,72.8688 55.7072,72.8496 C56.3216,72.8304 57.0032,72.7824 57.752,72.7056 C58.4816,72.6096 59.2496,72.4656 60.056,72.2736 C60.8432,72.0816 61.5632,71.8032 62.216,71.4384 C62.8496,71.0736 63.3776,70.6128 63.8,70.056 C64.2224,69.48 64.4336,68.7888 64.4336,67.9824 C64.4336,67.3872 64.2992,66.8496 64.0304,66.3696 C63.7424,65.8896 63.368,65.4672 62.9072,65.1024 C62.4464,64.7376 61.928,64.4208 61.352,64.152 C60.7568,63.864 60.1616,63.624 59.5664,63.432 C58.1264,62.9712 56.504,62.664 54.6992,62.5104 L54.6992,62.5104 L54.6992,27.432 L54.6992,27.432 Z" id="•" fill="#FFFFFF" fill-rule="nonzero"></path>
    </g>
</svg>