<?xml version="1.0" encoding="UTF-8"?>
<svg width="100px" height="100px" viewBox="0 0 100 100" version="1.1" xmlns="http://www.w3.org/2000/svg" xmlns:xlink="http://www.w3.org/1999/xlink">
    <!-- Generator: Sketch 61.1 (89650) - https://sketch.com -->
    <title>lif</title>
    <desc>Created with Sketch.</desc>
    <g id="lif" stroke="none" stroke-width="1" fill="none" fill-rule="evenodd">
        <path d="M54.3536,70.2192 C54.6416,70.2192 55.0928,70.2096 55.7072,70.1904 C56.3216,70.1712 56.9984,70.1184 57.7376,70.032 C58.4768,69.9456 59.2448,69.8064 60.0416,69.6144 C60.8384,69.4224 61.5584,69.144 62.2016,68.7792 C62.8448,68.4144 63.3776,67.9488 63.8,67.3824 C64.2224,66.816 64.4336,66.1296 64.4336,65.3232 C64.4336,64.728 64.2944,64.1904 64.016,63.7104 C63.7376,63.2304 63.368,62.808 62.9072,62.4432 C62.4464,62.0784 61.9232,61.7568 61.3376,61.4784 C60.752,61.2 60.1616,60.9648 59.5664,60.7728 C58.1264,60.312 56.504,60.0048 54.6992,59.8512 L54.6992,59.8512 L54.6992,21 L35,21 L35,22.44 L50.696,22.44 L50.696,60.312 C50.696,60.3312 50.9504,60.36 51.4592,60.3984 C51.968,60.4368 52.6016,60.5136 53.36,60.6288 C54.1184,60.744 54.9392,60.912 55.8224,61.1328 C56.7056,61.3536 57.5264,61.6512 58.2848,62.0256 C59.0432,62.4 59.6768,62.856 60.1856,63.3936 C60.6944,63.9312 60.9488,64.5744 60.9488,65.3232 C60.9488,66.0144 60.7472,66.5808 60.344,67.0224 C59.9408,67.464 59.4128,67.8144 58.76,68.0736 C58.1072,68.3328 57.3776,68.5152 56.5712,68.6208 C55.7648,68.7264 54.9488,68.7792 54.1232,68.7792 L54.1232,68.7792 L44.0144,68.7792 C43.4576,68.7792 42.8816,68.688 42.2864,68.5056 C41.6912,68.3232 41.144,68.0688 40.6448,67.7424 C40.1456,67.416 39.7376,67.0416 39.4208,66.6192 C39.104,66.1968 38.9456,65.736 38.9456,65.2368 C38.9456,64.2576 39.1184,63.5808 39.464,63.2064 C39.8096,62.832 40.4624,62.6448 41.4224,62.6448 C41.96,62.6448 42.44,62.736 42.8624,62.9184 C43.2848,63.1008 43.6784,63.336 44.0432,63.624 C44.408,63.912 44.7536,64.2144 45.08,64.5312 C45.4064,64.848 45.752,65.1504 46.1168,65.4384 C46.4816,65.7264 46.88,65.9616 47.312,66.144 C47.744,66.3264 48.248,66.4176 48.824,66.4176 C49.1696,66.4176 49.5872,66.3696 50.0768,66.2736 C50.5664,66.1776 51.0224,66.0624 51.4448,65.928 C51.8672,65.7936 52.208,65.6592 52.4672,65.5248 C52.7264,65.3904 52.7984,65.2944 52.6832,65.2368 C52.4528,65.1024 52.2272,65.0544 52.0064,65.0928 C51.7856,65.1312 51.5024,65.1696 51.1568,65.208 C50.8112,65.2464 50.36,65.2464 49.8032,65.208 C49.2464,65.1696 48.5264,64.9968 47.6432,64.6896 C47.24,64.5552 46.8752,64.2624 46.5488,63.8112 C46.2224,63.36 45.8192,62.8896 45.3392,62.4 C44.8592,61.9104 44.2352,61.4736 43.4672,61.0896 C42.6992,60.7056 41.672,60.5136 40.3856,60.5136 C38.5808,60.5136 37.232,60.8784 36.3392,61.608 C35.4464,62.3376 35,63.5472 35,65.2368 C35,66.0432 35.2688,66.7536 35.8064,67.368 C36.344,67.9824 37.0112,68.5008 37.808,68.9232 C38.6048,69.3456 39.4688,69.6672 40.4,69.888 C41.3312,70.1088 42.2,70.2192 43.0064,70.2192 L43.0064,70.2192 L54.3536,70.2192 Z M48.4496,78.1968 C49.0448,78.1968 49.592,78.0048 50.0912,77.6208 C50.5904,77.2368 51.0176,76.776 51.3728,76.2384 C51.728,75.7008 52.0064,75.144 52.208,74.568 C52.4096,73.992 52.5104,73.5024 52.5104,73.0992 C52.5104,72.7152 52.3904,72.4368 52.1504,72.264 C51.9104,72.0912 51.6272,71.9952 51.3008,71.976 C50.9744,71.9568 50.624,71.9856 50.2496,72.0624 C49.8752,72.1392 49.5632,72.2304 49.3136,72.336 C49.064,72.4416 48.896,72.5424 48.8096,72.6384 C48.7232,72.7344 48.7952,72.7824 49.0256,72.7824 C49.1792,72.7824 49.376,72.7536 49.616,72.696 C49.856,72.6384 50.0864,72.6096 50.3072,72.6096 C50.528,72.6096 50.72,72.672 50.8832,72.7968 C51.0464,72.9216 51.128,73.1568 51.128,73.5024 C51.128,74.1744 50.9696,74.7984 50.6528,75.3744 C50.336,75.9504 49.9952,76.4496 49.6304,76.872 C49.2656,77.2944 48.9488,77.6208 48.68,77.8512 C48.4112,78.0816 48.3344,78.1968 48.4496,78.1968 Z" id="m" fill="#FFFFFF" fill-rule="nonzero"></path>
    </g>
</svg>