<?xml version="1.0" encoding="UTF-8"?>
<svg width="100px" height="100px" viewBox="0 0 100 100" version="1.1" xmlns="http://www.w3.org/2000/svg" xmlns:xlink="http://www.w3.org/1999/xlink">
    <!-- Generator: Sketch 61.1 (89650) - https://sketch.com -->
    <title>lim</title>
    <desc>Created with Sketch.</desc>
    <g id="lim" stroke="none" stroke-width="1" fill="none" fill-rule="evenodd">
        <path d="M54.6992,28.7728 L54.707264,28.976704 C54.728768,29.243968 54.79328,29.4928 54.9008,29.7232 C55.016,30.0304 55.184,30.2944 55.4048,30.5152 C55.6256,30.736 55.88,30.904 56.168,31.0192 C56.456,31.1536 56.7632,31.2208 57.0896,31.2208 C57.4352,31.2208 57.7616,31.1536 58.0688,31.0192 C58.3568,30.8848 58.616,30.7024 58.8464,30.472 C59.0576,30.2416 59.2304,29.9728 59.3648,29.6656 C59.48,29.3776 59.5376,29.0704 59.5376,28.744 C59.5376,28.072 59.3072,27.5056 58.8464,27.0448 C58.3664,26.584 57.7808,26.3536 57.0896,26.3536 C56.7632,26.3536 56.456,26.4208 56.168,26.5552 C55.88,26.6896 55.6304,26.8624 55.4192,27.0736 C55.1888,27.304 55.016,27.5632 54.9008,27.8512 C54.7664,28.1584 54.6992,28.4656 54.6992,28.7728 L54.6992,28.7728 Z M57.0896,30.5296 C56.648,30.5296 56.2544,30.3568 55.9088,30.0112 C55.544,29.6848 55.3616,29.272 55.3616,28.7728 C55.3616,28.3312 55.544,27.9184 55.9088,27.5344 C56.2544,27.1696 56.648,26.9872 57.0896,26.9872 C57.5888,26.9872 58.0064,27.1744 58.3424,27.5488 C58.6784,27.9232 58.8464,28.3312 58.8464,28.7728 C58.8464,29.272 58.6832,29.6848 58.3568,30.0112 C58.0112,30.3568 57.5888,30.5296 57.0896,30.5296 Z M54.6992,28.7728 L54.6992,25 L35,25 L35,26.44 L50.696,26.44 L50.696,64.312 C50.696,64.3312 50.9552,64.36 51.4736,64.3984 C51.9728,64.4368 52.6064,64.5136 53.3744,64.6288 C54.1232,64.744 54.9392,64.9168 55.8224,65.1472 C56.7056,65.3584 57.5312,65.656 58.2992,66.04 C59.048,66.4048 59.6816,66.856 60.2,67.3936 C60.6992,67.9312 60.9488,68.5744 60.9488,69.3232 C60.9488,70.0144 60.7472,70.5808 60.344,71.0224 C59.9408,71.464 59.4128,71.8192 58.76,72.088 C58.1072,72.3376 57.3776,72.52 56.5712,72.6352 C55.7648,72.7312 54.9488,72.7792 54.1232,72.7792 L54.1232,72.7792 L44.0144,72.7792 C43.4576,72.7792 42.8816,72.6928 42.2864,72.52 C41.6912,72.328 41.144,72.0688 40.6448,71.7424 C40.1456,71.416 39.7424,71.0416 39.4352,70.6192 C39.1088,70.1968 38.9456,69.736 38.9456,69.2368 C38.9456,68.2576 39.1184,67.5856 39.464,67.2208 C39.8096,66.8368 40.4624,66.6448 41.4224,66.6448 C41.96,66.6448 42.44,66.7408 42.8624,66.9328 C43.2848,67.1056 43.6784,67.336 44.0432,67.624 C44.408,67.912 44.7536,68.2192 45.08,68.5456 C45.4064,68.8528 45.752,69.1504 46.1168,69.4384 C46.4816,69.7264 46.8848,69.9664 47.3264,70.1584 C47.7488,70.3312 48.248,70.4176 48.824,70.4176 C49.1696,70.4176 49.592,70.3696 50.0912,70.2736 C50.5712,70.1776 51.0224,70.0624 51.4448,69.928 C51.8672,69.7936 52.2128,69.6592 52.4816,69.5248 C52.7312,69.3904 52.7984,69.2944 52.6832,69.2368 C52.4528,69.1024 52.232,69.0544 52.0208,69.0928 C51.7904,69.1312 51.5024,69.1696 51.1568,69.208 C50.8112,69.2464 50.36,69.2464 49.8032,69.208 C49.2464,69.1696 48.5264,68.9968 47.6432,68.6896 C47.24,68.5552 46.8752,68.2672 46.5488,67.8256 C46.2224,67.3648 45.8192,66.8944 45.3392,66.4144 C44.8592,65.9152 44.2352,65.4736 43.4672,65.0896 C42.6992,64.7056 41.672,64.5136 40.3856,64.5136 C38.5808,64.5136 37.2368,64.8784 36.3536,65.608 C35.4512,66.3376 35,67.5472 35,69.2368 C35,70.0432 35.2688,70.7536 35.8064,71.368 C36.344,71.9824 37.016,72.5008 37.8224,72.9232 C38.6096,73.3456 39.4736,73.672 40.4144,73.9024 C41.336,74.1136 42.2,74.2192 43.0064,74.2192 L43.0064,74.2192 L54.3536,74.2192 C54.6416,74.2192 55.0928,74.2096 55.7072,74.1904 C56.3216,74.1712 57.0032,74.1232 57.752,74.0464 C58.4816,73.9504 59.2496,73.8064 60.056,73.6144 C60.8432,73.4224 61.5632,73.144 62.216,72.7792 C62.8496,72.4144 63.3776,71.9536 63.8,71.3968 C64.2224,70.8208 64.4336,70.1296 64.4336,69.3232 C64.4336,68.728 64.2992,68.1904 64.0304,67.7104 C63.7424,67.2304 63.368,66.808 62.9072,66.4432 C62.4464,66.0784 61.928,65.7616 61.352,65.4928 C60.7568,65.2048 60.1616,64.9648 59.5664,64.7728 C58.1264,64.312 56.504,64.0048 54.6992,63.8512 L54.6992,63.8512 L54.6992,28.7728 L54.6992,28.7728 Z" id="[" fill="#FFFFFF" fill-rule="nonzero"></path>
    </g>
</svg>