<?xml version="1.0" encoding="UTF-8"?>
<svg width="100px" height="100px" viewBox="0 0 100 100" version="1.1" xmlns="http://www.w3.org/2000/svg" xmlns:xlink="http://www.w3.org/1999/xlink">
    <!-- Generator: Sketch 61.1 (89650) - https://sketch.com -->
    <title>ling</title>
    <desc>Created with Sketch.</desc>
    <g id="ling" stroke="none" stroke-width="1" fill="none" fill-rule="evenodd">
        <path d="M54.6992,72.8208 C56.6576,72.8208 58.2704,72.6816 59.5376,72.4032 C60.8048,72.1248 61.808,71.76 62.5472,71.3088 C63.2864,70.8576 63.8,70.344 64.088,69.768 C64.376,69.192 64.52,68.5968 64.52,67.9824 C64.52,67.0416 64.2752,66.2544 63.7856,65.6208 C63.296,64.9872 62.6912,64.4688 61.9712,64.0656 C61.2512,63.6624 60.464,63.3648 59.6096,63.1728 C58.7552,62.9808 57.968,62.8368 57.248,62.7408 C56.528,62.6448 55.9232,62.5872 55.4336,62.568 C54.944,62.5488 54.6992,62.5296 54.6992,62.5104 L54.6992,62.5104 L54.6992,23.6592 L35,23.6592 L35,25.0992 L50.696,25.0992 L50.696,62.8848 C50.696,62.904 50.936,62.9376 51.416,62.9856 C51.896,63.0336 52.496,63.1152 53.216,63.2304 C53.936,63.3456 54.7136,63.5184 55.5488,63.7488 C56.384,63.9792 57.1616,64.2768 57.8816,64.6416 C58.6016,65.0064 59.2064,65.4624 59.696,66.0096 C60.1856,66.5568 60.4304,67.2144 60.4304,67.9824 C60.4304,68.5968 60.2576,69.12 59.912,69.552 C59.5664,69.984 59.1152,70.3392 58.5584,70.6176 C58.0016,70.896 57.3872,71.0976 56.7152,71.2224 C56.0432,71.3472 55.3808,71.4096 54.728,71.4096 C53.9984,71.4096 53.2736,71.352 52.5536,71.2368 C51.8336,71.1216 51.1856,70.9296 50.6096,70.6608 C50.0336,70.392 49.568,70.0368 49.2128,69.5952 C48.8576,69.1536 48.68,68.6064 48.68,67.9536 C48.68,67.3584 48.7712,66.888 48.9536,66.5424 C49.136,66.1968 49.3328,65.9472 49.544,65.7936 C49.7936,65.6016 50.0816,65.4864 50.408,65.448 C50.4272,65.4288 50.3072,65.3856 50.048,65.3184 C49.7888,65.2512 49.4528,65.208 49.04,65.1888 C48.6272,65.1696 48.176,65.184 47.6864,65.232 C47.1968,65.28 46.7408,65.4048 46.3184,65.6064 C45.896,65.808 45.5408,66.1056 45.2528,66.4992 C44.9648,66.8928 44.8208,67.4064 44.8208,68.04 C44.8208,69 45.0752,69.7872 45.584,70.4016 C46.0928,71.016 46.7936,71.5008 47.6864,71.856 C48.5792,72.2112 49.6256,72.4608 50.8256,72.6048 C52.0256,72.7488 53.3168,72.8208 54.6992,72.8208 Z" id="4" fill="#FFFFFF" fill-rule="nonzero"></path>
    </g>
</svg>