<?xml version="1.0" encoding="UTF-8"?>
<svg width="100px" height="100px" viewBox="0 0 100 100" version="1.1" xmlns="http://www.w3.org/2000/svg" xmlns:xlink="http://www.w3.org/1999/xlink">
    <!-- Generator: Sketch 61.1 (89650) - https://sketch.com -->
    <title>luh</title>
    <desc>Created with Sketch.</desc>
    <g id="luh" stroke="none" stroke-width="1" fill="none" fill-rule="evenodd">
        <path d="M54.3536,72.8784 C54.6416,72.8784 55.0928,72.8688 55.7072,72.8496 C56.3216,72.8304 56.9984,72.7776 57.7376,72.6912 C58.4768,72.6048 59.2448,72.4656 60.0416,72.2736 C60.8384,72.0816 61.5584,71.8032 62.2016,71.4384 C62.8448,71.0736 63.3776,70.608 63.8,70.0416 C64.2224,69.4752 64.4336,68.7888 64.4336,67.9824 C64.4336,67.3872 64.2944,66.8496 64.016,66.3696 C63.7376,65.8896 63.368,65.4672 62.9072,65.1024 C62.4464,64.7376 61.9232,64.416 61.3376,64.1376 C60.752,63.8592 60.1616,63.624 59.5664,63.432 C58.1264,62.9712 56.504,62.664 54.6992,62.5104 L54.6992,62.5104 L54.6992,23.6592 L35,23.6592 L35,25.0992 L50.696,25.0992 L50.696,62.9712 C50.696,62.9904 50.9504,63.0192 51.4592,63.0576 C51.968,63.096 52.6016,63.1728 53.36,63.288 C54.1184,63.4032 54.9392,63.5712 55.8224,63.792 C56.7056,64.0128 57.5264,64.3104 58.2848,64.6848 C59.0432,65.0592 59.6768,65.5152 60.1856,66.0528 C60.6944,66.5904 60.9488,67.2336 60.9488,67.9824 C60.9488,68.6736 60.7472,69.24 60.344,69.6816 C59.9408,70.1232 59.4128,70.4736 58.76,70.7328 C58.1072,70.992 57.3776,71.1744 56.5712,71.28 C55.7648,71.3856 54.9488,71.4384 54.1232,71.4384 L54.1232,71.4384 L44.0144,71.4384 C43.4576,71.4384 42.8816,71.3472 42.2864,71.1648 C41.6912,70.9824 41.144,70.728 40.6448,70.4016 C40.1456,70.0752 39.7376,69.7008 39.4208,69.2784 C39.104,68.856 38.9456,68.3952 38.9456,67.896 C38.9456,66.9168 39.1184,66.24 39.464,65.8656 C39.8096,65.4912 40.4624,65.304 41.4224,65.304 C41.96,65.304 42.44,65.3952 42.8624,65.5776 C43.2848,65.76 43.6784,65.9952 44.0432,66.2832 C44.408,66.5712 44.7536,66.8736 45.08,67.1904 C45.4064,67.5072 45.752,67.8096 46.1168,68.0976 C46.4816,68.3856 46.88,68.6208 47.312,68.8032 C47.744,68.9856 48.248,69.0768 48.824,69.0768 C49.1696,69.0768 49.5872,69.0288 50.0768,68.9328 C50.5664,68.8368 51.0224,68.7216 51.4448,68.5872 C51.8672,68.4528 52.208,68.3184 52.4672,68.184 C52.7264,68.0496 52.7984,67.9536 52.6832,67.896 C52.4528,67.7616 52.2272,67.7136 52.0064,67.752 C51.7856,67.7904 51.5024,67.8288 51.1568,67.8672 C50.8112,67.9056 50.36,67.9056 49.8032,67.8672 C49.2464,67.8288 48.5264,67.656 47.6432,67.3488 C47.24,67.2144 46.8752,66.9216 46.5488,66.4704 C46.2224,66.0192 45.8192,65.5488 45.3392,65.0592 C44.8592,64.5696 44.2352,64.1328 43.4672,63.7488 C42.6992,63.3648 41.672,63.1728 40.3856,63.1728 C38.5808,63.1728 37.232,63.5376 36.3392,64.2672 C35.4464,64.9968 35,66.2064 35,67.896 C35,68.7024 35.2688,69.4128 35.8064,70.0272 C36.344,70.6416 37.0112,71.16 37.808,71.5824 C38.6048,72.0048 39.4688,72.3264 40.4,72.5472 C41.3312,72.768 42.2,72.8784 43.0064,72.8784 L43.0064,72.8784 L54.3536,72.8784 Z M49.688,79.3872 C50.0912,79.3872 50.4896,79.32 50.8832,79.1856 C51.2768,79.0512 51.6272,78.8544 51.9344,78.5952 C52.2416,78.336 52.4912,78.0048 52.6832,77.6016 C52.8752,77.1984 52.9712,76.728 52.9712,76.1904 L52.9712,76.1904 L52.9712,75.672 C52.9712,75.4608 52.9568,75.2544 52.928,75.0528 C52.8992,74.8512 52.856,74.6592 52.7984,74.4768 C52.7408,74.2944 52.664,74.1552 52.568,74.0592 C52.5104,74.0016 52.4336,74.112 52.3376,74.3904 C52.2416,74.6688 52.0928,74.9856 51.8912,75.3408 C51.6896,75.696 51.4112,76.0272 51.056,76.3344 C50.7008,76.6416 50.2256,76.7952 49.6304,76.7952 C49.1312,76.7952 48.7088,76.6464 48.3632,76.3488 C48.0176,76.0512 47.7248,75.7248 47.4848,75.3696 C47.2448,75.0144 47.0576,74.6976 46.9232,74.4192 C46.7888,74.1408 46.6928,74.0208 46.6352,74.0592 C46.5584,74.136 46.5008,74.2656 46.4624,74.448 C46.424,74.6304 46.3904,74.832 46.3616,75.0528 C46.3328,75.2736 46.3136,75.4944 46.304,75.7152 C46.2944,75.936 46.2896,76.1328 46.2896,76.3056 C46.2896,76.824 46.3952,77.28 46.6064,77.6736 C46.8176,78.0672 47.0864,78.3888 47.4128,78.6384 C47.7392,78.888 48.104,79.0752 48.5072,79.2 C48.9104,79.3248 49.304,79.3872 49.688,79.3872 Z" id="±" fill="#FFFFFF" fill-rule="nonzero"></path>
    </g>
</svg>