<?xml version="1.0" encoding="UTF-8"?>
<svg width="100px" height="100px" viewBox="0 0 100 100" version="1.1" xmlns="http://www.w3.org/2000/svg" xmlns:xlink="http://www.w3.org/1999/xlink">
    <!-- Generator: Sketch 61.1 (89650) - https://sketch.com -->
    <title>lín</title>
    <desc>Created with Sketch.</desc>
    <g id="lín" stroke="none" stroke-width="1" fill="none" fill-rule="evenodd">
        <path d="M54.6992,76.8208 C56.6576,76.8208 58.2704,76.6816 59.5376,76.4032 C60.8048,76.1248 61.808,75.76 62.5472,75.3088 C63.2864,74.8576 63.8,74.344 64.088,73.768 C64.376,73.192 64.52,72.5968 64.52,71.9824 C64.52,71.0416 64.2752,70.2544 63.7856,69.6208 C63.296,68.9872 62.6912,68.4688 61.9712,68.0656 C61.2512,67.6624 60.464,67.3648 59.6096,67.1728 C58.7552,66.9808 57.968,66.8368 57.248,66.7408 C56.528,66.6448 55.9232,66.5872 55.4336,66.568 C54.944,66.5488 54.6992,66.5296 54.6992,66.5104 L54.6992,66.5104 L54.6992,27.6592 L35,27.6592 L35,29.0992 L50.696,29.0992 L50.696,66.8848 C50.696,66.904 50.936,66.9376 51.416,66.9856 C51.896,67.0336 52.496,67.1152 53.216,67.2304 C53.936,67.3456 54.7136,67.5184 55.5488,67.7488 C56.384,67.9792 57.1616,68.2768 57.8816,68.6416 C58.6016,69.0064 59.2064,69.4624 59.696,70.0096 C60.1856,70.5568 60.4304,71.2144 60.4304,71.9824 C60.4304,72.5968 60.2576,73.12 59.912,73.552 C59.5664,73.984 59.1152,74.3392 58.5584,74.6176 C58.0016,74.896 57.3872,75.0976 56.7152,75.2224 C56.0432,75.3472 55.3808,75.4096 54.728,75.4096 L54.728,75.4096 L54.6992,76.8208 Z" id="$" fill="#FFFFFF" fill-rule="nonzero"></path>
    </g>
</svg>