<?xml version="1.0" encoding="UTF-8"?>
<svg width="100px" height="100px" viewBox="0 0 100 100" version="1.1" xmlns="http://www.w3.org/2000/svg" xmlns:xlink="http://www.w3.org/1999/xlink">
    <!-- Generator: Sketch 61.1 (89650) - https://sketch.com -->
    <title>m'</title>
    <desc>Created with Sketch.</desc>
    <g id="m'" stroke="none" stroke-width="1" fill="none" fill-rule="evenodd">
        <path d="M37.4992,59.3008 C39.2272,59.3008 40.8016,59.0416 42.2224,58.5232 C43.6432,58.0048 44.9392,57.3184 46.1104,56.464 C47.2816,55.6096 48.3232,54.6352 49.2352,53.5408 C50.1472,52.4464 50.9584,51.3328 51.6688,50.2 C52.3792,49.0672 52.9888,47.9536 53.4976,46.8592 C54.0064,45.7648 54.4288,44.7904 54.7648,43.936 C55.1008,43.0816 55.36,42.3952 55.5424,41.8768 C55.7248,41.3584 55.8544,41.0992 55.9312,41.0992 L55.9312,41.0992 L73.96,41.0992 L73.96,39.6592 L54.3472,39.6592 C54.328,39.6592 54.232,39.9088 54.0592,40.408 C53.8864,40.9072 53.6368,41.5648 53.3104,42.3808 C52.984,43.1968 52.576,44.128 52.0864,45.1744 C51.5968,46.2208 51.016,47.2912 50.344,48.3856 C49.672,49.48 48.9088,50.5504 48.0544,51.5968 C47.2,52.6432 46.24,53.5744 45.1744,54.3904 C44.1088,55.2064 42.9376,55.864 41.6608,56.3632 C40.384,56.8624 38.9968,57.112 37.4992,57.112 C36.2512,57.112 35.0512,56.9392 33.8992,56.5936 C32.7472,56.248 31.7344,55.744 30.8608,55.0816 C29.9872,54.4192 29.2912,53.5984 28.7728,52.6192 C28.2544,51.64 27.9952,50.5168 27.9952,49.2496 C27.9952,47.9248 28.2496,46.7584 28.7584,45.7504 C29.2672,44.7424 29.9344,43.8928 30.76,43.2016 C31.5856,42.5104 32.5072,41.9872 33.5248,41.632 C34.5424,41.2768 35.5696,41.0992 36.6064,41.0992 C37.4512,41.0992 38.3248,41.2288 39.2272,41.488 C40.1296,41.7472 40.9504,42.1264 41.6896,42.6256 C42.4288,43.1248 43.0336,43.744 43.504,44.4832 C43.9744,45.2224 44.2096,46.0816 44.2096,47.0608 C44.2096,47.7904 44.0464,48.4816 43.72,49.1344 C43.3936,49.7872 42.976,50.3584 42.4672,50.848 C41.9584,51.3376 41.3824,51.7264 40.7392,52.0144 C40.096,52.3024 39.4576,52.4464 38.824,52.4464 C37.8832,52.4464 37.072,52.336 36.3904,52.1152 C35.7088,51.8944 35.128,51.6112 34.648,51.2656 C34.168,50.92 33.7792,50.5552 33.4816,50.1712 C33.184,49.7872 32.9536,49.4224 32.7904,49.0768 C32.6272,48.7312 32.5312,48.448 32.5024,48.2272 C32.4736,48.0064 32.488,47.896 32.5456,47.896 L32.5456,47.896 L42.0784,47.896 L42.0784,46.5712 L29.9824,46.5712 C29.944,46.5712 29.9536,46.7632 30.0112,47.1472 C30.0688,47.5312 30.208,48.0112 30.4288,48.5872 C30.6496,49.1632 30.9616,49.7824 31.3648,50.4448 C31.768,51.1072 32.3056,51.7264 32.9776,52.3024 C33.6496,52.8784 34.4752,53.3584 35.4544,53.7424 C36.4336,54.1264 37.5952,54.3184 38.9392,54.3184 C39.7648,54.3184 40.6192,54.1504 41.5024,53.8144 C42.3856,53.4784 43.1872,52.9936 43.9072,52.36 C44.6272,51.7264 45.2176,50.9632 45.6784,50.0704 C46.1392,49.1776 46.3696,48.1744 46.3696,47.0608 C46.3696,45.832 46.0912,44.7568 45.5344,43.8352 C44.9776,42.9136 44.2432,42.1456 43.3312,41.5312 C42.4192,40.9168 41.3824,40.4512 40.2208,40.1344 C39.0592,39.8176 37.864,39.6592 36.6352,39.6592 C35.2528,39.6592 33.8656,39.8176 32.4736,40.1344 C31.0816,40.4512 29.8336,40.984 28.7296,41.7328 C27.6256,42.4816 26.728,43.4704 26.0368,44.6992 C25.3456,45.928 25,47.4448 25,49.2496 C25,50.9008 25.36,52.3552 26.08,53.6128 C26.8,54.8704 27.7456,55.9216 28.9168,56.7664 C30.088,57.6112 31.4224,58.2448 32.92,58.6672 C34.4176,59.0896 35.944,59.3008 37.4992,59.3008 Z" id="2" fill="#FFFFFF" fill-rule="nonzero"></path>
    </g>
</svg>