<?xml version="1.0" encoding="UTF-8"?>
<svg width="100px" height="100px" viewBox="0 0 100 100" version="1.1" xmlns="http://www.w3.org/2000/svg" xmlns:xlink="http://www.w3.org/1999/xlink">
    <!-- Generator: Sketch 61.1 (89650) - https://sketch.com -->
    <title>ma</title>
    <desc>Created with Sketch.</desc>
    <g id="ma" stroke="none" stroke-width="1" fill="none" fill-rule="evenodd">
        <path d="M42.488,26.44 L42.282944,26.448064 C42.012608,26.469568 41.75456,26.53408 41.5088,26.6416 C41.2016,26.776 40.9424,26.9488 40.7312,27.16 C40.5008,27.3904 40.3184,27.6496 40.184,27.9376 C40.0496,28.2448 39.9824,28.5712 39.9824,28.9168 C39.9824,29.2432 40.0496,29.5504 40.184,29.8384 C40.3184,30.1456 40.496,30.4096 40.7168,30.6304 C40.9376,30.8512 41.2016,31.0288 41.5088,31.1632 C41.816,31.2976 42.1424,31.3648 42.488,31.3648 C42.8336,31.3648 43.1504,31.288 43.4384,31.1344 C43.7264,31 43.9856,30.8176 44.216,30.5872 C44.4272,30.3568 44.6,30.088 44.7344,29.7808 C44.8496,29.4928 44.9072,29.1952 44.9072,28.888 C44.9072,28.1968 44.672,27.616 44.2016,27.1456 C43.7312,26.6752 43.16,26.44 42.488,26.44 L42.488,26.44 Z M42.488,30.616 C42.008,30.616 41.5856,30.4432 41.2208,30.0976 C40.856,29.7712 40.6736,29.3776 40.6736,28.9168 C40.6736,28.4176 40.856,27.9856 41.2208,27.6208 C41.5856,27.256 42.008,27.0736 42.488,27.0736 C42.968,27.0736 43.3712,27.256 43.6976,27.6208 C44.0048,27.9856 44.1584,28.4176 44.1584,28.9168 C44.1584,29.3776 44.0048,29.7712 43.6976,30.0976 C43.3712,30.4432 42.968,30.616 42.488,30.616 Z M42.488,26.44 L50.696,26.44 L50.696,44.7568 C50.696,44.8336 50.9456,44.9296 51.4448,45.0448 C51.9248,45.1792 52.5296,45.3712 53.2592,45.6208 C53.9696,45.8896 54.7568,46.2352 55.6208,46.6576 C56.4656,47.0992 57.248,47.6704 57.968,48.3712 C58.688,49.072 59.2976,49.9216 59.7968,50.92 C60.2768,51.9184 60.5168,53.1088 60.5168,54.4912 C60.5168,55.9696 60.2576,57.2368 59.7392,58.2928 C59.2208,59.368 58.52,60.2416 57.6368,60.9136 C56.7344,61.6048 55.688,62.1136 54.4976,62.44 C53.3072,62.7664 52.04,62.9296 50.696,62.9296 C48.7568,62.9296 47.0576,62.7568 45.5984,62.4112 C44.12,62.0656 42.8816,61.672 41.8832,61.2304 C40.712,60.7312 39.704,60.1552 38.8592,59.5024 L38.8592,59.5024 L35,59.5024 L35,74.0752 L38.9456,74.1616 L38.9456,62.44 C40.0208,62.8048 41.1728,63.1216 42.4016,63.3904 C43.4576,63.64 44.6864,63.8608 46.088,64.0528 C47.4704,64.2448 48.9488,64.3408 50.5232,64.3408 C51.6368,64.3408 52.76,64.288 53.8928,64.1824 C55.0256,64.0768 56.1104,63.88 57.1472,63.592 C58.184,63.3232 59.1536,62.9488 60.056,62.4688 C60.9392,61.9888 61.7168,61.384 62.3888,60.6544 C63.0608,59.9248 63.5888,59.0512 63.9728,58.0336 C64.3376,57.0352 64.52,55.8544 64.52,54.4912 C64.52,53.0512 64.28,51.7936 63.8,50.7184 C63.3008,49.6624 62.696,48.76 61.9856,48.0112 C61.256,47.2624 60.4688,46.648 59.624,46.168 C58.76,45.688 57.9728,45.304 57.2624,45.016 C56.5328,44.728 55.928,44.5168 55.448,44.3824 C54.9488,44.2672 54.6992,44.1808 54.6992,44.1232 L54.6992,44.1232 L54.6992,25 L35,25 L35,26.44 L42.488,26.44 L42.488,26.44 Z" id="g" fill="#FFFFFF" fill-rule="nonzero"></path>
    </g>
</svg>