<?xml version="1.0" encoding="UTF-8"?>
<svg width="100px" height="100px" viewBox="0 0 100 100" version="1.1" xmlns="http://www.w3.org/2000/svg" xmlns:xlink="http://www.w3.org/1999/xlink">
    <!-- Generator: Sketch 61.1 (89650) - https://sketch.com -->
    <title>mam</title>
    <desc>Created with Sketch.</desc>
    <g id="mam" stroke="none" stroke-width="1" fill="none" fill-rule="evenodd">
        <path d="M42.7184,26.44 L42.524864,26.448064 C42.269888,26.469568 42.0272,26.53408 41.7968,26.6416 C41.4896,26.776 41.2208,26.9488 40.9904,27.16 C40.76,27.3904 40.5776,27.6496 40.4432,27.9376 C40.3088,28.2448 40.2416,28.5712 40.2416,28.9168 C40.2416,29.5888 40.4912,30.1648 40.9904,30.6448 C41.4704,31.1248 42.0464,31.3648 42.7184,31.3648 C43.064,31.3648 43.3904,31.288 43.6976,31.1344 C43.9856,31 44.2448,30.8176 44.4752,30.5872 C44.6864,30.3568 44.8592,30.088 44.9936,29.7808 C45.1088,29.4928 45.1664,29.1952 45.1664,28.888 C45.1664,28.1968 44.9312,27.616 44.4608,27.1456 C43.9904,26.6752 43.4096,26.44 42.7184,26.44 L42.7184,26.44 Z M57.0896,30.5296 C56.648,30.5296 56.2544,30.3568 55.9088,30.0112 C55.544,29.6848 55.3616,29.272 55.3616,28.7728 C55.3616,28.3312 55.544,27.9184 55.9088,27.5344 C56.2544,27.1696 56.648,26.9872 57.0896,26.9872 C57.5888,26.9872 58.0064,27.1744 58.3424,27.5488 C58.6784,27.9232 58.8464,28.3312 58.8464,28.7728 C58.8464,29.272 58.6832,29.6848 58.3568,30.0112 C58.0112,30.3568 57.5888,30.5296 57.0896,30.5296 Z M42.7184,30.616 C42.2576,30.616 41.8448,30.4432 41.48,30.0976 C41.1152,29.7712 40.9328,29.3776 40.9328,28.9168 C40.9328,28.4176 41.0864,27.9856 41.3936,27.6208 C41.7008,27.256 42.0944,27.0736 42.5744,27.0736 C43.0736,27.0736 43.5152,27.256 43.8992,27.6208 C44.2832,27.9856 44.4752,28.4176 44.4752,28.9168 C44.4752,29.3776 44.3024,29.7712 43.9568,30.0976 C43.6112,30.4432 43.1984,30.616 42.7184,30.616 Z M54.6992,28.7728 L54.707264,28.976704 C54.728768,29.243968 54.79328,29.4928 54.9008,29.7232 C55.016,30.0304 55.184,30.2944 55.4048,30.5152 C55.6256,30.736 55.88,30.904 56.168,31.0192 C56.456,31.1536 56.7632,31.2208 57.0896,31.2208 C57.4352,31.2208 57.7616,31.1536 58.0688,31.0192 C58.3568,30.8848 58.616,30.7024 58.8464,30.472 C59.0576,30.2416 59.2304,29.9728 59.3648,29.6656 C59.48,29.3776 59.5376,29.0704 59.5376,28.744 C59.5376,28.072 59.3072,27.5056 58.8464,27.0448 C58.3664,26.584 57.7808,26.3536 57.0896,26.3536 C56.7632,26.3536 56.456,26.4208 56.168,26.5552 C55.88,26.6896 55.6304,26.8624 55.4192,27.0736 C55.1888,27.304 55.016,27.5632 54.9008,27.8512 C54.7664,28.1584 54.6992,28.4656 54.6992,28.7728 L54.6992,28.7728 Z M54.6992,28.7728 L54.6992,25 L35,25 L35,26.44 L42.7184,26.44 L42.7184,26.44 L50.696,26.44 L50.696,44.7568 C50.696,44.8336 50.9456,44.9296 51.4448,45.0448 C51.9248,45.1792 52.5296,45.3712 53.2592,45.6208 C53.9696,45.8896 54.7568,46.2352 55.6208,46.6576 C56.4656,47.0992 57.248,47.6704 57.968,48.3712 C58.688,49.072 59.2976,49.9216 59.7968,50.92 C60.2768,51.9184 60.5168,53.1088 60.5168,54.4912 C60.5168,55.9696 60.2576,57.2368 59.7392,58.2928 C59.2208,59.368 58.52,60.2416 57.6368,60.9136 C56.7344,61.6048 55.688,62.1136 54.4976,62.44 C53.3072,62.7664 52.04,62.9296 50.696,62.9296 C48.7568,62.9296 47.0576,62.7568 45.5984,62.4112 C44.12,62.0656 42.8816,61.672 41.8832,61.2304 C40.712,60.7312 39.704,60.1552 38.8592,59.5024 L38.8592,59.5024 L35,59.5024 L35,74.0752 L38.9456,74.1616 L38.9456,62.44 C40.0208,62.8048 41.1728,63.1216 42.4016,63.3904 C43.4576,63.64 44.6864,63.8608 46.088,64.0528 C47.4704,64.2448 48.9488,64.3408 50.5232,64.3408 C51.6368,64.3408 52.76,64.288 53.8928,64.1824 C55.0256,64.0768 56.1104,63.88 57.1472,63.592 C58.184,63.3232 59.1536,62.9488 60.056,62.4688 C60.9392,61.9888 61.7168,61.384 62.3888,60.6544 C63.0608,59.9248 63.5888,59.0512 63.9728,58.0336 C64.3376,57.0352 64.52,55.8544 64.52,54.4912 C64.52,53.0512 64.28,51.7936 63.8,50.7184 C63.3008,49.6624 62.696,48.76 61.9856,48.0112 C61.256,47.2624 60.4688,46.648 59.624,46.168 C58.76,45.688 57.9728,45.304 57.2624,45.016 C56.5328,44.728 55.928,44.5168 55.448,44.3824 C54.9488,44.2672 54.6992,44.1808 54.6992,44.1232 L54.6992,44.1232 L54.6992,28.7728 L54.6992,28.7728 Z" id="h" fill="#FFFFFF" fill-rule="nonzero"></path>
    </g>
</svg>