<?xml version="1.0" encoding="UTF-8"?>
<svg width="100px" height="100px" viewBox="0 0 100 100" version="1.1" xmlns="http://www.w3.org/2000/svg" xmlns:xlink="http://www.w3.org/1999/xlink">
    <!-- Generator: Sketch 61.1 (89650) - https://sketch.com -->
    <title>mi</title>
    <desc>Created with Sketch.</desc>
    <g id="mi" stroke="none" stroke-width="1" fill="none" fill-rule="evenodd">
        <path d="M74.0464,56.344 L74.0464,54.8176 L51.5536,54.8176 L51.5536,45.6592 L25,45.6592 L25,47.0992 L47.464,47.0992 L47.464,56.344 L74.0464,56.344 Z M36.1744,52.0528 C36.8464,52.0528 37.4224,51.808 37.9024,51.3184 C38.3824,50.8288 38.6224,50.248 38.6224,49.576 C38.6224,49.2304 38.5552,48.9088 38.4208,48.6112 C38.2864,48.3136 38.1088,48.0544 37.888,47.8336 C37.6672,47.6128 37.408,47.44 37.1104,47.3152 C36.8128,47.1904 36.5008,47.128 36.1744,47.128 C35.848,47.128 35.5312,47.1952 35.224,47.3296 C34.9168,47.464 34.648,47.6416 34.4176,47.8624 C34.1872,48.0832 34.0048,48.3424 33.8704,48.64 C33.736,48.9376 33.6688,49.2592 33.6688,49.6048 C33.6688,49.9504 33.736,50.272 33.8704,50.5696 C34.0048,50.8672 34.1872,51.1264 34.4176,51.3472 C34.648,51.568 34.9168,51.7408 35.224,51.8656 C35.5312,51.9904 35.848,52.0528 36.1744,52.0528 Z M36.1744,51.3328 C35.6752,51.3328 35.2528,51.1696 34.9072,50.8432 C34.5616,50.5168 34.3888,50.104 34.3888,49.6048 C34.3888,49.144 34.5424,48.7312 34.8496,48.3664 C35.1568,48.0016 35.56,47.8192 36.0592,47.8192 C36.5584,47.8192 36.9952,48.0016 37.3696,48.3664 C37.744,48.7312 37.9312,49.144 37.9312,49.6048 C37.9312,50.104 37.7536,50.5168 37.3984,50.8432 C37.0432,51.1696 36.6352,51.3328 36.1744,51.3328 Z" id="i" fill="#FFFFFF" fill-rule="nonzero"></path>
    </g>
</svg>