<?xml version="1.0" encoding="UTF-8"?>
<svg width="100px" height="100px" viewBox="0 0 100 100" version="1.1" xmlns="http://www.w3.org/2000/svg" xmlns:xlink="http://www.w3.org/1999/xlink">
    <!-- Generator: Sketch 61.1 (89650) - https://sketch.com -->
    <title>mif</title>
    <desc>Created with Sketch.</desc>
    <g id="mif" stroke="none" stroke-width="1" fill="none" fill-rule="evenodd">
        <path d="M74.0464,54.344 L74.0464,52.8176 L51.5536,52.8176 L51.5536,43.6592 L25,43.6592 L25,45.0992 L47.464,45.0992 L47.464,54.344 L74.0464,54.344 Z M37.0384,50.0528 C37.3648,50.0528 37.6768,49.9856 37.9744,49.8512 C38.272,49.7168 38.5312,49.5344 38.752,49.304 C38.9728,49.0736 39.1504,48.8096 39.2848,48.512 C39.4192,48.2144 39.4864,47.9024 39.4864,47.576 C39.4864,47.2304 39.4192,46.9088 39.2848,46.6112 C39.1504,46.3136 38.9728,46.0544 38.752,45.8336 C38.5312,45.6128 38.272,45.44 37.9744,45.3152 C37.6768,45.1904 37.3648,45.128 37.0384,45.128 C36.6928,45.128 36.3664,45.1952 36.0592,45.3296 C35.752,45.464 35.488,45.6416 35.2672,45.8624 C35.0464,46.0832 34.8688,46.3424 34.7344,46.64 C34.6,46.9376 34.5328,47.2592 34.5328,47.6048 C34.5328,48.296 34.7776,48.8768 35.2672,49.3472 C35.7568,49.8176 36.3472,50.0528 37.0384,50.0528 Z M37.0384,49.3328 C36.5392,49.3328 36.1072,49.1696 35.7424,48.8432 C35.3776,48.5168 35.1952,48.104 35.1952,47.6048 C35.1952,47.144 35.3536,46.7312 35.6704,46.3664 C35.9872,46.0016 36.3952,45.8192 36.8944,45.8192 C37.1248,45.8192 37.3456,45.8672 37.5568,45.9632 C37.768,46.0592 37.9552,46.1936 38.1184,46.3664 C38.2816,46.5392 38.416,46.7312 38.5216,46.9424 C38.6272,47.1536 38.68,47.3744 38.68,47.6048 C38.68,48.104 38.5216,48.5168 38.2048,48.8432 C37.888,49.1696 37.4992,49.3328 37.0384,49.3328 Z M47.176,61.9184 C47.7712,61.9184 48.3184,61.7312 48.8176,61.3568 C49.3168,60.9824 49.7488,60.5264 50.1136,59.9888 C50.4784,59.4512 50.7616,58.8944 50.9632,58.3184 C51.1648,57.7424 51.2656,57.2528 51.2656,56.8496 C51.2656,56.4464 51.1456,56.1584 50.9056,55.9856 C50.6656,55.8128 50.3776,55.7072 50.0416,55.6688 C49.7056,55.6304 49.3552,55.6544 48.9904,55.7408 C48.6256,55.8272 48.3136,55.9184 48.0544,56.0144 C47.7952,56.1104 47.6224,56.2064 47.536,56.3024 C47.4496,56.3984 47.5216,56.4464 47.752,56.4464 C47.9056,56.4464 48.1072,56.4224 48.3568,56.3744 C48.6064,56.3264 48.8464,56.3024 49.0768,56.3024 C49.3072,56.3024 49.5088,56.3648 49.6816,56.4896 C49.8544,56.6144 49.9408,56.8496 49.9408,57.1952 C49.9408,57.9056 49.7776,58.5488 49.4512,59.1248 C49.1248,59.7008 48.7744,60.1952 48.4,60.608 C48.0256,61.0208 47.704,61.3424 47.4352,61.5728 C47.1664,61.8032 47.08,61.9184 47.176,61.9184 Z" id="™" fill="#FFFFFF" fill-rule="nonzero"></path>
    </g>
</svg>