<?xml version="1.0" encoding="UTF-8"?>
<svg width="100px" height="100px" viewBox="0 0 100 100" version="1.1" xmlns="http://www.w3.org/2000/svg" xmlns:xlink="http://www.w3.org/1999/xlink">
    <!-- Generator: Sketch 61.1 (89650) - https://sketch.com -->
    <title>mim</title>
    <desc>Created with Sketch.</desc>
    <g id="mim" stroke="none" stroke-width="1" fill="none" fill-rule="evenodd">
        <path d="M74.0464,56.344 L74.0464,54.8176 L51.5536,54.8176 L51.5536,45.6592 L25,45.6592 L25,47.0992 L47.464,47.0992 L47.464,56.344 L74.0464,56.344 Z M38.1616,52.0528 C38.5072,52.0528 38.824,51.9856 39.112,51.8512 C39.4,51.7168 39.6544,51.5344 39.8752,51.304 C40.096,51.0736 40.2688,50.8096 40.3936,50.512 C40.5184,50.2144 40.5808,49.9024 40.5808,49.576 C40.5808,48.904 40.3456,48.328 39.8752,47.848 C39.4048,47.368 38.8336,47.128 38.1616,47.128 C37.816,47.128 37.4896,47.1952 37.1824,47.3296 C36.8752,47.464 36.6112,47.6416 36.3904,47.8624 C36.1696,48.0832 35.992,48.3424 35.8576,48.64 C35.7232,48.9376 35.656,49.2592 35.656,49.6048 C35.656,50.296 35.9008,50.8768 36.3904,51.3472 C36.88,51.8176 37.4704,52.0528 38.1616,52.0528 Z M38.1616,51.3328 C37.6816,51.3328 37.264,51.1696 36.9088,50.8432 C36.5536,50.5168 36.376,50.104 36.376,49.6048 C36.376,49.144 36.5536,48.7312 36.9088,48.3664 C37.264,48.0016 37.6816,47.8192 38.1616,47.8192 C38.6416,47.8192 39.04,48.0016 39.3568,48.3664 C39.6736,48.7312 39.832,49.144 39.832,49.6048 C39.832,50.104 39.6736,50.5168 39.3568,50.8432 C39.04,51.1696 38.6416,51.3328 38.1616,51.3328 Z M59.8192,61.2976 C60.5872,61.2976 61.1728,61.0576 61.576,60.5776 C61.9792,60.0976 62.1808,59.5216 62.1808,58.8496 C62.1808,58.1776 61.9504,57.6112 61.4896,57.1504 C61.0288,56.6896 60.472,56.4592 59.8192,56.4592 C59.0896,56.4592 58.48,56.6992 57.9904,57.1792 C57.5008,57.6592 57.256,58.2448 57.256,58.936 C57.256,59.32 57.352,59.656 57.544,59.944 C57.736,60.232 57.9664,60.4768 58.2352,60.6784 C58.504,60.88 58.7824,61.0336 59.0704,61.1392 C59.3584,61.2448 59.608,61.2976 59.8192,61.2976 Z M59.7904,60.4912 C59.2912,60.4912 58.864,60.3328 58.5088,60.016 C58.1536,59.6992 57.976,59.3104 57.976,58.8496 C57.976,58.3504 58.1536,57.9184 58.5088,57.5536 C58.864,57.1888 59.2912,57.0064 59.7904,57.0064 C60.2512,57.0064 60.6448,57.1888 60.9712,57.5536 C61.2976,57.9184 61.4608,58.3504 61.4608,58.8496 C61.4608,59.3104 61.2976,59.6992 60.9712,60.016 C60.6448,60.3328 60.2512,60.4912 59.7904,60.4912 Z" id="o" fill="#FFFFFF" fill-rule="nonzero"></path>
    </g>
</svg>