<?xml version="1.0" encoding="UTF-8"?>
<svg width="100px" height="100px" viewBox="0 0 100 100" version="1.1" xmlns="http://www.w3.org/2000/svg" xmlns:xlink="http://www.w3.org/1999/xlink">
    <!-- Generator: Sketch 61.1 (89650) - https://sketch.com -->
    <title>mimf</title>
    <desc>Created with Sketch.</desc>
    <g id="mimf" stroke="none" stroke-width="1" fill="none" fill-rule="evenodd">
        <path d="M74.0464,54.344 L74.0464,52.8176 L51.5536,52.8176 L51.5536,43.6592 L25,43.6592 L25,45.0992 L47.464,45.0992 L47.464,54.344 L74.0464,54.344 Z M35.5984,50.0528 C35.944,50.0528 36.2608,49.9856 36.5488,49.8512 C36.8368,49.7168 37.0912,49.5344 37.312,49.304 C37.5328,49.0736 37.7056,48.8096 37.8304,48.512 C37.9552,48.2144 38.0176,47.9024 38.0176,47.576 C38.0176,46.904 37.7824,46.328 37.312,45.848 C36.8416,45.368 36.2704,45.128 35.5984,45.128 C35.272,45.128 34.96,45.1952 34.6624,45.3296 C34.3648,45.464 34.1008,45.6416 33.8704,45.8624 C33.64,46.0832 33.4576,46.3424 33.3232,46.64 C33.1888,46.9376 33.1216,47.2592 33.1216,47.6048 C33.1216,47.9504 33.1888,48.272 33.3232,48.5696 C33.4576,48.8672 33.64,49.1264 33.8704,49.3472 C34.1008,49.568 34.3648,49.7408 34.6624,49.8656 C34.96,49.9904 35.272,50.0528 35.5984,50.0528 Z M35.5984,49.3328 C35.0992,49.3328 34.6816,49.1696 34.3456,48.8432 C34.0096,48.5168 33.8416,48.104 33.8416,47.6048 C33.8416,47.144 33.9952,46.7312 34.3024,46.3664 C34.6096,46.0016 35.0032,45.8192 35.4832,45.8192 C35.9632,45.8192 36.3856,46.0016 36.7504,46.3664 C37.1152,46.7312 37.2976,47.144 37.2976,47.6048 C37.2976,48.104 37.1392,48.5168 36.8224,48.8432 C36.5056,49.1696 36.0976,49.3328 35.5984,49.3328 Z M60.6544,59.3552 C61.3264,59.3552 61.8928,59.1152 62.3536,58.6352 C62.8144,58.1552 63.0448,57.5792 63.0448,56.9072 C63.0448,56.216 62.8144,55.6304 62.3536,55.1504 C61.8928,54.6704 61.3264,54.4304 60.6544,54.4304 C59.9632,54.4304 59.3728,54.68 58.8832,55.1792 C58.3936,55.6784 58.1488,56.2736 58.1488,56.9648 C58.1488,57.6368 58.3936,58.2032 58.8832,58.664 C59.3728,59.1248 59.9632,59.3552 60.6544,59.3552 Z M60.6544,58.664 C60.1744,58.664 59.752,58.5056 59.3872,58.1888 C59.0224,57.872 58.84,57.464 58.84,56.9648 C58.84,56.4656 59.0224,56.0384 59.3872,55.6832 C59.752,55.328 60.1744,55.1504 60.6544,55.1504 C61.1152,55.1504 61.5136,55.328 61.8496,55.6832 C62.1856,56.0384 62.3536,56.4656 62.3536,56.9648 C62.3536,57.464 62.1856,57.872 61.8496,58.1888 C61.5136,58.5056 61.1152,58.664 60.6544,58.664 Z M47.176,61.9184 C47.8096,61.9184 48.3808,61.712 48.8896,61.2992 C49.3984,60.8864 49.8256,60.3968 50.1712,59.8304 C50.5168,59.264 50.7856,58.6976 50.9776,58.1312 C51.1696,57.5648 51.2656,57.1376 51.2656,56.8496 C51.2656,56.4464 51.1456,56.1584 50.9056,55.9856 C50.6656,55.8128 50.3776,55.7072 50.0416,55.6688 C49.7056,55.6304 49.3552,55.6544 48.9904,55.7408 C48.6256,55.8272 48.3136,55.9184 48.0544,56.0144 C47.7952,56.1104 47.6224,56.2064 47.536,56.3024 C47.4496,56.3984 47.5216,56.4464 47.752,56.4464 C47.9056,56.4464 48.1072,56.4224 48.3568,56.3744 C48.6064,56.3264 48.8464,56.3024 49.0768,56.3024 C49.3072,56.3024 49.5088,56.3648 49.6816,56.4896 C49.8544,56.6144 49.9408,56.8496 49.9408,57.1952 C49.9408,57.9056 49.7776,58.5488 49.4512,59.1248 C49.1248,59.7008 48.7744,60.1952 48.4,60.608 C48.0256,61.0208 47.704,61.3424 47.4352,61.5728 C47.1664,61.8032 47.08,61.9184 47.176,61.9184 Z" id="£" fill="#FFFFFF" fill-rule="nonzero"></path>
    </g>
</svg>