<?xml version="1.0" encoding="UTF-8"?>
<svg width="100px" height="100px" viewBox="0 0 100 100" version="1.1" xmlns="http://www.w3.org/2000/svg" xmlns:xlink="http://www.w3.org/1999/xlink">
    <!-- Generator: Sketch 61.1 (89650) - https://sketch.com -->
    <title>mu</title>
    <desc>Created with Sketch.</desc>
    <g id="mu" stroke="none" stroke-width="1" fill="none" fill-rule="evenodd">
        <path d="M47.7184,26.44 L47.524864,26.448064 C47.269888,26.469568 47.0272,26.53408 46.7968,26.6416 C46.4896,26.776 46.2208,26.9488 45.9904,27.16 C45.76,27.3904 45.5776,27.6496 45.4432,27.9376 C45.3088,28.2448 45.2416,28.5712 45.2416,28.9168 C45.2416,29.5888 45.4912,30.1648 45.9904,30.6448 C46.4704,31.1248 47.0464,31.3648 47.7184,31.3648 C48.064,31.3648 48.3904,31.288 48.6976,31.1344 C48.9856,31 49.2448,30.8176 49.4752,30.5872 C49.6864,30.3568 49.8592,30.088 49.9936,29.7808 C50.1088,29.4928 50.1664,29.1952 50.1664,28.888 C50.1664,28.1968 49.9312,27.616 49.4608,27.1456 C48.9904,26.6752 48.4096,26.44 47.7184,26.44 L47.7184,26.44 Z M47.7184,30.616 C47.2576,30.616 46.8448,30.4432 46.48,30.0976 C46.1152,29.7712 45.9328,29.3776 45.9328,28.9168 C45.9328,28.4176 46.0864,27.9856 46.3936,27.6208 C46.7008,27.256 47.0944,27.0736 47.5744,27.0736 C48.0736,27.0736 48.5152,27.256 48.8992,27.6208 C49.2832,27.9856 49.4752,28.4176 49.4752,28.9168 C49.4752,29.3776 49.3024,29.7712 48.9568,30.0976 C48.6112,30.4432 48.1984,30.616 47.7184,30.616 Z M47.7184,26.44 L55.696,26.44 L55.696,54.4912 C54.5824,54.6064 53.584,54.856 52.7008,55.24 C52.3168,55.4128 51.952,55.6144 51.6064,55.8448 C51.2416,56.0944 50.9248,56.392 50.656,56.7376 C50.3872,57.0832 50.1664,57.4864 49.9936,57.9472 C49.8208,58.408 49.7344,58.9264 49.7344,59.5024 C49.7344,60.2704 49.888,60.9136 50.1952,61.432 C50.4832,61.9504 50.848,62.3728 51.2896,62.6992 C51.7312,63.0448 52.2112,63.3136 52.7296,63.5056 C53.2288,63.7168 53.6992,63.8704 54.1408,63.9664 C54.5824,64.0816 54.9568,64.1584 55.264,64.1968 C55.552,64.2544 55.696,64.312 55.696,64.3696 L55.696,64.3696 L55.696,74.2192 L59.6992,74.2192 L59.6992,64.3408 C59.6992,64.3024 59.5552,64.2448 59.2672,64.168 C58.96,64.1104 58.5856,64.0144 58.144,63.88 C57.7024,63.7456 57.2224,63.5728 56.704,63.3616 C56.1664,63.1504 55.6768,62.872 55.2352,62.5264 C54.7936,62.1808 54.4288,61.7584 54.1408,61.2592 C53.8336,60.7792 53.68,60.1936 53.68,59.5024 C53.68,58.8304 53.8336,58.2448 54.1408,57.7456 C54.4288,57.2656 54.7936,56.8432 55.2352,56.4784 C55.6768,56.1328 56.1664,55.8448 56.704,55.6144 C57.2224,55.384 57.7024,55.192 58.144,55.0384 C58.5856,54.8848 58.96,54.7696 59.2672,54.6928 C59.5552,54.616 59.6992,54.5488 59.6992,54.4912 L59.6992,54.4912 L59.6992,25 L40,25 L40,26.44 L47.7184,26.44 L47.7184,26.44 Z" id="l" fill="#FFFFFF" fill-rule="nonzero"></path>
    </g>
</svg>