<?xml version="1.0" encoding="UTF-8"?>
<svg width="100px" height="100px" viewBox="0 0 100 100" version="1.1" xmlns="http://www.w3.org/2000/svg" xmlns:xlink="http://www.w3.org/1999/xlink">
    <!-- Generator: Sketch 61.1 (89650) - https://sketch.com -->
    <title>muh</title>
    <desc>Created with Sketch.</desc>
    <g id="muh" stroke="none" stroke-width="1" fill="none" fill-rule="evenodd">
        <path d="M42.488,29.0992 L42.282944,29.107264 C42.012608,29.128768 41.75456,29.19328 41.5088,29.3008 C41.2016,29.4352 40.9424,29.608 40.7312,29.8192 C40.5008,30.0496 40.3184,30.3088 40.184,30.5968 C40.0496,30.904 39.9824,31.2304 39.9824,31.576 C39.9824,31.9024 40.0496,32.2096 40.184,32.4976 C40.3184,32.8048 40.496,33.0688 40.7168,33.2896 C40.9376,33.5104 41.2016,33.688 41.5088,33.8224 C41.816,33.9568 42.1424,34.024 42.488,34.024 C42.8336,34.024 43.1504,33.9472 43.4384,33.7936 C43.7264,33.6592 43.9856,33.4768 44.216,33.2464 C44.4272,33.016 44.6,32.7472 44.7344,32.44 C44.8496,32.152 44.9072,31.8544 44.9072,31.5472 C44.9072,30.856 44.672,30.2752 44.2016,29.8048 C43.7312,29.3344 43.16,29.0992 42.488,29.0992 L42.488,29.0992 Z M42.488,33.2752 C42.008,33.2752 41.5856,33.1024 41.2208,32.7568 C40.856,32.4304 40.6736,32.0368 40.6736,31.576 C40.6736,31.0768 40.856,30.6448 41.2208,30.28 C41.5856,29.9152 42.008,29.7328 42.488,29.7328 C42.968,29.7328 43.3712,29.9152 43.6976,30.28 C44.0048,30.6448 44.1584,31.0768 44.1584,31.576 C44.1584,32.0368 44.0048,32.4304 43.6976,32.7568 C43.3712,33.1024 42.968,33.2752 42.488,33.2752 Z M50.5808,74.4304 C51.0032,74.4304 51.416,74.3632 51.8192,74.2288 C52.2032,74.0944 52.544,73.8976 52.8416,73.6384 C53.1392,73.3792 53.384,73.048 53.576,72.6448 C53.768,72.2416 53.864,71.7808 53.864,71.2624 C53.864,70.936 53.8496,70.5424 53.8208,70.0816 C53.792,69.6208 53.672,69.2848 53.4608,69.0736 C53.4032,69.016 53.336,69.1312 53.2592,69.4192 C53.1632,69.688 53.0192,70.0048 52.8272,70.3696 C52.616,70.7152 52.328,71.0416 51.9632,71.3488 C51.5984,71.656 51.1184,71.8096 50.5232,71.8096 C50.024,71.8096 49.6016,71.6656 49.256,71.3776 C48.9104,71.0704 48.6224,70.744 48.392,70.3984 C48.1616,70.0336 47.9888,69.7168 47.8736,69.448 C47.7392,69.16 47.6432,69.0352 47.5856,69.0736 C47.4896,69.1696 47.4224,69.3136 47.384,69.5056 C47.3264,69.6784 47.288,69.88 47.2688,70.1104 C47.2496,70.3216 47.2352,70.5328 47.2256,70.744 C47.216,70.9552 47.2112,71.1472 47.2112,71.32 C47.2112,71.8768 47.3168,72.3472 47.528,72.7312 C47.7392,73.1152 48.008,73.4416 48.3344,73.7104 C48.6608,73.96 49.0256,74.1424 49.4288,74.2576 C49.8128,74.3728 50.1968,74.4304 50.5808,74.4304 Z M42.488,29.0992 L50.696,29.0992 L50.696,47.416 C50.696,47.4928 50.9456,47.5888 51.4448,47.704 C51.9248,47.8384 52.5296,48.0304 53.2592,48.28 C53.9696,48.5488 54.7568,48.8944 55.6208,49.3168 C56.4656,49.7584 57.248,50.3296 57.968,51.0304 C58.688,51.7312 59.2976,52.5808 59.7968,53.5792 C60.2768,54.5776 60.5168,55.768 60.5168,57.1504 C60.5168,58.6288 60.2576,59.896 59.7392,60.952 C59.2208,62.0272 58.52,62.9008 57.6368,63.5728 C56.7344,64.264 55.688,64.7728 54.4976,65.0992 C53.3072,65.4256 52.04,65.5888 50.696,65.5888 C48.7568,65.5888 47.0576,65.416 45.5984,65.0704 C44.12,64.7248 42.8816,64.3312 41.8832,63.8896 C40.712,63.3904 39.704,62.8144 38.8592,62.1616 L38.8592,62.1616 L35,62.1616 L35,76.7344 L38.9456,76.8208 L38.9456,65.0992 C40.0208,65.464 41.1728,65.7808 42.4016,66.0496 C43.4576,66.2992 44.6864,66.52 46.088,66.712 C47.4704,66.904 48.9488,67 50.5232,67 C51.6368,67 52.76,66.9472 53.8928,66.8416 C55.0256,66.736 56.1104,66.5392 57.1472,66.2512 C58.184,65.9824 59.1536,65.608 60.056,65.128 C60.9392,64.648 61.7168,64.0432 62.3888,63.3136 C63.0608,62.584 63.5888,61.7104 63.9728,60.6928 C64.3376,59.6944 64.52,58.5136 64.52,57.1504 C64.52,55.7104 64.28,54.4528 63.8,53.3776 C63.3008,52.3216 62.696,51.4192 61.9856,50.6704 C61.256,49.9216 60.4688,49.3072 59.624,48.8272 C58.76,48.3472 57.9728,47.9632 57.2624,47.6752 C56.5328,47.3872 55.928,47.176 55.448,47.0416 C54.9488,46.9264 54.6992,46.84 54.6992,46.7824 L54.6992,46.7824 L54.6992,27.6592 L35,27.6592 L35,29.0992 L42.488,29.0992 L42.488,29.0992 Z" id="Œ" fill="#FFFFFF" fill-rule="nonzero"></path>
    </g>
</svg>