<?xml version="1.0" encoding="UTF-8"?>
<svg width="100px" height="100px" viewBox="0 0 100 100" version="1.1" xmlns="http://www.w3.org/2000/svg" xmlns:xlink="http://www.w3.org/1999/xlink">
    <!-- Generator: Sketch 61.1 (89650) - https://sketch.com -->
    <title>mum</title>
    <desc>Created with Sketch.</desc>
    <g id="mum" stroke="none" stroke-width="1" fill="none" fill-rule="evenodd">
        <path d="M45.0848,26.44 L44.891264,26.448064 C44.636288,26.469568 44.3936,26.53408 44.1632,26.6416 C43.856,26.776 43.5872,26.9488 43.3568,27.16 C43.1264,27.3904 42.944,27.6496 42.8096,27.9376 C42.6752,28.2448 42.608,28.5712 42.608,28.9168 C42.608,29.5888 42.8576,30.1648 43.3568,30.6448 C43.8368,31.1248 44.4128,31.3648 45.0848,31.3648 C45.4304,31.3648 45.7568,31.288 46.064,31.1344 C46.352,31 46.6112,30.8176 46.8416,30.5872 C47.0528,30.3568 47.2256,30.088 47.36,29.7808 C47.4752,29.4928 47.5328,29.1952 47.5328,28.888 C47.5328,28.1968 47.2928,27.6112 46.8128,27.1312 C46.3328,26.6704 45.7568,26.44 45.0848,26.44 L45.0848,26.44 Z M60.0896,30.5296 C59.648,30.5296 59.2544,30.3568 58.9088,30.0112 C58.544,29.6848 58.3616,29.272 58.3616,28.7728 C58.3616,28.3312 58.544,27.9184 58.9088,27.5344 C59.2544,27.1696 59.648,26.9872 60.0896,26.9872 C60.5888,26.9872 61.0064,27.1744 61.3424,27.5488 C61.6784,27.9232 61.8464,28.3312 61.8464,28.7728 C61.8464,29.272 61.6832,29.6848 61.3568,30.0112 C61.0112,30.3568 60.5888,30.5296 60.0896,30.5296 Z M45.0848,30.616 C44.5856,30.616 44.1728,30.4432 43.8464,30.0976 C43.5008,29.7712 43.328,29.3776 43.328,28.9168 C43.328,28.4176 43.5008,27.9856 43.8464,27.6208 C44.1728,27.256 44.5856,27.0736 45.0848,27.0736 C45.5456,27.0736 45.9584,27.256 46.3232,27.6208 C46.6688,27.9856 46.8416,28.4176 46.8416,28.9168 C46.8416,29.3776 46.6688,29.7712 46.3232,30.0976 C45.9584,30.4432 45.5456,30.616 45.0848,30.616 Z M57.6992,28.7728 L57.707264,28.976704 C57.728768,29.243968 57.79328,29.4928 57.9008,29.7232 C58.016,30.0304 58.184,30.2944 58.4048,30.5152 C58.6256,30.736 58.88,30.904 59.168,31.0192 C59.456,31.1536 59.7632,31.2208 60.0896,31.2208 C60.4352,31.2208 60.7616,31.1536 61.0688,31.0192 C61.3568,30.8848 61.616,30.7024 61.8464,30.472 C62.0576,30.2416 62.2304,29.9728 62.3648,29.6656 C62.48,29.3776 62.5376,29.0704 62.5376,28.744 C62.5376,28.072 62.3072,27.5056 61.8464,27.0448 C61.3664,26.584 60.7808,26.3536 60.0896,26.3536 C59.7632,26.3536 59.456,26.4208 59.168,26.5552 C58.88,26.6896 58.6304,26.8624 58.4192,27.0736 C58.1888,27.304 58.016,27.5632 57.9008,27.8512 C57.7664,28.1584 57.6992,28.4656 57.6992,28.7728 L57.6992,28.7728 Z M57.6992,28.7728 L57.6992,25 L38,25 L38,26.44 L45.0848,26.44 L45.0848,26.44 L53.696,26.44 L53.696,54.4912 C52.5824,54.6064 51.584,54.856 50.7008,55.24 C50.3168,55.4128 49.952,55.6144 49.6064,55.8448 C49.2416,56.0944 48.9248,56.392 48.656,56.7376 C48.3872,57.0832 48.1664,57.4864 47.9936,57.9472 C47.8208,58.408 47.7344,58.9264 47.7344,59.5024 C47.7344,60.2704 47.888,60.9136 48.1952,61.432 C48.4832,61.9504 48.848,62.3728 49.2896,62.6992 C49.7312,63.0448 50.2112,63.3136 50.7296,63.5056 C51.2288,63.7168 51.6992,63.8704 52.1408,63.9664 C52.5824,64.0816 52.9568,64.1584 53.264,64.1968 C53.552,64.2544 53.696,64.312 53.696,64.3696 L53.696,64.3696 L53.696,74.2192 L57.6992,74.2192 L57.6992,64.3408 C57.6992,64.3024 57.5552,64.2448 57.2672,64.168 C56.96,64.1104 56.5856,64.0144 56.144,63.88 C55.7024,63.7456 55.2224,63.5728 54.704,63.3616 C54.1664,63.1504 53.6768,62.872 53.2352,62.5264 C52.7936,62.1808 52.4288,61.7584 52.1408,61.2592 C51.8336,60.7792 51.68,60.1936 51.68,59.5024 C51.68,58.8304 51.8336,58.2448 52.1408,57.7456 C52.4288,57.2656 52.7936,56.8432 53.2352,56.4784 C53.6768,56.1328 54.1664,55.8448 54.704,55.6144 C55.2224,55.384 55.7024,55.192 56.144,55.0384 C56.5856,54.8848 56.96,54.7696 57.2672,54.6928 C57.5552,54.616 57.6992,54.5488 57.6992,54.4912 L57.6992,54.4912 L57.6992,28.7728 L57.6992,28.7728 Z" id=";" fill="#FFFFFF" fill-rule="nonzero"></path>
    </g>
</svg>