<?xml version="1.0" encoding="UTF-8"?>
<svg width="100px" height="100px" viewBox="0 0 100 100" version="1.1" xmlns="http://www.w3.org/2000/svg" xmlns:xlink="http://www.w3.org/1999/xlink">
    <!-- Generator: Sketch 61.1 (89650) - https://sketch.com -->
    <title>míng</title>
    <desc>Created with Sketch.</desc>
    <g id="míng" stroke="none" stroke-width="1" fill="none" fill-rule="evenodd">
        <path d="M42.0848,31.44 L41.891264,31.448064 C41.636288,31.469568 41.3936,31.53408 41.1632,31.6416 C40.856,31.776 40.5872,31.9488 40.3568,32.16 C40.1264,32.3904 39.944,32.6496 39.8096,32.9376 C39.6752,33.2448 39.608,33.5712 39.608,33.9168 C39.608,34.5888 39.8576,35.1648 40.3568,35.6448 C40.8368,36.1248 41.4128,36.3648 42.0848,36.3648 C42.4304,36.3648 42.7568,36.288 43.064,36.1344 C43.352,36 43.6112,35.8176 43.8416,35.5872 C44.0528,35.3568 44.2256,35.088 44.36,34.7808 C44.4752,34.4928 44.5328,34.1952 44.5328,33.888 C44.5328,33.1968 44.2928,32.6112 43.8128,32.1312 C43.3328,31.6704 42.7568,31.44 42.0848,31.44 L42.0848,31.44 Z M42.0848,35.616 C41.5856,35.616 41.1728,35.4432 40.8464,35.0976 C40.5008,34.7712 40.328,34.3776 40.328,33.9168 C40.328,33.4176 40.5008,32.9856 40.8464,32.6208 C41.1728,32.256 41.5856,32.0736 42.0848,32.0736 C42.5456,32.0736 42.9584,32.256 43.3232,32.6208 C43.6688,32.9856 43.8416,33.4176 43.8416,33.9168 C43.8416,34.3776 43.6688,34.7712 43.3232,35.0976 C42.9584,35.4432 42.5456,35.616 42.0848,35.616 Z M42.0848,31.44 L50.696,31.44 L50.696,69.3408 L54.7568,69.3408 C54.776,69.3408 54.8336,69.1968 54.9296,68.9088 C55.0256,68.64 55.1696,68.2944 55.3616,67.872 C55.5344,67.4496 55.7552,66.9984 56.024,66.5184 C56.2736,66.0384 56.5712,65.5872 56.9168,65.1648 C57.2624,64.7424 57.656,64.3872 58.0976,64.0992 C58.52,63.8304 58.9904,63.696 59.5088,63.696 C59.9696,63.696 60.3824,63.8784 60.7472,64.2432 C61.112,64.6272 61.2944,65.1264 61.2944,65.7408 C61.2944,66.24 61.1984,66.7104 61.0064,67.152 C60.7952,67.5936 60.5744,67.9776 60.344,68.304 C60.0752,68.688 59.768,69.0336 59.4224,69.3408 C59.3264,69.456 59.3936,69.504 59.624,69.4848 C59.8352,69.4656 60.1328,69.3696 60.5168,69.1968 C60.9008,69.0432 61.3232,68.8032 61.784,68.4768 C62.2448,68.1696 62.6768,67.7664 63.08,67.2672 C63.4832,66.7872 63.8288,66.2208 64.1168,65.568 C64.3856,64.9152 64.52,64.176 64.52,63.3504 C64.52,62.9472 64.472,62.5152 64.376,62.0544 C64.2608,61.6128 64.088,61.2 63.8576,60.816 C63.6272,60.432 63.3392,60.1152 62.9936,59.8656 C62.6288,59.616 62.2064,59.4912 61.7264,59.4912 C60.632,59.4912 59.7008,59.6736 58.9328,60.0384 C58.1648,60.4224 57.5216,60.8928 57.0032,61.4496 C56.4848,62.0064 56.072,62.6016 55.7648,63.2352 C55.4576,63.8688 55.2272,64.4448 55.0736,64.9632 C54.92,65.5008 54.824,65.9232 54.7856,66.2304 C54.728,66.5376 54.6992,66.6432 54.6992,66.5472 L54.6992,66.5472 L54.6992,30 L35,30 L35,31.44 L42.0848,31.44 L42.0848,31.44 Z" id="p" fill="#FFFFFF" fill-rule="nonzero"></path>
    </g>
</svg>