<?xml version="1.0" encoding="UTF-8"?>
<svg width="100px" height="100px" viewBox="0 0 100 100" version="1.1" xmlns="http://www.w3.org/2000/svg" xmlns:xlink="http://www.w3.org/1999/xlink">
    <!-- Generator: Sketch 61.1 (89650) - https://sketch.com -->
    <title>na</title>
    <desc>Created with Sketch.</desc>
    <g id="na" stroke="none" stroke-width="1" fill="none" fill-rule="evenodd">
        <path d="M59.6992,58.5024 L59.6992,38.6592 L40,38.6592 L40,40.0128 L55.696,40.0128 L55.696,57.0912 L50.4256,57.0912 C50.3872,57.0912 50.1712,57.0816 49.7776,57.0624 C49.384,57.0432 48.904,56.9712 48.3376,56.8464 C47.7712,56.7216 47.1616,56.5296 46.5088,56.2704 C45.856,56.0112 45.2512,55.6368 44.6944,55.1472 C44.1376,54.6576 43.6768,54.0384 43.312,53.2896 C42.9472,52.5408 42.7648,51.6192 42.7648,50.5248 C42.7648,49.7568 42.8752,49.0752 43.096,48.48 C43.3168,47.8848 43.6144,47.3904 43.9888,46.9968 C44.3632,46.6032 44.8048,46.3056 45.3136,46.104 C45.8224,45.9024 46.3744,45.8016 46.9696,45.8016 C47.488,45.8016 47.9824,45.864 48.4528,45.9888 C48.9232,46.1136 49.3408,46.32 49.7056,46.608 C50.0704,46.896 50.3632,47.2848 50.584,47.7744 C50.8048,48.264 50.9152,48.8736 50.9152,49.6032 C50.9152,50.3328 50.7424,50.9328 50.3968,51.4032 C50.0512,51.8736 49.672,52.248 49.2592,52.5264 C48.8464,52.8048 48.472,53.0016 48.136,53.1168 C47.8,53.232 47.6416,53.2896 47.6608,53.2896 C48.0832,53.4432 48.6112,53.4912 49.2448,53.4336 C49.8784,53.376 50.488,53.1984 51.0736,52.9008 C51.6592,52.6032 52.1584,52.1664 52.5712,51.5904 C52.984,51.0144 53.1904,50.2752 53.1904,49.3728 C53.1904,48.432 53.0272,47.6112 52.7008,46.9104 C52.3744,46.2096 51.9232,45.624 51.3472,45.1536 C50.7712,44.6832 50.0992,44.328 49.3312,44.088 C48.5632,43.848 47.7376,43.728 46.8544,43.728 C45.8752,43.728 44.968,43.8864 44.1328,44.2032 C43.2976,44.52 42.5728,44.9856 41.9584,45.6 C41.344,46.2144 40.864,46.9632 40.5184,47.8464 C40.1728,48.7296 40,49.7472 40,50.8992 C40,52.2624 40.2928,53.4288 40.8784,54.3984 C41.464,55.368 42.232,56.1552 43.1824,56.76 C44.1328,57.3648 45.1936,57.8064 46.3648,58.0848 C47.536,58.3632 48.7168,58.5024 49.9072,58.5024 L49.9072,58.5024 L59.6992,58.5024 Z" id="e" fill="#FFFFFF" fill-rule="nonzero"></path>
    </g>
</svg>