<?xml version="1.0" encoding="UTF-8"?>
<svg width="100px" height="100px" viewBox="0 0 100 100" version="1.1" xmlns="http://www.w3.org/2000/svg" xmlns:xlink="http://www.w3.org/1999/xlink">
    <!-- Generator: Sketch 61.1 (89650) - https://sketch.com -->
    <title>nam</title>
    <desc>Created with Sketch.</desc>
    <g id="nam" stroke="none" stroke-width="1" fill="none" fill-rule="evenodd">
        <path d="M57.6992,43.7728 L57.7064,43.97152 C57.7496,44.55904 57.9872,45.0688 58.4192,45.5008 C58.8992,45.9808 59.4848,46.2208 60.176,46.2208 C60.8288,46.2208 61.3856,45.9712 61.8464,45.472 C62.3072,44.992 62.5376,44.416 62.5376,43.744 C62.5376,43.072 62.3072,42.5056 61.8464,42.0448 C61.3856,41.584 60.8288,41.3536 60.176,41.3536 C59.8304,41.3536 59.5136,41.4208 59.2256,41.5552 C58.9184,41.6896 58.6496,41.8624 58.4192,42.0736 C58.1888,42.304 58.016,42.5632 57.9008,42.8512 C57.7664,43.1584 57.6992,43.4656 57.6992,43.7728 L57.6992,43.7728 Z M60.176,45.5296 C59.6768,45.5296 59.2544,45.3568 58.9088,45.0112 C58.544,44.6848 58.3616,44.272 58.3616,43.7728 C58.3616,43.5424 58.4096,43.3216 58.5056,43.1104 C58.6016,42.8992 58.736,42.7072 58.9088,42.5344 C59.0624,42.3808 59.2544,42.2464 59.4848,42.1312 C59.696,42.0352 59.9264,41.9872 60.176,41.9872 C60.6368,41.9872 61.0304,42.1696 61.3568,42.5344 C61.6832,42.9184 61.8464,43.3312 61.8464,43.7728 C61.8464,44.272 61.6832,44.6848 61.3568,45.0112 C61.0304,45.3568 60.6368,45.5296 60.176,45.5296 Z M57.6992,43.7728 L57.6992,40 L38,40 L38,41.3536 L53.696,41.3536 L53.696,58.432 L48.4256,58.432 C48.3872,58.432 48.176,58.4224 47.792,58.4032 C47.3888,58.384 46.9088,58.3072 46.352,58.1728 C45.776,58.0576 45.1616,57.8656 44.5088,57.5968 C43.856,57.3472 43.2512,56.9728 42.6944,56.4736 C42.1376,55.9936 41.6768,55.3792 41.312,54.6304 C40.9472,53.8816 40.7648,52.96 40.7648,51.8656 C40.7648,51.0976 40.88,50.416 41.1104,49.8208 C41.3216,49.2256 41.6192,48.7264 42.0032,48.3232 C42.368,47.9392 42.8096,47.6416 43.328,47.4304 C43.8272,47.2384 44.3744,47.1424 44.9696,47.1424 C45.488,47.1424 45.9872,47.2 46.4672,47.3152 C46.928,47.4496 47.3408,47.6608 47.7056,47.9488 C48.0704,48.2368 48.368,48.6208 48.5984,49.1008 C48.8096,49.6 48.9152,50.2144 48.9152,50.944 C48.9152,51.6736 48.7424,52.2688 48.3968,52.7296 C48.0512,53.2096 47.6768,53.584 47.2736,53.8528 C46.8512,54.1408 46.4768,54.3424 46.1504,54.4576 C45.8048,54.5728 45.6416,54.6304 45.6608,54.6304 C46.0832,54.784 46.6112,54.832 47.2448,54.7744 C47.8784,54.7168 48.4928,54.5344 49.088,54.2272 C49.664,53.9392 50.1632,53.5072 50.5856,52.9312 C50.9888,52.3552 51.1904,51.616 51.1904,50.7136 C51.1904,49.7728 51.0272,48.9472 50.7008,48.2368 C50.3744,47.5456 49.9232,46.96 49.3472,46.48 C48.7712,46.0192 48.0992,45.664 47.3312,45.4144 C46.5632,45.184 45.7376,45.0688 44.8544,45.0688 C43.8752,45.0688 42.9728,45.2224 42.1472,45.5296 C41.3024,45.856 40.5728,46.3264 39.9584,46.9408 C39.344,47.5552 38.864,48.304 38.5184,49.1872 C38.1728,50.0704 38,51.088 38,52.24 C38,53.6032 38.2976,54.7648 38.8928,55.7248 C39.4688,56.704 40.2368,57.4912 41.1968,58.0864 C42.1376,58.7008 43.1936,59.1424 44.3648,59.4112 C45.536,59.6992 46.7168,59.8432 47.9072,59.8432 L47.9072,59.8432 L57.6992,59.8432 L57.6992,43.7728 L57.6992,43.7728 Z" id="Ç" fill="#FFFFFF" fill-rule="nonzero"></path>
    </g>
</svg>