<?xml version="1.0" encoding="UTF-8"?>
<svg width="100px" height="100px" viewBox="0 0 100 100" version="1.1" xmlns="http://www.w3.org/2000/svg" xmlns:xlink="http://www.w3.org/1999/xlink">
    <!-- Generator: Sketch 61.1 (89650) - https://sketch.com -->
    <title>ni</title>
    <desc>Created with Sketch.</desc>
    <g id="ni" stroke="none" stroke-width="1" fill="none" fill-rule="evenodd">
        <path d="M49.6304,69.3408 C50.6864,69.3408 51.7808,69.2688 52.9136,69.1248 C54.0464,68.9808 55.1552,68.7456 56.24,68.4192 C57.3248,68.0928 58.3568,67.6752 59.336,67.1664 C60.3152,66.6576 61.1744,66.0432 61.9136,65.3232 C62.6528,64.6032 63.2384,63.768 63.6704,62.8176 C64.1024,61.8672 64.3184,60.7968 64.3184,59.6064 C64.3184,58.032 64.0928,56.688 63.6416,55.5744 C63.1904,54.4608 62.6192,53.5152 61.928,52.7376 C61.2368,51.96 60.488,51.3408 59.6816,50.88 C58.8752,50.4192 58.1168,50.0544 57.4064,49.7856 C56.696,49.5168 56.0864,49.3296 55.5776,49.224 C55.0688,49.1184 54.776,49.0368 54.6992,48.9792 L54.6992,48.9792 L54.6992,30 L35,30 L35,31.44 L50.696,31.44 L50.696,49.6128 C50.7152,49.6128 50.9696,49.6704 51.4592,49.7856 C51.9488,49.9008 52.5536,50.1024 53.2736,50.3904 C53.9936,50.6784 54.7712,51.072 55.6064,51.5712 C56.4416,52.0704 57.2192,52.6992 57.9392,53.4576 C58.6592,54.216 59.2544,55.1232 59.7248,56.1792 C60.1952,57.2352 60.4304,58.464 60.4304,59.8656 C60.4304,60.9408 60.2624,61.8864 59.9264,62.7024 C59.5904,63.5184 59.1392,64.2288 58.5728,64.8336 C58.0064,65.4384 57.3536,65.9424 56.6144,66.3456 C55.8752,66.7488 55.1024,67.0704 54.296,67.3104 C53.4896,67.5504 52.6832,67.7232 51.8768,67.8288 C51.0704,67.9344 50.3216,67.9872 49.6304,67.9872 C48.4016,67.9872 47.144,67.8864 45.8576,67.6848 C44.5712,67.4832 43.4,67.128 42.344,66.6192 C41.288,66.1104 40.424,65.4288 39.752,64.5744 C39.08,63.72 38.744,62.64 38.744,61.3344 C38.744,60.7392 38.8256,60.168 38.9888,59.6208 C39.152,59.0736 39.4112,58.5936 39.7664,58.1808 C40.1216,57.768 40.5776,57.4416 41.1344,57.2016 C41.6912,56.9616 42.3632,56.8416 43.1504,56.8416 C43.7264,56.8416 44.2592,56.9328 44.7488,57.1152 C45.2384,57.2976 45.656,57.5376 46.0016,57.8352 C46.3472,58.1328 46.616,58.4736 46.808,58.8576 C47,59.2416 47.096,59.6256 47.096,60.0096 C47.096,60.5088 47.0432,60.9936 46.9376,61.464 C46.832,61.9344 46.6784,62.3664 46.4768,62.76 C46.2752,63.1536 46.0256,63.4944 45.728,63.7824 C45.4304,64.0704 45.0992,64.2624 44.7344,64.3584 C44.696,64.3776 44.8112,64.3968 45.08,64.416 C45.3488,64.4352 45.6944,64.4208 46.1168,64.3728 C46.5392,64.3248 47.0096,64.2192 47.528,64.056 C48.0464,63.8928 48.5264,63.6528 48.968,63.336 C49.4096,63.0192 49.7792,62.5968 50.0768,62.0688 C50.3744,61.5408 50.5232,60.8736 50.5232,60.0672 C50.5232,59.2224 50.2928,58.464 49.832,57.792 C49.3712,57.12 48.776,56.5536 48.0464,56.0928 C47.3168,55.632 46.5056,55.2768 45.6128,55.0272 C44.72,54.7776 43.8416,54.6528 42.9776,54.6528 C41.7296,54.6528 40.6112,54.8016 39.6224,55.0992 C38.6336,55.3968 37.7984,55.824 37.1168,56.3808 C36.4352,56.9376 35.912,57.6048 35.5472,58.3824 C35.1824,59.16 35,60.0384 35,61.0176 C35,62.2272 35.2016,63.2736 35.6048,64.1568 C36.008,65.04 36.56,65.7888 37.2608,66.4032 C37.9616,67.0176 38.7824,67.5168 39.7232,67.9008 C40.664,68.2848 41.6768,68.5824 42.7616,68.7936 C43.8464,69.0048 44.9744,69.1488 46.1456,69.2256 C47.3168,69.3024 48.4784,69.3408 49.6304,69.3408 Z" id="6" fill="#FFFFFF" fill-rule="nonzero"></path>
    </g>
</svg>