<?xml version="1.0" encoding="UTF-8"?>
<svg width="100px" height="100px" viewBox="0 0 100 100" version="1.1" xmlns="http://www.w3.org/2000/svg" xmlns:xlink="http://www.w3.org/1999/xlink">
    <!-- Generator: Sketch 61.1 (89650) - https://sketch.com -->
    <title>nif</title>
    <desc>Created with Sketch.</desc>
    <g id="nif" stroke="none" stroke-width="1" fill="none" fill-rule="evenodd">
        <path d="M49.6304,68 C50.6864,68 51.7808,67.928 52.9136,67.784 C54.0464,67.64 55.1552,67.4048 56.24,67.0784 C57.3248,66.752 58.3568,66.3344 59.336,65.8256 C60.3152,65.3168 61.1744,64.7024 61.9136,63.9824 C62.6528,63.2624 63.2384,62.4272 63.6704,61.4768 C64.1024,60.5264 64.3184,59.456 64.3184,58.2656 C64.3184,56.6912 64.0928,55.3472 63.6416,54.2336 C63.1904,53.12 62.6192,52.1744 61.928,51.3968 C61.2368,50.6192 60.488,50 59.6816,49.5392 C58.8752,49.0784 58.1168,48.7136 57.4064,48.4448 C56.696,48.176 56.0864,47.9888 55.5776,47.8832 C55.0688,47.7776 54.776,47.696 54.6992,47.6384 L54.6992,47.6384 L54.6992,28.6592 L35,28.6592 L35,30.0992 L50.696,30.0992 L50.696,48.272 C50.7152,48.272 50.9696,48.3296 51.4592,48.4448 C51.9488,48.56 52.5536,48.7616 53.2736,49.0496 C53.9936,49.3376 54.7712,49.7312 55.6064,50.2304 C56.4416,50.7296 57.2192,51.3584 57.9392,52.1168 C58.6592,52.8752 59.2544,53.7824 59.7248,54.8384 C60.1952,55.8944 60.4304,57.1232 60.4304,58.5248 C60.4304,59.6 60.2624,60.5456 59.9264,61.3616 C59.5904,62.1776 59.1392,62.888 58.5728,63.4928 C58.0064,64.0976 57.3536,64.6016 56.6144,65.0048 C55.8752,65.408 55.1024,65.7296 54.296,65.9696 C53.4896,66.2096 52.6832,66.3824 51.8768,66.488 C51.0704,66.5936 50.3216,66.6464 49.6304,66.6464 C48.4016,66.6464 47.144,66.5456 45.8576,66.344 C44.5712,66.1424 43.4,65.7872 42.344,65.2784 C41.288,64.7696 40.424,64.088 39.752,63.2336 C39.08,62.3792 38.744,61.2992 38.744,59.9936 C38.744,59.3984 38.8256,58.8272 38.9888,58.28 C39.152,57.7328 39.4112,57.2528 39.7664,56.84 C40.1216,56.4272 40.5776,56.1008 41.1344,55.8608 C41.6912,55.6208 42.3632,55.5008 43.1504,55.5008 C43.7264,55.5008 44.2592,55.592 44.7488,55.7744 C45.2384,55.9568 45.656,56.1968 46.0016,56.4944 C46.3472,56.792 46.616,57.1328 46.808,57.5168 C47,57.9008 47.096,58.2848 47.096,58.6688 C47.096,59.168 47.0432,59.6528 46.9376,60.1232 C46.832,60.5936 46.6784,61.0256 46.4768,61.4192 C46.2752,61.8128 46.0256,62.1536 45.728,62.4416 C45.4304,62.7296 45.0992,62.9216 44.7344,63.0176 C44.696,63.0368 44.8112,63.056 45.08,63.0752 C45.3488,63.0944 45.6944,63.08 46.1168,63.032 C46.5392,62.984 47.0096,62.8784 47.528,62.7152 C48.0464,62.552 48.5264,62.312 48.968,61.9952 C49.4096,61.6784 49.7792,61.256 50.0768,60.728 C50.3744,60.2 50.5232,59.5328 50.5232,58.7264 C50.5232,57.8816 50.2928,57.1232 49.832,56.4512 C49.3712,55.7792 48.776,55.2128 48.0464,54.752 C47.3168,54.2912 46.5056,53.936 45.6128,53.6864 C44.72,53.4368 43.8416,53.312 42.9776,53.312 C41.7296,53.312 40.6112,53.4608 39.6224,53.7584 C38.6336,54.056 37.7984,54.4832 37.1168,55.04 C36.4352,55.5968 35.912,56.264 35.5472,57.0416 C35.1824,57.8192 35,58.6976 35,59.6768 C35,60.8864 35.2016,61.9328 35.6048,62.816 C36.008,63.6992 36.56,64.448 37.2608,65.0624 C37.9616,65.6768 38.7824,66.176 39.7232,66.56 C40.664,66.944 41.6768,67.2416 42.7616,67.4528 C43.8464,67.664 44.9744,67.808 46.1456,67.8848 C47.3168,67.9616 48.4784,68 49.6304,68 Z M48.1616,75.9488 C48.776,75.9488 49.3376,75.752 49.8464,75.3584 C50.3552,74.9648 50.7872,74.4992 51.1424,73.9616 C51.4976,73.424 51.776,72.8672 51.9776,72.2912 C52.1792,71.7152 52.28,71.2448 52.28,70.88 C52.28,70.4768 52.1648,70.184 51.9344,70.0016 C51.704,69.8192 51.4208,69.7136 51.0848,69.6848 C50.7488,69.656 50.3936,69.68 50.0192,69.7568 C49.6448,69.8336 49.3232,69.9248 49.0544,70.0304 C48.7856,70.136 48.6032,70.232 48.5072,70.3184 C48.4112,70.4048 48.4688,70.448 48.68,70.448 C48.8528,70.448 49.064,70.424 49.3136,70.376 C49.5632,70.328 49.8032,70.3088 50.0336,70.3184 C50.264,70.328 50.4608,70.3952 50.624,70.52 C50.7872,70.6448 50.8688,70.88 50.8688,71.2256 C50.8688,71.8976 50.7104,72.5216 50.3936,73.0976 C50.0768,73.6736 49.736,74.1728 49.3712,74.5952 C49.0064,75.0176 48.6896,75.3488 48.4208,75.5888 C48.152,75.8288 48.0656,75.9488 48.1616,75.9488 Z" id="," fill="#FFFFFF" fill-rule="nonzero"></path>
    </g>
</svg>