<?xml version="1.0" encoding="UTF-8"?>
<svg width="100px" height="100px" viewBox="0 0 100 100" version="1.1" xmlns="http://www.w3.org/2000/svg" xmlns:xlink="http://www.w3.org/1999/xlink">
    <!-- Generator: Sketch 61.1 (89650) - https://sketch.com -->
    <title>nim</title>
    <desc>Created with Sketch.</desc>
    <g id="nim" stroke="none" stroke-width="1" fill="none" fill-rule="evenodd">
        <path d="M54.6992,33.7728 L54.707264,33.976704 C54.728768,34.243968 54.79328,34.4928 54.9008,34.7232 C55.016,35.0304 55.184,35.2944 55.4048,35.5152 C55.6256,35.736 55.88,35.904 56.168,36.0192 C56.456,36.1536 56.7632,36.2208 57.0896,36.2208 C57.4352,36.2208 57.7616,36.1536 58.0688,36.0192 C58.3568,35.8848 58.616,35.7024 58.8464,35.472 C59.0576,35.2416 59.2304,34.9728 59.3648,34.6656 C59.48,34.3776 59.5376,34.0704 59.5376,33.744 C59.5376,33.072 59.3072,32.5056 58.8464,32.0448 C58.3664,31.584 57.7808,31.3536 57.0896,31.3536 C56.7632,31.3536 56.456,31.4208 56.168,31.5552 C55.88,31.6896 55.6304,31.8624 55.4192,32.0736 C55.1888,32.304 55.016,32.5632 54.9008,32.8512 C54.7664,33.1584 54.6992,33.4656 54.6992,33.7728 L54.6992,33.7728 Z M57.0896,35.5296 C56.648,35.5296 56.2544,35.3568 55.9088,35.0112 C55.544,34.6848 55.3616,34.272 55.3616,33.7728 C55.3616,33.3312 55.544,32.9184 55.9088,32.5344 C56.2544,32.1696 56.648,31.9872 57.0896,31.9872 C57.5888,31.9872 58.0064,32.1744 58.3424,32.5488 C58.6784,32.9232 58.8464,33.3312 58.8464,33.7728 C58.8464,34.272 58.6832,34.6848 58.3568,35.0112 C58.0112,35.3568 57.5888,35.5296 57.0896,35.5296 Z M54.6992,33.7728 L54.6992,30 L35,30 L35,31.44 L50.696,31.44 L50.696,49.6128 C50.7152,49.6128 50.9744,49.6704 51.4736,49.7856 C51.9536,49.9008 52.5584,50.1024 53.288,50.3904 C53.9984,50.6784 54.776,51.072 55.6208,51.5712 C56.4464,52.0704 57.2192,52.6992 57.9392,53.4576 C58.6592,54.216 59.2592,55.1232 59.7392,56.1792 C60.2,57.2352 60.4304,58.464 60.4304,59.8656 C60.4304,60.9408 60.2672,61.8816 59.9408,62.688 C59.5952,63.5136 59.144,64.224 58.5872,64.8192 C58.0112,65.4336 57.3584,65.9424 56.6288,66.3456 C55.88,66.7488 55.1024,67.0656 54.296,67.296 C53.4896,67.5456 52.6832,67.7184 51.8768,67.8144 C51.0704,67.9296 50.3216,67.9872 49.6304,67.9872 C48.4016,67.9872 47.144,67.8816 45.8576,67.6704 C44.5712,67.4784 43.4,67.1232 42.344,66.6048 C41.288,66.1056 40.424,65.424 39.752,64.56 C39.08,63.7152 38.744,62.64 38.744,61.3344 C38.744,60.7392 38.8304,60.1632 39.0032,59.6064 C39.1568,59.0688 39.416,58.5888 39.7808,58.1664 C40.1264,57.7632 40.5776,57.4368 41.1344,57.1872 C41.6912,56.9568 42.3632,56.8416 43.1504,56.8416 C43.7264,56.8416 44.264,56.928 44.7632,57.1008 C45.2432,57.2928 45.656,57.5328 46.0016,57.8208 C46.3472,58.128 46.616,58.4736 46.808,58.8576 C47,59.2416 47.096,59.6256 47.096,60.0096 C47.096,60.5088 47.048,60.9888 46.952,61.4496 C46.8368,61.9296 46.6832,62.3616 46.4912,62.7456 C46.28,63.1488 46.0304,63.4944 45.7424,63.7824 C45.4352,64.0704 45.0992,64.2624 44.7344,64.3584 C44.696,64.3776 44.8112,64.3968 45.08,64.416 C45.3488,64.4352 45.6944,64.416 46.1168,64.3584 C46.5392,64.32 47.0096,64.2144 47.528,64.0416 C48.0464,63.888 48.5264,63.648 48.968,63.3216 C49.4096,63.0144 49.784,62.592 50.0912,62.0544 C50.3792,61.536 50.5232,60.8736 50.5232,60.0672 C50.5232,59.2224 50.2928,58.464 49.832,57.792 C49.3712,57.12 48.776,56.5536 48.0464,56.0928 C47.3168,55.632 46.5104,55.2768 45.6272,55.0272 C44.7248,54.7776 43.8416,54.6528 42.9776,54.6528 C41.7296,54.6528 40.616,54.7968 39.6368,55.0848 C38.6384,55.392 37.8032,55.824 37.1312,56.3808 C36.44,56.9376 35.912,57.6 35.5472,58.368 C35.1824,59.1552 35,60.0384 35,61.0176 C35,62.2272 35.2016,63.2736 35.6048,64.1568 C36.008,65.04 36.5648,65.7888 37.2752,66.4032 C37.9664,67.0176 38.7824,67.5168 39.7232,67.9008 C40.664,68.2848 41.6816,68.5824 42.776,68.7936 C43.8512,69.0048 44.9744,69.1488 46.1456,69.2256 C47.3168,69.3024 48.4784,69.3408 49.6304,69.3408 C50.6864,69.3408 51.7808,69.264 52.9136,69.1104 C54.0464,68.976 55.16,68.7456 56.2544,68.4192 C57.3296,68.0928 58.3568,67.6704 59.336,67.152 C60.3152,66.6528 61.1792,66.0384 61.928,65.3088 C62.6576,64.5984 63.2432,63.7632 63.6848,62.8032 C64.1072,61.8624 64.3184,60.7968 64.3184,59.6064 C64.3184,58.032 64.0976,56.688 63.656,55.5744 C63.1952,54.4608 62.6192,53.5104 61.928,52.7232 C61.2368,51.9552 60.488,51.3408 59.6816,50.88 C58.8752,50.4192 58.1168,50.0544 57.4064,49.7856 C56.696,49.5168 56.0912,49.3248 55.592,49.2096 C55.0736,49.1136 54.776,49.0368 54.6992,48.9792 L54.6992,48.9792 L54.6992,33.7728 L54.6992,33.7728 Z" id="]" fill="#FFFFFF" fill-rule="nonzero"></path>
    </g>
</svg>