<?xml version="1.0" encoding="UTF-8"?>
<svg width="100px" height="100px" viewBox="0 0 100 100" version="1.1" xmlns="http://www.w3.org/2000/svg" xmlns:xlink="http://www.w3.org/1999/xlink">
    <!-- Generator: Sketch 61.1 (89650) - https://sketch.com -->
    <title>nuh</title>
    <desc>Created with Sketch.</desc>
    <g id="nuh" stroke="none" stroke-width="1" fill="none" fill-rule="evenodd">
        <path d="M54.6992,60.5024 L54.6992,40.6592 L35,40.6592 L35,42.0128 L50.696,42.0128 L50.696,59.0912 L45.4256,59.0912 C45.3872,59.0912 45.1712,59.0816 44.7776,59.0624 C44.384,59.0432 43.904,58.9712 43.3376,58.8464 C42.7712,58.7216 42.1616,58.5296 41.5088,58.2704 C40.856,58.0112 40.2512,57.6368 39.6944,57.1472 C39.1376,56.6576 38.6768,56.0384 38.312,55.2896 C37.9472,54.5408 37.7648,53.6192 37.7648,52.5248 C37.7648,51.7568 37.8752,51.0752 38.096,50.48 C38.3168,49.8848 38.6144,49.3904 38.9888,48.9968 C39.3632,48.6032 39.8048,48.3056 40.3136,48.104 C40.8224,47.9024 41.3744,47.8016 41.9696,47.8016 C42.488,47.8016 42.9824,47.864 43.4528,47.9888 C43.9232,48.1136 44.3408,48.32 44.7056,48.608 C45.0704,48.896 45.3632,49.2848 45.584,49.7744 C45.8048,50.264 45.9152,50.8736 45.9152,51.6032 C45.9152,52.3328 45.7424,52.9328 45.3968,53.4032 C45.0512,53.8736 44.672,54.248 44.2592,54.5264 C43.8464,54.8048 43.472,55.0016 43.136,55.1168 C42.8,55.232 42.6416,55.2896 42.6608,55.2896 C43.0832,55.4432 43.6112,55.4912 44.2448,55.4336 C44.8784,55.376 45.488,55.1984 46.0736,54.9008 C46.6592,54.6032 47.1584,54.1664 47.5712,53.5904 C47.984,53.0144 48.1904,52.2752 48.1904,51.3728 C48.1904,50.432 48.0272,49.6112 47.7008,48.9104 C47.3744,48.2096 46.9232,47.624 46.3472,47.1536 C45.7712,46.6832 45.0992,46.328 44.3312,46.088 C43.5632,45.848 42.7376,45.728 41.8544,45.728 C40.8752,45.728 39.968,45.8864 39.1328,46.2032 C38.2976,46.52 37.5728,46.9856 36.9584,47.6 C36.344,48.2144 35.864,48.9632 35.5184,49.8464 C35.1728,50.7296 35,51.7472 35,52.8992 C35,54.2624 35.2928,55.4288 35.8784,56.3984 C36.464,57.368 37.232,58.1552 38.1824,58.76 C39.1328,59.3648 40.1936,59.8064 41.3648,60.0848 C42.536,60.3632 43.7168,60.5024 44.9072,60.5024 L44.9072,60.5024 L54.6992,60.5024 Z M46.2896,68.1344 C46.6928,68.1344 47.0864,68.0672 47.4704,67.9328 C47.8544,67.7984 48.2,67.6016 48.5072,67.3424 C48.8144,67.0832 49.0592,66.7568 49.2416,66.3632 C49.424,65.9696 49.5248,65.5136 49.544,64.9952 L49.544,64.9952 L49.544,64.4192 C49.544,64.208 49.5296,64.0016 49.5008,63.8 C49.472,63.5984 49.4288,63.4112 49.3712,63.2384 C49.3136,63.0656 49.2368,62.9312 49.1408,62.8352 C49.0832,62.7776 49.0112,62.8832 48.9248,63.152 C48.8384,63.4208 48.6944,63.728 48.4928,64.0736 C48.2912,64.4192 48.008,64.7456 47.6432,65.0528 C47.2784,65.36 46.7984,65.5136 46.2032,65.5136 C45.7232,65.5136 45.3104,65.3696 44.9648,65.0816 C44.6192,64.7936 44.3264,64.4768 44.0864,64.1312 C43.8464,63.7856 43.664,63.4736 43.5392,63.1952 C43.4144,62.9168 43.3232,62.7968 43.2656,62.8352 C43.1888,62.9312 43.1264,63.0656 43.0784,63.2384 C43.0304,63.4112 42.992,63.6032 42.9632,63.8144 C42.9344,64.0256 42.9152,64.2416 42.9056,64.4624 C42.896,64.6832 42.8912,64.8704 42.8912,65.024 C42.8912,65.5808 42.9968,66.0512 43.208,66.4352 C43.4192,66.8192 43.688,67.1408 44.0144,67.4 C44.3408,67.6592 44.7056,67.8464 45.1088,67.9616 C45.512,68.0768 45.9056,68.1344 46.2896,68.1344 Z" id="„" fill="#FFFFFF" fill-rule="nonzero"></path>
    </g>
</svg>