<?xml version="1.0" encoding="UTF-8"?>
<svg width="100px" height="100px" viewBox="0 0 100 100" version="1.1" xmlns="http://www.w3.org/2000/svg" xmlns:xlink="http://www.w3.org/1999/xlink">
    <!-- Generator: Sketch 61.1 (89650) - https://sketch.com -->
    <title>nyaf</title>
    <desc>Created with Sketch.</desc>
    <g id="nyaf" stroke="none" stroke-width="1" fill="none" fill-rule="evenodd">
        <path d="M49.6304,70 C50.6864,70 51.7808,69.928 52.9136,69.784 C54.0464,69.64 55.1552,69.4048 56.24,69.0784 C57.3248,68.752 58.3568,68.3344 59.336,67.8256 C60.3152,67.3168 61.1744,66.7024 61.9136,65.9824 C62.6528,65.2624 63.2384,64.4272 63.6704,63.4768 C64.1024,62.5264 64.3184,61.456 64.3184,60.2656 C64.3184,58.6912 64.0928,57.3472 63.6416,56.2336 C63.1904,55.12 62.6192,54.1744 61.928,53.3968 C61.2368,52.6192 60.488,52 59.6816,51.5392 C58.8752,51.0784 58.1168,50.7136 57.4064,50.4448 C56.696,50.176 56.0864,49.9888 55.5776,49.8832 C55.0688,49.7776 54.776,49.696 54.6992,49.6384 L54.6992,49.6384 L54.6992,30.6592 L35,30.6592 L35,32.0992 L50.696,32.0992 L50.696,50.272 C50.7152,50.272 50.9696,50.3296 51.4592,50.4448 C51.9488,50.56 52.5536,50.7616 53.2736,51.0496 C53.9936,51.3376 54.7712,51.7312 55.6064,52.2304 C56.4416,52.7296 57.2192,53.3584 57.9392,54.1168 C58.6592,54.8752 59.2544,55.7824 59.7248,56.8384 C60.1952,57.8944 60.4304,59.1232 60.4304,60.5248 C60.4304,61.6 60.2624,62.5456 59.9264,63.3616 C59.5904,64.1776 59.1392,64.888 58.5728,65.4928 C58.0064,66.0976 57.3536,66.6016 56.6144,67.0048 C55.8752,67.408 55.1024,67.7296 54.296,67.9696 C53.4896,68.2096 52.6832,68.3824 51.8768,68.488 C51.0704,68.5936 50.3216,68.6464 49.6304,68.6464 C48.4016,68.6464 47.144,68.5456 45.8576,68.344 C44.5712,68.1424 43.4,67.7872 42.344,67.2784 C41.288,66.7696 40.424,66.088 39.752,65.2336 C39.08,64.3792 38.744,63.2992 38.744,61.9936 C38.744,61.3984 38.8256,60.8272 38.9888,60.28 C39.152,59.7328 39.4112,59.2528 39.7664,58.84 C40.1216,58.4272 40.5776,58.1008 41.1344,57.8608 C41.6912,57.6208 42.3632,57.5008 43.1504,57.5008 C43.7264,57.5008 44.2592,57.592 44.7488,57.7744 C45.2384,57.9568 45.656,58.1968 46.0016,58.4944 C46.3472,58.792 46.616,59.1328 46.808,59.5168 C47,59.9008 47.096,60.2848 47.096,60.6688 C47.096,61.168 47.0432,61.6528 46.9376,62.1232 C46.832,62.5936 46.6784,63.0256 46.4768,63.4192 C46.2752,63.8128 46.0256,64.1536 45.728,64.4416 C45.4304,64.7296 45.0992,64.9216 44.7344,65.0176 C44.696,65.0368 44.8112,65.056 45.08,65.0752 C45.3488,65.0944 45.6944,65.08 46.1168,65.032 C46.5392,64.984 47.0096,64.8784 47.528,64.7152 C48.0464,64.552 48.5264,64.312 48.968,63.9952 C49.4096,63.6784 49.7792,63.256 50.0768,62.728 C50.3744,62.2 50.5232,61.5328 50.5232,60.7264 C50.5232,59.8816 50.2928,59.1232 49.832,58.4512 C49.3712,57.7792 48.776,57.2128 48.0464,56.752 C47.3168,56.2912 46.5056,55.936 45.6128,55.6864 C44.72,55.4368 43.8416,55.312 42.9776,55.312 C41.7296,55.312 40.6112,55.4608 39.6224,55.7584 C38.6336,56.056 37.7984,56.4832 37.1168,57.04 C36.4352,57.5968 35.912,58.264 35.5472,59.0416 C35.1824,59.8192 35,60.6976 35,61.6768 C35,62.8864 35.2016,63.9328 35.6048,64.816 C36.008,65.6992 36.56,66.448 37.2608,67.0624 C37.9616,67.6768 38.7824,68.176 39.7232,68.56 C40.664,68.944 41.6768,69.2416 42.7616,69.4528 C43.8464,69.664 44.9744,69.808 46.1456,69.8848 C47.3168,69.9616 48.4784,70 49.6304,70 Z M48.6512,55.4848 C48.9968,55.4848 49.3184,55.4176 49.616,55.2832 C49.9136,55.1488 50.1728,54.9664 50.3936,54.736 C50.6144,54.5056 50.7872,54.2416 50.912,53.944 C51.0368,53.6464 51.0992,53.3344 51.0992,53.008 C51.0992,52.6816 51.0368,52.3744 50.912,52.0864 C50.7872,51.7984 50.6144,51.5488 50.3936,51.3376 C50.1728,51.1264 49.9136,50.9584 49.616,50.8336 C49.3184,50.7088 48.9968,50.6464 48.6512,50.6464 C47.9792,50.6464 47.3984,50.8768 46.9088,51.3376 C46.4192,51.7984 46.1744,52.3936 46.1744,53.1232 C46.1744,53.4496 46.2416,53.752 46.376,54.0304 C46.5104,54.3088 46.688,54.5584 46.9088,54.7792 C47.1296,55 47.3888,55.1728 47.6864,55.2976 C47.984,55.4224 48.3056,55.4848 48.6512,55.4848 Z M48.4784,78.1504 C49.0736,78.1504 49.6208,77.9584 50.12,77.5744 C50.6192,77.1904 51.0512,76.7344 51.416,76.2064 C51.7808,75.6784 52.064,75.1264 52.2656,74.5504 C52.4672,73.9744 52.568,73.4848 52.568,73.0816 C52.568,72.6976 52.448,72.4192 52.208,72.2464 C51.968,72.0736 51.68,71.9728 51.344,71.944 C51.008,71.9152 50.6576,71.9392 50.2928,72.016 C49.928,72.0928 49.616,72.184 49.3568,72.2896 C49.0976,72.3952 48.9248,72.496 48.8384,72.592 C48.752,72.688 48.824,72.736 49.0544,72.736 C49.208,72.736 49.4096,72.7072 49.6592,72.6496 C49.9088,72.592 50.1488,72.5632 50.3792,72.5632 C50.6096,72.5632 50.8064,72.6256 50.9696,72.7504 C51.1328,72.8752 51.2144,73.1104 51.2144,73.456 C51.2144,74.1472 51.056,74.776 50.7392,75.3424 C50.4224,75.9088 50.0816,76.4032 49.7168,76.8256 C49.352,77.248 49.0304,77.5744 48.752,77.8048 C48.4736,78.0352 48.3824,78.1504 48.4784,78.1504 Z" id="≠" fill="#FFFFFF" fill-rule="nonzero"></path>
    </g>
</svg>