<?xml version="1.0" encoding="UTF-8"?>
<svg width="100px" height="100px" viewBox="0 0 100 100" version="1.1" xmlns="http://www.w3.org/2000/svg" xmlns:xlink="http://www.w3.org/1999/xlink">
    <!-- Generator: Sketch 61.1 (89650) - https://sketch.com -->
    <title>nyamf</title>
    <desc>Created with Sketch.</desc>
    <g id="nyamf" stroke="none" stroke-width="1" fill="none" fill-rule="evenodd">
        <path d="M49.6304,70 C50.6864,70 51.7808,69.928 52.9136,69.784 C54.0464,69.64 55.1552,69.4048 56.24,69.0784 C57.3248,68.752 58.3568,68.3344 59.336,67.8256 C60.3152,67.3168 61.1744,66.7024 61.9136,65.9824 C62.6528,65.2624 63.2384,64.4272 63.6704,63.4768 C64.1024,62.5264 64.3184,61.456 64.3184,60.2656 C64.3184,58.6912 64.0928,57.3472 63.6416,56.2336 C63.1904,55.12 62.6192,54.1744 61.928,53.3968 C61.2368,52.6192 60.488,52 59.6816,51.5392 C58.8752,51.0784 58.1168,50.7136 57.4064,50.4448 C56.696,50.176 56.0864,49.9888 55.5776,49.8832 C55.0688,49.7776 54.776,49.696 54.6992,49.6384 L54.6992,49.6384 L54.6992,30.6592 L35,30.6592 L35,32.0992 L50.696,32.0992 L50.696,50.272 C50.7152,50.272 50.9696,50.3296 51.4592,50.4448 C51.9488,50.56 52.5536,50.7616 53.2736,51.0496 C53.9936,51.3376 54.7712,51.7312 55.6064,52.2304 C56.4416,52.7296 57.2192,53.3584 57.9392,54.1168 C58.6592,54.8752 59.2544,55.7824 59.7248,56.8384 C60.1952,57.8944 60.4304,59.1232 60.4304,60.5248 C60.4304,61.6 60.2624,62.5456 59.9264,63.3616 C59.5904,64.1776 59.1392,64.888 58.5728,65.4928 C58.0064,66.0976 57.3536,66.6016 56.6144,67.0048 C55.8752,67.408 55.1024,67.7296 54.296,67.9696 C53.4896,68.2096 52.6832,68.3824 51.8768,68.488 C51.0704,68.5936 50.3216,68.6464 49.6304,68.6464 C48.4016,68.6464 47.144,68.5456 45.8576,68.344 C44.5712,68.1424 43.4,67.7872 42.344,67.2784 C41.288,66.7696 40.424,66.088 39.752,65.2336 C39.08,64.3792 38.744,63.2992 38.744,61.9936 C38.744,61.3984 38.8256,60.8272 38.9888,60.28 C39.152,59.7328 39.4112,59.2528 39.7664,58.84 C40.1216,58.4272 40.5776,58.1008 41.1344,57.8608 C41.6912,57.6208 42.3632,57.5008 43.1504,57.5008 C43.7264,57.5008 44.2592,57.592 44.7488,57.7744 C45.2384,57.9568 45.656,58.1968 46.0016,58.4944 C46.3472,58.792 46.616,59.1328 46.808,59.5168 C47,59.9008 47.096,60.2848 47.096,60.6688 C47.096,61.168 47.0432,61.6528 46.9376,62.1232 C46.832,62.5936 46.6784,63.0256 46.4768,63.4192 C46.2752,63.8128 46.0256,64.1536 45.728,64.4416 C45.4304,64.7296 45.0992,64.9216 44.7344,65.0176 C44.696,65.0368 44.8112,65.056 45.08,65.0752 C45.3488,65.0944 45.6944,65.08 46.1168,65.032 C46.5392,64.984 47.0096,64.8784 47.528,64.7152 C48.0464,64.552 48.5264,64.312 48.968,63.9952 C49.4096,63.6784 49.7792,63.256 50.0768,62.728 C50.3744,62.2 50.5232,61.5328 50.5232,60.7264 C50.5232,59.8816 50.2928,59.1232 49.832,58.4512 C49.3712,57.7792 48.776,57.2128 48.0464,56.752 C47.3168,56.2912 46.5056,55.936 45.6128,55.6864 C44.72,55.4368 43.8416,55.312 42.9776,55.312 C41.7296,55.312 40.6112,55.4608 39.6224,55.7584 C38.6336,56.056 37.7984,56.4832 37.1168,57.04 C36.4352,57.5968 35.912,58.264 35.5472,59.0416 C35.1824,59.8192 35,60.6976 35,61.6768 C35,62.8864 35.2016,63.9328 35.6048,64.816 C36.008,65.6992 36.56,66.448 37.2608,67.0624 C37.9616,67.6768 38.7824,68.176 39.7232,68.56 C40.664,68.944 41.6768,69.2416 42.7616,69.4528 C43.8464,69.664 44.9744,69.808 46.1456,69.8848 C47.3168,69.9616 48.4784,70 49.6304,70 Z M48.9392,55.7728 C49.2656,55.7728 49.5728,55.7056 49.8608,55.5712 C50.1488,55.4368 50.3984,55.2544 50.6096,55.024 C50.8208,54.7936 50.9888,54.5296 51.1136,54.232 C51.2384,53.9344 51.3008,53.6128 51.3008,53.2672 C51.3008,52.576 51.0704,52 50.6096,51.5392 C50.1488,51.0784 49.592,50.848 48.9392,50.848 C48.5936,50.848 48.272,50.9152 47.9744,51.0496 C47.6768,51.184 47.4128,51.3664 47.1824,51.5968 C46.952,51.8272 46.7696,52.0912 46.6352,52.3888 C46.5008,52.6864 46.4336,53.008 46.4336,53.3536 C46.4336,53.6992 46.5008,54.0208 46.6352,54.3184 C46.7696,54.616 46.952,54.8704 47.1824,55.0816 C47.4128,55.2928 47.6768,55.4608 47.9744,55.5856 C48.272,55.7104 48.5936,55.7728 48.9392,55.7728 Z" id="ยบ" fill="#FFFFFF" fill-rule="nonzero"></path>
    </g>
</svg>