<?xml version="1.0" encoding="UTF-8"?>
<svg width="100px" height="100px" viewBox="0 0 100 100" version="1.1" xmlns="http://www.w3.org/2000/svg" xmlns:xlink="http://www.w3.org/1999/xlink">
    <!-- Generator: Sketch 61.1 (89650) - https://sketch.com -->
    <title>oh</title>
    <desc>Created with Sketch.</desc>
    <g id="oh" stroke="none" stroke-width="1" fill="none" fill-rule="evenodd">
        <path d="M54.6992,72.8784 L54.6992,63 C54.6992,62.9616 54.5504,62.9088 54.2528,62.8416 L54.0656,62.797248 C53.80448,62.732736 53.49728,62.64672 53.144,62.5392 C52.7024,62.4048 52.2176,62.232 51.6896,62.0208 C51.1616,61.8096 50.6768,61.5312 50.2352,61.1856 C49.7936,60.84 49.424,60.4224 49.1264,59.9328 C48.8288,59.4432 48.68,58.8528 48.68,58.1616 C48.68,57.4896 48.8288,56.9088 49.1264,56.4192 C49.424,55.9296 49.7936,55.5072 50.2352,55.152 C50.6768,54.7968 51.1616,54.504 51.6896,54.2736 C52.2176,54.0432 52.7024,53.8512 53.144,53.6976 C53.5856,53.544 53.9552,53.4288 54.2528,53.352 C54.5504,53.2752 54.6992,53.208 54.6992,53.1504 L54.6992,53.1504 L54.6992,23.6592 L35,23.6592 L35,25.0992 L50.696,25.0992 L50.696,53.1504 C49.5824,53.2656 48.584,53.5152 47.7008,53.8992 C47.3168,54.072 46.9472,54.2784 46.592,54.5184 C46.2368,54.7584 45.9248,55.0512 45.656,55.3968 C45.3872,55.7424 45.1664,56.1456 44.9936,56.6064 C44.8208,57.0672 44.7344,57.5856 44.7344,58.1616 C44.7344,58.9296 44.8832,59.5728 45.1808,60.0912 C45.4784,60.6096 45.848,61.0368 46.2896,61.3728 C46.7312,61.7088 47.2064,61.9776 47.7152,62.1792 C48.224,62.3808 48.6992,62.5344 49.1408,62.64 C49.5824,62.7456 49.952,62.8224 50.2496,62.8704 C50.5472,62.9184 50.696,62.9712 50.696,63.0288 L50.696,63.0288 L50.696,72.8784 L54.6992,72.8784 Z M52.9136,80.136 C53.3168,80.136 53.7104,80.0688 54.0944,79.9344 C54.4784,79.8 54.8288,79.6032 55.1456,79.344 C55.4624,79.0848 55.7168,78.7536 55.9088,78.3504 C56.1008,77.9472 56.1968,77.4864 56.1968,76.968 C56.216,76.8144 56.2256,76.632 56.2256,76.4208 C56.2256,76.2096 56.2064,76.0032 56.168,75.8016 C56.1296,75.6 56.0816,75.408 56.024,75.2256 C55.9664,75.0432 55.8896,74.8944 55.7936,74.7792 C55.736,74.7216 55.664,74.832 55.5776,75.1104 C55.4912,75.3888 55.3424,75.7056 55.1312,76.0608 C54.92,76.416 54.6368,76.7472 54.2816,77.0544 C53.9264,77.3616 53.4512,77.5152 52.856,77.5152 C52.3568,77.5152 51.9344,77.3664 51.5888,77.0688 C51.2432,76.7712 50.9552,76.4448 50.7248,76.0896 C50.4944,75.7344 50.3168,75.4176 50.192,75.1392 C50.0672,74.8608 49.976,74.7408 49.9184,74.7792 C49.8224,74.8752 49.7504,75.0144 49.7024,75.1968 C49.6544,75.3792 49.616,75.5808 49.5872,75.8016 C49.5584,76.0224 49.5392,76.2384 49.5296,76.4496 C49.52,76.6608 49.5152,76.8528 49.5152,77.0256 C49.5152,77.544 49.6208,78 49.832,78.3936 C50.0432,78.7872 50.312,79.1136 50.6384,79.3728 C50.9648,79.632 51.3296,79.824 51.7328,79.9488 C52.136,80.0736 52.5296,80.136 52.9136,80.136 Z" id="´" fill="#FFFFFF" fill-rule="nonzero"></path>
    </g>
</svg>