<?xml version="1.0" encoding="UTF-8"?>
<svg width="100px" height="100px" viewBox="0 0 100 100" version="1.1" xmlns="http://www.w3.org/2000/svg" xmlns:xlink="http://www.w3.org/1999/xlink">
    <!-- Generator: Sketch 61.1 (89650) - https://sketch.com -->
    <title>puh</title>
    <desc>Created with Sketch.</desc>
    <g id="puh" stroke="none" stroke-width="1" fill="none" fill-rule="evenodd">
        <path d="M49.5152,66.3408 C51.3008,66.3408 53.0816,66.2112 54.8576,65.952 C56.6336,65.6928 58.2368,65.2032 59.6672,64.4832 C61.0976,63.7632 62.2544,62.7696 63.1376,61.5024 C64.0208,60.2352 64.4624,58.5936 64.4624,56.5776 C64.4624,55.1568 64.2224,53.9232 63.7424,52.8768 C63.2624,51.8304 62.6624,50.9424 61.9424,50.2128 C61.2224,49.4832 60.44,48.8832 59.5952,48.4128 C58.7504,47.9424 57.968,47.568 57.248,47.2896 C56.528,47.0112 55.928,46.8096 55.448,46.6848 C54.968,46.56 54.728,46.4688 54.728,46.4112 L54.728,46.4112 L54.728,27 L35.0288,27 L35.0288,28.3536 L50.7248,28.3536 C50.648,31.0224 50.5808,33.5184 50.5232,35.8416 C50.504,36.84 50.4848,37.848 50.4656,38.8656 C50.4464,39.8832 50.4272,40.8528 50.408,41.7744 C50.3888,42.696 50.3744,43.5408 50.3648,44.3088 C50.3552,45.0768 50.3504,45.6912 50.3504,46.152 C49.9472,46.1712 49.2896,46.2384 48.3776,46.3536 C47.4656,46.4688 46.4432,46.6656 45.3104,46.944 C44.1776,47.2224 43.0016,47.6016 41.7824,48.0816 C40.5632,48.5616 39.4544,49.1808 38.456,49.9392 C37.4576,50.6976 36.632,51.6048 35.9792,52.6608 C35.3264,53.7168 35,54.9552 35,56.376 C35,58.1424 35.2688,59.6544 35.8064,60.912 C36.344,62.1696 37.1936,63.2016 38.3552,64.008 C39.5168,64.8144 41.0192,65.4048 42.8624,65.7792 C44.7056,66.1536 46.9232,66.3408 49.5152,66.3408 Z M49.4864,65.1888 C48.2576,65.1888 47.024,65.0304 45.7856,64.7136 C44.5472,64.3968 43.424,63.9072 42.416,63.2448 C41.408,62.5824 40.5872,61.7376 39.9536,60.7104 C39.32,59.6832 39.0032,58.4592 39.0032,57.0384 C39.0032,55.9632 39.1664,55.008 39.4928,54.1728 C39.8192,53.3376 40.2512,52.6032 40.7888,51.9696 C41.3264,51.336 41.936,50.7984 42.6176,50.3568 C43.2992,49.9152 43.9952,49.5504 44.7056,49.2624 C46.376,48.5712 48.2768,48.1392 50.408,47.9664 C52.2704,48.1008 53.9408,48.4944 55.4192,49.1472 C56.0528,49.4352 56.6672,49.7904 57.2624,50.2128 C57.8576,50.6352 58.3904,51.1536 58.8608,51.768 C59.3312,52.3824 59.7104,53.1024 59.9984,53.928 C60.2864,54.7536 60.4304,55.704 60.4304,56.7792 C60.4304,58.5648 60.0992,60.0096 59.4368,61.1136 C58.7744,62.2176 57.92,63.072 56.8736,63.6768 C55.8272,64.2816 54.656,64.6848 53.36,64.8864 C52.064,65.088 50.7728,65.1888 49.4864,65.1888 Z M49.4,73.7424 C49.8032,73.7424 50.1968,73.6752 50.5808,73.5408 C50.9648,73.4064 51.3152,73.2 51.632,72.9216 C51.9488,72.6432 52.208,72.3072 52.4096,71.9136 C52.6112,71.52 52.712,71.064 52.712,70.5456 C52.712,70.2384 52.6976,69.8544 52.6688,69.3936 C52.64,68.9328 52.52,68.5968 52.3088,68.3856 C52.2512,68.328 52.1744,68.4384 52.0784,68.7168 C51.9824,68.9952 51.8336,69.312 51.632,69.6672 C51.4304,70.0224 51.152,70.3536 50.7968,70.6608 C50.4416,70.968 49.9664,71.1216 49.3712,71.1216 C48.872,71.1216 48.4448,70.9728 48.0896,70.6752 C47.7344,70.3776 47.4416,70.0512 47.2112,69.696 C46.9808,69.3408 46.7984,69.024 46.664,68.7456 C46.5296,68.4672 46.4336,68.3472 46.376,68.3856 C46.2992,68.4816 46.2368,68.6208 46.1888,68.8032 C46.1408,68.9856 46.1024,69.1824 46.0736,69.3936 C46.0448,69.6048 46.0256,69.8208 46.016,70.0416 C46.0064,70.2624 46.0016,70.4496 46.0016,70.6032 C46.0016,71.1408 46.1072,71.6064 46.3184,72 C46.5296,72.3936 46.8032,72.72 47.1392,72.9792 C47.4752,73.2384 47.84,73.4304 48.2336,73.5552 C48.6272,73.68 49.016,73.7424 49.4,73.7424 Z" id="‰" fill="#FFFFFF" fill-rule="nonzero"></path>
    </g>
</svg>