<?xml version="1.0" encoding="UTF-8"?>
<svg width="100px" height="100px" viewBox="0 0 100 100" version="1.1" xmlns="http://www.w3.org/2000/svg" xmlns:xlink="http://www.w3.org/1999/xlink">
    <!-- Generator: Sketch 61.1 (89650) - https://sketch.com -->
    <title>qua</title>
    <desc>Created with Sketch.</desc>
    <g id="qua" stroke="none" stroke-width="1" fill="none" fill-rule="evenodd">
        <path d="M47.7408,63.4464 C48.2016,63.4464 48.624,63.3984 49.008,63.3024 C49.392,63.2064 49.6896,63.0624 49.9008,62.8704 C49.6704,62.7936 49.3152,62.6832 48.8352,62.5392 C48.3552,62.3952 47.88,62.1888 47.4096,61.92 C46.9392,61.6512 46.5216,61.2912 46.1568,60.84 C45.792,60.3888 45.6096,59.8176 45.6096,59.1264 C45.6096,58.5504 45.7296,58.0464 45.9696,57.6144 C46.2096,57.1824 46.5312,56.8224 46.9344,56.5344 C47.3376,56.2464 47.8032,56.0304 48.3312,55.8864 C48.8592,55.7424 49.4112,55.6608 49.9872,55.6416 C50.6208,55.6224 51.2352,55.6128 51.8304,55.6128 L51.8304,55.6128 L53.688,55.6128 C54.3312,55.6128 55.0032,55.6176 55.704,55.6272 C56.4048,55.6368 57.1776,55.6416 58.0224,55.6416 C59.5776,55.6416 61.0464,55.3392 62.4288,54.7344 C63.8112,54.1296 65.016,53.3376 66.0432,52.3584 C67.0704,51.3792 67.8864,50.2656 68.4912,49.0176 C69.096,47.7696 69.3984,46.512 69.3984,45.2448 C69.3984,43.824 69.1104,42.5424 68.5344,41.4 C67.9584,40.2576 67.2096,39.288 66.288,38.4912 C65.3664,37.6944 64.3248,37.08 63.1632,36.648 C62.0016,36.216 60.8448,36 59.6928,36 C58.56,36 57.4944,36.168 56.496,36.504 C55.4976,36.84 54.6144,37.3152 53.8464,37.9296 C53.0784,38.544 52.4736,39.2832 52.032,40.1472 C51.5904,41.0112 51.3696,41.9808 51.3696,43.056 C51.3696,44.5728 51.6384,45.768 52.176,46.6416 C52.7136,47.5152 53.3808,48.1584 54.1776,48.5712 C54.9744,48.984 55.824,49.224 56.7264,49.2912 C57.6288,49.3584 58.4496,49.344 59.1888,49.248 C59.928,49.152 60.5136,49.0272 60.9456,48.8736 C61.3776,48.72 61.5072,48.6336 61.3344,48.6144 C60.3168,48.5184 59.3856,48.3792 58.5408,48.1968 C57.696,48.0144 56.976,47.7216 56.3808,47.3184 C55.7856,46.9152 55.3248,46.3824 54.9984,45.72 C54.672,45.0576 54.5088,44.208 54.5088,43.1712 C54.5088,42.4224 54.6336,41.7264 54.8832,41.0832 C55.1328,40.44 55.4928,39.8832 55.9632,39.4128 C56.4336,38.9424 57.0048,38.5728 57.6768,38.304 C58.3488,38.0352 59.1072,37.9008 59.952,37.9008 C60.9696,37.9008 61.872,38.112 62.6592,38.5344 C63.4464,38.9568 64.1088,39.5136 64.6464,40.2048 C65.184,40.896 65.592,41.6784 65.8704,42.552 C66.1488,43.4256 66.288,44.3232 66.288,45.2448 C66.288,46.2048 66.0528,47.2128 65.5824,48.2688 C65.112,49.3248 64.4304,50.2944 63.5376,51.1776 C62.6448,52.0608 61.5456,52.7952 60.24,53.3808 C58.9344,53.9664 57.4464,54.2592 55.776,54.2592 L55.776,54.2592 L49.6992,54.2592 L49.6992,36 L30,36 L30,37.44 L45.696,37.44 L45.696,54.9792 C45.216,55.1712 44.7984,55.4304 44.4432,55.7568 C44.088,56.0832 43.7952,56.4384 43.5648,56.8224 C43.3344,57.2064 43.1664,57.6048 43.0608,58.0176 C42.9552,58.4304 42.9024,58.8288 42.9024,59.2128 C42.9024,59.9616 43.056,60.6048 43.3632,61.1424 C43.6704,61.68 44.0592,62.1216 44.5296,62.4672 C45,62.8128 45.5184,63.0624 46.0848,63.216 C46.6512,63.3696 47.2032,63.4464 47.7408,63.4464 Z M54.48,62.1504 C54.8064,62.1504 55.1088,62.0832 55.3872,61.9488 C55.6656,61.8144 55.9104,61.632 56.1216,61.4016 C56.3328,61.1712 56.5008,60.9072 56.6256,60.6096 C56.7504,60.312 56.8128,59.9904 56.8128,59.6448 C56.8128,59.2992 56.7504,58.9776 56.6256,58.68 C56.5008,58.3824 56.3328,58.1232 56.1216,57.9024 C55.9104,57.6816 55.6656,57.5088 55.3872,57.384 C55.1088,57.2592 54.8064,57.1968 54.48,57.1968 C54.1344,57.1968 53.8128,57.264 53.5152,57.3984 C53.2176,57.5328 52.9536,57.7152 52.7232,57.9456 C52.4928,58.176 52.3104,58.44 52.176,58.7376 C52.0416,59.0352 51.9744,59.3472 51.9744,59.6736 C51.9744,60.0192 52.0416,60.3408 52.176,60.6384 C52.3104,60.936 52.4928,61.2 52.7232,61.4304 C52.9536,61.6608 53.2176,61.8384 53.5152,61.9632 C53.8128,62.088 54.1344,62.1504 54.48,62.1504 Z" id="ˇ" fill="#FFFFFF" fill-rule="nonzero"></path>
    </g>
</svg>