<?xml version="1.0" encoding="UTF-8"?>
<svg width="100px" height="100px" viewBox="0 0 100 100" version="1.1" xmlns="http://www.w3.org/2000/svg" xmlns:xlink="http://www.w3.org/1999/xlink">
    <!-- Generator: Sketch 61.1 (89650) - https://sketch.com -->
    <title>reh</title>
    <desc>Created with Sketch.</desc>
    <g id="reh" stroke="none" stroke-width="1" fill="none" fill-rule="evenodd">
        <path d="M58.0976,74.1616 C58.712,74.1616 59.3888,74.056 60.128,73.8448 C60.8672,73.6336 61.5632,73.3072 62.216,72.8656 C62.8688,72.424 63.4112,71.8672 63.8432,71.1952 C64.2752,70.5232 64.4912,69.7264 64.4912,68.8048 C64.4912,67.5184 64.1552,66.4912 63.4832,65.7232 C62.8112,64.9552 61.8656,64.3696 60.6464,63.9664 C59.4272,63.5632 57.968,63.2992 56.2688,63.1744 C54.5696,63.0496 52.7024,62.9872 50.6672,62.9872 C50.0528,62.9872 49.3376,62.9392 48.5216,62.8432 C47.7056,62.7472 46.8608,62.5792 45.9872,62.3392 C45.1136,62.0992 44.2544,61.7728 43.4096,61.36 C42.5648,60.9472 41.8064,60.4288 41.1344,59.8048 C40.4624,59.1808 39.92,58.4416 39.5072,57.5872 C39.0944,56.7328 38.888,55.7392 38.888,54.6064 C38.888,53.4928 39.1136,52.4992 39.5648,51.6256 C40.016,50.752 40.616,49.984 41.3648,49.3216 C42.1136,48.6592 42.968,48.0928 43.928,47.6224 C44.888,47.152 45.8672,46.7536 46.8656,46.4272 C49.1888,45.6592 51.848,45.1792 54.8432,44.9872 L54.8432,44.9872 L54.8432,25 L35.144,25 L35.144,26.3536 L50.84,26.3536 L50.84,43.9792 C50.84,43.9984 50.6144,44.0224 50.1632,44.0512 C49.712,44.08 49.112,44.1376 48.3632,44.224 C47.6144,44.3104 46.7696,44.44 45.8288,44.6128 C44.888,44.7856 43.9184,45.0352 42.92,45.3616 C41.9216,45.688 40.952,46.1056 40.0112,46.6144 C39.0704,47.1232 38.2256,47.7472 37.4768,48.4864 C36.728,49.2256 36.128,50.0992 35.6768,51.1072 C35.2256,52.1152 35,53.2816 35,54.6064 C35,55.8544 35.24,56.9584 35.72,57.9184 C36.2,58.8784 36.8336,59.7184 37.6208,60.4384 C38.408,61.1584 39.3056,61.768 40.3136,62.2672 C41.3216,62.7664 42.3536,63.1744 43.4096,63.4912 C44.4656,63.808 45.5072,64.0336 46.5344,64.168 C47.5616,64.3024 48.4784,64.3696 49.2848,64.3696 C51.0704,64.3696 52.688,64.4416 54.1376,64.5856 C55.5872,64.7296 56.8208,64.9696 57.8384,65.3056 C58.856,65.6416 59.6384,66.0976 60.1856,66.6736 C60.7328,67.2496 61.0064,67.9696 61.0064,68.8336 C61.0064,69.5248 60.8528,70.12 60.5456,70.6192 C60.2384,71.1184 59.8544,71.5264 59.3936,71.8432 C58.9328,72.16 58.4384,72.3904 57.9104,72.5344 C57.3824,72.6784 56.8976,72.7504 56.456,72.7504 L56.456,72.7504 L35.144,72.7504 L35.144,74.1616 L58.0976,74.1616 Z" id="0" fill="#FFFFFF" fill-rule="nonzero"></path>
    </g>
</svg>