<?xml version="1.0" encoding="UTF-8"?>
<svg width="100px" height="100px" viewBox="0 0 100 100" version="1.1" xmlns="http://www.w3.org/2000/svg" xmlns:xlink="http://www.w3.org/1999/xlink">
    <!-- Generator: Sketch 61.1 (89650) - https://sketch.com -->
    <title>rehm</title>
    <desc>Created with Sketch.</desc>
    <g id="rehm" stroke="none" stroke-width="1" fill="none" fill-rule="evenodd">
        <path d="M54.6992,27.432 L54.707264,27.635904 C54.728768,27.903168 54.79328,28.152 54.9008,28.3824 C55.016,28.6896 55.184,28.9536 55.4048,29.1744 C55.6256,29.3952 55.88,29.5632 56.168,29.6784 C56.456,29.8128 56.7632,29.88 57.0896,29.88 C57.4352,29.88 57.7616,29.8128 58.0688,29.6784 C58.3568,29.544 58.616,29.3616 58.8464,29.1312 C59.0576,28.9008 59.2304,28.632 59.3648,28.3248 C59.48,28.0368 59.5376,27.7296 59.5376,27.4032 C59.5376,26.7312 59.3072,26.1648 58.8464,25.704 C58.3664,25.2432 57.7808,25.0128 57.0896,25.0128 C56.7632,25.0128 56.456,25.08 56.168,25.2144 C55.88,25.3488 55.6304,25.5216 55.4192,25.7328 C55.1888,25.9632 55.016,26.2224 54.9008,26.5104 C54.7664,26.8176 54.6992,27.1248 54.6992,27.432 L54.6992,27.432 Z M57.0896,29.1888 C56.648,29.1888 56.2544,29.016 55.9088,28.6704 C55.544,28.344 55.3616,27.9312 55.3616,27.432 C55.3616,26.9904 55.544,26.5776 55.9088,26.1936 C56.2544,25.8288 56.648,25.6464 57.0896,25.6464 C57.5888,25.6464 58.0064,25.8336 58.3424,26.208 C58.6784,26.5824 58.8464,26.9904 58.8464,27.432 C58.8464,27.9312 58.6832,28.344 58.3568,28.6704 C58.0112,29.016 57.5888,29.1888 57.0896,29.1888 Z M54.6992,27.432 L54.6992,23.6592 L35,23.6592 L35,25.0128 L50.696,25.0128 L50.696,42.6384 C50.696,42.6576 50.4752,42.6768 50.0336,42.696 C49.5728,42.7344 48.968,42.792 48.2192,42.8688 C47.4704,42.9648 46.6256,43.0992 45.6848,43.272 C44.744,43.4448 43.7744,43.6944 42.776,44.0208 C41.7776,44.3472 40.808,44.76 39.8672,45.2592 C38.9264,45.7776 38.0816,46.4016 37.3328,47.1312 C36.584,47.88 35.9888,48.7536 35.5472,49.752 C35.0864,50.7696 34.856,51.9408 34.856,53.2656 C34.856,54.5136 35.096,55.6176 35.576,56.5776 C36.056,57.5376 36.6896,58.3728 37.4768,59.0832 C38.264,59.8128 39.1664,60.4272 40.184,60.9264 C41.1824,61.4256 42.2096,61.8288 43.2656,62.136 C44.3216,62.4624 45.368,62.6928 46.4048,62.8272 C47.4224,62.9616 48.3344,63.0288 49.1408,63.0288 C50.9264,63.0288 52.5488,63.1056 54.008,63.2592 C55.448,63.3936 56.6768,63.6336 57.6944,63.9792 C58.712,64.3056 59.4992,64.7568 60.056,65.3328 C60.5936,65.9088 60.8624,66.6288 60.8624,67.4928 C60.8624,68.184 60.7088,68.7792 60.4016,69.2784 C60.0944,69.7776 59.7104,70.1904 59.2496,70.5168 C58.7888,70.824 58.2992,71.0544 57.7808,71.208 C57.2432,71.3424 56.7536,71.4096 56.312,71.4096 L56.312,71.4096 L35,71.4096 L35,72.8208 L57.9536,72.8208 C58.568,72.8208 59.2496,72.7152 59.9984,72.504 C60.728,72.2928 61.4192,71.9664 62.072,71.5248 C62.7248,71.0832 63.272,70.5264 63.7136,69.8544 C64.136,69.1824 64.3472,68.3856 64.3472,67.464 C64.3472,66.1776 64.0112,65.1504 63.3392,64.3824 C62.6672,63.6144 61.7264,63.0288 60.5168,62.6256 C59.288,62.2224 57.8288,61.9536 56.1392,61.8192 C54.4304,61.704 52.5584,61.6464 50.5232,61.6464 C49.9088,61.6464 49.1984,61.5984 48.392,61.5024 C47.5664,61.4064 46.7216,61.2336 45.8576,60.984 C44.9744,60.7536 44.1104,60.4272 43.2656,60.0048 C42.4208,59.6016 41.6624,59.0832 40.9904,58.4496 C40.3184,57.8352 39.7808,57.096 39.3776,56.232 C38.9552,55.3872 38.744,54.3984 38.744,53.2656 C38.744,52.152 38.9744,51.1536 39.4352,50.2704 C39.8768,49.4064 40.472,48.6384 41.2208,47.9664 C41.9696,47.3136 42.824,46.7472 43.784,46.2672 C44.744,45.8064 45.7232,45.4128 46.7216,45.0864 C49.0448,44.3184 51.704,43.8384 54.6992,43.6464 L54.6992,43.6464 L54.6992,27.432 L54.6992,27.432 Z" id="s" fill="#FFFFFF" fill-rule="nonzero"></path>
    </g>
</svg>