<?xml version="1.0" encoding="UTF-8"?>
<svg width="100px" height="100px" viewBox="0 0 100 100" version="1.1" xmlns="http://www.w3.org/2000/svg" xmlns:xlink="http://www.w3.org/1999/xlink">
    <!-- Generator: Sketch 61.1 (89650) - https://sketch.com -->
    <title>ruh</title>
    <desc>Created with Sketch.</desc>
    <g id="ruh" stroke="none" stroke-width="1" fill="none" fill-rule="evenodd">
        <path d="M58.0976,74.1616 C58.712,74.1616 59.3888,74.056 60.128,73.8448 C60.8672,73.6336 61.5632,73.3072 62.216,72.8656 C62.8688,72.424 63.4112,71.8672 63.8432,71.1952 C64.2752,70.5232 64.4912,69.7264 64.4912,68.8048 C64.4912,67.5184 64.1552,66.4912 63.4832,65.7232 C62.8112,64.9552 61.8656,64.3696 60.6464,63.9664 C59.4272,63.5632 57.968,63.2992 56.2688,63.1744 C54.5696,63.0496 52.7024,62.9872 50.6672,62.9872 C50.0528,62.9872 49.3376,62.9392 48.5216,62.8432 C47.7056,62.7472 46.8608,62.5792 45.9872,62.3392 C45.1136,62.0992 44.2544,61.7728 43.4096,61.36 C42.5648,60.9472 41.8064,60.4288 41.1344,59.8048 C40.4624,59.1808 39.92,58.4416 39.5072,57.5872 C39.0944,56.7328 38.888,55.7392 38.888,54.6064 C38.888,53.4928 39.1136,52.4992 39.5648,51.6256 C40.016,50.752 40.616,49.984 41.3648,49.3216 C42.1136,48.6592 42.968,48.0928 43.928,47.6224 C44.888,47.152 45.8672,46.7536 46.8656,46.4272 C49.1888,45.6592 51.848,45.1792 54.8432,44.9872 L54.8432,44.9872 L54.8432,25 L35.144,25 L35.144,26.3536 L50.84,26.3536 L50.84,43.9792 C50.84,43.9984 50.6144,44.0224 50.1632,44.0512 C49.712,44.08 49.112,44.1376 48.3632,44.224 C47.6144,44.3104 46.7696,44.44 45.8288,44.6128 C44.888,44.7856 43.9184,45.0352 42.92,45.3616 C41.9216,45.688 40.952,46.1056 40.0112,46.6144 C39.0704,47.1232 38.2256,47.7472 37.4768,48.4864 C36.728,49.2256 36.128,50.0992 35.6768,51.1072 C35.2256,52.1152 35,53.2816 35,54.6064 C35,55.8544 35.24,56.9584 35.72,57.9184 C36.2,58.8784 36.8336,59.7184 37.6208,60.4384 C38.408,61.1584 39.3056,61.768 40.3136,62.2672 C41.3216,62.7664 42.3536,63.1744 43.4096,63.4912 C44.4656,63.808 45.5072,64.0336 46.5344,64.168 C47.5616,64.3024 48.4784,64.3696 49.2848,64.3696 C51.0704,64.3696 52.688,64.4416 54.1376,64.5856 C55.5872,64.7296 56.8208,64.9696 57.8384,65.3056 C58.856,65.6416 59.6384,66.0976 60.1856,66.6736 C60.7328,67.2496 61.0064,67.9696 61.0064,68.8336 C61.0064,69.5248 60.8528,70.12 60.5456,70.6192 C60.2384,71.1184 59.8544,71.5264 59.3936,71.8432 C58.9328,72.16 58.4384,72.3904 57.9104,72.5344 C57.3824,72.6784 56.8976,72.7504 56.456,72.7504 L56.456,72.7504 L35.144,72.7504 L35.144,74.1616 L58.0976,74.1616 Z M49.6592,71.4256 C50.0624,71.4256 50.4608,71.3584 50.8544,71.224 C51.248,71.0896 51.5936,70.8928 51.8912,70.6336 C52.1888,70.3744 52.4336,70.048 52.6256,69.6544 C52.8176,69.2608 52.9136,68.7952 52.9136,68.2576 C52.9328,68.104 52.9424,67.9264 52.9424,67.7248 C52.9424,67.5232 52.9328,67.3216 52.9136,67.12 C52.8944,66.9184 52.856,66.7264 52.7984,66.544 C52.7408,66.3616 52.664,66.2128 52.568,66.0976 C52.5104,66.04 52.4336,66.1504 52.3376,66.4288 C52.2416,66.7072 52.0928,67.024 51.8912,67.3792 C51.6896,67.7344 51.4064,68.0656 51.0416,68.3728 C50.6768,68.68 50.2064,68.8336 49.6304,68.8336 C49.1312,68.8336 48.704,68.6848 48.3488,68.3872 C47.9936,68.0896 47.7008,67.7632 47.4704,67.408 C47.24,67.0528 47.0624,66.736 46.9376,66.4576 C46.8128,66.1792 46.7216,66.0592 46.664,66.0976 C46.568,66.1744 46.496,66.304 46.448,66.4864 C46.4,66.6688 46.3616,66.8704 46.3328,67.0912 C46.304,67.312 46.2848,67.5328 46.2752,67.7536 C46.2656,67.9744 46.2608,68.1712 46.2608,68.344 C46.2608,68.8624 46.3664,69.3184 46.5776,69.712 C46.7888,70.1056 47.0576,70.4272 47.384,70.6768 C47.7104,70.9264 48.0752,71.1136 48.4784,71.2384 C48.8816,71.3632 49.2752,71.4256 49.6592,71.4256 Z" id="√" fill="#FFFFFF" fill-rule="nonzero"></path>
    </g>
</svg>