<?xml version="1.0" encoding="UTF-8"?>
<svg width="100px" height="100px" viewBox="0 0 100 100" version="1.1" xmlns="http://www.w3.org/2000/svg" xmlns:xlink="http://www.w3.org/1999/xlink">
    <!-- Generator: Sketch 61.1 (89650) - https://sketch.com -->
    <title>sa</title>
    <desc>Created with Sketch.</desc>
    <g id="sa" stroke="none" stroke-width="1" fill="none" fill-rule="evenodd">
        <path d="M54.6544,59.52 C54.9616,59.52 55.2592,59.4528 55.5472,59.3184 C55.8352,59.2032 56.0944,59.0304 56.3248,58.8 C56.536,58.5696 56.7088,58.3008 56.8432,57.9936 C56.9776,57.7056 57.0448,57.3888 57.0448,57.0432 C57.0448,56.6976 56.9776,56.3808 56.8432,56.0928 C56.7088,55.8048 56.536,55.5552 56.3248,55.344 C56.0944,55.1328 55.8352,54.96 55.5472,54.8256 C55.2592,54.7104 54.9616,54.6528 54.6544,54.6528 C53.9632,54.6528 53.3776,54.8832 52.8976,55.344 C52.3984,55.824 52.1488,56.4192 52.1488,57.1296 C52.1488,57.8016 52.3984,58.368 52.8976,58.8288 C53.3776,59.2896 53.9632,59.52 54.6544,59.52 Z M46.8208,59.52 L46.8208,60.9312 L52.4944,60.9312 C52.5136,60.9312 52.5376,61.104 52.5664,61.4496 C52.5952,61.7952 52.5808,62.2272 52.5232,62.7456 C52.4464,63.2832 52.312,63.8496 52.12,64.4448 C51.9088,65.0592 51.5824,65.6256 51.1408,66.144 C50.6992,66.6816 50.1232,67.1232 49.4128,67.4688 C48.6832,67.8144 47.7808,67.9872 46.7056,67.9872 C45.8032,67.9872 44.9968,67.7472 44.2864,67.2672 C43.5568,66.7872 42.9424,66.1632 42.4432,65.3952 C41.944,64.6272 41.5696,63.7536 41.32,62.7744 C41.0512,61.7952 40.9168,60.8064 40.9168,59.808 C40.9168,58.5408 41.1472,57.4272 41.608,56.4672 C42.0496,55.5264 42.6448,54.7104 43.3936,54.0192 C44.1232,53.328 44.968,52.752 45.928,52.2912 C46.8688,51.8496 47.8288,51.4848 48.808,51.1968 C49.7872,50.9088 50.7568,50.688 51.7168,50.5344 C52.6576,50.4 53.5024,50.304 54.2512,50.2464 C54.9808,50.1888 55.576,50.16 56.0368,50.16 C56.4784,50.16 56.6992,50.1504 56.6992,50.1312 L56.6992,50.1312 L56.6992,30 L37,30 L37,31.44 L52.696,31.44 L52.696,49.1232 C52.696,49.1616 52.4752,49.1904 52.0336,49.2096 C51.5728,49.2288 50.9776,49.2768 50.248,49.3536 C49.4992,49.4496 48.6544,49.5744 47.7136,49.728 C46.7728,49.9008 45.8128,50.1408 44.8336,50.448 C43.8544,50.7744 42.8944,51.1776 41.9536,51.6576 C41.0128,52.1568 40.1776,52.7712 39.448,53.5008 C38.6992,54.2496 38.104,55.1232 37.6624,56.1216 C37.2208,57.12 37,58.2816 37,59.6064 C37,60.8544 37.2016,62.0544 37.6048,63.2064 C37.9888,64.3776 38.584,65.4144 39.3904,66.3168 C40.1968,67.2384 41.2144,67.968 42.4432,68.5056 C43.6528,69.0624 45.0832,69.3408 46.7344,69.3408 C48.4816,69.3408 49.9408,69.1296 51.112,68.7072 C52.264,68.304 53.2048,67.7856 53.9344,67.152 C54.664,66.5376 55.2208,65.8656 55.6048,65.136 C55.9696,64.4064 56.2288,63.7248 56.3824,63.0912 C56.536,62.4768 56.632,61.9584 56.6704,61.536 C56.6896,61.1328 56.7088,60.9312 56.728,60.9312 L56.728,60.9312 L63.5824,60.9312 L63.5824,59.52 L54.6544,59.52 L54.6544,59.52 L46.8208,59.52 Z" id="v" fill="#FFFFFF" fill-rule="nonzero"></path>
    </g>
</svg>