<?xml version="1.0" encoding="UTF-8"?>
<svg width="100px" height="100px" viewBox="0 0 100 100" version="1.1" xmlns="http://www.w3.org/2000/svg" xmlns:xlink="http://www.w3.org/1999/xlink">
    <!-- Generator: Sketch 61.1 (89650) - https://sketch.com -->
    <title>saf</title>
    <desc>Created with Sketch.</desc>
    <g id="saf" stroke="none" stroke-width="1" fill="none" fill-rule="evenodd">
        <path d="M46.7344,65.3408 C48.4816,65.3408 49.936,65.1344 51.0976,64.7216 C52.2592,64.3088 53.2048,63.7904 53.9344,63.1664 C54.664,62.5424 55.216,61.8656 55.5904,61.136 C55.9648,60.4064 56.2288,59.7296 56.3824,59.1056 C56.536,58.4816 56.6272,57.9632 56.656,57.5504 C56.6848,57.1376 56.7088,56.9312 56.728,56.9312 L56.728,56.9312 L63.7264,56.9312 L63.7264,55.52 L46.7344,55.52 L46.7344,56.9312 L52.4944,56.9312 C52.5136,56.9312 52.5376,57.104 52.5664,57.4496 C52.5952,57.7952 52.576,58.232 52.5088,58.76 C52.4416,59.288 52.3072,59.8544 52.1056,60.4592 C51.904,61.064 51.5824,61.6304 51.1408,62.1584 C50.6992,62.6864 50.1184,63.1232 49.3984,63.4688 C48.6784,63.8144 47.7808,63.9872 46.7056,63.9872 C45.8032,63.9872 44.992,63.7472 44.272,63.2672 C43.552,62.7872 42.9424,62.1632 42.4432,61.3952 C41.944,60.6272 41.5648,59.7536 41.3056,58.7744 C41.0464,57.7952 40.9168,56.8064 40.9168,55.808 C40.9168,54.5408 41.1424,53.432 41.5936,52.4816 C42.0448,51.5312 42.64,50.7104 43.3792,50.0192 C44.1184,49.328 44.9632,48.7568 45.9136,48.3056 C46.864,47.8544 47.8288,47.4848 48.808,47.1968 C49.7872,46.9088 50.752,46.6928 51.7024,46.5488 C52.6528,46.4048 53.4976,46.304 54.2368,46.2464 C54.976,46.1888 55.5712,46.16 56.0224,46.16 C56.4736,46.16 56.6992,46.1504 56.6992,46.1312 L56.6992,46.1312 L56.6992,26 L37,26 L37,27.44 L52.696,27.44 L52.696,45.1232 C52.696,45.1616 52.4704,45.1904 52.0192,45.2096 C51.568,45.2288 50.9728,45.2816 50.2336,45.368 C49.4944,45.4544 48.6544,45.5792 47.7136,45.7424 C46.7728,45.9056 45.8128,46.1456 44.8336,46.4624 C43.8544,46.7792 42.8944,47.1824 41.9536,47.672 C41.0128,48.1616 40.1728,48.776 39.4336,49.5152 C38.6944,50.2544 38.104,51.1232 37.6624,52.1216 C37.2208,53.12 37,54.2816 37,55.6064 C37,56.8544 37.1968,58.0592 37.5904,59.2208 C37.984,60.3824 38.584,61.4192 39.3904,62.3312 C40.1968,63.2432 41.2096,63.9728 42.4288,64.52 C43.648,65.0672 45.0832,65.3408 46.7344,65.3408 Z M54.6544,55.4336 C54.9616,55.4336 55.2592,55.3664 55.5472,55.232 C55.8352,55.0976 56.0896,54.9152 56.3104,54.6848 C56.5312,54.4544 56.7088,54.1856 56.8432,53.8784 C56.9776,53.5712 57.0448,53.2448 57.0448,52.8992 C57.0448,52.592 56.9776,52.2944 56.8432,52.0064 C56.7088,51.7184 56.5312,51.4688 56.3104,51.2576 C56.0896,51.0464 55.8352,50.8736 55.5472,50.7392 C55.2592,50.6048 54.9616,50.5376 54.6544,50.5376 C54.3088,50.5376 53.9824,50.6048 53.6752,50.7392 C53.368,50.8736 53.104,51.056 52.8832,51.2864 C52.6624,51.5168 52.4848,51.7808 52.3504,52.0784 C52.216,52.376 52.1488,52.6976 52.1488,53.0432 C52.1488,53.696 52.3936,54.2576 52.8832,54.728 C53.3728,55.1984 53.9632,55.4336 54.6544,55.4336 Z M44.488,73.4336 C45.0832,73.4336 45.6352,73.2416 46.144,72.8576 C46.6528,72.4736 47.0848,72.008 47.44,71.4608 C47.7952,70.9136 48.0736,70.3472 48.2752,69.7616 C48.4768,69.176 48.5776,68.6816 48.5776,68.2784 C48.5776,67.8944 48.4576,67.616 48.2176,67.4432 C47.9776,67.2704 47.6896,67.1696 47.3536,67.1408 C47.0176,67.112 46.6624,67.136 46.288,67.2128 C45.9136,67.2896 45.5968,67.3808 45.3376,67.4864 C45.0784,67.592 44.9008,67.688 44.8048,67.7744 C44.7088,67.8608 44.776,67.904 45.0064,67.904 C45.1792,67.904 45.3904,67.88 45.64,67.832 C45.8896,67.784 46.1296,67.7648 46.36,67.7744 C46.5904,67.784 46.7872,67.8512 46.9504,67.976 C47.1136,68.1008 47.1952,68.336 47.1952,68.6816 C47.1952,69.3728 47.0368,70.0064 46.72,70.5824 C46.4032,71.1584 46.0624,71.6576 45.6976,72.08 C45.3328,72.5024 45.016,72.8336 44.7472,73.0736 C44.4784,73.3136 44.392,73.4336 44.488,73.4336 Z" id="¬" fill="#FFFFFF" fill-rule="nonzero"></path>
    </g>
</svg>