<?xml version="1.0" encoding="UTF-8"?>
<svg width="100px" height="100px" viewBox="0 0 100 100" version="1.1" xmlns="http://www.w3.org/2000/svg" xmlns:xlink="http://www.w3.org/1999/xlink">
    <!-- Generator: Sketch 61.1 (89650) - https://sketch.com -->
    <title>samf</title>
    <desc>Created with Sketch.</desc>
    <g id="samf" stroke="none" stroke-width="1" fill="none" fill-rule="evenodd">
        <path d="M56.6992,29.7728 L56.707264,29.976704 C56.728768,30.243968 56.79328,30.4928 56.9008,30.7232 C57.016,31.0304 57.184,31.2944 57.4048,31.5152 C57.6256,31.736 57.88,31.904 58.168,32.0192 C58.456,32.1536 58.7632,32.2208 59.0896,32.2208 C59.4352,32.2208 59.7616,32.1536 60.0688,32.0192 C60.3568,31.8848 60.616,31.7024 60.8464,31.472 C61.0576,31.2416 61.2304,30.9728 61.3648,30.6656 C61.48,30.3776 61.5376,30.0704 61.5376,29.744 C61.5376,29.072 61.3072,28.5056 60.8464,28.0448 C60.3664,27.584 59.7808,27.3536 59.0896,27.3536 C58.7632,27.3536 58.456,27.4208 58.168,27.5552 C57.88,27.6896 57.6304,27.8624 57.4192,28.0736 C57.1888,28.304 57.016,28.5632 56.9008,28.8512 C56.7664,29.1584 56.6992,29.4656 56.6992,29.7728 L56.6992,29.7728 Z M59.0896,31.5296 C58.648,31.5296 58.2544,31.3568 57.9088,31.0112 C57.544,30.6848 57.3616,30.272 57.3616,29.7728 C57.3616,29.3312 57.544,28.9184 57.9088,28.5344 C58.2544,28.1696 58.648,27.9872 59.0896,27.9872 C59.5888,27.9872 60.0064,28.1744 60.3424,28.5488 C60.6784,28.9232 60.8464,29.3312 60.8464,29.7728 C60.8464,30.272 60.6832,30.6848 60.3568,31.0112 C60.0112,31.3568 59.5888,31.5296 59.0896,31.5296 Z M54.424,55.4336 C55.1344,55.4336 55.72,55.184 56.1808,54.6848 C56.6224,54.1856 56.8432,53.5904 56.8432,52.8992 C56.8432,52.592 56.7856,52.2944 56.6704,52.0064 C56.5552,51.7184 56.392,51.4688 56.1808,51.2576 C55.9504,51.0464 55.6912,50.8736 55.4032,50.7392 C55.096,50.6048 54.7696,50.5376 54.424,50.5376 C54.0976,50.5376 53.7904,50.6048 53.5024,50.7392 C53.1952,50.8736 52.936,51.056 52.7248,51.2864 C52.4944,51.5168 52.312,51.776 52.1776,52.064 C52.0432,52.3712 51.976,52.6976 51.976,53.0432 C51.976,53.696 52.216,54.2528 52.696,54.7136 C53.176,55.1936 53.752,55.4336 54.424,55.4336 Z M45.1504,73.4336 C45.7648,73.4336 46.3216,73.2416 46.8208,72.8576 C47.32,72.4736 47.752,72.0128 48.1168,71.4752 C48.4816,70.9184 48.76,70.352 48.952,69.776 C49.144,69.1808 49.24,68.6816 49.24,68.2784 C49.24,67.8944 49.1248,67.616 48.8944,67.4432 C48.664,67.2704 48.3856,67.1744 48.0592,67.1552 C47.7136,67.1168 47.3584,67.136 46.9936,67.2128 C46.6288,67.2896 46.3216,67.3856 46.072,67.5008 C45.8032,67.5968 45.6208,67.6928 45.5248,67.7888 C45.4288,67.8656 45.4864,67.904 45.6976,67.904 C45.8704,67.904 46.0816,67.8848 46.3312,67.8464 C46.5808,67.7888 46.8304,67.7696 47.08,67.7888 C47.3104,67.7888 47.512,67.856 47.6848,67.9904 C47.8384,68.1056 47.9152,68.336 47.9152,68.6816 C47.9152,69.3728 47.7616,70.0064 47.4544,70.5824 C47.128,71.1584 46.7824,71.6576 46.4176,72.08 C46.0336,72.5024 45.7072,72.8384 45.4384,73.088 C45.1504,73.3184 45.0544,73.4336 45.1504,73.4336 Z M56.6992,29.7728 L56.6992,26 L37,26 L37,27.44 L52.696,27.44 L52.696,45.1232 C52.696,45.1616 52.4752,45.1904 52.0336,45.2096 C51.5728,45.2288 50.9776,45.2768 50.248,45.3536 C49.4992,45.4496 48.6544,45.5744 47.7136,45.728 C46.7728,45.9008 45.8128,46.1408 44.8336,46.448 C43.8544,46.7744 42.8944,47.1776 41.9536,47.6576 C41.0128,48.1568 40.1776,48.7712 39.448,49.5008 C38.6992,50.2496 38.104,51.1232 37.6624,52.1216 C37.2208,53.12 37,54.2816 37,55.6064 C37,56.8544 37.2016,58.0544 37.6048,59.2064 C37.9888,60.3776 38.584,61.4144 39.3904,62.3168 C40.1968,63.2384 41.2144,63.968 42.4432,64.5056 C43.6528,65.0624 45.0832,65.3408 46.7344,65.3408 C48.4816,65.3408 49.9408,65.1296 51.112,64.7072 C52.264,64.304 53.2048,63.7856 53.9344,63.152 C54.664,62.5376 55.2208,61.8656 55.6048,61.136 C55.9696,60.4064 56.2288,59.7248 56.3824,59.0912 C56.536,58.4768 56.632,57.9584 56.6704,57.536 C56.6896,57.1328 56.7088,56.9312 56.728,56.9312 L56.728,56.9312 L63.7264,56.9312 L63.7264,55.52 L46.7344,55.52 L46.7344,56.9312 L52.4944,56.9312 C52.5136,56.9312 52.5376,57.104 52.5664,57.4496 C52.5952,57.7952 52.5808,58.2272 52.5232,58.7456 C52.4464,59.2832 52.312,59.8496 52.12,60.4448 C51.9088,61.0592 51.5824,61.6256 51.1408,62.144 C50.6992,62.6816 50.1232,63.1232 49.4128,63.4688 C48.6832,63.8144 47.7808,63.9872 46.7056,63.9872 C45.8032,63.9872 44.9968,63.7472 44.2864,63.2672 C43.5568,62.7872 42.9424,62.1632 42.4432,61.3952 C41.944,60.6272 41.5696,59.7536 41.32,58.7744 C41.0512,57.7952 40.9168,56.8064 40.9168,55.808 C40.9168,54.5408 41.1472,53.4272 41.608,52.4672 C42.0496,51.5264 42.6448,50.7104 43.3936,50.0192 C44.1232,49.328 44.968,48.752 45.928,48.2912 C46.8688,47.8496 47.8288,47.4848 48.808,47.1968 C49.7872,46.9088 50.7568,46.688 51.7168,46.5344 C52.6576,46.4 53.5024,46.304 54.2512,46.2464 C54.9808,46.1888 55.576,46.16 56.0368,46.16 C56.4784,46.16 56.6992,46.1504 56.6992,46.1312 L56.6992,46.1312 L56.6992,29.7728 L56.6992,29.7728 Z" id="…" fill="#FFFFFF" fill-rule="nonzero"></path>
    </g>
</svg>