<?xml version="1.0" encoding="UTF-8"?>
<svg width="100px" height="100px" viewBox="0 0 100 100" version="1.1" xmlns="http://www.w3.org/2000/svg" xmlns:xlink="http://www.w3.org/1999/xlink">
    <!-- Generator: Sketch 61.1 (89650) - https://sketch.com -->
    <title>sha</title>
    <desc>Created with Sketch.</desc>
    <g id="sha" stroke="none" stroke-width="1" fill="none" fill-rule="evenodd">
        <path d="M45.68,60.7824 C47.2544,60.7824 48.7616,60.552 50.2016,60.0912 C51.6416,59.6304 52.9856,59.0592 54.2336,58.3776 C55.4816,57.696 56.624,56.952 57.6608,56.1456 C58.6976,55.3392 59.5856,54.5952 60.3248,53.9136 C61.064,53.232 61.6496,52.6608 62.0816,52.2 C62.5136,51.7392 62.7584,51.5088 62.816,51.5088 L62.816,51.5088 L67.568,51.5088 L67.568,50.0976 L61.4336,50.0976 C61.3952,50.0976 61.1696,50.3136 60.7568,50.7456 C60.344,51.1776 59.7872,51.72 59.0864,52.3728 C58.3856,53.0256 57.5504,53.736 56.5808,54.504 C55.6112,55.272 54.5456,55.9824 53.384,56.6352 C52.2224,57.288 50.9936,57.8304 49.6976,58.2624 C48.4016,58.6944 47.0624,58.9104 45.68,58.9104 C44.4704,58.9104 43.2368,58.7376 41.9792,58.392 C40.7216,58.0464 39.5792,57.5424 38.552,56.88 C37.5248,56.2176 36.6848,55.392 36.032,54.4032 C35.3792,53.4144 35.0528,52.2672 35.0528,50.9616 C35.0528,49.944 35.336,48.9216 35.9024,47.8944 C36.4688,46.8672 37.2032,45.9456 38.1056,45.1296 C39.008,44.3136 40.0352,43.6464 41.1872,43.128 C42.3392,42.6096 43.4912,42.3504 44.6432,42.3504 C45.9296,42.3504 47.0576,42.5376 48.0272,42.912 C48.9968,43.2864 49.8368,43.7472 50.5472,44.2944 C51.2576,44.8416 51.8432,45.4416 52.304,46.0944 C52.7648,46.7472 53.1344,47.352 53.4128,47.9088 C53.6912,48.4656 53.888,48.936 54.0032,49.32 C54.1184,49.704 54.176,49.896 54.176,49.896 L54.176,49.896 L54.176,50.0976 L36.8384,50.0976 L36.8384,51.5088 L56.5088,51.5088 C56.528,51.5088 56.504,51.2496 56.4368,50.7312 C56.3696,50.2128 56.1968,49.56 55.9184,48.7728 C55.64,47.9856 55.2368,47.136 54.7088,46.224 C54.1808,45.312 53.4704,44.4624 52.5776,43.6752 C51.6848,42.888 50.5904,42.2352 49.2944,41.7168 C47.9984,41.1984 46.448,40.9392 44.6432,40.9392 C42.992,40.9392 41.408,41.2032 39.8912,41.7312 C38.3744,42.2592 37.0304,42.9696 35.8592,43.8624 C34.688,44.7552 33.752,45.8016 33.0512,47.0016 C32.3504,48.2016 32,49.464 32,50.7888 C32,51.768 32.192,52.6944 32.576,53.568 C32.96,54.4416 33.488,55.248 34.16,55.9872 C34.832,56.7264 35.6144,57.3936 36.5072,57.9888 C37.4,58.584 38.3504,59.088 39.3584,59.5008 C40.3664,59.9136 41.4128,60.2304 42.4976,60.4512 C43.5824,60.672 44.6432,60.7824 45.68,60.7824 Z M44.7872,49.0032 C45.1328,49.0032 45.4592,48.936 45.7664,48.8016 C46.0736,48.6672 46.3424,48.4848 46.5728,48.2544 C46.8032,48.024 46.9856,47.7552 47.12,47.448 C47.2544,47.1408 47.3216,46.824 47.3216,46.4976 C47.3216,46.1712 47.2544,45.8592 47.12,45.5616 C46.9856,45.264 46.8032,45.0048 46.5728,44.784 C46.3424,44.5632 46.0736,44.3856 45.7664,44.2512 C45.4592,44.1168 45.1328,44.0496 44.7872,44.0496 C44.48,44.0496 44.1776,44.1168 43.88,44.2512 C43.5824,44.3856 43.3184,44.568 43.088,44.7984 C42.8576,45.0288 42.6704,45.2928 42.5264,45.5904 C42.3824,45.888 42.3104,46.2096 42.3104,46.5552 C42.3104,46.9008 42.3824,47.2224 42.5264,47.52 C42.6704,47.8176 42.8576,48.0768 43.088,48.2976 C43.3184,48.5184 43.5824,48.6912 43.88,48.816 C44.1776,48.9408 44.48,49.0032 44.7872,49.0032 Z" id="Ã" fill="#FFFFFF" fill-rule="nonzero"></path>
    </g>
</svg>