<?xml version="1.0" encoding="UTF-8"?>
<svg width="100px" height="100px" viewBox="0 0 100 100" version="1.1" xmlns="http://www.w3.org/2000/svg" xmlns:xlink="http://www.w3.org/1999/xlink">
    <!-- Generator: Sketch 61.1 (89650) - https://sketch.com -->
    <title>shuh</title>
    <desc>Created with Sketch.</desc>
    <g id="shuh" stroke="none" stroke-width="1" fill="none" fill-rule="evenodd">
        <path d="M45.7088,60.5024 C47.2832,60.5024 48.7904,60.272 50.2304,59.8112 C51.6704,59.3504 53.0192,58.7792 54.2768,58.0976 C55.5344,57.416 56.6768,56.6768 57.704,55.88 C58.7312,55.0832 59.6192,54.344 60.368,53.6624 C61.1168,52.9808 61.7072,52.4096 62.1392,51.9488 C62.5712,51.488 62.816,51.2576 62.8736,51.2576 L62.8736,51.2576 L67.5968,51.2576 L67.5968,49.8176 L61.4912,49.8176 C61.4528,49.8176 61.2272,50.0336 60.8144,50.4656 C60.4016,50.8976 59.84,51.44 59.1296,52.0928 C58.4192,52.7456 57.5792,53.456 56.6096,54.224 C55.64,54.992 54.5744,55.7024 53.4128,56.3552 C52.2512,57.008 51.0224,57.5504 49.7264,57.9824 C48.4304,58.4144 47.0912,58.6304 45.7088,58.6304 C44.4992,58.6304 43.2656,58.4576 42.008,58.112 C40.7504,57.7664 39.608,57.2624 38.5808,56.6 C37.5536,55.9376 36.7136,55.112 36.0608,54.1232 C35.408,53.1344 35.0816,51.9872 35.0816,50.6816 C35.0816,49.664 35.3648,48.6464 35.9312,47.6288 C36.4976,46.6112 37.2368,45.6896 38.1488,44.864 C39.0608,44.0384 40.088,43.3712 41.2304,42.8624 C42.3728,42.3536 43.52,42.0992 44.672,42.0992 C45.9584,42.0992 47.0864,42.2816 48.056,42.6464 C49.0256,43.0112 49.8656,43.472 50.576,44.0288 C51.2864,44.5856 51.8768,45.1856 52.3472,45.8288 C52.8176,46.472 53.192,47.072 53.4704,47.6288 C53.7488,48.1856 53.9456,48.656 54.0608,49.04 C54.1504,49.3386667 54.2051556,49.5211852 54.2250667,49.5875556 L54.2336,49.616 L54.2336,49.8176 L36.8672,49.8176 L36.8672,51.2576 L56.5376,51.2576 C56.5568,51.2576 56.5328,50.9936 56.4656,50.4656 C56.3984,49.9376 56.2256,49.2848 55.9472,48.5072 C55.6688,47.7296 55.2656,46.88 54.7376,45.9584 C54.2096,45.0368 53.4992,44.1872 52.6064,43.4096 C51.7136,42.632 50.6192,41.9792 49.3232,41.4512 C48.0272,40.9232 46.4768,40.6592 44.672,40.6592 C43.0208,40.6592 41.4368,40.9232 39.92,41.4512 C38.4032,41.9792 37.0592,42.6944 35.888,43.5968 C34.7168,44.4992 33.7808,45.5456 33.08,46.736 C32.3792,47.9264 32.0288,49.184 32.0288,50.5088 C32.0288,51.488 32.2208,52.4144 32.6048,53.288 C32.9888,54.1616 33.5168,54.968 34.1888,55.7072 C34.8608,56.4464 35.6432,57.1136 36.536,57.7088 C37.4288,58.304 38.3792,58.808 39.3872,59.2208 C40.3952,59.6336 41.4416,59.9504 42.5264,60.1712 C43.6112,60.392 44.672,60.5024 45.7088,60.5024 Z M45.3056,67.9328 C45.7088,67.9328 46.1024,67.8656 46.4864,67.7312 C46.8704,67.5968 47.216,67.4 47.5232,67.1408 C47.8304,66.8816 48.08,66.5552 48.272,66.1616 C48.464,65.768 48.5696,65.3024 48.5888,64.7648 C48.608,64.4576 48.5984,64.0832 48.56,63.6416 C48.5216,63.2 48.3968,62.8736 48.1856,62.6624 C48.128,62.6048 48.0512,62.7104 47.9552,62.9792 C47.8592,63.248 47.7104,63.56 47.5088,63.9152 C47.3072,64.2704 47.024,64.5968 46.6592,64.8944 C46.2944,65.192 45.824,65.3408 45.248,65.3408 C44.7488,65.3408 44.3216,65.192 43.9664,64.8944 C43.6112,64.5968 43.3184,64.2704 43.088,63.9152 C42.8576,63.56 42.6848,63.248 42.5696,62.9792 C42.4544,62.7104 42.368,62.6048 42.3104,62.6624 C42.2144,62.7392 42.1376,62.8688 42.08,63.0512 C42.0224,63.2336 41.9792,63.4304 41.9504,63.6416 C41.9216,63.8528 41.9024,64.0688 41.8928,64.2896 C41.8832,64.5104 41.8784,64.6976 41.8784,64.8512 C41.8784,65.3888 41.984,65.8544 42.1952,66.248 C42.4064,66.6416 42.6752,66.9632 43.0016,67.2128 C43.328,67.4624 43.6976,67.6448 44.1104,67.76 C44.5232,67.8752 44.9216,67.9328 45.3056,67.9328 Z" id="‹" fill="#FFFFFF" fill-rule="nonzero"></path>
    </g>
</svg>