<?xml version="1.0" encoding="UTF-8"?>
<svg viewBox="0 0 100 100"  preserveAspectRatio="none" version="1.1" xmlns="http://www.w3.org/2000/svg" xmlns:xlink="http://www.w3.org/1999/xlink">
    <!-- Generator: Sketch 61.1 (89650) - https://sketch.com -->
    <title>shum</title>
    <desc>Created with Sketch.</desc>   
   
    <g id="shum" stroke="none" stroke-width="1" fill="none" fill-rule="evenodd">
        <path d="M42.68,61.5024 C44.2544,61.5024 45.7616,61.272 47.2016,60.8112 C48.6416,60.3504 49.9856,59.7792 51.2336,59.0976 C52.4816,58.416 53.624,57.6768 54.6608,56.88 C55.6976,56.0832 56.5856,55.344 57.3248,54.6624 C58.064,53.9808 58.6496,53.4096 59.0816,52.9488 C59.5136,52.488 59.7584,52.2576 59.816,52.2576 L59.816,52.2576 L78.0464,52.2576 L78.0464,50.8176 L58.4336,50.8176 C58.3952,50.8176 58.1696,51.0336 57.7568,51.4656 C57.344,51.8976 56.7872,52.44 56.0864,53.0928 C55.3856,53.7456 54.5504,54.456 53.5808,55.224 C52.6112,55.992 51.5456,56.7024 50.384,57.3552 C49.2224,58.008 47.9936,58.5504 46.6976,58.9824 C45.4016,59.4144 44.0624,59.6304 42.68,59.6304 C41.4704,59.6304 40.2368,59.4576 38.9792,59.112 C37.7216,58.7664 36.5792,58.2624 35.552,57.6 C34.5248,56.9376 33.6848,56.112 33.032,55.1232 C32.3792,54.1344 32.0528,52.9872 32.0528,51.6816 C32.0528,50.664 32.336,49.6464 32.9024,48.6288 C33.4688,47.6112 34.2032,46.6896 35.1056,45.864 C36.008,45.0384 37.0352,44.3712 38.1872,43.8624 C39.3392,43.3536 40.4912,43.0992 41.6432,43.0992 C42.9296,43.0992 44.0576,43.2816 45.0272,43.6464 C45.9968,44.0112 46.8368,44.472 47.5472,45.0288 C48.2576,45.5856 48.8432,46.1856 49.304,46.8288 C49.7648,47.472 50.1344,48.072 50.4128,48.6288 C50.6912,49.1856 50.888,49.656 51.0032,50.04 C51.1184,50.424 51.176,50.616 51.176,50.616 L51.176,50.616 L51.176,50.8176 L33.8384,50.8176 L33.8384,52.2576 L53.5088,52.2576 C53.528,52.2576 53.504,51.9936 53.4368,51.4656 C53.3696,50.9376 53.1968,50.2848 52.9184,49.5072 C52.64,48.7296 52.2368,47.88 51.7088,46.9584 C51.1808,46.0368 50.4704,45.1872 49.5776,44.4096 C48.6848,43.632 47.5904,42.9792 46.2944,42.4512 C44.9984,41.9232 43.448,41.6592 41.6432,41.6592 C39.992,41.6592 38.408,41.9232 36.8912,42.4512 C35.3744,42.9792 34.0304,43.6944 32.8592,44.5968 C31.688,45.4992 30.752,46.5456 30.0512,47.736 C29.3504,48.9264 29,50.184 29,51.5088 C29,52.488 29.192,53.4144 29.576,54.288 C29.96,55.1616 30.488,55.968 31.16,56.7072 C31.832,57.4464 32.6144,58.1136 33.5072,58.7088 C34.4,59.304 35.3504,59.808 36.3584,60.2208 C37.3664,60.6336 38.4128,60.9504 39.4976,61.1712 C40.5824,61.392 41.6432,61.5024 42.68,61.5024 Z" id="y" fill="#FFFFFF" fill-rule="nonzero"></path>     
    </g>

</svg>