<?xml version="1.0" encoding="UTF-8"?>
<svg width="100px" height="100px" viewBox="0 0 100 100" version="1.1" xmlns="http://www.w3.org/2000/svg" xmlns:xlink="http://www.w3.org/1999/xlink">
    <!-- Generator: Sketch 61.1 (89650) - https://sketch.com -->
    <title>si</title>
    <desc>Created with Sketch.</desc>
    <g id="si" stroke="none" stroke-width="1" fill="none" fill-rule="evenodd">
        <path d="M44.7344,69.3408 C46.4816,69.3408 47.936,69.1344 49.0976,68.7216 C50.2592,68.3088 51.2048,67.7904 51.9344,67.1664 C52.664,66.5424 53.216,65.8656 53.5904,65.136 C53.9648,64.4064 54.2288,63.7296 54.3824,63.1056 C54.536,62.4816 54.6272,61.9632 54.656,61.5504 C54.6848,61.1376 54.7088,60.9312 54.728,60.9312 L54.728,60.9312 L64.52,60.9312 L64.52,59.52 L44.7344,59.52 L44.7344,60.9312 L50.4944,60.9312 C50.5136,60.9312 50.5376,61.104 50.5664,61.4496 C50.5952,61.7952 50.576,62.232 50.5088,62.76 C50.4416,63.288 50.3072,63.8544 50.1056,64.4592 C49.904,65.064 49.5824,65.6304 49.1408,66.1584 C48.6992,66.6864 48.1184,67.1232 47.3984,67.4688 C46.6784,67.8144 45.7808,67.9872 44.7056,67.9872 C43.8032,67.9872 42.992,67.7472 42.272,67.2672 C41.552,66.7872 40.9424,66.1632 40.4432,65.3952 C39.944,64.6272 39.5648,63.7536 39.3056,62.7744 C39.0464,61.7952 38.9168,60.8064 38.9168,59.808 C38.9168,58.5408 39.1424,57.432 39.5936,56.4816 C40.0448,55.5312 40.64,54.7104 41.3792,54.0192 C42.1184,53.328 42.9632,52.7568 43.9136,52.3056 C44.864,51.8544 45.8288,51.4848 46.808,51.1968 C47.7872,50.9088 48.752,50.6928 49.7024,50.5488 C50.6528,50.4048 51.4976,50.304 52.2368,50.2464 C52.976,50.1888 53.5712,50.16 54.0224,50.16 C54.4736,50.16 54.6992,50.1504 54.6992,50.1312 L54.6992,50.1312 L54.6992,30 L35,30 L35,31.44 L50.696,31.44 L50.696,49.1232 C50.696,49.1616 50.4704,49.1904 50.0192,49.2096 C49.568,49.2288 48.9728,49.2816 48.2336,49.368 C47.4944,49.4544 46.6544,49.5792 45.7136,49.7424 C44.7728,49.9056 43.8128,50.1456 42.8336,50.4624 C41.8544,50.7792 40.8944,51.1824 39.9536,51.672 C39.0128,52.1616 38.1728,52.776 37.4336,53.5152 C36.6944,54.2544 36.104,55.1232 35.6624,56.1216 C35.2208,57.12 35,58.2816 35,59.6064 C35,60.8544 35.1968,62.0592 35.5904,63.2208 C35.984,64.3824 36.584,65.4192 37.3904,66.3312 C38.1968,67.2432 39.2096,67.9728 40.4288,68.52 C41.648,69.0672 43.0832,69.3408 44.7344,69.3408 Z" id="r" fill="#FFFFFF" fill-rule="nonzero"></path>
    </g>
</svg>