<?xml version="1.0" encoding="UTF-8"?>
<svg width="100px" height="100px" viewBox="0 0 100 100" version="1.1" xmlns="http://www.w3.org/2000/svg" xmlns:xlink="http://www.w3.org/1999/xlink">
    <!-- Generator: Sketch 61.1 (89650) - https://sketch.com -->
    <title>sif</title>
    <desc>Created with Sketch.</desc>
    <g id="sif" stroke="none" stroke-width="1" fill="none" fill-rule="evenodd">
        <path d="M44.7344,68 C46.4816,68 47.936,67.7936 49.0976,67.3808 C50.2592,66.968 51.2048,66.4496 51.9344,65.8256 C52.664,65.2016 53.216,64.5248 53.5904,63.7952 C53.9648,63.0656 54.2288,62.3888 54.3824,61.7648 C54.536,61.1408 54.6272,60.6224 54.656,60.2096 C54.6848,59.7968 54.7088,59.5904 54.728,59.5904 L54.728,59.5904 L64.52,59.5904 L64.52,58.1792 L44.7344,58.1792 L44.7344,59.5904 L50.4944,59.5904 C50.552,60.128 50.5376,60.7952 50.4512,61.592 C50.3648,62.3888 50.1296,63.1616 49.7456,63.9104 C49.3616,64.6592 48.7712,65.3024 47.9744,65.84 C47.1776,66.3776 46.088,66.6464 44.7056,66.6464 C43.8032,66.6464 42.992,66.4064 42.272,65.9264 C41.552,65.4464 40.9424,64.8224 40.4432,64.0544 C39.944,63.2864 39.5648,62.4128 39.3056,61.4336 C39.0464,60.4544 38.9168,59.4656 38.9168,58.4672 C38.9168,57.2 39.1424,56.0912 39.5936,55.1408 C40.0448,54.1904 40.64,53.3696 41.3792,52.6784 C42.1184,51.9872 42.9632,51.416 43.9136,50.9648 C44.864,50.5136 45.8288,50.144 46.808,49.856 C47.7872,49.568 48.752,49.352 49.7024,49.208 C50.6528,49.064 51.4976,48.9632 52.2368,48.9056 C52.976,48.848 53.5712,48.8192 54.0224,48.8192 C54.4736,48.8192 54.6992,48.8096 54.6992,48.7904 L54.6992,48.7904 L54.6992,28.6592 L35,28.6592 L35,30.0992 L50.696,30.0992 L50.696,47.7824 C50.696,47.8208 50.4704,47.8496 50.0192,47.8688 C49.568,47.888 48.9776,47.9408 48.248,48.0272 C47.5184,48.1136 46.6832,48.2384 45.7424,48.4016 C44.8016,48.5648 43.8368,48.8048 42.848,49.1216 C41.8592,49.4384 40.8944,49.8416 39.9536,50.3312 C39.0128,50.8208 38.1776,51.4352 37.448,52.1744 C36.7184,52.9136 36.128,53.7824 35.6768,54.7808 C35.2256,55.7792 35,56.9408 35,58.2656 C35,59.5136 35.1968,60.7184 35.5904,61.88 C35.984,63.0416 36.584,64.0784 37.3904,64.9904 C38.1968,65.9024 39.2096,66.632 40.4288,67.1792 C41.648,67.7264 43.0832,68 44.7344,68 Z M42.9488,75.9488 C43.5632,75.9488 44.12,75.752 44.6192,75.3584 C45.1184,74.9648 45.5504,74.4992 45.9152,73.9616 C46.28,73.424 46.5584,72.8672 46.7504,72.2912 C46.9424,71.7152 47.0384,71.2448 47.0384,70.88 C47.0384,70.4 46.8896,70.0688 46.592,69.8864 C46.2944,69.704 45.9344,69.6128 45.512,69.6128 C45.2432,69.6128 44.9792,69.6464 44.72,69.7136 C44.4608,69.7808 44.2208,69.8576 44,69.944 C43.7792,70.0304 43.6016,70.1168 43.4672,70.2032 C43.3328,70.2896 43.2656,70.3616 43.2656,70.4192 C43.2656,70.4384 43.3328,70.4432 43.4672,70.4336 C43.6016,70.424 43.7552,70.4096 43.928,70.3904 C44.1008,70.3712 44.264,70.352 44.4176,70.3328 C44.5712,70.3136 44.6672,70.304 44.7056,70.304 C44.9552,70.304 45.176,70.3616 45.368,70.4768 C45.56,70.592 45.656,70.8416 45.656,71.2256 C45.656,71.8784 45.512,72.4784 45.224,73.0256 C44.936,73.5728 44.6192,74.0528 44.2736,74.4656 C43.928,74.8784 43.6112,75.2144 43.3232,75.4736 C43.0352,75.7328 42.8912,75.8912 42.8912,75.9488 L42.8912,75.9488 L42.9488,75.9488 Z" id="." fill="#FFFFFF" fill-rule="nonzero"></path>
    </g>
</svg>