<?xml version="1.0" encoding="UTF-8"?>
<svg width="100px" height="100px" viewBox="0 0 100 100" version="1.1" xmlns="http://www.w3.org/2000/svg" xmlns:xlink="http://www.w3.org/1999/xlink">
    <!-- Generator: Sketch 61.1 (89650) - https://sketch.com -->
    <title>sim</title>
    <desc>Created with Sketch.</desc>
    <g id="sim" stroke="none" stroke-width="1" fill="none" fill-rule="evenodd">
        <path d="M67.3008,74.1616 L67.3008,72.7504 L41.0064,72.7504 C40.5648,72.7504 40.08,72.6784 39.552,72.5344 C39.024,72.3904 38.5344,72.16 38.0832,71.8432 C37.632,71.5264 37.2528,71.1184 36.9456,70.6192 C36.6384,70.12 36.4848,69.5248 36.4848,68.8336 C36.4848,67.9696 36.7584,67.2496 37.3056,66.6736 C37.8528,66.0976 38.6304,65.6416 39.6384,65.3056 C40.6464,64.9696 41.8656,64.7296 43.296,64.5856 C44.7264,64.4416 46.3248,64.3696 48.0912,64.3696 C48.9168,64.3696 49.8432,64.3024 50.8704,64.168 C51.8976,64.0336 52.944,63.808 54.0096,63.4912 C55.0752,63.1744 56.1168,62.7664 57.1344,62.2672 C58.152,61.768 59.0544,61.1584 59.8416,60.4384 C60.6288,59.7184 61.2624,58.8736 61.7424,57.904 C62.2224,56.9344 62.4624,55.8352 62.4624,54.6064 C62.4624,52.84 62.2224,51.3616 61.7424,50.1712 C61.2624,48.9808 60.6624,48.0064 59.9424,47.248 C59.2224,46.4896 58.44,45.9184 57.5952,45.5344 C56.7504,45.1504 55.968,44.8768 55.248,44.7136 C54.528,44.5504 53.928,44.4592 53.448,44.44 C52.968,44.4208 52.728,44.4112 52.728,44.4112 L52.728,44.4112 L52.728,25 L33.0288,25 L33.0288,26.3536 L48.7248,26.3536 L48.7248,44.8432 C50.5488,45.1696 52.1904,45.7264 53.6496,46.5136 C54.264,46.8592 54.8688,47.272 55.464,47.752 C56.0592,48.232 56.5872,48.8032 57.048,49.4656 C57.5088,50.128 57.8832,50.8816 58.1712,51.7264 C58.4592,52.5712 58.6032,53.5312 58.6032,54.6064 C58.6032,55.7392 58.3968,56.7328 57.984,57.5872 C57.5712,58.4416 57.0288,59.176 56.3568,59.7904 C55.6848,60.4048 54.9216,60.9136 54.0672,61.3168 C53.2128,61.72 52.344,62.0416 51.4608,62.2816 C50.5776,62.5216 49.7184,62.6896 48.8832,62.7856 C48.048,62.8816 47.3232,62.9296 46.7088,62.9296 C44.6736,62.9296 42.816,62.992 41.136,63.1168 C39.456,63.2416 38.0112,63.5104 36.8016,63.9232 C35.592,64.336 34.656,64.9312 33.9936,65.7088 C33.3312,66.4864 33,67.5184 33,68.8048 C33,69.7264 33.216,70.5232 33.648,71.1952 C34.08,71.8672 34.6128,72.424 35.2464,72.8656 C35.88,73.3072 36.5616,73.6336 37.2912,73.8448 C38.0208,74.056 38.6928,74.1616 39.3072,74.1616 L39.3072,74.1616 L67.3008,74.1616 Z" id="8" fill="#FFFFFF" fill-rule="nonzero"></path>
    </g>
</svg>