<?xml version="1.0" encoding="UTF-8"?>
<svg width="100px" height="100px" viewBox="0 0 100 100" version="1.1" xmlns="http://www.w3.org/2000/svg" xmlns:xlink="http://www.w3.org/1999/xlink">
    <!-- Generator: Sketch 61.1 (89650) - https://sketch.com -->
    <title>simf</title>
    <desc>Created with Sketch.</desc>
    <g id="simf" stroke="none" stroke-width="1" fill="none" fill-rule="evenodd">
        <path d="M56.6992,29.7728 L56.707264,29.976704 C56.728768,30.243968 56.79328,30.4928 56.9008,30.7232 C57.016,31.0304 57.184,31.2944 57.4048,31.5152 C57.6256,31.736 57.88,31.904 58.168,32.0192 C58.456,32.1536 58.7632,32.2208 59.0896,32.2208 C59.4352,32.2208 59.7616,32.1536 60.0688,32.0192 C60.3568,31.8848 60.616,31.7024 60.8464,31.472 C61.0576,31.2416 61.2304,30.9728 61.3648,30.6656 C61.48,30.3776 61.5376,30.0704 61.5376,29.744 C61.5376,29.072 61.3072,28.5056 60.8464,28.0448 C60.3664,27.584 59.7808,27.3536 59.0896,27.3536 C58.7632,27.3536 58.456,27.4208 58.168,27.5552 C57.88,27.6896 57.6304,27.8624 57.4192,28.0736 C57.1888,28.304 57.016,28.5632 56.9008,28.8512 C56.7664,29.1584 56.6992,29.4656 56.6992,29.7728 L56.6992,29.7728 Z M59.0896,31.5296 C58.648,31.5296 58.2544,31.3568 57.9088,31.0112 C57.544,30.6848 57.3616,30.272 57.3616,29.7728 C57.3616,29.3312 57.544,28.9184 57.9088,28.5344 C58.2544,28.1696 58.648,27.9872 59.0896,27.9872 C59.5888,27.9872 60.0064,28.1744 60.3424,28.5488 C60.6784,28.9232 60.8464,29.3312 60.8464,29.7728 C60.8464,30.272 60.6832,30.6848 60.3568,31.0112 C60.0112,31.3568 59.5888,31.5296 59.0896,31.5296 Z M45.3232,73.4336 C45.9184,73.4336 46.4752,73.2416 46.9936,72.8576 C47.4928,72.4736 47.9248,72.0128 48.2896,71.4752 C48.6544,70.9184 48.9424,70.352 49.1536,69.776 C49.3456,69.1808 49.4416,68.6816 49.4416,68.2784 C49.4416,67.8944 49.3264,67.616 49.096,67.4432 C48.8464,67.2704 48.5584,67.1744 48.232,67.1552 C47.8864,67.1168 47.5312,67.136 47.1664,67.2128 C46.7824,67.2896 46.4656,67.3856 46.216,67.5008 C45.9472,67.5968 45.7696,67.688 45.6832,67.7744 C45.5968,67.8608 45.6592,67.904 45.8704,67.904 C46.0432,67.904 46.2544,67.8848 46.504,67.8464 C46.7536,67.7888 46.9936,67.7648 47.224,67.7744 C47.4544,67.784 47.656,67.856 47.8288,67.9904 C47.9824,68.1056 48.0592,68.336 48.0592,68.6816 C48.0592,69.3728 47.9056,70.0064 47.5984,70.5824 C47.272,71.1584 46.9264,71.6576 46.5616,72.08 C46.1968,72.5024 45.88,72.8384 45.6112,73.088 C45.3232,73.3184 45.2272,73.4336 45.3232,73.4336 Z M56.6992,29.7728 L56.6992,26 L37,26 L37,27.44 L52.696,27.44 L52.696,45.1232 C52.696,45.1616 52.4752,45.1904 52.0336,45.2096 C51.5728,45.2288 50.9776,45.2768 50.248,45.3536 C49.4992,45.4496 48.6544,45.5744 47.7136,45.728 C46.7728,45.9008 45.8128,46.1408 44.8336,46.448 C43.8544,46.7744 42.8944,47.1776 41.9536,47.6576 C41.0128,48.1568 40.1776,48.7712 39.448,49.5008 C38.6992,50.2496 38.104,51.1232 37.6624,52.1216 C37.2208,53.12 37,54.2816 37,55.6064 C37,56.8544 37.2016,58.0544 37.6048,59.2064 C37.9888,60.3776 38.584,61.4144 39.3904,62.3168 C40.1968,63.2384 41.2144,63.968 42.4432,64.5056 C43.6528,65.0624 45.0832,65.3408 46.7344,65.3408 C48.4816,65.3408 49.9408,65.1296 51.112,64.7072 C52.264,64.304 53.2048,63.7856 53.9344,63.152 C54.664,62.5376 55.2208,61.8656 55.6048,61.136 C55.9696,60.4064 56.2288,59.7248 56.3824,59.0912 C56.536,58.4768 56.632,57.9584 56.6704,57.536 C56.6896,57.1328 56.7088,56.9312 56.728,56.9312 L56.728,56.9312 L63.1216,56.9312 L63.1216,55.52 L46.7344,55.52 L46.7344,56.9312 L52.4944,56.9312 C52.5136,56.9312 52.5376,57.104 52.5664,57.4496 C52.5952,57.7952 52.5808,58.2272 52.5232,58.7456 C52.4464,59.2832 52.312,59.8496 52.12,60.4448 C51.9088,61.0592 51.5824,61.6256 51.1408,62.144 C50.6992,62.6816 50.1232,63.1232 49.4128,63.4688 C48.6832,63.8144 47.7808,63.9872 46.7056,63.9872 C45.8032,63.9872 44.9968,63.7472 44.2864,63.2672 C43.5568,62.7872 42.9424,62.1632 42.4432,61.3952 C41.944,60.6272 41.5696,59.7536 41.32,58.7744 C41.0512,57.7952 40.9168,56.8064 40.9168,55.808 C40.9168,54.5408 41.1472,53.4272 41.608,52.4672 C42.0496,51.5264 42.6448,50.7104 43.3936,50.0192 C44.1232,49.328 44.968,48.752 45.928,48.2912 C46.8688,47.8496 47.8288,47.4848 48.808,47.1968 C49.7872,46.9088 50.7568,46.688 51.7168,46.5344 C52.6576,46.4 53.5024,46.304 54.2512,46.2464 C54.9808,46.1888 55.576,46.16 56.0368,46.16 C56.4784,46.16 56.6992,46.1504 56.6992,46.1312 L56.6992,46.1312 L56.6992,29.7728 L56.6992,29.7728 Z" id="∆" fill="#FFFFFF" fill-rule="nonzero"></path>
    </g>
</svg>