<?xml version="1.0" encoding="UTF-8"?>
<svg width="100px" height="100px" viewBox="0 0 100 100" version="1.1" xmlns="http://www.w3.org/2000/svg" xmlns:xlink="http://www.w3.org/1999/xlink">
    <!-- Generator: Sketch 61.1 (89650) - https://sketch.com -->
    <title>ta</title>
    <desc>Created with Sketch.</desc>
    <g id="ta" stroke="none" stroke-width="1" fill="none" fill-rule="evenodd">
        <path d="M49.8496,69.3408 C51.6736,69.3408 53.2144,69.1296 54.472,68.7072 C55.7296,68.2848 56.7472,67.7232 57.5248,67.0224 C58.3024,66.3216 58.864,65.5152 59.2096,64.6032 C59.5552,63.6912 59.7184,62.7456 59.6992,61.7664 C59.68,60.864 59.5312,60.0672 59.2528,59.376 C58.9744,58.6848 58.624,58.0848 58.2016,57.576 C57.7792,57.0672 57.3136,56.64 56.8048,56.2944 C56.296,55.9488 55.7968,55.6704 55.3072,55.4592 C54.8176,55.248 54.3664,55.0944 53.9536,54.9984 C53.5408,54.9024 53.2288,54.8544 53.0176,54.8544 C52.9792,54.8544 52.9408,54.864 52.9024,54.8832 C52.8256,54.9216 52.7872,54.96 52.7872,54.9984 C53.536,55.5744 54.1984,56.2368 54.7744,56.9856 C55.2544,57.6192 55.6864,58.3872 56.0704,59.2896 C56.4544,60.192 56.608,61.2 56.5312,62.3136 C56.416,64.0416 55.7968,65.4192 54.6736,66.4464 C53.5504,67.4736 51.904,67.9872 49.7344,67.9872 C49.0624,67.9872 48.3568,67.8384 47.6176,67.5408 C46.8784,67.2432 46.2016,66.7776 45.5872,66.144 C44.9728,65.5104 44.4688,64.704 44.0752,63.7248 C43.6816,62.7456 43.4848,61.5744 43.4848,60.2112 C43.4848,58.9824 43.7152,57.8976 44.176,56.9568 C44.6368,56.016 45.2512,55.1952 46.0192,54.4944 C46.7872,53.7936 47.656,53.1936 48.6256,52.6944 C49.5952,52.1952 50.584,51.7776 51.592,51.4416 C52.6,51.1056 53.5888,50.8368 54.5584,50.6352 C55.528,50.4336 56.3968,50.28 57.1648,50.1744 C57.9328,50.0688 58.5472,49.9968 59.008,49.9584 C59.4688,49.92 59.6992,49.8912 59.6992,49.872 L59.6992,49.872 L59.6992,30 L40,30 L40,31.44 L55.696,31.44 L55.696,49.1232 C55.696,49.1616 55.4704,49.2 55.0192,49.2384 C54.568,49.2768 53.9776,49.3536 53.248,49.4688 C52.5184,49.584 51.6832,49.7472 50.7424,49.9584 C49.8016,50.1696 48.8368,50.448 47.848,50.7936 C46.8592,51.1392 45.8944,51.5664 44.9536,52.0752 C44.0128,52.584 43.1776,53.2032 42.448,53.9328 C41.7184,54.6624 41.128,55.512 40.6768,56.4816 C40.2256,57.4512 40,58.56 40,59.808 C40,61.248 40.2352,62.5536 40.7056,63.7248 C41.176,64.896 41.8432,65.8992 42.7072,66.7344 C43.5712,67.5696 44.608,68.2128 45.8176,68.664 C47.0272,69.1152 48.3712,69.3408 49.8496,69.3408 Z M50.0512,62.976 C50.3968,62.976 50.7232,62.9088 51.0304,62.7744 C51.3376,62.64 51.6064,62.4576 51.8368,62.2272 C52.0672,61.9968 52.2496,61.7328 52.384,61.4352 C52.5184,61.1376 52.5856,60.8256 52.5856,60.4992 C52.5856,60.1536 52.5184,59.832 52.384,59.5344 C52.2496,59.2368 52.0672,58.9776 51.8368,58.7568 C51.6064,58.536 51.3376,58.3632 51.0304,58.2384 C50.7232,58.1136 50.3968,58.0512 50.0512,58.0512 C49.744,58.0512 49.4416,58.1184 49.144,58.2528 C48.8464,58.3872 48.5824,58.5648 48.352,58.7856 C48.1216,59.0064 47.9344,59.2656 47.7904,59.5632 C47.6464,59.8608 47.5744,60.1824 47.5744,60.528 C47.5744,60.8736 47.6464,61.1952 47.7904,61.4928 C47.9344,61.7904 48.1216,62.0496 48.352,62.2704 C48.5824,62.4912 48.8464,62.664 49.144,62.7888 C49.4416,62.9136 49.744,62.976 50.0512,62.976 Z" id="_" fill="#FFFFFF" fill-rule="nonzero"></path>
    </g>
</svg>