<?xml version="1.0" encoding="UTF-8"?>
<svg width="100px" height="100px" viewBox="0 0 100 100" version="1.1" xmlns="http://www.w3.org/2000/svg" xmlns:xlink="http://www.w3.org/1999/xlink">
    <!-- Generator: Sketch 61.1 (89650) - https://sketch.com -->
    <title>ti</title>
    <desc>Created with Sketch.</desc>
    <g id="ti" stroke="none" stroke-width="1" fill="none" fill-rule="evenodd">
        <path d="M48.8496,69 C52.0176,69 54.4512,68.3328 56.1504,66.9984 C57.8496,65.664 58.6992,63.7296 58.6992,61.1952 C58.6992,60.1584 58.5264,59.256 58.1808,58.488 C57.8352,57.72 57.408,57.072 56.8992,56.544 C56.3904,56.016 55.8384,55.5888 55.2432,55.2624 C54.648,54.936 54.1056,54.6912 53.616,54.528 C53.1264,54.3648 52.7328,54.2784 52.4352,54.2688 C52.1376,54.2592 52.0272,54.2928 52.104,54.3696 C53.3904,55.1376 54.3312,56.1024 54.9264,57.264 C55.5216,58.4256 55.8192,59.6304 55.8192,60.8784 C55.8192,61.7424 55.6752,62.5824 55.3872,63.3984 C55.0992,64.2144 54.6576,64.9392 54.0624,65.5728 C53.4672,66.2064 52.728,66.7104 51.8448,67.0848 C50.9616,67.4592 49.9248,67.6464 48.7344,67.6464 C48.0624,67.6464 47.3616,67.5024 46.632,67.2144 C45.9024,66.9264 45.2352,66.4752 44.6304,65.8608 C44.0256,65.2464 43.5216,64.464 43.1184,63.5136 C42.7152,62.5632 42.504,61.4352 42.4848,60.1296 L42.4848,60.1296 L52.1904,60.1296 L52.1904,58.7472 L42.6,58.7472 C42.7536,57.6336 43.1088,56.6544 43.6656,55.8096 C44.2224,54.9648 44.904,54.2256 45.7104,53.592 C46.5168,52.9584 47.4048,52.4208 48.3744,51.9792 C49.344,51.5376 50.3232,51.168 51.312,50.8704 C52.3008,50.5728 53.256,50.3376 54.1776,50.1648 C55.0992,49.992 55.9056,49.8624 56.5968,49.776 C57.288,49.6896 57.8304,49.632 58.224,49.6032 C58.6176,49.5744 58.776,49.5504 58.6992,49.5312 L58.6992,49.5312 L58.6992,29.6592 L39,29.6592 L39,31.0992 L54.696,31.0992 L54.696,48.7824 C54.696,48.8208 54.4704,48.8592 54.0192,48.8976 C53.568,48.936 52.9776,49.0128 52.248,49.128 C51.5184,49.2432 50.6832,49.4064 49.7424,49.6176 C48.8016,49.8288 47.8368,50.1072 46.848,50.4528 C45.8592,50.7984 44.8944,51.2256 43.9536,51.7344 C43.0128,52.2432 42.1776,52.8624 41.448,53.592 C40.7184,54.3216 40.128,55.1712 39.6768,56.1408 C39.2256,57.1104 39,58.2192 39,59.4672 C39,60.9072 39.2352,62.2128 39.7056,63.384 C40.176,64.5552 40.8432,65.5584 41.7072,66.3936 C42.5712,67.2288 43.608,67.872 44.8176,68.3232 C46.0272,68.7744 47.3712,69 48.8496,69 Z" id="%" fill="#FFFFFF" fill-rule="nonzero"></path>
    </g>
</svg>