<?xml version="1.0" encoding="UTF-8"?>
<svg width="100px" height="100px" viewBox="0 0 100 100" version="1.1" xmlns="http://www.w3.org/2000/svg" xmlns:xlink="http://www.w3.org/1999/xlink">
    <!-- Generator: Sketch 61.1 (89650) - https://sketch.com -->
    <title>tye</title>
    <desc>Created with Sketch.</desc>
    <g id="tye" stroke="none" stroke-width="1" fill="none" fill-rule="evenodd">
        <path d="M49.8496,69.3408 C53.0176,69.3408 55.4512,68.6736 57.1504,67.3392 C58.8496,66.0048 59.6992,64.0704 59.6992,61.536 C59.6992,60.5568 59.4976,59.6448 59.0944,58.8 C58.6912,57.9552 58.1536,57.2256 57.4816,56.6112 C56.8096,55.9968 56.0176,55.5168 55.1056,55.1712 C54.1936,54.8256 53.2384,54.6528 52.24,54.6528 C51.3184,54.6528 50.4736,54.7824 49.7056,55.0416 C48.9376,55.3008 48.2704,55.6608 47.704,56.1216 C47.1376,56.5824 46.696,57.1296 46.3792,57.7632 C46.0624,58.3968 45.904,59.0784 45.904,59.808 C45.904,60.7488 46.0672,61.5168 46.3936,62.112 C46.72,62.7072 47.1232,63.1728 47.6032,63.5088 C48.0832,63.8448 48.6016,64.0704 49.1584,64.1856 C49.7152,64.3008 50.2192,64.3632 50.6704,64.3728 C51.1216,64.3824 51.4816,64.3584 51.7504,64.3008 C52.0192,64.2432 52.1152,64.1952 52.0384,64.1568 C51.3088,63.8496 50.7136,63.5856 50.2528,63.3648 C49.792,63.144 49.4272,62.904 49.1584,62.6448 C48.8896,62.3856 48.7024,62.0688 48.5968,61.6944 C48.4912,61.32 48.4384,60.8256 48.4384,60.2112 C48.4384,59.7312 48.544,59.2752 48.7552,58.8432 C48.9664,58.4112 49.2544,58.0368 49.6192,57.72 C49.984,57.4032 50.4112,57.1536 50.9008,56.9712 C51.3904,56.7888 51.9136,56.6976 52.4704,56.6976 C53.104,56.6976 53.6896,56.8224 54.2272,57.072 C54.7648,57.3216 55.2304,57.6624 55.624,58.0944 C56.0176,58.5264 56.3248,59.0352 56.5456,59.6208 C56.7664,60.2064 56.8768,60.8448 56.8768,61.536 C56.8768,62.5728 56.6944,63.4944 56.3296,64.3008 C55.9648,65.1072 55.4656,65.784 54.832,66.3312 C54.1984,66.8784 53.4448,67.2912 52.5712,67.5696 C51.6976,67.848 50.752,67.9872 49.7344,67.9872 C49.0624,67.9872 48.3568,67.8384 47.6176,67.5408 C46.8784,67.2432 46.2016,66.7776 45.5872,66.144 C44.9728,65.5104 44.4688,64.704 44.0752,63.7248 C43.6816,62.7456 43.4848,61.5744 43.4848,60.2112 C43.4848,58.9824 43.7152,57.8976 44.176,56.9568 C44.6368,56.016 45.2512,55.1952 46.0192,54.4944 C46.7872,53.7936 47.656,53.1936 48.6256,52.6944 C49.5952,52.1952 50.584,51.7776 51.592,51.4416 C52.6,51.1056 53.5888,50.8368 54.5584,50.6352 C55.528,50.4336 56.3968,50.28 57.1648,50.1744 C57.9328,50.0688 58.5472,49.9968 59.008,49.9584 C59.4688,49.92 59.6992,49.8912 59.6992,49.872 L59.6992,49.872 L59.6992,30 L40,30 L40,31.44 L55.696,31.44 L55.696,49.1232 C55.696,49.1616 55.4704,49.2 55.0192,49.2384 C54.568,49.2768 53.9776,49.3536 53.248,49.4688 C52.5184,49.584 51.6832,49.7472 50.7424,49.9584 C49.8016,50.1696 48.8368,50.448 47.848,50.7936 C46.8592,51.1392 45.8944,51.5664 44.9536,52.0752 C44.0128,52.584 43.1776,53.2032 42.448,53.9328 C41.7184,54.6624 41.128,55.512 40.6768,56.4816 C40.2256,57.4512 40,58.56 40,59.808 C40,61.248 40.2352,62.5536 40.7056,63.7248 C41.176,64.896 41.8432,65.8992 42.7072,66.7344 C43.5712,67.5696 44.608,68.2128 45.8176,68.664 C47.0272,69.1152 48.3712,69.3408 49.8496,69.3408 Z" id="-" fill="#FFFFFF" fill-rule="nonzero"></path>
    </g>
</svg>