<?xml version="1.0" encoding="UTF-8"?>
<svg width="100px" height="100px" viewBox="0 0 100 100" version="1.1" xmlns="http://www.w3.org/2000/svg" xmlns:xlink="http://www.w3.org/1999/xlink">
    <!-- Generator: Sketch 61.1 (89650) - https://sketch.com -->
    <title>tyem</title>
    <desc>Created with Sketch.</desc>
    <g id="tyem" stroke="none" stroke-width="1" fill="none" fill-rule="evenodd">
        <path d="M57.6992,33.7728 L57.707264,33.976704 C57.728768,34.243968 57.79328,34.4928 57.9008,34.7232 C58.016,35.0304 58.184,35.2944 58.4048,35.5152 C58.6256,35.736 58.88,35.904 59.168,36.0192 C59.456,36.1536 59.7632,36.2208 60.0896,36.2208 C60.4352,36.2208 60.7616,36.1536 61.0688,36.0192 C61.3568,35.8848 61.616,35.7024 61.8464,35.472 C62.0576,35.2416 62.2304,34.9728 62.3648,34.6656 C62.48,34.3776 62.5376,34.0704 62.5376,33.744 C62.5376,33.072 62.3072,32.5056 61.8464,32.0448 C61.3664,31.584 60.7808,31.3536 60.0896,31.3536 C59.7632,31.3536 59.456,31.4208 59.168,31.5552 C58.88,31.6896 58.6304,31.8624 58.4192,32.0736 C58.1888,32.304 58.016,32.5632 57.9008,32.8512 C57.7664,33.1584 57.6992,33.4656 57.6992,33.7728 L57.6992,33.7728 Z M60.0896,35.5296 C59.648,35.5296 59.2544,35.3568 58.9088,35.0112 C58.544,34.6848 58.3616,34.272 58.3616,33.7728 C58.3616,33.3312 58.544,32.9184 58.9088,32.5344 C59.2544,32.1696 59.648,31.9872 60.0896,31.9872 C60.5888,31.9872 61.0064,32.1744 61.3424,32.5488 C61.6784,32.9232 61.8464,33.3312 61.8464,33.7728 C61.8464,34.272 61.6832,34.6848 61.3568,35.0112 C61.0112,35.3568 60.5888,35.5296 60.0896,35.5296 Z M57.6992,33.7728 L57.6992,30 L38,30 L38,31.44 L53.696,31.44 L53.696,49.3248 C53.696,49.3632 53.4752,49.4016 53.0336,49.44 C52.5728,49.4784 51.9776,49.5456 51.248,49.6416 C50.5184,49.7568 49.6832,49.9104 48.7424,50.1024 C47.8016,50.2944 46.8416,50.5536 45.8624,50.88 C44.864,51.2256 43.8944,51.648 42.9536,52.1472 C42.0128,52.6464 41.1776,53.2512 40.448,53.9616 C39.7184,54.6912 39.1328,55.536 38.6912,56.496 C38.2304,57.456 38,58.56 38,59.808 C38,61.248 38.24,62.5536 38.72,63.7248 C39.1808,64.896 39.8432,65.8944 40.7072,66.72 C41.5712,67.5648 42.608,68.208 43.8176,68.6496 C45.0272,69.1104 46.3712,69.3408 47.8496,69.3408 C51.0176,69.3408 53.456,68.6688 55.1648,67.3248 C56.8544,66 57.6992,64.0704 57.6992,61.536 C57.6992,60.5568 57.4976,59.6448 57.0944,58.8 C56.6912,57.9552 56.1536,57.2256 55.4816,56.6112 C54.8096,55.9968 54.0224,55.5168 53.12,55.1712 C52.1984,54.8256 51.2384,54.6528 50.24,54.6528 C49.3184,54.6528 48.4736,54.7776 47.7056,55.0272 C46.9376,55.296 46.2752,55.6608 45.7184,56.1216 C45.1424,56.5824 44.7008,57.1296 44.3936,57.7632 C44.0672,58.3968 43.904,59.0784 43.904,59.808 C43.904,60.7488 44.0672,61.5168 44.3936,62.112 C44.72,62.7072 45.1232,63.168 45.6032,63.4944 C46.0832,63.84 46.6016,64.0704 47.1584,64.1856 C47.7152,64.3008 48.224,64.3584 48.6848,64.3584 C49.1264,64.3776 49.4816,64.3584 49.7504,64.3008 C50.0192,64.2432 50.1152,64.1952 50.0384,64.1568 C49.3088,63.8496 48.7136,63.5808 48.2528,63.3504 C47.792,63.1392 47.4272,62.8992 47.1584,62.6304 C46.8896,62.3808 46.7072,62.064 46.6112,61.68 C46.496,61.3152 46.4384,60.8256 46.4384,60.2112 C46.4384,59.7312 46.544,59.2704 46.7552,58.8288 C46.9664,58.4064 47.2544,58.032 47.6192,57.7056 C47.984,57.3984 48.416,57.1488 48.9152,56.9568 C49.3952,56.784 49.9136,56.6976 50.4704,56.6976 C51.104,56.6976 51.6896,56.8224 52.2272,57.072 C52.7648,57.3216 53.2304,57.6624 53.624,58.0944 C54.0176,58.5264 54.3296,59.0304 54.56,59.6064 C54.7712,60.2016 54.8768,60.8448 54.8768,61.536 C54.8768,62.5728 54.6944,63.4944 54.3296,64.3008 C53.9648,65.1072 53.4656,65.7792 52.832,66.3168 C52.1984,66.8736 51.4496,67.2864 50.5856,67.5552 C49.7024,67.8432 48.752,67.9872 47.7344,67.9872 C47.0624,67.9872 46.3616,67.8336 45.632,67.5264 C44.8832,67.2384 44.2016,66.7776 43.5872,66.144 C42.9728,65.5104 42.4736,64.704 42.0896,63.7248 C41.6864,62.7456 41.4848,61.5744 41.4848,60.2112 C41.4848,58.9824 41.7152,57.9072 42.176,56.9856 C42.6368,56.064 43.2512,55.2576 44.0192,54.5664 C44.7872,53.8944 45.6608,53.3184 46.64,52.8384 C47.6,52.3776 48.5888,51.9936 49.6064,51.6864 C50.6048,51.3792 51.5936,51.1392 52.5728,50.9664 C53.5328,50.8128 54.3968,50.6976 55.1648,50.6208 C55.9328,50.544 56.5472,50.496 57.008,50.4768 L57.008,50.4768 L57.6992,50.448 L57.6992,33.7728 L57.6992,33.7728 Z" id="d" fill="#FFFFFF" fill-rule="nonzero"></path>
    </g>
</svg>