<?xml version="1.0" encoding="UTF-8"?>
<svg width="100px" height="100px" viewBox="0 0 100 100" version="1.1" xmlns="http://www.w3.org/2000/svg" xmlns:xlink="http://www.w3.org/1999/xlink">
    <!-- Generator: Sketch 61.1 (89650) - https://sketch.com -->
    <title>u</title>
    <desc>Created with Sketch.</desc>
    <g id="u" stroke="none" stroke-width="1" fill="none" fill-rule="evenodd">
        <path d="M59.6992,72.8784 L59.6992,63 C59.6992,62.9616 59.5504,62.9088 59.2528,62.8416 L59.0656,62.797248 C58.80448,62.732736 58.49728,62.64672 58.144,62.5392 C57.7024,62.4048 57.2176,62.232 56.6896,62.0208 C56.1616,61.8096 55.6768,61.5312 55.2352,61.1856 C54.7936,60.84 54.424,60.4224 54.1264,59.9328 C53.8288,59.4432 53.68,58.8528 53.68,58.1616 C53.68,57.4896 53.8288,56.9088 54.1264,56.4192 C54.424,55.9296 54.7936,55.5072 55.2352,55.152 C55.6768,54.7968 56.1616,54.504 56.6896,54.2736 C57.2176,54.0432 57.7024,53.8512 58.144,53.6976 C58.5856,53.544 58.9552,53.4288 59.2528,53.352 C59.5504,53.2752 59.6992,53.208 59.6992,53.1504 L59.6992,53.1504 L59.6992,23.6592 L40,23.6592 L40,25.0992 L55.696,25.0992 L55.696,53.1504 C54.5824,53.2656 53.584,53.5152 52.7008,53.8992 C52.3168,54.072 51.9472,54.2784 51.592,54.5184 C51.2368,54.7584 50.9248,55.0512 50.656,55.3968 C50.3872,55.7424 50.1664,56.1456 49.9936,56.6064 C49.8208,57.0672 49.7344,57.5856 49.7344,58.1616 C49.7344,58.9296 49.8832,59.5728 50.1808,60.0912 C50.4784,60.6096 50.848,61.0368 51.2896,61.3728 C51.7312,61.7088 52.2064,61.9776 52.7152,62.1792 C53.224,62.3808 53.6992,62.5344 54.1408,62.64 C54.5824,62.7456 54.952,62.8224 55.2496,62.8704 C55.5472,62.9184 55.696,62.9712 55.696,63.0288 L55.696,63.0288 L55.696,72.8784 L59.6992,72.8784 Z" id="w" fill="#FFFFFF" fill-rule="nonzero"></path>
    </g>
</svg>