<?xml version="1.0" encoding="UTF-8"?>
<svg width="100px" height="100px" viewBox="0 0 100 100" version="1.1" xmlns="http://www.w3.org/2000/svg" xmlns:xlink="http://www.w3.org/1999/xlink">
    <!-- Generator: Sketch 61.1 (89650) - https://sketch.com -->
    <title>um</title>
    <desc>Created with Sketch.</desc>
    <g id="um" stroke="none" stroke-width="1" fill="none" fill-rule="evenodd">
        <path d="M57.6992,28.7728 L57.707264,28.976704 C57.728768,29.243968 57.79328,29.4928 57.9008,29.7232 C58.0352,30.0304 58.2128,30.2944 58.4336,30.5152 C58.6544,30.736 58.9184,30.904 59.2256,31.0192 C59.5136,31.1536 59.8208,31.2208 60.1472,31.2208 C60.4928,31.2208 60.8192,31.1536 61.1264,31.0192 C61.4336,30.8848 61.7024,30.7024 61.9328,30.472 C62.144,30.2416 62.3168,29.9728 62.4512,29.6656 C62.5856,29.3776 62.6528,29.0704 62.6528,28.744 C62.6528,28.072 62.4128,27.5056 61.9328,27.0448 C61.4336,26.584 60.8384,26.3536 60.1472,26.3536 C59.8208,26.3536 59.5136,26.4208 59.2256,26.5552 C58.9184,26.6896 58.6592,26.8624 58.448,27.0736 C58.2176,27.304 58.0352,27.5632 57.9008,27.8512 C57.7664,28.1584 57.6992,28.4656 57.6992,28.7728 L57.6992,28.7728 Z M60.1472,30.5296 C59.6864,30.5296 59.2736,30.3568 58.9088,30.0112 C58.544,29.6848 58.3616,29.272 58.3616,28.7728 C58.3616,28.5424 58.4096,28.3216 58.5056,28.1104 C58.6016,27.8992 58.736,27.7072 58.9088,27.5344 C59.0816,27.3808 59.2736,27.2464 59.4848,27.1312 C59.696,27.0352 59.9168,26.9872 60.1472,26.9872 C60.3776,26.9872 60.608,27.0352 60.8384,27.1312 C61.0496,27.2464 61.2368,27.3856 61.4,27.5488 C61.5632,27.712 61.6928,27.8992 61.7888,28.1104 C61.8848,28.3216 61.9328,28.5424 61.9328,28.7728 C61.9328,29.272 61.76,29.6848 61.4144,30.0112 C61.0496,30.3568 60.6272,30.5296 60.1472,30.5296 Z M57.6992,28.7728 L57.6992,25 L38,25 L38,26.44 L53.8112,26.44 L53.8112,54.4912 C52.6784,54.6064 51.6704,54.856 50.7872,55.24 C50.4032,55.4128 50.0288,55.6144 49.664,55.8448 C49.2992,56.0944 48.9824,56.392 48.7136,56.7376 C48.4256,57.0832 48.1952,57.4864 48.0224,57.9472 C47.8496,58.408 47.7632,58.9264 47.7632,59.5024 C47.7632,60.2704 47.9168,60.9136 48.224,61.432 C48.512,61.9504 48.8864,62.3728 49.3472,62.6992 C49.7888,63.0448 50.2688,63.3136 50.7872,63.5056 C51.3056,63.7168 51.7952,63.8704 52.256,63.9664 C52.6976,64.0816 53.072,64.1584 53.3792,64.1968 C53.6672,64.2544 53.8112,64.312 53.8112,64.3696 L53.8112,64.3696 L53.8112,74.2192 L57.6992,74.2192 L57.6992,64.3408 C57.6992,64.3024 57.5552,64.2448 57.2672,64.168 C56.9792,64.1104 56.6144,64.0144 56.1728,63.88 C55.7312,63.7456 55.2608,63.5728 54.7616,63.3616 C54.2432,63.1504 53.7632,62.872 53.3216,62.5264 C52.88,62.1808 52.5152,61.7584 52.2272,61.2592 C51.9392,60.7792 51.7952,60.1936 51.7952,59.5024 C51.7952,58.8304 51.9392,58.2448 52.2272,57.7456 C52.5152,57.2656 52.88,56.8432 53.3216,56.4784 C53.7632,56.1328 54.2432,55.8448 54.7616,55.6144 C55.2608,55.384 55.7312,55.192 56.1728,55.0384 C56.6144,54.8848 56.9792,54.7696 57.2672,54.6928 C57.5552,54.616 57.6992,54.5488 57.6992,54.4912 L57.6992,54.4912 L57.6992,28.7728 L57.6992,28.7728 Z" id="k" fill="#FFFFFF" fill-rule="nonzero"></path>
    </g>
</svg>