<?xml version="1.0" encoding="UTF-8"?>
<svg width="100px" height="100px" viewBox="0 0 100 100" version="1.1" xmlns="http://www.w3.org/2000/svg" xmlns:xlink="http://www.w3.org/1999/xlink">
    <!-- Generator: Sketch 61.1 (89650) - https://sketch.com -->
    <title>ung</title>
    <desc>Created with Sketch.</desc>
    <g id="ung" stroke="none" stroke-width="1" fill="none" fill-rule="evenodd">
        <path d="M56.2832,76.704 C57.7232,76.6464 59.0384,76.4064 60.2288,75.984 C60.7472,75.8112 61.2608,75.5856 61.7696,75.3072 C62.2784,75.0288 62.7488,74.6928 63.1808,74.2992 C63.6128,73.9056 63.992,73.4448 64.3184,72.9168 C64.6448,72.3888 64.8752,71.7696 65.0096,71.0592 C65.24,69.8304 65.2928,68.808 65.168,67.992 C65.0432,67.176 64.8128,66.528 64.4768,66.048 C64.1408,65.568 63.7424,65.232 63.2816,65.04 C62.8208,64.848 62.3888,64.752 61.9856,64.752 C60.6224,64.752 59.48,64.9968 58.5584,65.4864 C57.6368,65.976 56.888,66.5088 56.312,67.0848 C55.64,67.776 55.1024,68.5536 54.6992,69.4176 L54.6992,69.4176 L54.6992,63.3408 C54.6992,63.3024 54.5504,63.2496 54.2528,63.1824 L54.0656,63.138048 C53.80448,63.073536 53.49728,62.98752 53.144,62.88 C52.7024,62.7456 52.2176,62.5728 51.6896,62.3616 C51.1616,62.1504 50.6768,61.872 50.2352,61.5264 C49.7936,61.1808 49.424,60.7632 49.1264,60.2736 C48.8288,59.784 48.68,59.1936 48.68,58.5024 C48.68,57.8304 48.8288,57.2496 49.1264,56.76 C49.424,56.2704 49.7936,55.848 50.2352,55.4928 C50.6768,55.1376 51.1616,54.8448 51.6896,54.6144 C52.2176,54.384 52.7024,54.192 53.144,54.0384 C53.5856,53.8848 53.9552,53.7696 54.2528,53.6928 C54.5504,53.616 54.6992,53.5488 54.6992,53.4912 L54.6992,53.4912 L54.6992,24 L35,24 L35,25.44 L50.696,25.44 L50.696,53.4912 C49.5824,53.6064 48.584,53.856 47.7008,54.24 C47.3168,54.4128 46.9472,54.6192 46.592,54.8592 C46.2368,55.0992 45.9248,55.392 45.656,55.7376 C45.3872,56.0832 45.1664,56.4864 44.9936,56.9472 C44.8208,57.408 44.7344,57.9264 44.7344,58.5024 C44.7344,59.2512 44.8832,59.8896 45.1808,60.4176 C45.4784,60.9456 45.848,61.3776 46.2896,61.7136 C46.7312,62.0496 47.2064,62.3184 47.7152,62.52 C48.224,62.7216 48.6992,62.8752 49.1408,62.9808 C49.5824,63.0864 49.952,63.1632 50.2496,63.2112 C50.5472,63.2592 50.696,63.312 50.696,63.3696 L50.696,63.3696 L50.696,72.096 L54.6992,72.096 C54.7184,72.096 54.8384,71.904 55.0592,71.52 C55.28,71.136 55.6064,70.7088 56.0384,70.2384 C56.4704,69.768 56.9984,69.3408 57.6224,68.9568 C58.2464,68.5728 58.9616,68.3808 59.768,68.3808 C60.248,68.3808 60.6224,68.4864 60.8912,68.6976 C61.16,68.9088 61.352,69.1776 61.4672,69.504 C61.5824,69.8304 61.6304,70.2048 61.6112,70.6272 C61.592,71.0496 61.5248,71.4624 61.4096,71.8656 C61.2944,72.2688 61.1456,72.6528 60.9632,73.0176 C60.7808,73.3824 60.584,73.68 60.3728,73.9104 C59.8736,74.448 59.384,74.8944 58.904,75.2496 C58.424,75.6048 57.992,75.888 57.608,76.0992 C57.1472,76.3488 56.7056,76.5504 56.2832,76.704 Z" id="Î" fill="#FFFFFF" fill-rule="nonzero"></path>
    </g>
</svg>