<?xml version="1.0" encoding="UTF-8"?>
<svg width="100px" height="100px" viewBox="0 0 100 100" version="1.1" xmlns="http://www.w3.org/2000/svg" xmlns:xlink="http://www.w3.org/1999/xlink">
    <!-- Generator: Sketch 61.1 (89650) - https://sketch.com -->
    <title>va</title>
    <desc>Created with Sketch.</desc>
    <g id="va" stroke="none" stroke-width="1" fill="none" fill-rule="evenodd">
        <path d="M59.6992,72.8208 L59.6992,71.4384 L49.5328,71.4384 C49.1296,71.4384 48.6064,71.3616 47.9632,71.208 C47.32,71.0544 46.696,70.8144 46.0912,70.488 C45.4864,70.1616 44.9632,69.7392 44.5216,69.2208 C44.08,68.7024 43.8592,68.0688 43.8592,67.32 C43.8592,66.4944 44.0512,65.8032 44.4352,65.2464 C44.8192,64.6896 45.2944,64.2432 45.8608,63.9072 C46.4272,63.5712 47.032,63.336 47.6752,63.2016 C48.3184,63.0672 48.8896,63 49.3888,63 L49.3888,63 L59.6992,63 L59.6992,23.6592 L40,23.6592 L40,25.0992 L55.696,25.0992 L55.696,61.6464 L55.696,61.6464 L48.6112,61.6464 C48.112,61.6464 47.5552,61.6896 46.9408,61.776 C46.3264,61.8624 45.7024,62.0016 45.0688,62.1936 C44.4352,62.3856 43.816,62.6304 43.2112,62.928 C42.6064,63.2256 42.064,63.5808 41.584,63.9936 C41.104,64.4064 40.72,64.8864 40.432,65.4336 C40.144,65.9808 40,66.5904 40,67.2624 C40,68.2416 40.312,69.0816 40.936,69.7824 C41.56,70.4832 42.3328,71.0592 43.2544,71.5104 C44.176,71.9616 45.1552,72.2928 46.192,72.504 C47.2288,72.7152 48.1696,72.8208 49.0144,72.8208 L49.0144,72.8208 L59.6992,72.8208 Z M53.824,70.0272 C54.1696,70.0272 54.4912,69.96 54.7888,69.8256 C55.0864,69.6912 55.3504,69.5088 55.5808,69.2784 C55.8112,69.048 55.9888,68.7792 56.1136,68.472 C56.2384,68.1648 56.3008,67.848 56.3008,67.5216 C56.3008,66.8688 56.0608,66.3168 55.5808,65.8656 C55.1008,65.4144 54.5152,65.1888 53.824,65.1888 C53.152,65.1888 52.5712,65.4192 52.0816,65.88 C51.592,66.3408 51.3472,66.9168 51.3472,67.608 C51.3472,68.28 51.592,68.8512 52.0816,69.3216 C52.5712,69.792 53.152,70.0272 53.824,70.0272 Z" id="(" fill="#FFFFFF" fill-rule="nonzero"></path>
    </g>
</svg>