<?xml version="1.0" encoding="UTF-8"?>
<svg width="100px" height="100px" viewBox="0 0 100 100" version="1.1" xmlns="http://www.w3.org/2000/svg" xmlns:xlink="http://www.w3.org/1999/xlink">
    <!-- Generator: Sketch 61.1 (89650) - https://sketch.com -->
    <title>vi</title>
    <desc>Created with Sketch.</desc>
    <g id="vi" stroke="none" stroke-width="1" fill="none" fill-rule="evenodd">
        <path d="M59.6992,74.1616 L59.6992,72.7792 L49.5328,72.7792 C49.1296,72.7792 48.64,72.712 48.064,72.5776 C47.488,72.4432 46.912,72.232 46.336,71.944 C45.76,71.656 45.2368,71.2816 44.7664,70.8208 C44.296,70.36 43.9744,69.8032 43.8016,69.1504 L43.8016,69.1504 L54.832,69.1504 L54.832,67.7968 C54.2944,67.7968 53.584,67.792 52.7008,67.7824 C51.8176,67.7728 50.9008,67.768 49.9504,67.768 C49,67.768 48.0784,67.7632 47.1856,67.7536 C46.2928,67.744 45.5584,67.7392 44.9824,67.7392 L43.9168,67.7392 C44.0512,67.1056 44.3296,66.5728 44.752,66.1408 C45.1744,65.7088 45.6544,65.3584 46.192,65.0896 C46.7296,64.8208 47.2816,64.6288 47.848,64.5136 C48.4144,64.3984 48.928,64.3408 49.3888,64.3408 L49.3888,64.3408 L59.6992,64.3408 L59.6992,25 L40,25 L40,26.44 L55.696,26.44 L55.696,62.9872 L55.696,62.9872 L48.6112,62.9872 C48.112,62.9872 47.5552,63.0304 46.9408,63.1168 C46.3264,63.2032 45.7024,63.3424 45.0688,63.5344 C44.4352,63.7264 43.816,63.9712 43.2112,64.2688 C42.6064,64.5664 42.064,64.9216 41.584,65.3344 C41.104,65.7472 40.72,66.2272 40.432,66.7744 C40.144,67.3216 40,67.9312 40,68.6032 C40,69.5824 40.312,70.4224 40.936,71.1232 C41.56,71.824 42.3328,72.4 43.2544,72.8512 C44.176,73.3024 45.1552,73.6336 46.192,73.8448 C47.2288,74.056 48.1696,74.1616 49.0144,74.1616 L49.0144,74.1616 L59.6992,74.1616 Z" id="Å" fill="#FFFFFF" fill-rule="nonzero"></path>
    </g>
</svg>