<?xml version="1.0" encoding="UTF-8"?>
<svg width="100px" height="100px" viewBox="0 0 100 100" version="1.1" xmlns="http://www.w3.org/2000/svg" xmlns:xlink="http://www.w3.org/1999/xlink">
    <!-- Generator: Sketch 61.1 (89650) - https://sketch.com -->
    <title>vum</title>
    <desc>Created with Sketch.</desc>
    <g id="vum" stroke="none" stroke-width="1" fill="none" fill-rule="evenodd">
        <path d="M64.4336,74.1616 L64.4336,72.7792 L44.5328,72.7792 C44.1296,72.7792 43.6064,72.7024 42.9632,72.5488 C42.32,72.3952 41.696,72.1552 41.0912,71.8288 C40.4864,71.5024 39.9632,71.08 39.5216,70.5616 C39.08,70.0432 38.8592,69.4096 38.8592,68.6608 C38.8592,67.8352 39.0512,67.144 39.4352,66.5872 C39.8192,66.0304 40.2944,65.584 40.8608,65.248 C41.4272,64.912 42.032,64.6768 42.6752,64.5424 C43.3184,64.408 43.8896,64.3408 44.3888,64.3408 L44.3888,64.3408 L54.6992,64.3408 L54.6992,25 L35,25 L35,26.44 L50.696,26.44 L50.696,62.9872 L50.696,62.9872 L43.6112,62.9872 C43.112,62.9872 42.5552,63.0304 41.9408,63.1168 C41.3264,63.2032 40.7024,63.3424 40.0688,63.5344 C39.4352,63.7264 38.816,63.9712 38.2112,64.2688 C37.6064,64.5664 37.064,64.9216 36.584,65.3344 C36.104,65.7472 35.72,66.2272 35.432,66.7744 C35.144,67.3216 35,67.9312 35,68.6032 C35,69.5824 35.312,70.4224 35.936,71.1232 C36.56,71.824 37.3328,72.4 38.2544,72.8512 C39.176,73.3024 40.1552,73.6336 41.192,73.8448 C42.2288,74.056 43.1696,74.1616 44.0144,74.1616 L44.0144,74.1616 L64.4336,74.1616 Z" id="9" fill="#FFFFFF" fill-rule="nonzero"></path>
    </g>
</svg>