<?xml version="1.0" encoding="UTF-8"?>
<svg width="100px" height="100px" viewBox="0 0 100 100" version="1.1" xmlns="http://www.w3.org/2000/svg" xmlns:xlink="http://www.w3.org/1999/xlink">
    <!-- Generator: Sketch 61.1 (89650) - https://sketch.com -->
    <title>wa</title>
    <desc>Created with Sketch.</desc>
    <g id="wa" stroke="none" stroke-width="1" fill="none" fill-rule="evenodd">
        <path d="M58.6992,74.2192 L58.6992,64.3408 C58.6992,64.3024 58.5504,64.2496 58.2528,64.1824 L58.0656,64.138048 C57.80448,64.073536 57.49728,63.98752 57.144,63.88 C56.7024,63.7456 56.2176,63.5728 55.6896,63.3616 C55.1616,63.1504 54.6768,62.872 54.2352,62.5264 C53.7936,62.1808 53.424,61.7632 53.1264,61.2736 C52.8288,60.784 52.68,60.1936 52.68,59.5024 C52.68,58.8304 52.8288,58.2496 53.1264,57.76 C53.424,57.2704 53.7936,56.848 54.2352,56.4928 C54.6768,56.1376 55.1616,55.8448 55.6896,55.6144 C56.2176,55.384 56.7024,55.192 57.144,55.0384 C57.5856,54.8848 57.9552,54.7696 58.2528,54.6928 C58.5504,54.616 58.6992,54.5488 58.6992,54.4912 L58.6992,54.4912 L58.6992,25 L39,25 L39,26.44 L54.696,26.44 L54.696,54.4912 C53.5824,54.6064 52.584,54.856 51.7008,55.24 C51.3168,55.4128 50.9472,55.6192 50.592,55.8592 C50.2368,56.0992 49.9248,56.392 49.656,56.7376 C49.3872,57.0832 49.1664,57.4864 48.9936,57.9472 C48.8208,58.408 48.7344,58.9264 48.7344,59.5024 C48.7344,60.2704 48.8832,60.9136 49.1808,61.432 C49.4784,61.9504 49.848,62.3776 50.2896,62.7136 C50.7312,63.0496 51.2064,63.3184 51.7152,63.52 C52.224,63.7216 52.6992,63.8752 53.1408,63.9808 C53.5824,64.0864 53.952,64.1632 54.2496,64.2112 C54.5472,64.2592 54.696,64.312 54.696,64.3696 L54.696,64.3696 L54.696,74.2192 L58.6992,74.2192 Z M58.728,61.8928 C59.0544,61.8928 59.3664,61.8256 59.664,61.6912 C59.9616,61.5568 60.2208,61.3744 60.4416,61.144 C60.6624,60.9136 60.84,60.6496 60.9744,60.352 C61.1088,60.0544 61.176,59.7328 61.176,59.3872 C61.176,59.08 61.1088,58.7824 60.9744,58.4944 C60.84,58.2064 60.6624,57.9568 60.4416,57.7456 C60.2208,57.5344 59.9616,57.3664 59.664,57.2416 C59.3664,57.1168 59.0544,57.0544 58.728,57.0544 C58.3824,57.0544 58.0608,57.1216 57.7632,57.256 C57.4656,57.3904 57.2064,57.568 56.9856,57.7888 C56.7648,58.0096 56.5872,58.2688 56.4528,58.5664 C56.3184,58.864 56.2512,59.176 56.2512,59.5024 C56.2512,60.1744 56.496,60.7408 56.9856,61.2016 C57.4752,61.6624 58.056,61.8928 58.728,61.8928 Z" id="Ã" fill="#FFFFFF" fill-rule="nonzero"></path>
    </g>
</svg>