<?xml version="1.0" encoding="UTF-8"?>
<svg width="100px" height="100px" viewBox="0 0 100 100" version="1.1" xmlns="http://www.w3.org/2000/svg" xmlns:xlink="http://www.w3.org/1999/xlink">
    <!-- Generator: Sketch 61.1 (89650) - https://sketch.com -->
    <title>xsu</title>
    <desc>Created with Sketch.</desc>
    <g id="xsu" stroke="none" stroke-width="1" fill="none" fill-rule="evenodd">
        <path d="M48.8384,73.141056 L49.1552,73.1376 C49.6832,73.1184 50.168,73.0416 50.6096,72.9072 C51.0512,72.7728 51.4064,72.6096 51.6752,72.4176 C51.4448,72.3792 51.1136,72.3312 50.6816,72.2736 C50.2496,72.216 49.8128,72.0912 49.3712,71.8992 C48.9296,71.7072 48.5456,71.4192 48.2192,71.0352 C47.8928,70.6512 47.7296,70.1136 47.7296,69.4224 C47.7296,68.8272 47.864,68.3328 48.1328,67.9392 C48.4016,67.5456 48.7424,67.2288 49.1552,66.9888 C49.568,66.7488 50.0144,66.5664 50.4944,66.4416 C50.9744,66.3168 51.416,66.2256 51.8192,66.168 C53.1824,65.9952 54.3152,65.6688 55.2176,65.1888 C56.12,64.7088 56.8496,64.1616 57.4064,63.5472 C57.9632,62.9328 58.3808,62.2944 58.6592,61.632 C58.9376,60.9696 59.1344,60.3648 59.2496,59.8176 C59.3648,59.2704 59.432,58.8192 59.4512,58.464 C59.4704,58.1088 59.4896,57.9312 59.5088,57.9312 L59.5088,57.9312 L65.9024,57.9312 L65.9024,56.52 L43.6976,56.52 C43.736,55.2912 43.9904,54.2208 44.4608,53.3088 C44.9312,52.3968 45.536,51.6096 46.2752,50.9472 C47.0144,50.2848 47.8544,49.7328 48.7952,49.2912 C49.736,48.8496 50.696,48.4848 51.6752,48.1968 C52.6544,47.9088 53.6144,47.6976 54.5552,47.5632 C55.496,47.4288 56.3312,47.328 57.0608,47.2608 C57.7904,47.1936 58.376,47.16 58.8176,47.16 C59.2592,47.16 59.48,47.1504 59.48,47.1312 L59.48,47.1312 L59.48,27 L39.7808,27 L39.7808,28.44 L55.4768,28.44 L55.4768,46.1232 C55.4768,46.1616 55.2512,46.1904 54.8,46.2096 C54.3488,46.2288 53.7584,46.2816 53.0288,46.368 C52.2992,46.4544 51.464,46.5792 50.5232,46.7424 C49.5824,46.9056 48.6176,47.1456 47.6288,47.4624 C46.64,47.7792 45.6752,48.1824 44.7344,48.672 C43.7936,49.1616 42.9584,49.7664 42.2288,50.4864 C41.4992,51.2064 40.9088,52.0608 40.4576,53.0496 C40.0064,54.0384 39.7808,55.1952 39.7808,56.52 L39.7808,56.52 L35,56.52 L35,57.9312 L39.8096,57.9312 C39.944,58.9104 40.1984,59.8512 40.5728,60.7536 C40.9472,61.656 41.4464,62.472 42.0704,63.2016 C42.6944,63.9312 43.4432,64.5552 44.3168,65.0736 C45.1904,65.592 46.2032,65.9568 47.3552,66.168 C46.3952,66.552 45.6944,67.0032 45.2528,67.5216 C44.8112,68.04 44.6,68.6736 44.6192,69.4224 C44.6192,70.152 44.7632,70.7568 45.0512,71.2368 C45.3392,71.7168 45.6992,72.1008 46.1312,72.3888 C46.5632,72.6768 47.0432,72.8784 47.5712,72.9936 C48.0992,73.1088 48.6272,73.1568 49.1552,73.1376 L48.8384,73.141056 Z M49.4864,64.9872 C48.6608,64.9872 47.912,64.7904 47.24,64.3968 C46.568,64.0032 45.9872,63.48 45.4976,62.8272 C45.008,62.1744 44.6144,61.4208 44.3168,60.5664 C44.0192,59.712 43.8224,58.8336 43.7264,57.9312 L43.7264,57.9312 L55.2752,57.9312 C55.2944,57.9312 55.3184,58.104 55.3472,58.4496 C55.376,58.7952 55.3568,59.232 55.2896,59.76 C55.2224,60.288 55.088,60.8544 54.8864,61.4592 C54.6848,62.064 54.3632,62.6304 53.9216,63.1584 C53.48,63.6864 52.8992,64.1232 52.1792,64.4688 C51.4592,64.8144 50.5616,64.9872 49.4864,64.9872 Z" id="â„" fill="#FFFFFF" fill-rule="nonzero"></path>
    </g>
</svg>