<?xml version="1.0" encoding="UTF-8"?>
<svg width="100px" height="100px" viewBox="0 0 100 100" version="1.1" xmlns="http://www.w3.org/2000/svg" xmlns:xlink="http://www.w3.org/1999/xlink">
    <!-- Generator: Sketch 61.1 (89650) - https://sketch.com -->
    <title>ya</title>
    <desc>Created with Sketch.</desc>
    <g id="ya" stroke="none" stroke-width="1" fill="none" fill-rule="evenodd">
        <path d="M74.0464,56.344 L74.0464,54.8176 L51.5536,54.8176 L51.5536,45.6592 L25,45.6592 L25,47.0992 L47.464,47.0992 L47.464,56.344 L74.0464,56.344 Z M49.5664,61.9888 C49.912,61.9888 50.2336,61.8736 50.5312,61.6432 C50.8288,61.4128 51.0928,61.1536 51.3232,60.8656 C51.5536,60.5776 51.736,60.2992 51.8704,60.0304 C52.0048,59.7616 52.072,59.5792 52.072,59.4832 C52.072,59.1376 52.0048,58.816 51.8704,58.5184 C51.736,58.2208 51.5536,57.9616 51.3232,57.7408 C51.0928,57.52 50.8288,57.3472 50.5312,57.2224 C50.2336,57.0976 49.912,57.0352 49.5664,57.0352 C49.24,57.0352 48.928,57.1024 48.6304,57.2368 C48.3328,57.3712 48.0688,57.5536 47.8384,57.784 C47.608,58.0144 47.4256,58.2784 47.2912,58.576 C47.1568,58.8736 47.0896,59.1952 47.0896,59.5408 C47.0896,59.8672 47.1568,60.1792 47.2912,60.4768 C47.4256,60.7744 47.608,61.0336 47.8384,61.2544 C48.0688,61.4752 48.3328,61.6528 48.6304,61.7872 C48.928,61.9216 49.24,61.9888 49.5664,61.9888 Z" id="^" fill="#FFFFFF" fill-rule="nonzero"></path>
    </g>
</svg>