<?xml version="1.0" encoding="UTF-8"?>
<svg width="100px" height="100px" viewBox="0 0 100 100" version="1.1" xmlns="http://www.w3.org/2000/svg" xmlns:xlink="http://www.w3.org/1999/xlink">
    <!-- Generator: Sketch 61.1 (89650) - https://sketch.com -->
    <title>yaf</title>
    <desc>Created with Sketch.</desc>
    <g id="yaf" stroke="none" stroke-width="1" fill="none" fill-rule="evenodd">
        <path d="M78.0464,51.344 L78.0464,49.8176 L55.5536,49.8176 L55.5536,40.6592 L29,40.6592 L29,42.0992 L51.464,42.0992 L51.464,51.344 L78.0464,51.344 Z M53.5664,56.9888 C53.912,56.9888 54.2336,56.8736 54.5312,56.6432 C54.8288,56.4128 55.0928,56.1536 55.3232,55.8656 C55.5536,55.5776 55.736,55.2992 55.8704,55.0304 C56.0048,54.7616 56.072,54.5792 56.072,54.4832 C56.072,54.1376 56.0048,53.816 55.8704,53.5184 C55.736,53.2208 55.5536,52.9616 55.3232,52.7408 C55.0928,52.52 54.8288,52.3472 54.5312,52.2224 C54.2336,52.0976 53.912,52.0352 53.5664,52.0352 C53.24,52.0352 52.928,52.1024 52.6304,52.2368 C52.3328,52.3712 52.0688,52.5536 51.8384,52.784 C51.608,53.0144 51.4256,53.2784 51.2912,53.576 C51.1568,53.8736 51.0896,54.1952 51.0896,54.5408 C51.0896,54.8672 51.1568,55.1792 51.2912,55.4768 C51.4256,55.7744 51.608,56.0336 51.8384,56.2544 C52.0688,56.4752 52.3328,56.6528 52.6304,56.7872 C52.928,56.9216 53.24,56.9888 53.5664,56.9888 Z M51.176,64.2752 C51.7712,64.2752 52.3184,64.088 52.8176,63.7136 C53.3168,63.3392 53.7488,62.8832 54.1136,62.3456 C54.4784,61.808 54.7616,61.2512 54.9632,60.6752 C55.1648,60.0992 55.2656,59.6096 55.2656,59.2064 C55.2656,58.8032 55.1456,58.5152 54.9056,58.3424 C54.6656,58.1696 54.3776,58.064 54.0416,58.0256 C53.7056,57.9872 53.3552,58.0112 52.9904,58.0976 C52.6256,58.184 52.3136,58.2752 52.0544,58.3712 C51.7952,58.4672 51.6224,58.5632 51.536,58.6592 C51.4496,58.7552 51.5216,58.8032 51.752,58.8032 C51.9056,58.8032 52.1072,58.7792 52.3568,58.7312 C52.6064,58.6832 52.8464,58.6592 53.0768,58.6592 C53.3072,58.6592 53.5088,58.7216 53.6816,58.8464 C53.8544,58.9712 53.9408,59.2064 53.9408,59.552 C53.9408,60.2624 53.7776,60.9056 53.4512,61.4816 C53.1248,62.0576 52.7744,62.552 52.4,62.9648 C52.0256,63.3776 51.704,63.6992 51.4352,63.9296 C51.1664,64.16 51.08,64.2752 51.176,64.2752 Z" id="Ó" fill="#FFFFFF" fill-rule="nonzero"></path>
    </g>
</svg>