<?xml version="1.0" encoding="UTF-8"?>
<svg width="100px" height="100px" viewBox="0 0 100 100" version="1.1" xmlns="http://www.w3.org/2000/svg" xmlns:xlink="http://www.w3.org/1999/xlink">
    <!-- Generator: Sketch 61.1 (89650) - https://sketch.com -->
    <title>yu</title>
    <desc>Created with Sketch.</desc>
    <g id="yu" stroke="none" stroke-width="1" fill="none" fill-rule="evenodd">
        <path d="M52.0144,59.7568 C51.976,59.7376 51.8128,59.704 51.5248,59.656 C51.2368,59.608 50.8864,59.5264 50.4736,59.4112 C50.0608,59.296 49.6144,59.1376 49.1344,58.936 C48.6544,58.7344 48.2128,58.4608 47.8096,58.1152 C47.4064,57.7696 47.0704,57.3424 46.8016,56.8336 C46.5328,56.3248 46.3984,55.7152 46.3984,55.0048 C46.3984,54.2368 46.5952,53.5792 46.9888,53.032 C47.3824,52.4848 47.8768,52.0384 48.472,51.6928 C49.0672,51.3472 49.696,51.0928 50.3584,50.9296 C51.0208,50.7664 51.6304,50.6848 52.1872,50.6848 L52.1872,50.6848 L74.0464,50.6848 L74.0464,49.1584 L51.5536,49.1584 L51.5536,40 L25,40 L25,41.44 L47.464,41.44 L47.464,50.6848 C47.4352,50.6944 47.38,50.7088 47.2984,50.728 L46.9744,50.8 C46.7056,50.8576 46.3792,50.9536 45.9952,51.088 C45.6112,51.2224 45.2032,51.3952 44.7712,51.6064 C44.3392,51.8176 43.936,52.0768 43.5616,52.384 C43.1872,52.6912 42.88,53.056 42.64,53.4784 C42.4,53.9008 42.28,54.3808 42.28,54.9184 C42.28,55.5904 42.4192,56.176 42.6976,56.6752 C42.976,57.1744 43.3168,57.6016 43.72,57.9568 C44.1232,58.312 44.5696,58.6096 45.0592,58.8496 C45.5488,59.0896 45.9952,59.2768 46.3984,59.4112 C46.8016,59.5456 47.1424,59.6368 47.4208,59.6848 C47.6992,59.7328 47.8384,59.7568 47.8384,59.7568 L47.8384,59.7568 L52.0144,59.7568 Z" id="+" fill="#FFFFFF" fill-rule="nonzero"></path>
    </g>
</svg>