<?xml version="1.0" encoding="UTF-8"?>
<svg width="100px" height="100px" viewBox="0 0 100 100" version="1.1" xmlns="http://www.w3.org/2000/svg" xmlns:xlink="http://www.w3.org/1999/xlink">
    <!-- Generator: Sketch 61.1 (89650) - https://sketch.com -->
    <title>ím</title>
    <desc>Created with Sketch.</desc>
    <g id="ím" stroke="none" stroke-width="1" fill="none" fill-rule="evenodd">
        <path d="M54.6992,30.6592 L35,30.6592 L35,32.0992 L50.696,32.0992 L50.696,70 L54.6992,70 C55.1408,69.1168 55.6016,68.2912 56.0816,67.5232 C56.4848,66.8512 56.9264,66.1984 57.4064,65.5648 C57.8864,64.9312 58.3664,64.4608 58.8464,64.1536 C59.192,63.9232 59.5712,63.7264 59.984,63.5632 C60.3968,63.4 60.8336,63.2944 61.2944,63.2464 C61.7552,63.1984 62.2496,63.2224 62.7776,63.3184 C63.3056,63.4144 63.8576,63.6064 64.4336,63.8944 C64.4336,63.5104 64.3808,63.0976 64.2752,62.656 C64.1696,62.2144 64.0064,61.8064 63.7856,61.432 C63.5648,61.0576 63.2864,60.7504 62.9504,60.5104 C62.6144,60.2704 62.2064,60.1504 61.7264,60.1504 C60.8048,60.1504 59.9936,60.304 59.2928,60.6112 C58.592,60.9184 57.9776,61.312 57.4496,61.792 C56.9216,62.272 56.4848,62.7952 56.1392,63.3616 C55.7936,63.928 55.5104,64.4704 55.2896,64.9888 C55.0688,65.5072 54.9152,65.9728 54.8288,66.3856 C54.7424,66.7984 54.6992,67.072 54.6992,67.2064 L54.699,67.198 L54.6992,30.6592 Z M61.5536,69.1072 C61.88,69.1072 62.192,69.04 62.4896,68.9056 C62.7872,68.7712 63.0464,68.5888 63.2672,68.3584 C63.488,68.128 63.6656,67.864 63.8,67.5664 C63.9344,67.2688 64.0016,66.9472 64.0016,66.6016 C64.0016,65.9488 63.7568,65.392 63.2672,64.9312 C62.7776,64.4704 62.2064,64.24 61.5536,64.24 C61.208,64.24 60.8816,64.3072 60.5744,64.4416 C60.2672,64.576 60.0032,64.7536 59.7824,64.9744 C59.5616,65.1952 59.384,65.4496 59.2496,65.7376 C59.1152,66.0256 59.048,66.3328 59.048,66.6592 C59.048,66.9856 59.1152,67.2976 59.2496,67.5952 C59.384,67.8928 59.5616,68.152 59.7824,68.3728 C60.0032,68.5936 60.2672,68.7712 60.5744,68.9056 C60.8816,69.04 61.208,69.1072 61.5536,69.1072 Z M61.5536,68.416 C61.0544,68.416 60.6224,68.248 60.2576,67.912 C59.8928,67.576 59.7104,67.1584 59.7104,66.6592 C59.7104,66.1984 59.8928,65.776 60.2576,65.392 C60.6224,65.008 61.0544,64.816 61.5536,64.816 C62.0144,64.816 62.4032,65.008 62.72,65.392 C63.0368,65.776 63.1952,66.1984 63.1952,66.6592 C63.1952,67.1584 63.0368,67.576 62.72,67.912 C62.4032,68.248 62.0144,68.416 61.5536,68.416 Z" id="@" fill="#FFFFFF" fill-rule="nonzero"></path>
    </g>
</svg>