<?xml version="1.0" encoding="UTF-8"?>
<svg width="100px" height="100px" viewBox="0 0 100 100" version="1.1" xmlns="http://www.w3.org/2000/svg" xmlns:xlink="http://www.w3.org/1999/xlink">
    <!-- Generator: Sketch 61.1 (89650) - https://sketch.com -->
    <title>ín</title>
    <desc>Created with Sketch.</desc>
    <g id="ín" stroke="none" stroke-width="1" fill="none" fill-rule="evenodd">
        <path d="M54.6992,70 C55.1024,69.2128 55.5344,68.4832 55.9952,67.8112 C56.3792,67.2352 56.816,66.6592 57.3056,66.0832 C57.7952,65.5072 58.2896,65.0752 58.7888,64.7872 C59.096,64.5568 59.4944,64.3504 59.984,64.168 C60.4736,63.9856 60.9872,63.8464 61.5248,63.7504 C62.0624,63.6544 62.5904,63.6112 63.1088,63.6208 C63.6272,63.6304 64.0688,63.7216 64.4336,63.8944 C64.4336,63.5104 64.3808,63.0976 64.2752,62.656 C64.1696,62.2144 64.0064,61.8064 63.7856,61.432 C63.5648,61.0576 63.2864,60.7504 62.9504,60.5104 C62.6144,60.2704 62.2064,60.1504 61.7264,60.1504 C60.8048,60.1504 59.9936,60.304 59.2928,60.6112 C58.592,60.9184 57.9776,61.312 57.4496,61.792 C56.9216,62.272 56.4848,62.7952 56.1392,63.3616 C55.7936,63.928 55.5104,64.4704 55.2896,64.9888 C55.0688,65.5072 54.9152,65.9728 54.8288,66.3856 C54.7424,66.7984 54.6992,67.072 54.6992,67.2064 L54.6992,67.2064 L54.6992,30.6592 L35,30.6592 L35,32.0992 L50.696,32.0992 L50.696,70 L54.6992,70 Z" id="#" fill="#FFFFFF" fill-rule="nonzero"></path>
    </g>
</svg>